<svg width="121" height="122" viewBox="0 0 121 122" fill="none" xmlns="http://www.w3.org/2000/svg">
<path fill-rule="evenodd" clip-rule="evenodd" d="M31.5931 14.0917L28.4725 25.0381C28.2305 25.8889 27.5448 26.5319 26.6395 26.7594L14.9936 29.692C14.0899 29.921 13.1547 29.6851 12.4915 29.063L0.749517 18.0266C0.558711 17.8473 0.232984 17.9508 0.197169 18.2021C-0.71981 24.6473 1.58931 31.225 6.54748 35.8847C12.611 41.5833 21.7545 43.5262 29.8437 40.8364C31.732 40.2088 33.7861 40.6455 35.202 41.9764L39.3037 45.831C39.3892 45.9114 39.5059 45.9398 39.6223 45.9087C41.9111 45.2991 44.3962 45.513 46.5469 46.5477C46.6747 46.6092 46.8236 46.5871 46.9251 46.4917L52.6981 41.0662C52.8247 40.9472 52.8247 40.7531 52.6981 40.6341L44.6642 33.0838C43.248 31.7528 42.7833 29.8226 43.4511 28.048C46.3132 20.4457 44.2458 11.8525 38.1823 6.15393C33.2242 1.49274 26.2252 -0.6774 19.367 0.185838C19.0996 0.219497 18.9894 0.52562 19.1802 0.704941L30.9237 11.7416C31.5856 12.3634 31.8367 13.2409 31.5931 14.0917ZM39.0666 111.578L13.9525 87.9756C13.5946 87.6407 12.9929 87.6407 12.6351 87.9756L3.13274 96.9059C2.77366 97.2434 2.77366 97.8066 3.13274 98.1444L28.2469 121.747C28.6047 122.084 29.2049 122.084 29.563 121.747L39.0666 112.817C39.426 112.479 39.426 111.916 39.0666 111.578ZM91.2816 77.1672L82.1933 85.7071C82.0667 85.826 82.0667 86.0202 82.1933 86.1391L111.078 113.285C111.688 113.859 112.694 113.854 113.299 113.285L120.538 106.481C121.154 105.905 121.154 104.967 120.538 104.392L91.4208 77.0265L91.2816 77.1672ZM83.127 69.493C84.6164 68.0935 87.0394 68.0921 88.5301 69.493C90.0136 70.8872 90.013 73.1775 88.5301 74.5711L77.8298 84.6288L77.7866 84.5867L76.8171 85.4979C76.4074 85.8829 75.2987 86.1606 74.6105 86.1606C71.2004 86.1606 69.5193 82.2785 71.9083 80.0352L72.4252 79.551C72.4252 79.551 72.4252 79.551 72.4252 79.5495L83.127 69.493ZM75.1471 59.7118C76.0002 58.9087 77.1444 58.4653 78.3649 58.4653C82.4598 58.4653 84.4067 63.1123 81.5842 65.7629L69.6708 76.9607C66.8217 79.6377 61.9059 77.7484 61.9059 73.9337C61.9059 72.7866 62.3764 71.7127 63.2322 70.9081L75.1471 59.7118ZM59.2093 57.8391L65.1878 63.459C65.3144 63.578 65.521 63.578 65.6476 63.459L72.3906 57.1216C74.1653 55.4537 74.1653 52.7386 72.3906 51.0708C70.6144 49.4029 67.727 49.4029 65.9508 51.0708L59.2089 57.4068C59.0827 57.5258 59.0827 57.7199 59.2093 57.8391ZM62.4301 66.045C62.5601 66.1671 62.5573 66.3639 62.4239 66.4828C56.9035 71.4055 50.6687 67.9673 44.3801 61.9931C42.9534 60.6381 40.5307 62.0091 41.1371 63.8278C44.2397 73.147 42.7444 80.4827 36.5645 86.2526C35.3283 87.406 36.2138 89.382 37.9372 89.382C38.433 89.382 38.9307 89.205 39.3099 88.8498C44.9952 83.5422 47.3583 76.9566 46.3703 69.2115C46.3364 68.946 46.6559 68.7705 46.8856 68.9289C54.6809 74.3074 58.2741 71.6213 58.0934 72.8061C57.3534 77.6597 61.4007 81.9407 66.5778 81.8691C66.7671 81.8665 66.9171 82.0127 66.9073 82.1906C66.731 85.365 68.7798 88.3249 72.0065 89.4006C72.2322 89.4757 72.2971 89.7453 72.1279 89.9046C68.0984 93.6915 65.8328 96.2664 60.1025 98.1426L47.7708 102.182C44.6682 103.198 42.0846 104.643 39.786 106.66C39.6578 106.772 39.4581 106.769 39.3343 106.652L19.3151 87.8366C19.2024 87.7307 19.1873 87.5676 19.279 87.4452C22.2556 83.4563 23.6197 78.7231 23.2248 73.6374C22.811 68.3138 24.7274 63.4941 28.7652 59.7008L38.2734 50.7635C40.4498 48.7181 43.9917 48.7181 46.1684 50.7635L62.4301 66.045ZM56.7581 42.4297C58.526 40.7682 61.4279 40.7676 63.1964 42.4297C64.9643 44.0941 64.9649 46.8184 63.1964 48.4819L56.4546 54.8179C56.328 54.9369 56.1215 54.9369 55.9946 54.8179L50.016 49.1992C49.8894 49.0802 49.8894 48.8861 50.016 48.7671L56.7581 42.4297Z" fill="url(#paint0_linear_66_146238)"/>
<defs>
<linearGradient id="paint0_linear_66_146238" x1="12.6789" y1="107.116" x2="75.0238" y2="40.778" gradientUnits="userSpaceOnUse">
<stop stop-color="#9A9CB3"/>
<stop offset="1" stop-color="#9A9CB3"/>
</linearGradient>
</defs>
</svg>
