<svg width="121" height="122" viewBox="0 0 121 122" fill="none" xmlns="http://www.w3.org/2000/svg">
<g clip-path="url(#clip0_66_146263)">
<path d="M107.64 66.5917C107.078 66.3383 106.484 66.1672 105.875 66.0833C105.377 66.0858 104.892 66.2368 104.479 66.5173C104.066 66.7977 103.745 67.195 103.556 67.6592C103.201 71.6819 103.134 75.7251 103.354 79.7575L95.7917 83.57L88.2292 79.7575C88.2292 59.17 88.2292 64.1263 88.2292 63.3638C88.1956 62.9326 88.0534 62.5171 87.8161 62.1568C87.5787 61.7965 87.2542 61.5032 86.873 61.3047C86.4919 61.1062 86.0668 61.009 85.638 61.0224C85.2092 61.0358 84.7909 61.1593 84.4227 61.3813C81.9019 62.9063 83.2127 62.8046 83.2127 58.4583H85.7336C87.286 58.4417 88.7958 57.9438 90.0579 57.0321C91.32 56.1204 92.2731 54.8391 92.788 53.3623C93.3028 51.8855 93.3544 50.2847 92.9357 48.7773C92.517 47.2699 91.6483 45.929 90.4475 44.9367C90.647 44.3826 90.7493 43.7978 90.75 43.2083C90.75 38.7604 91.4054 35.5833 88.2292 33.7533V30.5C88.2265 24.8751 86.1685 19.4484 82.4484 15.2568C78.7282 11.0652 73.6067 8.40248 68.0625 7.7775V2.54167C68.0625 1.86757 67.7969 1.22109 67.3242 0.744437C66.8514 0.267782 66.2102 0 65.5417 0L55.4583 0C54.7898 0 54.1486 0.267782 53.6758 0.744437C53.2031 1.22109 52.9375 1.86757 52.9375 2.54167V7.7775C47.3933 8.40248 42.2718 11.0652 38.5517 15.2568C34.8315 19.4484 32.7735 24.8751 32.7708 30.5V33.7533C32.0089 34.1969 31.3753 34.8338 30.933 35.6007C30.4908 36.3676 30.2553 37.2379 30.25 38.125C30.25 43.5896 30.25 43.7675 30.5777 44.9367C29.377 45.929 28.5083 47.2699 28.0895 48.7773C27.6708 50.2847 27.7224 51.8855 28.2372 53.3623C28.7521 54.8391 29.7053 56.1204 30.9673 57.0321C32.2294 57.9438 33.7392 58.4417 35.2917 58.4583H37.8125C37.8038 63.6798 39.5848 68.7439 42.8542 72.7933V79.5288L18.5029 88.1958C13.0898 90.1215 8.4028 93.6936 5.08864 98.4191C1.77447 103.145 -0.00351467 108.791 5.21616e-06 114.578V119.458C5.21616e-06 120.132 0.265592 120.779 0.73834 121.256C1.21109 121.732 1.85227 122 2.52084 122C3.18941 122 3.83059 121.732 4.30334 121.256C4.77609 120.779 5.04167 120.132 5.04167 119.458V114.578C5.03921 109.846 6.49258 105.229 9.20147 101.364C11.9104 97.4996 15.7414 94.5771 20.1667 92.9996L27.7292 90.3054V97.9304C26.1941 98.824 24.9198 100.11 24.0347 101.658C23.1496 103.207 22.6849 104.963 22.6875 106.75V119.458C22.6875 120.132 22.9531 120.779 23.4258 121.256C23.8986 121.732 24.5398 122 25.2083 122C25.8769 122 26.5181 121.732 26.9908 121.256C27.4636 120.779 27.7292 120.132 27.7292 119.458V106.75C27.7292 105.402 28.2603 104.109 29.2058 103.156C30.1513 102.202 31.4337 101.667 32.7708 101.667H77.3896C78.7572 103.16 80.2975 104.483 81.9775 105.606C86.5654 108.402 85.7083 112.443 85.7083 119.458C85.7083 120.132 85.9739 120.779 86.4467 121.256C86.9194 121.732 87.5606 122 88.2292 122C88.8977 122 89.5389 121.732 90.0117 121.256C90.4844 120.779 90.75 120.132 90.75 119.458C90.75 112.342 91.7079 105.581 84.6748 101.336C82.0252 99.5438 79.8297 97.1495 78.2649 94.3459C76.7 91.5422 75.8094 88.4075 75.6648 85.1937C75.5201 81.9799 76.1254 78.7767 77.4319 75.8417C78.7385 72.9066 80.7098 70.3217 83.1875 68.2946V81.3333C83.1875 83.4175 84.095 83.3667 94.6573 88.6788C95.0092 88.8575 95.3977 88.9506 95.7917 88.9506C96.1857 88.9506 96.5742 88.8575 96.9261 88.6788C107.287 83.4683 108.396 83.4175 108.396 81.3333V72.6917C110.682 74.1407 112.572 76.1444 113.892 78.5196C115.213 80.8949 115.922 83.5659 115.954 86.2886C115.987 89.0112 115.342 91.6987 114.079 94.1054C112.816 96.5121 110.975 98.5612 108.724 100.065C100.228 105.81 100.833 108.3 100.833 119.458C100.833 120.132 101.099 120.779 101.572 121.256C102.044 121.732 102.686 122 103.354 122C104.023 122 104.664 121.732 105.137 121.256C105.609 120.779 105.875 120.132 105.875 119.458C105.875 106.75 105.22 109.292 112.933 103.217C116.311 109.139 115.958 113.613 115.958 119.458C115.958 120.132 116.224 120.779 116.697 121.256C117.169 121.732 117.811 122 118.479 122C119.148 122 119.789 121.732 120.262 121.256C120.734 120.779 121 120.132 121 119.458C121 112.799 121.378 106.953 116.589 99.4808C118.593 96.8633 119.966 93.8122 120.601 90.5681C121.236 87.3239 121.115 83.9755 120.247 80.7866C119.379 77.5978 117.789 74.6557 115.601 72.1924C113.413 69.7291 110.688 67.8118 107.64 66.5917ZM71.3144 90.3054C71.8599 92.5064 72.7084 94.6196 73.8352 96.5833H65.9954L71.3144 90.3054ZM60.5 95.2108L47.8958 80.3929V77.47C51.3228 79.7791 55.3088 81.1032 59.4259 81.3002C63.543 81.4973 67.6355 80.5597 71.264 78.5883C69.6758 85.6288 73.7596 79.605 60.5 95.2108ZM42.8542 48.2917H78.1458V58.4583C78.1458 63.177 76.2867 67.7024 72.9775 71.0389C69.6683 74.3755 65.18 76.25 60.5 76.25C55.82 76.25 51.3318 74.3755 48.0225 71.0389C44.7133 67.7024 42.8542 63.177 42.8542 58.4583V48.2917ZM85.7083 53.375H83.1875V48.2917H85.7083C86.3769 48.2917 87.0181 48.5594 87.4908 49.0361C87.9636 49.5128 88.2292 50.1592 88.2292 50.8333C88.2292 51.5074 87.9636 52.1539 87.4908 52.6306C87.0181 53.1072 86.3769 53.375 85.7083 53.375ZM57.9792 5.08333H63.0208V20.3333H57.9792V5.08333ZM37.8125 30.5C37.8175 26.2253 39.3487 22.0953 42.1261 18.8656C44.9035 15.6359 48.7413 13.5223 52.9375 12.9117V22.875C52.9375 23.5491 53.2031 24.1956 53.6758 24.6722C54.1486 25.1489 54.7898 25.4167 55.4583 25.4167H65.5417C66.2102 25.4167 66.8514 25.1489 67.3242 24.6722C67.7969 24.1956 68.0625 23.5491 68.0625 22.875V12.9117C72.2587 13.5223 76.0965 15.6359 78.8739 18.8656C81.6513 22.0953 83.1825 26.2253 83.1875 30.5V33.0417H78.1458V30.5C78.1458 29.8259 77.8803 29.1794 77.4075 28.7028C76.9348 28.2261 76.2936 27.9583 75.625 27.9583C74.9564 27.9583 74.3153 28.2261 73.8425 28.7028C73.3698 29.1794 73.1042 29.8259 73.1042 30.5V33.0417H47.8958V30.5C47.8958 29.8259 47.6303 29.1794 47.1575 28.7028C46.6848 28.2261 46.0436 27.9583 45.375 27.9583C44.7064 27.9583 44.0653 28.2261 43.5925 28.7028C43.1198 29.1794 42.8542 29.8259 42.8542 30.5V33.0417H37.8125V30.5ZM35.2917 38.125H85.7083V43.2083H35.2917V38.125ZM35.2917 53.375C34.6231 53.375 33.9819 53.1072 33.5092 52.6306C33.0364 52.1539 32.7708 51.5074 32.7708 50.8333C32.7708 50.1592 33.0364 49.5128 33.5092 49.0361C33.9819 48.5594 34.6231 48.2917 35.2917 48.2917H37.8125V53.375H35.2917ZM44.5936 84.3071L55.0298 96.5833H42.8542V84.9171L44.5936 84.3071ZM32.7708 88.5263L37.8125 86.7217V96.5833H32.7708V88.5263Z" fill="#9A9CB3"/>
</g>
<defs>
<clipPath id="clip0_66_146263">
<rect width="121" height="122" fill="white"/>
</clipPath>
</defs>
</svg>
