<svg width="121" height="121" viewBox="0 0 121 121" fill="none" xmlns="http://www.w3.org/2000/svg">
<path d="M91.0947 3.51562C93.2822 1.32813 95.9385 0.234375 99.0635 0.234375C102.032 0.234375 104.688 1.32813 107.032 3.51562L117.579 14.0625C119.767 16.4062 120.86 19.0625 120.86 22.0312C120.86 25.1562 119.767 27.8125 117.579 30L42.3447 105.469C39.376 108.281 35.9385 110.312 32.0322 111.562L3.43848 120C2.81348 120.156 2.18848 120 1.56348 119.531C1.09473 118.906 0.938477 118.281 1.09473 117.656L9.53223 89.0625C10.7822 85.1562 12.8135 81.6406 15.626 78.5156L91.0947 3.51562ZM104.22 6.09375C102.657 4.6875 100.86 3.98438 98.8291 3.98438C96.9541 3.98438 95.1572 4.6875 93.4385 6.09375L77.9697 21.7969L99.2979 43.125L115.001 27.4219C116.407 25.8594 117.11 24.0625 117.11 22.0312C117.11 20.1562 116.407 18.4375 115.001 16.875L104.22 6.09375ZM13.0479 90.2344L5.78223 115.312L30.8604 108.047C34.2979 106.953 37.2666 105.156 39.7666 102.656L96.7197 45.7031L75.3916 24.375L18.4385 81.3281C15.9385 83.8281 14.1416 86.7969 13.0479 90.2344ZM37.6572 7.73438C35.7822 5.85938 33.5947 4.92188 31.0947 4.92188C28.5947 4.92188 26.4072 5.85938 24.5322 7.73438L8.8291 23.4375C6.9541 25.3125 6.0166 27.5 6.0166 30C6.0166 32.5 6.9541 34.6875 8.8291 36.5625L26.876 54.6094L24.0635 57.1875L6.25098 39.375C3.59473 36.5625 2.2666 33.4375 2.2666 30C2.2666 26.5625 3.59473 23.4375 6.25098 20.625L21.7197 5.15625C24.5322 2.5 27.6572 1.17188 31.0947 1.17188C34.5322 1.17188 37.6572 2.5 40.4697 5.15625L58.2822 22.9688L55.7041 25.7812L46.7979 16.875L34.376 29.5312C33.4385 30.1563 32.501 30.1563 31.5635 29.5312C30.9385 28.5938 30.9385 27.6562 31.5635 26.7188L44.2197 14.2969L37.6572 7.73438ZM63.9072 97.0312L66.4854 94.4531L84.5322 112.266C86.4072 114.141 88.5947 115.078 91.0947 115.078C93.5947 115.078 95.7822 114.141 97.6572 112.266L113.36 96.5625C115.235 94.6875 116.173 92.5 116.173 90C116.173 87.5 115.235 85.3125 113.36 83.4375L106.798 76.875L94.376 89.5312C93.4385 90.1562 92.501 90.1562 91.5635 89.5312C90.9385 88.5938 90.9385 87.6562 91.5635 86.7188L104.22 74.2969L95.5479 65.3906L98.126 62.8125L115.938 80.625C118.595 83.4375 119.923 86.5625 119.923 90C119.923 93.4375 118.595 96.5625 115.938 99.375L100.47 114.844C97.6572 117.5 94.5322 118.828 91.0947 118.828C87.6572 118.828 84.5322 117.5 81.7197 114.844L63.9072 97.0312Z" fill="#E2E6FF" fill-opacity="0.65098"/>
</svg>
