<svg width="84" height="120" viewBox="0 0 84 120" fill="none" xmlns="http://www.w3.org/2000/svg">
<path d="M0.191406 22.5C0.191406 10.0781 10.0352 0 22.457 0H61.1289C73.5508 0 83.3945 10.0781 83.3945 22.5C83.3945 30.4688 79.4102 37.2656 73.3164 41.25C79.4102 45.4688 83.3945 52.2656 83.3945 60.2344C83.3945 72.4219 73.5508 82.5 61.1289 82.5H60.6602C54.8008 82.5 49.4102 80.3906 45.4258 76.6406V97.5C45.4258 109.922 35.1133 120 22.6914 120C10.2695 120 0.191406 110.156 0.191406 97.7344C0.191406 89.7656 4.17578 82.9688 10.2695 78.9844C4.17578 74.7656 0.191406 67.9688 0.191406 60.2344C0.191406 52.2656 4.17578 45.4688 10.2695 41.25C4.17578 37.2656 0.191406 30.4688 0.191406 22.5ZM38.1602 45H22.457C14.2539 45 7.45703 51.7969 7.45703 60.2344C7.45703 68.4375 14.0195 75.2344 22.457 75.2344H38.1602V45ZM45.4258 60.2344C45.4258 68.4375 52.2227 75.2344 60.6602 75.2344H61.1289C69.332 75.2344 76.1289 68.4375 76.1289 60.2344C76.1289 51.7969 69.332 45 61.1289 45H60.6602C52.2227 45 45.4258 51.7969 45.4258 60.2344ZM22.457 82.5C14.0195 82.7344 7.45703 89.2969 7.45703 97.7344C7.45703 105.938 14.2539 112.734 22.6914 112.734C31.1289 112.734 38.1602 105.938 38.1602 97.5V82.5H22.457ZM22.457 7.5C14.2539 7.5 7.45703 14.2969 7.45703 22.5C7.45703 30.9375 14.2539 37.7344 22.457 37.7344H38.1602V7.5H22.457ZM45.4258 37.7344H61.1289C69.332 37.7344 76.1289 30.9375 76.1289 22.5C76.1289 14.2969 69.332 7.5 61.1289 7.5H45.4258V37.7344Z" fill="#E2E6FF" fill-opacity="0.65098"/>
</svg>
