<svg width="106" height="106" viewBox="0 0 106 106" fill="none" xmlns="http://www.w3.org/2000/svg">
<path d="M53.2939 30.21C59.7002 30.3662 65.0127 32.5537 69.2314 36.7725C73.4502 40.9912 75.6377 46.3037 75.7939 52.71C75.6377 59.1162 73.4502 64.4287 69.2314 68.6475C65.0127 72.8662 59.7002 75.0537 53.2939 75.21C46.8877 75.0537 41.5752 72.8662 37.3564 68.6475C33.1377 64.4287 30.9502 59.1162 30.7939 52.71C30.9502 46.3037 33.1377 40.9912 37.3564 36.7725C41.5752 32.5537 46.8877 30.3662 53.2939 30.21ZM53.2939 71.46C58.6064 71.3037 63.0596 69.5068 66.6533 66.0693C70.0908 62.4756 71.8877 58.0225 72.0439 52.71C71.8877 47.3975 70.0908 42.9443 66.6533 39.3506C63.0596 35.9131 58.6064 34.1162 53.2939 33.96C47.9814 34.1162 43.5283 35.9131 39.9346 39.3506C36.4971 42.9443 34.7002 47.3975 34.5439 52.71C34.7002 58.0225 36.4971 62.4756 39.9346 66.0693C43.5283 69.5068 47.9814 71.3037 53.2939 71.46ZM53.2939 15.21C63.9189 15.5225 72.7471 19.1943 79.7783 26.2256C86.8096 33.2568 90.4814 42.085 90.7939 52.71C90.4814 63.335 86.8096 72.1631 79.7783 79.1943C72.7471 86.2256 63.9189 89.8975 53.2939 90.21C42.6689 89.8975 33.8408 86.2256 26.8096 79.1943C19.7783 72.1631 16.1064 63.335 15.7939 52.71C16.1064 42.085 19.7783 33.2568 26.8096 26.2256C33.8408 19.1943 42.6689 15.5225 53.2939 15.21ZM53.2939 86.46C62.8252 86.1475 70.7939 82.8662 77.2002 76.6162C83.4502 70.21 86.7314 62.2412 87.0439 52.71C86.7314 43.1787 83.4502 35.21 77.2002 28.8037C70.7939 22.5537 62.8252 19.2725 53.2939 18.96C43.7627 19.2725 35.7939 22.5537 29.3877 28.8037C23.1377 35.21 19.8564 43.1787 19.5439 52.71C19.8564 62.2412 23.1377 70.21 29.3877 76.6162C35.7939 82.8662 43.7627 86.1475 53.2939 86.46ZM90.7939 0.209961C95.0127 0.366211 98.5283 1.85059 101.341 4.66309C104.153 7.47559 105.638 10.9912 105.794 15.21V90.21C105.638 94.4287 104.153 97.9443 101.341 100.757C98.5283 103.569 95.0127 105.054 90.7939 105.21H15.7939C11.5752 105.054 8.05957 103.569 5.24707 100.757C2.43457 97.9443 0.950195 94.4287 0.793945 90.21V15.21C0.950195 10.9912 2.43457 7.47559 5.24707 4.66309C8.05957 1.85059 11.5752 0.366211 15.7939 0.209961H90.7939ZM102.044 90.21V15.21C101.888 12.085 100.794 9.42871 98.7627 7.24121C96.5752 5.20996 93.9189 4.11621 90.7939 3.95996H15.7939C12.6689 4.11621 10.0127 5.20996 7.8252 7.24121C5.79395 9.42871 4.7002 12.085 4.54395 15.21V90.21C4.7002 93.335 5.79395 95.9912 7.8252 98.1787C10.0127 100.21 12.6689 101.304 15.7939 101.46H90.7939C93.9189 101.304 96.5752 100.21 98.7627 98.1787C100.794 95.9912 101.888 93.335 102.044 90.21Z" fill="#E2E6FF" fill-opacity="0.65098"/>
</svg>
