<svg width="121" height="122" viewBox="0 0 121 122" fill="none" xmlns="http://www.w3.org/2000/svg">
<path fill-rule="evenodd" clip-rule="evenodd" d="M21.5879 100.778C23.5845 80.8469 40.4086 65.2852 60.8656 65.2852C81.3224 65.2852 98.1441 80.8469 100.141 100.778H21.5879Z" fill="#9A9CB3"/>
<path fill-rule="evenodd" clip-rule="evenodd" d="M33.5303 100.778V76.283C35.826 74.0791 38.3876 72.1505 41.1618 70.5491V80.9339C41.1618 83.7936 43.4945 86.1262 46.3542 86.1262H75.3747C78.2344 86.1262 80.5671 83.7938 80.5671 80.9339V70.5479C83.3413 72.1493 85.9029 74.0778 88.1986 76.2815V100.778H33.5303Z" fill="#9A9CB3"/>
<path fill-rule="evenodd" clip-rule="evenodd" d="M42.6196 37.3065C42.6196 47.3833 50.7879 55.5513 60.8647 55.5513C70.9415 55.5513 79.1095 47.3833 79.1095 37.3065C79.1095 27.2327 70.9415 19.0645 60.8647 19.0645C50.7879 19.0645 42.6196 27.2324 42.6196 37.3065Z" fill="#EFC7A4"/>
<path fill-rule="evenodd" clip-rule="evenodd" d="M39.3447 28.3968V28.3986H82.3839V28.3968C82.3839 18.7006 75.9679 10.502 67.1484 7.81354V5.35259C67.1484 2.64495 64.94 0.436523 62.2323 0.436523H59.4963C56.7887 0.436523 54.5803 2.64495 54.5803 5.35259V7.81354C45.761 10.5022 39.3447 18.7006 39.3447 28.3968Z" fill="#9A9CB3"/>
<path fill-rule="evenodd" clip-rule="evenodd" d="M70.69 9.25264C69.5633 8.67346 68.3791 8.19043 67.1476 7.81519V16.7278C67.1476 17.706 67.9406 18.499 68.9188 18.499C69.897 18.499 70.69 17.706 70.69 16.7278V9.25264ZM54.5795 7.81494C53.3483 8.19043 52.1638 8.67321 51.0371 9.25264V16.7278C51.0371 17.706 51.8301 18.499 52.8083 18.499C53.7865 18.499 54.5795 17.706 54.5795 16.7278V7.81494Z" fill="#9A9CB3"/>
<path fill-rule="evenodd" clip-rule="evenodd" d="M38.0205 24.7573H83.7082C85.1018 24.7573 86.2384 25.8939 86.2384 27.2876V31.0681C86.2384 32.4618 85.1018 33.5984 83.7082 33.5984H38.0205C36.6268 33.5984 35.4902 32.4618 35.4902 31.0681V27.2876C35.4902 25.8939 36.6268 24.7573 38.0205 24.7573Z" fill="#9A9CB3"/>
<path fill-rule="evenodd" clip-rule="evenodd" d="M22.0946 103.488L14.8712 111.95C14.7219 112.124 14.5241 112.216 14.2938 112.216H1.48605C1.19937 112.216 0.953429 112.363 0.817554 112.615C0.681678 112.868 0.694582 113.154 0.852471 113.393C4.23292 118.513 10.0371 121.891 16.631 121.891C24.3499 121.891 30.9865 117.262 33.9196 110.629C34.0439 110.348 34.3065 110.177 34.6137 110.177H87.11C87.4172 110.177 87.6798 110.348 87.8041 110.629C90.7374 117.262 97.3741 121.891 105.093 121.891C111.687 121.891 117.491 118.513 120.871 113.393C121.029 113.154 121.042 112.868 120.906 112.615C120.77 112.363 120.524 112.216 120.238 112.216H107.43C107.2 112.216 107.002 112.124 106.852 111.95L99.6291 103.489C99.3849 103.202 99.3849 102.789 99.6291 102.503L106.852 94.042C107.002 93.8672 107.2 93.7759 107.43 93.7759H120.238C120.524 93.7759 120.77 93.6288 120.906 93.3763C121.042 93.1238 121.029 92.8376 120.871 92.5985C117.491 87.479 111.687 84.1006 105.093 84.1006C97.3741 84.1006 90.7374 88.7295 87.8043 95.3626C87.6801 95.6437 87.4175 95.8147 87.1103 95.8147C69.6114 95.8147 52.1128 95.8147 34.6139 95.8147C34.3068 95.8147 34.0441 95.6437 33.9199 95.3626C30.9868 88.7295 24.3501 84.1006 16.6313 84.1006C10.0374 84.1006 4.23317 87.479 0.852978 92.5985C0.694836 92.8379 0.682184 93.1238 0.81806 93.3763C0.953936 93.6288 1.19988 93.7759 1.48656 93.7759H14.2943C14.5243 93.7759 14.7222 93.8672 14.8717 94.042L22.0951 102.503C22.3388 102.789 22.3388 103.202 22.0946 103.488Z" fill="#A9B0BB"/>
</svg>
