<svg width="74" height="74" viewBox="0 0 74 74" fill="none" xmlns="http://www.w3.org/2000/svg">
<path fill-rule="evenodd" clip-rule="evenodd" d="M69.6421 69.166C69.3503 69.7323 68.6547 69.9548 68.0884 69.6629C67.5223 69.3711 67.2997 68.6755 67.5915 68.1092L68.89 65.5973C68.7462 65.6641 68.6012 65.7292 68.4554 65.793C67.0851 66.3919 65.6253 66.8564 64.0895 67.1665C61.2925 67.7311 58.5152 67.7245 55.8785 67.2267C53.1343 66.7087 50.5416 65.6619 48.236 64.1762C47.6997 63.8321 47.544 63.1183 47.8883 62.5819C48.2324 62.0456 48.9462 61.8899 49.4826 62.2342C51.5443 63.5627 53.8583 64.498 56.3032 64.9595C58.6628 65.4049 61.1439 65.4117 63.6378 64.9082C64.999 64.6334 66.302 64.2177 67.534 63.6792C67.724 63.5961 67.9125 63.51 68.0991 63.4209L65.5068 63.1859C64.8731 63.1285 64.406 62.5683 64.4634 61.9349C64.5208 61.3012 65.081 60.8341 65.7145 60.8915L71.7673 61.4401C72.1152 61.4485 72.4554 61.6133 72.6754 61.9169C72.9516 62.2982 72.961 62.7915 72.7391 63.1742L69.6421 69.166Z" fill="#837683"/>
<path fill-rule="evenodd" clip-rule="evenodd" d="M14.0012 19.501C13.4375 19.2016 13.2232 18.502 13.5224 17.9382C13.8217 17.3745 14.5214 17.1601 15.085 17.4593L21.0571 20.6312C21.442 20.8188 21.7073 21.214 21.7073 21.6711C21.7073 22.0519 21.5232 22.3897 21.239 22.6004L16.5678 26.5021C16.0788 26.9111 15.3508 26.8465 14.9418 26.3575C14.5328 25.8687 14.5974 25.1407 15.0863 24.7316L17.1145 23.0375C15.0029 23.2978 12.9671 23.7948 11.0347 24.5013C7.96008 25.6253 5.13854 27.2808 2.68136 29.357C2.19501 29.7686 1.46701 29.7079 1.05538 29.2216C0.643759 28.7352 0.704462 28.0072 1.19081 27.5956C3.8512 25.3478 6.91063 23.5538 10.2489 22.3333C12.2253 21.6108 14.297 21.0899 16.4386 20.7955L14.0012 19.501Z" fill="#837683"/>
<path fill-rule="evenodd" clip-rule="evenodd" d="M66.8193 10.5017C67.3455 10.8609 67.4811 11.5788 67.1219 12.1051C66.7628 12.6315 66.0449 12.767 65.5185 12.4078L63.1174 10.7743C63.2514 11.1968 63.3725 11.6244 63.4806 12.0569C63.906 13.7596 64.1317 15.5365 64.1317 17.3607C64.1317 18.8711 63.9745 20.357 63.6752 21.8023C63.3689 23.2813 62.9144 24.7034 62.328 26.0521C62.0736 26.6359 61.394 26.9027 60.8104 26.6483C60.2268 26.3939 59.9598 25.7144 60.2142 25.1307C60.7389 23.9239 61.1447 22.6558 61.4169 21.3417C61.6806 20.0678 61.8192 18.7365 61.8192 17.3607C61.8192 15.7196 61.6185 14.1306 61.2404 12.6169C61.1414 12.2208 61.0307 11.83 60.9084 11.4445L60.3861 13.8863C60.2538 14.51 59.6412 14.9083 59.0175 14.7761C58.3938 14.644 57.9955 14.0312 58.1278 13.4075L59.4151 7.38866C59.4456 7.24557 59.5037 7.10595 59.5913 6.97761C59.9504 6.45137 60.6683 6.3158 61.1947 6.67496L66.8193 10.5017Z" fill="#837683"/>
<path fill-rule="evenodd" clip-rule="evenodd" d="M62.2786 35.6201C63.1866 35.8524 64.0439 36.2118 64.8301 36.6782L68.024 34.3657L70.5796 36.9213L68.2671 40.1152C68.7333 40.9014 69.0926 41.7586 69.325 42.6667L73.2174 43.2898V46.9041L69.3252 47.5272C69.0931 48.4353 68.7335 49.2925 68.2671 50.0787L70.5796 53.2726L68.024 55.8282L64.8301 53.5157C64.0439 53.9819 63.1866 54.3412 62.2786 54.5737L61.6555 58.4662H58.0412L57.4181 54.5739C56.51 54.3417 55.6528 53.9822 54.8666 53.5158L51.6727 55.8283L49.1171 53.2727L51.4296 50.0789C50.9634 49.2926 50.604 48.4354 50.3716 47.5273L46.4791 46.9042V43.2899L50.3716 42.6669C50.6039 41.7588 50.9632 40.9017 51.4295 40.1153L49.117 36.9215L51.6726 34.3659L54.8663 36.6782C55.6527 36.212 56.5099 35.8524 57.418 35.6203L58.041 31.728H61.6553L62.2786 35.6201Z" fill="#8AC9FE"/>
<path fill-rule="evenodd" clip-rule="evenodd" d="M68.1553 47.527C67.9232 48.4351 67.5636 49.2923 67.0972 50.0786L69.4097 53.2724L67.3454 55.3368L68.024 55.8282L70.5796 53.2726L68.2671 50.0787C68.7333 49.2925 69.0929 48.4353 69.3252 47.5272L73.2176 46.9041V43.2898L69.325 42.6667C69.0928 41.7588 68.7333 40.9016 68.2671 40.1152L70.5796 36.9213L68.024 34.3657L67.3454 34.8571L69.4097 36.9215L67.0972 40.1153C67.5635 40.9016 67.9228 41.7588 68.1552 42.6669L72.0476 43.2899V46.9042L68.1553 47.527Z" fill="#60B7FF"/>
<path d="M60.4236 50.4111C63.3552 50.0896 65.4712 47.4525 65.1497 44.5209C64.8283 41.5893 62.1911 39.4734 59.2594 39.7949C56.3278 40.1163 54.2118 42.7535 54.5332 45.6851C54.8547 48.6166 57.4919 50.7325 60.4236 50.4111Z" fill="#ECEFF1"/>
<path fill-rule="evenodd" clip-rule="evenodd" d="M55.6781 45.0971C55.6781 47.8487 57.7592 50.1144 60.4333 50.4056C60.2412 50.4266 60.046 50.4373 59.8483 50.4373C56.899 50.4373 54.5081 48.0464 54.5081 45.0971C54.5081 44.2572 54.7019 43.4628 55.0474 42.7557C55.915 40.98 57.7388 39.7568 59.8483 39.7568C60.046 39.7568 60.2411 39.7675 60.4333 39.7885C58.3253 40.0181 56.5858 41.4747 55.9437 43.4291C55.7713 43.9539 55.6781 44.5147 55.6781 45.0971Z" fill="#D1D1D6"/>
<path fill-rule="evenodd" clip-rule="evenodd" d="M44.7434 7.88378C45.6515 8.11604 46.5087 8.47549 47.295 8.94189L50.4888 6.62939L53.0444 9.185L50.7319 12.3788C51.1982 13.1651 51.5575 14.0223 51.7899 14.9304L55.6822 15.5535V19.1678L51.79 19.7908C51.5579 20.6989 51.1983 21.5561 50.7319 22.3424L53.0444 25.5363L50.4888 28.0919L47.295 25.7794C46.5087 26.2456 45.6515 26.6049 44.7434 26.8373L44.1203 30.7298H40.506L39.883 26.8376C38.9747 26.6053 38.1177 26.2459 37.3314 25.7795L34.1376 28.092L31.582 25.5364L33.8945 22.3425C33.4282 21.5563 33.0689 20.6991 32.8365 19.791L28.944 19.1679V15.5536L32.8365 14.9305C33.0687 14.0225 33.4281 13.1654 33.8943 12.379L31.5818 9.18514L34.1374 6.62954L37.3311 8.94189C38.1174 8.47564 38.9746 8.11604 39.8828 7.88393L40.5059 3.9917H44.1202L44.7434 7.88378Z" fill="#6CF5C2"/>
<path fill-rule="evenodd" clip-rule="evenodd" d="M50.6202 19.7907C50.3881 20.6988 50.0285 21.556 49.5621 22.3423L51.8746 25.5361L49.8102 27.6004L50.4888 28.0919L53.0444 25.5363L50.7319 22.3424C51.1982 21.5561 51.5578 20.6989 51.79 19.7908L55.6824 19.1678V15.5535L51.7899 14.9304C51.5575 14.0225 51.1982 13.1652 50.7319 12.3788L53.0444 9.185L50.4888 6.62939L49.8102 7.1208L51.8746 9.18514L49.5621 12.379C50.0283 13.1652 50.3876 14.0225 50.62 14.9305L54.5124 15.5536V19.1679L50.6202 19.7907Z" fill="#00E499"/>
<path d="M42.9822 22.6796C45.911 22.3198 47.9935 19.6539 47.6336 16.7253C47.2738 13.7967 44.608 11.7142 41.6792 12.0741C38.7505 12.4339 36.668 15.0997 37.0278 18.0283C37.3877 20.957 40.0535 23.0394 42.9822 22.6796Z" fill="#ECEFF1"/>
<path fill-rule="evenodd" clip-rule="evenodd" d="M38.1428 17.3608C38.1428 20.1124 40.2239 22.3781 42.898 22.6693C42.7059 22.6902 42.5107 22.7009 42.3129 22.7009C39.3636 22.7009 36.9727 20.3101 36.9727 17.3608C36.9727 16.5209 37.1665 15.7264 37.5119 15.0194C38.3795 13.2437 40.2034 12.0205 42.3128 12.0205C42.5105 12.0205 42.7056 12.0312 42.8979 12.0522C40.7899 12.2818 39.0503 13.7384 38.4083 15.6928C38.236 16.2176 38.1428 16.7783 38.1428 17.3608Z" fill="#D1D1D6"/>
<path fill-rule="evenodd" clip-rule="evenodd" d="M24.5595 36.0478C25.9094 36.3929 27.1836 36.9274 28.3525 37.6206L33.1002 34.1832L36.8992 37.9822L33.4616 42.7299C34.1548 43.8987 34.6889 45.1729 35.0343 46.5227L40.8203 47.4489V52.8214L35.0346 53.7475C34.6894 55.0974 34.1549 56.3716 33.4618 57.5405L36.8992 62.288L33.1002 66.087L28.3525 62.6495C27.1836 63.3427 25.9094 63.8767 24.5597 64.2221L23.6335 70.0082H18.261L17.3348 64.2224C15.9849 63.8773 14.7107 63.3428 13.5419 62.6496L8.79419 66.087L4.99519 62.288L8.43272 57.5403C7.73955 56.3715 7.20551 55.0973 6.86008 53.7475L1.07391 52.8214V47.4489L6.86008 46.5227C7.20522 45.1729 7.73941 43.8987 8.43258 42.7299L4.99505 37.9823L8.79405 34.1833L13.5415 37.6206C14.7103 36.9274 15.9846 36.3931 17.3345 36.0479L18.2607 30.2622H23.6332L24.5595 36.0478Z" fill="#FFE177"/>
<path fill-rule="evenodd" clip-rule="evenodd" d="M33.2953 53.7473C32.9501 55.0972 32.4156 56.3714 31.7225 57.5401L35.1599 62.2878L32.0913 65.3563L33.1001 66.0866L36.8991 62.2878L33.4618 57.5401C34.1549 56.3714 34.6894 55.0972 35.0346 53.7473L40.8204 52.8211V47.4486L35.0344 46.5225C34.689 45.1727 34.1549 43.8985 33.4618 42.7297L36.8993 37.982L33.1003 34.1831L32.0915 34.9134L35.16 37.982L31.7225 42.7297C32.4156 43.8985 32.9498 45.1727 33.2951 46.5225L39.0811 47.4486V52.8211L33.2953 53.7473Z" fill="#FFD064"/>
<path d="M28.8977 50.5454C29.1388 46.1657 25.7837 42.4197 21.404 42.1785C17.0242 41.9374 13.2782 45.2925 13.0371 49.6722C12.7959 54.052 16.151 57.798 20.5308 58.0391C24.9105 58.2803 28.6565 54.9252 28.8977 50.5454Z" fill="#ECEFF1"/>
<path fill-rule="evenodd" clip-rule="evenodd" d="M14.748 50.1354C14.748 54.2256 17.8415 57.5935 21.8166 58.0265C21.531 58.0575 21.2409 58.0736 20.9471 58.0736C16.563 58.0736 13.0089 54.5196 13.0089 50.1355C13.0089 48.887 13.297 47.7059 13.8106 46.655C15.1004 44.0155 17.8115 42.1973 20.9471 42.1973C21.2409 42.1973 21.531 42.2133 21.8166 42.2444C18.683 42.5858 16.0972 44.7508 15.1429 47.6561C14.8866 48.436 14.748 49.2695 14.748 50.1354Z" fill="#D1D1D6"/>
</svg>
