<svg width="80" height="80" viewBox="0 0 80 80" fill="none" xmlns="http://www.w3.org/2000/svg">
<path d="M75.0039 46.8033L63.0835 39.9999L75.0037 33.1964C76.921 32.1021 77.57 29.692 76.4532 27.8133L68.8023 14.9418C67.6856 13.0631 65.226 12.4271 63.3088 13.5215L51.6183 20.1939V6.93679C51.6183 4.7625 49.8194 3 47.6007 3H32.3993C30.1806 3 28.3817 4.7625 28.3817 6.93679V20.1939L16.6912 13.5215C14.774 12.4271 12.3143 13.0631 11.1977 14.9418L3.54662 27.8133C2.42984 29.692 3.07885 32.1022 4.99613 33.1964L16.9165 39.9999L4.99628 46.8033C3.079 47.8977 2.42999 50.3077 3.54677 52.1865L11.1977 65.0579C12.3144 66.9366 14.774 67.5726 16.6912 66.4783L28.3819 59.8058V73.0629C28.3819 75.2371 30.1806 76.9997 32.3995 76.9997H47.6008C49.8196 76.9997 51.6184 75.2372 51.6184 73.0629V59.8058L63.3089 66.4783C65.2262 67.5726 67.6859 66.9366 68.8025 65.0579L76.4534 52.1865C77.5702 50.3077 76.9212 47.8977 75.0039 46.8033Z" fill="url(#paint0_linear_66_138056)"/>
<path d="M32.3992 74.0972C31.8168 74.0972 31.3432 73.633 31.3432 73.0624V59.8052C31.3432 58.7665 30.7766 57.807 29.8575 57.2894C29.4006 57.032 28.891 56.9033 28.3817 56.9033C27.8665 56.9033 27.3516 57.0347 26.8911 57.2977L15.2005 63.9701C15.0363 64.0639 14.8586 64.1114 14.6727 64.1114C14.2906 64.1114 13.9479 63.919 13.7564 63.5968L6.10556 50.7253C5.9141 50.4031 5.95527 50.0953 5.99702 49.9405C6.03878 49.7857 6.15769 49.4981 6.48656 49.3103L18.4069 42.5069C19.3175 41.987 19.8779 41.0321 19.8779 39.9993C19.8779 38.9665 19.3177 38.0114 18.4069 37.4917L6.48656 30.6882C6.15769 30.5006 6.03878 30.2129 5.99702 30.0581C5.95542 29.9033 5.9141 29.5955 6.10556 29.2732L13.7566 16.4018C13.9481 16.0795 14.2907 15.8873 14.6729 15.8873C14.8589 15.8873 15.0364 15.9347 15.2006 16.0286L26.8913 22.701C27.3518 22.964 27.8668 23.0954 28.3818 23.0954C28.8912 23.0954 29.4006 22.9669 29.8577 22.7093C30.7768 22.1918 31.3433 21.2322 31.3433 20.1935V6.9362C31.3433 6.36553 31.817 5.90137 32.3994 5.90137H47.6006C48.183 5.90137 48.6567 6.36553 48.6567 6.9362V20.1933C48.6567 21.2321 49.2232 22.1916 50.1423 22.7092C50.5993 22.9666 51.1088 23.0953 51.6182 23.0953C52.1333 23.0953 52.6482 22.9638 53.1087 22.7009L64.7994 16.0284C64.9636 15.9347 65.1413 15.8871 65.3271 15.8871C65.7093 15.8871 66.0518 16.0795 66.2434 16.4016L73.8944 29.2731C74.0859 29.5952 74.0447 29.9031 74.0029 30.0579C73.9613 30.2126 73.8423 30.5003 73.5134 30.6881L61.5931 37.4916C60.6824 38.0114 60.1221 38.9663 60.1221 39.9991C60.1221 41.0319 60.6823 41.987 61.5931 42.5067L73.5134 49.3102C73.8423 49.4978 73.9612 49.7855 74.0029 49.9404C74.0447 50.0952 74.086 50.4029 73.8944 50.7252L66.2434 63.5965C66.0519 63.9188 65.7094 64.1112 65.3271 64.1112C65.1411 64.1112 64.9636 64.0637 64.7994 63.9698L53.1087 57.2974C52.6482 57.0345 52.1332 56.903 51.6182 56.903C51.1088 56.903 50.5994 57.0316 50.1423 57.2891C49.2232 57.8067 48.6567 58.7662 48.6567 59.805V73.0621C48.6567 73.6327 48.183 74.0969 47.6006 74.0969H32.3992V74.0972Z" fill="url(#paint1_linear_66_138056)"/>
<path d="M38.2421 32.2006C39.5812 32.2006 40.6668 30.7471 40.6668 28.9541C40.6668 27.1611 39.5812 25.7075 38.2421 25.7075C36.903 25.7075 35.8174 27.1611 35.8174 28.9541C35.8174 30.7471 36.903 32.2006 38.2421 32.2006Z" fill="url(#paint2_linear_66_138056)"/>
<path d="M4.99613 46.8035C3.07885 47.8978 2.42984 50.3079 3.54662 52.1866L11.1975 65.0581C12.3143 66.9368 14.7738 67.5728 16.6911 66.4784L28.3817 59.806V73.0631C28.3817 75.2372 30.1804 76.9999 32.3993 76.9999H47.6007C49.8194 76.9999 51.6183 75.2374 51.6183 73.0631V59.806L63.3088 66.4784C65.226 67.5728 67.6857 66.9368 68.8023 65.0581L76.4532 52.1866C77.57 50.3079 76.921 47.8977 75.0037 46.8035L63.2572 40.0991H16.7426L4.99613 46.8035Z" fill="url(#paint3_linear_66_138056)"/>
<path d="M68.8026 65.0579L76.4535 52.1865C77.5703 50.3077 76.9213 47.8975 75.004 46.8033L63.0838 39.9999L64.3937 39.2522L41.8599 17.1714H39.7041V59.588L36.0625 61.0463L50.7804 75.4682C51.3053 74.803 51.6185 73.9691 51.6185 73.0631V59.806L63.309 66.4784C65.2263 67.5726 67.686 66.9366 68.8026 65.0579Z" fill="url(#paint4_linear_66_138056)"/>
<path d="M39.9221 63.6154C39.3088 63.6154 38.8115 63.1281 38.8115 62.5271V20.3763C38.8115 19.7753 39.3088 19.2881 39.9221 19.2881C40.5354 19.2881 41.0326 19.7753 41.0326 20.3763V62.5271C41.0326 63.1281 40.5354 63.6154 39.9221 63.6154Z" fill="url(#paint5_linear_66_138056)"/>
<path d="M39.9221 19.2881C39.3088 19.2881 38.8115 19.7753 38.8115 20.3763V25.2491H41.0326V20.3763C41.0326 19.7753 40.5354 19.2881 39.9221 19.2881Z" fill="url(#paint6_linear_66_138056)"/>
<path d="M39.9221 24.5601C39.3088 24.5601 38.8115 25.0473 38.8115 25.6483V30.5211H41.0326V25.6483C41.0326 25.0473 40.5354 24.5601 39.9221 24.5601Z" fill="url(#paint7_linear_66_138056)"/>
<path d="M39.9221 44.2451C39.3088 44.2451 38.8115 44.7324 38.8115 45.3333V50.2062H41.0326V45.3333C41.0326 44.7324 40.5354 44.2451 39.9221 44.2451Z" fill="url(#paint8_linear_66_138056)"/>
<path d="M39.9221 58.3926C39.3088 58.3926 38.8115 58.8798 38.8115 59.4808V62.5279C38.8115 63.1289 39.3088 63.6161 39.9221 63.6161C40.5354 63.6161 41.0326 63.1289 41.0326 62.5279V59.4808C41.0326 58.8798 40.5354 58.3926 39.9221 58.3926Z" fill="url(#paint9_linear_66_138056)"/>
<path d="M39.922 21.7553C41.4349 21.7553 42.6614 20.5535 42.6614 19.071C42.6614 17.5885 41.4349 16.3867 39.922 16.3867C38.4091 16.3867 37.1826 17.5885 37.1826 19.071C37.1826 20.5535 38.4091 21.7553 39.922 21.7553Z" fill="url(#paint10_linear_66_138056)"/>
<path d="M43.6884 24.705C43.604 24.6202 43.5017 24.5417 43.3928 24.4704C42.9516 24.1812 42.4259 24.041 41.8951 24.041H38.8175C36.9089 24.041 35.1449 25.125 34.3967 26.8455C33.6266 28.6165 34.0121 30.5672 35.3984 31.9256L38.8115 35.2701V31.1668L37.4922 29.8739C36.7237 29.1209 37.008 28.2517 37.1131 28.0022C37.2183 27.7541 37.6447 26.943 38.7316 26.943C39.2928 26.943 39.8007 27.2359 40.1081 27.696C40.5822 28.4058 41.6623 28.9018 42.9206 28.9018C44.6176 28.9018 45.9932 28.0004 45.9932 26.8886C45.9932 26.1171 45.3304 25.4479 44.358 25.1101C44.1074 25.023 43.8739 24.8911 43.6884 24.705Z" fill="url(#paint11_linear_66_138056)"/>
<path d="M44.2001 56.1454C44.1053 57.7299 43.1887 59.1069 41.7465 59.8295L41.0328 60.1864L38.8117 61.2993L38.055 61.678C37.8388 61.7868 37.6078 61.8376 37.3812 61.8376C36.8437 61.8376 36.324 61.5489 36.0619 61.0468C35.6902 60.333 35.9775 59.4595 36.706 59.0953L38.8117 58.0404L40.3975 57.2453C40.71 57.09 40.9069 56.8782 41.0328 56.6678C41.1957 56.395 41.2356 56.1237 41.2445 55.9757C41.2549 55.8001 41.2416 55.449 41.0328 55.1036V51.4385L42.2026 52.206C43.5486 53.0882 44.2949 54.561 44.2001 56.1454Z" fill="url(#paint12_linear_66_138056)"/>
<path d="M44.2001 56.1454C44.1053 57.7299 43.1887 59.1069 41.7465 59.8295L41.0328 60.1864L38.8117 61.2993L38.055 61.678C37.8388 61.7868 37.6078 61.8376 37.3812 61.8376C36.8437 61.8376 36.324 61.5489 36.0619 61.0468C35.6902 60.333 35.9775 59.4595 36.706 59.0953L38.8117 58.0404L40.3975 57.2453C40.71 57.09 40.9069 56.8782 41.0328 56.6678C41.1957 56.395 41.2356 56.1237 41.2445 55.9757C41.2549 55.8001 41.2416 55.449 41.0328 55.1036V51.4385L42.2026 52.206C43.5486 53.0882 44.2949 54.561 44.2001 56.1454Z" fill="url(#paint13_linear_66_138056)"/>
<path d="M45.2363 39.9084C45.1489 41.3783 44.4234 42.7451 43.2447 43.6577L41.0324 45.3713L39.6998 46.403C39.2763 46.7309 38.9742 47.1575 38.8113 47.6363C38.7091 47.9352 38.6618 48.2544 38.6751 48.5838C38.6855 48.8377 38.7314 49.0829 38.8113 49.3151V53.4736L38.2249 53.0891C36.7027 52.0923 35.7891 50.4918 35.7166 48.6984C35.644 46.905 36.4258 45.2393 37.8622 44.1264L38.8113 43.3908L41.0324 41.6714L41.4071 41.3812C41.9313 40.9749 42.2407 40.3916 42.2807 39.7387C42.3192 39.0857 42.0808 38.472 41.6085 38.0091L41.0324 37.4447V33.3413L43.7022 35.9574C44.7654 36.9978 45.3237 38.4386 45.2363 39.9084Z" fill="url(#paint14_linear_66_138056)"/>
<path d="M41.0322 33.3413V37.4447L41.6082 38.0091C42.0806 38.472 42.319 39.0857 42.2805 39.7387C42.2429 40.3531 41.9639 40.9041 41.4945 41.3057H44.9504C45.1093 40.8591 45.2075 40.3894 45.2361 39.9084C45.3234 38.4386 44.7652 36.9978 43.702 35.9574L41.0322 33.3413Z" fill="url(#paint15_linear_66_138056)"/>
<defs>
<linearGradient id="paint0_linear_66_138056" x1="6.01681" y1="6.69999" x2="70.7268" y2="72.7378" gradientUnits="userSpaceOnUse">
<stop stop-color="#AEFFD1"/>
<stop offset="0.1201" stop-color="#A3F9CB"/>
<stop offset="0.3288" stop-color="#87EAB9"/>
<stop offset="0.6012" stop-color="#59D19D"/>
<stop offset="0.9235" stop-color="#19AF77"/>
<stop offset="1" stop-color="#09A76D"/>
</linearGradient>
<linearGradient id="paint1_linear_66_138056" x1="121.293" y1="119.658" x2="-3.69604" y2="-7.89603" gradientUnits="userSpaceOnUse">
<stop stop-color="#AEFFD1"/>
<stop offset="0.1201" stop-color="#A3F9CB"/>
<stop offset="0.3288" stop-color="#87EAB9"/>
<stop offset="0.6012" stop-color="#59D19D"/>
<stop offset="0.9235" stop-color="#19AF77"/>
<stop offset="1" stop-color="#09A76D"/>
</linearGradient>
<linearGradient id="paint2_linear_66_138056" x1="40.441" y1="30.0314" x2="36.5493" y2="28.0456" gradientUnits="userSpaceOnUse">
<stop stop-color="#02905D" stop-opacity="0"/>
<stop offset="0.3117" stop-color="#028958" stop-opacity="0.312"/>
<stop offset="0.7787" stop-color="#02744A" stop-opacity="0.779"/>
<stop offset="1" stop-color="#026841"/>
</linearGradient>
<linearGradient id="paint3_linear_66_138056" x1="40" y1="64.9568" x2="40" y2="76.2744" gradientUnits="userSpaceOnUse">
<stop stop-color="#02905D" stop-opacity="0"/>
<stop offset="0.3117" stop-color="#028958" stop-opacity="0.312"/>
<stop offset="0.7787" stop-color="#02744A" stop-opacity="0.779"/>
<stop offset="1" stop-color="#026841"/>
</linearGradient>
<linearGradient id="paint4_linear_66_138056" x1="55.8443" y1="46.3199" x2="34.3713" y2="46.3199" gradientUnits="userSpaceOnUse">
<stop stop-color="#02905D" stop-opacity="0"/>
<stop offset="0.3117" stop-color="#028958" stop-opacity="0.312"/>
<stop offset="0.7787" stop-color="#02744A" stop-opacity="0.779"/>
<stop offset="1" stop-color="#026841"/>
</linearGradient>
<linearGradient id="paint5_linear_66_138056" x1="38.6633" y1="41.4517" x2="41.2589" y2="41.4517" gradientUnits="userSpaceOnUse">
<stop stop-color="#EAF9FA"/>
<stop offset="1" stop-color="#B3DAFE"/>
</linearGradient>
<linearGradient id="paint6_linear_66_138056" x1="39.9221" y1="23.4113" x2="39.9221" y2="21.7169" gradientUnits="userSpaceOnUse">
<stop stop-color="#7BACDF" stop-opacity="0"/>
<stop offset="1" stop-color="#7BACDF"/>
</linearGradient>
<linearGradient id="paint7_linear_66_138056" x1="39.9221" y1="29.046" x2="39.9221" y2="26.265" gradientUnits="userSpaceOnUse">
<stop stop-color="#7BACDF" stop-opacity="0"/>
<stop offset="1" stop-color="#7BACDF"/>
</linearGradient>
<linearGradient id="paint8_linear_66_138056" x1="40.2969" y1="48.1609" x2="39.2413" y2="46.533" gradientUnits="userSpaceOnUse">
<stop stop-color="#7BACDF" stop-opacity="0"/>
<stop offset="1" stop-color="#7BACDF"/>
</linearGradient>
<linearGradient id="paint9_linear_66_138056" x1="40.3919" y1="62.7882" x2="39.8218" y2="60.5335" gradientUnits="userSpaceOnUse">
<stop stop-color="#7BACDF" stop-opacity="0"/>
<stop offset="1" stop-color="#7BACDF"/>
</linearGradient>
<linearGradient id="paint10_linear_66_138056" x1="38.5153" y1="17.6926" x2="41.055" y2="20.2844" gradientUnits="userSpaceOnUse">
<stop stop-color="#EAF9FA"/>
<stop offset="1" stop-color="#B3DAFE"/>
</linearGradient>
<linearGradient id="paint11_linear_66_138056" x1="37.3702" y1="24.3373" x2="39.9533" y2="28.3404" gradientUnits="userSpaceOnUse">
<stop stop-color="#EAF9FA"/>
<stop offset="1" stop-color="#B3DAFE"/>
</linearGradient>
<linearGradient id="paint12_linear_66_138056" x1="36.6517" y1="54.1843" x2="43.083" y2="60.7474" gradientUnits="userSpaceOnUse">
<stop stop-color="#EAF9FA"/>
<stop offset="1" stop-color="#B3DAFE"/>
</linearGradient>
<linearGradient id="paint13_linear_66_138056" x1="40.2878" y1="57.9416" x2="37.1144" y2="53.6234" gradientUnits="userSpaceOnUse">
<stop stop-color="#7BACDF" stop-opacity="0"/>
<stop offset="1" stop-color="#7BACDF"/>
</linearGradient>
<linearGradient id="paint14_linear_66_138056" x1="35.1337" y1="38.888" x2="42.474" y2="46.3788" gradientUnits="userSpaceOnUse">
<stop stop-color="#EAF9FA"/>
<stop offset="1" stop-color="#B3DAFE"/>
</linearGradient>
<linearGradient id="paint15_linear_66_138056" x1="42.7483" y1="38.3945" x2="39.2455" y2="35.7632" gradientUnits="userSpaceOnUse">
<stop stop-color="#7BACDF" stop-opacity="0"/>
<stop offset="1" stop-color="#7BACDF"/>
</linearGradient>
</defs>
</svg>
