<svg width="62" height="60" viewBox="0 0 62 60" fill="none" xmlns="http://www.w3.org/2000/svg">
<path d="M14.2267 12.2399C15.8589 12.2399 17.1867 10.9121 17.1867 9.2799C17.1867 7.64771 15.8589 6.3199 14.2267 6.3199C12.5945 6.3199 11.2667 7.64771 11.2667 9.2799C11.2667 10.9121 12.5945 12.2399 14.2267 12.2399ZM14.2267 8.29324C14.7706 8.29324 15.2133 8.736 15.2133 9.2799C15.2133 9.8238 14.7706 10.2666 14.2267 10.2666C13.6828 10.2666 13.24 9.8238 13.24 9.2799C13.24 8.736 13.6828 8.29324 14.2267 8.29324ZM11.2667 21.1199C11.2667 20.575 11.7084 20.1332 12.2533 20.1332C12.7982 20.1332 13.24 20.575 13.24 21.1199C13.24 21.6648 12.7982 22.1066 12.2533 22.1066C11.7084 22.1066 11.2667 21.6648 11.2667 21.1199ZM52.4176 18.449L53.2 19.2314L53.9824 18.449C54.3677 18.0637 54.9923 18.0637 55.3776 18.449C55.7629 18.8343 55.7629 19.4588 55.3776 19.8441L54.5951 20.6266L55.3776 21.409C55.7629 21.7943 55.7629 22.4188 55.3776 22.8041C55.1849 22.9968 54.9323 23.0932 54.68 23.0932C54.4277 23.0932 54.1751 22.9968 53.9824 22.8041L53.2 22.0217L52.4176 22.8041C52.2249 22.9968 51.9723 23.0932 51.72 23.0932C51.4677 23.0932 51.2151 22.9968 51.0224 22.8041C50.6371 22.4188 50.6371 21.7943 51.0224 21.409L51.8049 20.6266L51.0224 19.8441C50.6371 19.4588 50.6371 18.8343 51.0224 18.449C51.4077 18.0637 52.0323 18.0635 52.4176 18.449ZM49.7467 7.30657C49.7467 6.76168 50.1884 6.3199 50.7333 6.3199C51.2782 6.3199 51.72 6.76168 51.72 7.30657C51.72 7.85146 51.2782 8.29324 50.7333 8.29324C50.1884 8.29324 49.7467 7.85146 49.7467 7.30657ZM60.6 37.8932H59.6133V36.1604C59.6133 34.3957 58.1777 32.9599 56.4128 32.9599H48.76V24.5794C48.76 20.5037 45.7877 17.0282 41.8533 16.3198V16.0174C43.0018 15.6104 43.8267 14.5127 43.8267 13.2266V5.65218C43.8267 3.84411 42.3558 2.37324 40.5477 2.37324H32.9733C32.4284 2.37324 31.9867 2.81502 31.9867 3.3599C31.9867 4.96718 32.7708 6.38354 33.9644 7.28486C33.9642 7.29251 33.96 7.29892 33.96 7.30657V13.2266C33.96 14.5129 34.7849 15.6104 35.9333 16.0174V16.3208C32.0049 17.0299 29.0267 20.5193 29.0267 24.5794V26.0532H28.04V22.1066C28.5849 22.1066 29.0267 21.6648 29.0267 21.1199C29.0267 20.575 28.5849 20.1332 28.04 20.1332V4.34657C28.04 2.17048 26.2694 0.399902 24.0933 0.399902C23.5484 0.399902 23.1067 0.841682 23.1067 1.38657V20.1332C22.5618 20.1332 22.12 20.575 22.12 21.1199C22.12 21.6648 22.5618 22.1066 23.1067 22.1066V26.8231C22.5055 27.3653 22.12 28.1418 22.12 29.0132C22.12 29.3608 22.1913 29.6898 22.3018 29.9999H20.2959C18.605 29.9999 17.1146 30.8386 16.1899 32.1126C15.258 30.8383 13.7632 29.9999 12.0669 29.9999H7.32C7.31235 29.9999 7.30594 30.0041 7.29829 30.0043C6.39697 28.8107 4.98061 28.0266 3.37333 28.0266C2.82844 28.0266 2.38666 28.4683 2.38666 29.0132V36.5876C2.38666 37.0521 2.48656 37.4924 2.6612 37.8932H1.4C0.85511 37.8932 0.41333 38.335 0.41333 38.8799V44.7999C0.41333 45.3448 0.85511 45.7866 1.4 45.7866H4.36V57.6266H2.38666C1.84178 57.6266 1.4 58.0683 1.4 58.6132C1.4 59.1581 1.84178 59.5999 2.38666 59.5999H59.6133C60.1582 59.5999 60.6 59.1581 60.6 58.6132C60.6 58.0683 60.1582 57.6266 59.6133 57.6266H56.6533V45.7866H60.6C61.1449 45.7866 61.5867 45.3448 61.5867 44.7999V38.8799C61.5867 38.335 61.1449 37.8932 60.6 37.8932ZM57.64 36.1604V37.8932H36.7382C36.8487 37.5832 36.92 37.2541 36.92 36.9066C36.92 36.1074 36.5986 35.3839 36.0821 34.8508C36.199 34.8989 36.3223 34.9332 36.4536 34.9332H56.4128C57.0894 34.9332 57.64 35.4838 57.64 36.1604ZM36.92 19.5287L38.5811 20.0827C38.6817 20.1165 38.7868 20.1332 38.8914 20.1332C38.7868 20.1332 38.6817 20.15 38.5811 20.1838L36.92 20.7378V19.5287ZM40.8667 19.5287V20.7378L39.2056 20.1838C39.105 20.15 38.9999 20.1332 38.8953 20.1332C38.9999 20.1332 39.105 20.1165 39.2056 20.0827L40.8667 19.5287ZM46.7867 24.5794V32.9599H44.8133V25.0666C44.8133 24.5217 44.3716 24.0799 43.8267 24.0799C43.2818 24.0799 42.84 24.5217 42.84 25.0666V32.9599H39.88V22.4889L41.541 23.0427C41.6432 23.0765 41.7483 23.0932 41.8533 23.0932C42.0576 23.0932 42.2598 23.0296 42.43 22.9068C42.6878 22.7213 42.84 22.4235 42.84 22.1066V18.6633C45.1597 19.6414 46.7867 21.944 46.7867 24.5794ZM41.8533 8.29324V13.2266C41.8533 13.7705 41.4106 14.2132 40.8667 14.2132C40.3218 14.2132 39.88 14.655 39.88 15.1999V17.7776L38.8933 18.1064L37.9111 17.779L37.9067 15.1999C37.9067 14.655 37.4649 14.2132 36.92 14.2132C36.3761 14.2132 35.9333 13.7705 35.9333 13.2266V8.29324H36.92H41.8533ZM30.0133 28.0266C30.5582 28.0266 31 27.5848 31 27.0399V24.5794C31 21.9546 32.6292 19.6451 34.9467 18.6643V22.1066C34.9467 22.4235 35.0989 22.7213 35.3566 22.9068C35.6139 23.0922 35.9439 23.1408 36.2456 23.0427L37.9067 22.4889V32.9599H37.0485C36.5283 32.0852 35.7982 31.3719 34.9467 30.8618V25.0666C34.9467 24.5217 34.5049 24.0799 33.96 24.0799C33.4151 24.0799 32.9733 24.5217 32.9733 25.0666V29.9999H31.8653H28.04V28.0266H30.0133ZM25.08 2.63816C25.6693 2.97979 26.0667 3.61767 26.0667 4.34657V20.1332H25.08V2.63816ZM25.08 22.1066H26.0667V26.0532H25.08V22.1066ZM24.0933 29.0132C24.0933 28.4693 24.5361 28.0266 25.08 28.0266H26.0667V29.9999H25.08C24.5361 29.9999 24.0933 29.5571 24.0933 29.0132ZM17.1867 35.0825C17.1867 33.3679 18.5813 31.9732 20.2959 31.9732H31.8651C33.4447 31.9732 34.8939 32.9088 35.5564 34.357C35.5739 34.3953 35.6013 34.4256 35.6233 34.4606C35.1489 34.1367 34.5764 33.9466 33.96 33.9466H19.16C18.6151 33.9466 18.1733 34.3883 18.1733 34.9332C18.1733 35.4781 18.6151 35.9199 19.16 35.9199H33.96C34.5039 35.9199 34.9467 36.3627 34.9467 36.9066C34.9467 37.4505 34.5039 37.8932 33.96 37.8932H17.1867V35.1197V35.0825ZM8.30666 31.9732H12.0669C13.8017 31.9732 15.2133 33.3849 15.2133 35.1197V37.8932H8.30666V32.9599V31.9732ZM4.36 36.5876V30.1691C5.50848 30.5761 6.33333 31.6738 6.33333 32.9599V37.8932H5.6656C4.94583 37.8932 4.36 37.3074 4.36 36.5876ZM6.33333 45.7866H7.32V57.6266H6.33333V45.7866ZM51.72 45.7866V57.6266H43.8728L44.4108 45.7866H51.72ZM41.8972 57.6266H39.88V45.7866H42.4352L41.8972 57.6266ZM37.9067 57.6266H35.8894L35.3514 45.7866H37.9067V57.6266ZM33.3759 45.7866L33.9139 57.6266H9.29333V45.7866H33.3759ZM54.68 57.6266H53.6933V45.7866H54.68V57.6266ZM59.6133 43.8132H2.38666V39.8666H59.6133V43.8132Z" fill="url(#paint0_linear_66_138094)"/>
<defs>
<linearGradient id="paint0_linear_66_138094" x1="5.9251" y1="63.5471" x2="57.1472" y2="12.325" gradientUnits="userSpaceOnUse">
<stop stop-color="#107EFF"/>
<stop offset="1" stop-color="#93F2FF"/>
</linearGradient>
</defs>
</svg>
