<svg width="74" height="74" viewBox="0 0 74 74" fill="none" xmlns="http://www.w3.org/2000/svg">
<g clip-path="url(#clip0_66_138113)">
<path d="M45.8566 11.8281C40.9161 11.8281 37.2865 15.4385 36.4796 16.313C35.6727 15.4384 32.0431 11.8281 27.1025 11.8281C16.1212 11.8281 10.1698 15.8014 10.1698 26.8707C10.1698 32.2822 13.4595 37.4252 16.0215 40.61C17.8379 42.8679 18.9477 45.6096 19.1974 48.4966C20.0744 58.6367 23.5495 67.5084 25.1508 71.1507C25.6211 72.2205 26.6772 72.9126 27.8458 72.9126C29.4705 72.9126 30.7877 71.5954 30.7877 69.9707V55.1056C30.7877 50.1533 31.8046 46.5799 32.9993 44.1225C34.4123 41.2158 38.5467 41.2158 39.9597 44.1225C41.1544 46.58 42.1713 50.1534 42.1713 55.1056V69.9708C42.1713 71.5956 43.4885 72.9128 45.1132 72.9128C46.2818 72.9128 47.3379 72.2207 47.8082 71.1509C49.4095 67.5084 52.8846 58.6369 53.7616 48.4967C54.0113 45.6097 55.1211 42.8681 56.9375 40.6101C59.4995 37.4252 62.7892 32.2822 62.7892 26.8709C62.7893 15.8014 56.8381 11.8281 45.8566 11.8281Z" fill="#F5F7F8"/>
<path d="M31.2663 17.1659C31.2663 23.8858 25.8185 29.3336 19.0986 29.3336C15.5878 29.3336 12.4243 27.847 10.2043 25.4683C10.696 15.4648 16.5984 11.8281 27.1022 11.8281C28.2286 11.8281 29.2879 12.0154 30.2599 12.3171C30.9074 13.8022 31.2663 15.4418 31.2663 17.1659Z" fill="#D9E7EB"/>
<path d="M62.7892 26.8708C62.7892 32.2828 59.5 37.426 56.9384 40.6109C55.1216 42.8681 54.0122 45.6097 53.762 48.4974C52.8843 58.6367 49.4092 67.508 47.8082 71.1504C47.5723 71.6864 47.1921 72.1266 46.7232 72.4326C46.2544 72.74 45.6968 72.9128 45.1136 72.9128C44.0573 72.9128 43.1309 72.3567 42.6121 71.519C42.8765 71.2603 43.0952 70.95 43.2496 70.5984C44.8506 66.9561 48.3257 58.0847 49.2034 47.944C49.4521 45.0564 50.5628 42.3147 52.3783 40.0575C54.9413 36.8726 58.2306 31.7294 58.2306 26.3188C58.2306 17.6547 54.5854 13.3377 47.7353 11.8711C57.5158 12.3187 62.7892 16.4499 62.7892 26.8708Z" fill="#D9E7EB"/>
<path d="M61.6325 67.4918C66.7756 62.3487 68.6464 55.8809 65.8111 53.0456C62.9758 50.2103 56.508 52.0811 51.3649 57.2242C46.2218 62.3673 44.351 68.8351 47.1863 71.6704C50.0216 74.5057 56.4894 72.6349 61.6325 67.4918Z" fill="#FB4A59"/>
<path d="M65.8245 53.0435C68.6606 55.8797 66.3711 62.7672 61.6464 67.492C56.9203 72.2181 50.033 74.5077 47.1968 71.6715C46.4724 70.9471 46.0821 69.9553 45.9832 68.8032C49.0761 69.9982 54.3982 67.8783 58.2154 64.0611C62.0313 60.2452 64.151 54.9255 62.9588 51.8301C64.111 51.9289 65.1 52.3192 65.8245 53.0435Z" fill="#F82F40"/>
<path d="M19.098 25.4202C25.8181 25.4202 31.2658 19.9724 31.2658 13.2523C31.2658 6.53221 25.8181 1.08447 19.098 1.08447C12.3778 1.08447 6.93011 6.53221 6.93011 13.2523C6.93011 19.9724 12.3778 25.4202 19.098 25.4202Z" fill="#64B9FC"/>
<path d="M31.2661 13.2517C31.2661 19.9717 25.8184 25.4194 19.0984 25.4194C17.9691 25.4194 16.8756 25.2651 15.8378 24.9763C21.9831 24.5975 26.8504 19.4929 26.8504 13.2517C26.8504 7.00908 21.9817 1.90445 15.8334 1.52854C16.8727 1.23834 17.9676 1.08398 19.0984 1.08398C25.8184 1.08398 31.2661 6.53171 31.2661 13.2517Z" fill="#31A7FB"/>
<path d="M24.8496 10.2824H22.0684V7.50118C22.0684 6.94852 21.6203 6.50049 21.0677 6.50049H17.1285C16.5758 6.50049 16.1278 6.94852 16.1278 7.50118V10.2824H13.3466C12.7939 10.2824 12.3459 10.7304 12.3459 11.2831V15.2223C12.3459 15.7749 12.7939 16.223 13.3466 16.223H16.1278V19.0042C16.1278 19.5569 16.5758 20.0049 17.1285 20.0049H21.0677C21.6203 20.0049 22.0684 19.5569 22.0684 19.0042V16.223H24.8496C25.4023 16.223 25.8503 15.7749 25.8503 15.2223V11.2831C25.8503 10.7304 25.4023 10.2824 24.8496 10.2824Z" fill="#27E19D"/>
<path d="M25.8496 11.2827V15.2223C25.8496 15.775 25.4016 16.223 24.8489 16.223H22.0685V19.0034C22.0685 19.5566 21.6196 20.0041 21.0678 20.0041H17.8445C18.3963 20.0041 18.8452 19.5566 18.8452 19.0034V17.2237C18.8452 16.671 19.2932 16.223 19.8459 16.223H21.6255C22.1782 16.223 22.6262 15.775 22.6262 15.2223V11.2827C22.6262 10.73 22.1782 10.282 21.6255 10.282H19.8459C19.2932 10.282 18.8452 9.83399 18.8452 9.28133V7.5002C18.8452 6.94841 18.3963 6.49951 17.8445 6.49951H21.068C21.6206 6.49951 22.0687 6.94754 22.0687 7.5002V10.282H24.849C25.4016 10.282 25.8496 10.73 25.8496 11.2827Z" fill="#26D192"/>
<path d="M30.7877 62.8246C30.1891 62.8246 29.7038 63.3099 29.7038 63.9085V69.9709C29.7038 70.9955 28.8702 71.8289 27.8458 71.8289C27.109 71.8289 26.4407 71.3916 26.1431 70.7147C24.6698 67.3634 21.1488 58.481 20.2773 48.4032C20.009 45.3011 18.8294 42.3713 16.8659 39.9304C14.3056 36.7477 11.2536 31.8983 11.2536 26.8704C11.2536 25.8707 11.305 24.9219 11.4068 24.0341C12.8143 25.0378 14.4109 25.7682 16.1015 26.1593C16.6845 26.2939 17.2668 25.9308 17.4019 25.3475C17.5369 24.7642 17.1734 24.1821 16.5901 24.0471C14.1907 23.4921 12.0135 22.1237 10.4594 20.1945C8.85964 18.2084 8.01403 15.8076 8.01403 13.2516C8.01388 7.14012 12.9861 2.16788 19.0978 2.16788C25.2095 2.16788 30.1817 7.14012 30.1817 13.2518C30.1817 15.7963 29.2978 18.2813 27.6929 20.249C26.1099 22.1897 23.8986 23.5501 21.4663 24.0795C20.8814 24.2068 20.5104 24.7842 20.6377 25.3692C20.7481 25.8765 21.197 26.2228 21.6958 26.2228C21.7721 26.2228 21.8497 26.2147 21.9275 26.1978C24.8369 25.5645 27.481 23.9384 29.3728 21.6191C31.0529 19.5593 32.0724 17.0259 32.3006 14.3862C34.0839 15.4007 35.3044 16.6376 35.6828 17.0476C35.6877 17.0529 35.6933 17.0576 35.6984 17.0628C35.7034 17.0681 35.7079 17.0738 35.7131 17.0791C37.6972 19.0631 39.8176 20.0442 42.3171 20.0442C44.265 20.0442 46.4428 19.4482 48.9651 18.2665C49.5072 18.0126 49.7407 17.3673 49.4868 16.8252C49.2329 16.2832 48.5876 16.0497 48.0454 16.3034C43.5873 18.392 40.683 18.4141 38.0567 16.2806C39.4329 15.0335 42.2974 12.9116 45.8568 12.9116C52.5727 12.9116 56.8242 14.3982 59.2366 17.59C59.4498 17.872 59.7739 18.0204 60.1022 18.0204C60.3298 18.0204 60.5593 17.949 60.7548 17.8011C61.2325 17.4401 61.327 16.7604 60.966 16.2829C58.1489 12.5556 53.2067 10.7438 45.8568 10.7438C41.4814 10.7438 38.1115 13.2635 36.4792 14.7816C35.5783 13.9452 34.1413 12.8016 32.285 11.9396C31.6238 5.24611 25.9622 0 19.0978 0C11.7908 0 5.84601 5.94475 5.84601 13.2518C5.84601 16.2643 6.88485 19.213 8.77105 21.5546C8.9929 21.8299 9.22602 22.0951 9.46824 22.3508C9.21547 23.7193 9.08568 25.2368 9.08568 26.8704C9.08568 32.5296 12.3979 37.8351 15.1767 41.2892C16.8694 43.3935 17.8862 45.9179 18.1173 48.5899C19.0169 58.9902 22.6418 68.1372 24.1585 71.5872C24.8021 73.0511 26.2493 73.9968 27.8458 73.9968C30.0657 73.9968 31.8716 72.1908 31.8716 69.9709V63.9085C31.8716 63.3099 31.3863 62.8246 30.7877 62.8246Z" fill="black"/>
<path d="M66.5917 52.2771C64.9489 50.6343 62.2511 50.2731 58.9952 51.2603C57.4005 51.7438 55.762 52.5332 54.2078 53.545C54.4892 51.863 54.7022 50.2046 54.8416 48.5901C55.073 45.9174 56.09 43.393 57.7831 41.289C60.5611 37.8337 63.8726 32.5272 63.8726 26.8696C63.8726 24.9179 63.6903 23.1348 63.3307 21.5698C63.1966 20.9864 62.6147 20.6222 62.0314 20.7563C61.448 20.8904 61.0837 21.4721 61.2179 22.0556C61.541 23.4615 61.7049 25.0812 61.7049 26.8697C61.7049 29.6442 60.7314 34.1623 56.0939 39.9303C54.1304 42.3703 52.9505 45.3003 52.6818 48.4035C52.4844 50.6929 52.1335 53.0762 51.6416 55.4922C51.2876 55.8032 50.9426 56.1243 50.6105 56.4565C48.1901 58.8768 46.2962 61.9329 45.4145 64.8414C44.5653 67.6423 44.7166 70.0281 45.8205 71.6865C45.5989 71.778 45.36 71.8289 45.1133 71.8289C44.0885 71.8289 43.2547 70.9951 43.2547 69.9703V55.1057C43.2547 50.6697 42.4741 46.8146 40.9344 43.6476C40.0974 41.9269 38.3904 40.858 36.4794 40.858C34.5683 40.858 32.8613 41.9269 32.0242 43.6482C30.4848 46.8187 29.704 50.6734 29.704 55.1057V58.557C29.704 59.1556 30.1894 59.6409 30.788 59.6409C31.3866 59.6409 31.8719 59.1556 31.8719 58.557V55.1057C31.8719 51.0042 32.5792 47.468 33.974 44.5959C34.4521 43.6128 35.3886 43.0259 36.4794 43.0259C37.5701 43.0259 38.5068 43.6128 38.9847 44.5957C40.3795 47.4647 41.0868 51.0008 41.0868 55.1057V69.9703C41.0868 72.1905 42.8931 73.9967 45.1133 73.9967C45.9734 73.9967 46.7946 73.724 47.4737 73.2308C48.3671 73.7409 49.4473 73.9999 50.6726 73.9999C51.698 73.9999 52.8249 73.8193 54.0277 73.4546C56.9362 72.5727 59.9923 70.6789 62.4125 68.2585C64.8329 65.8381 66.7267 62.782 67.6085 59.8736C68.5957 56.6176 68.2346 53.9199 66.5917 52.2771ZM53.3988 71.38C50.9803 72.1133 48.9994 71.9401 47.9642 70.9049C45.8501 68.7906 47.5282 63.1027 51.399 58.7777L60.0916 67.4703C58.0652 69.2867 55.6743 70.69 53.3988 71.38ZM61.6241 65.9371L52.9315 57.2445C54.9581 55.4283 57.3488 54.025 59.6243 53.335C60.6126 53.0354 61.5276 52.8871 62.335 52.8871C63.5035 52.8871 64.4467 53.1978 65.0589 53.8101C67.173 55.9242 65.4949 61.6121 61.6241 65.9371Z" fill="black"/>
<path d="M17.1283 21.0883H21.0675C22.2169 21.0883 23.1521 20.1531 23.1521 19.0037V17.3064H24.8494C25.9989 17.3064 26.9339 16.3712 26.9339 15.2218V11.2824C26.9339 10.133 25.9989 9.19795 24.8494 9.19795H23.1521V7.50064C23.1521 6.35124 22.2169 5.41602 21.0675 5.41602H17.1283C15.9789 5.41602 15.0437 6.35124 15.0437 7.50064V9.19795H13.3464C12.197 9.19795 11.2618 10.133 11.2618 11.2824V15.2216C11.2618 16.371 12.197 17.3062 13.3464 17.3062H15.0437V19.0035C15.0439 20.1531 15.9789 21.0883 17.1283 21.0883ZM13.4298 15.1385V11.3658H16.1278C16.7264 11.3658 17.2117 10.8805 17.2117 10.2819V7.58389H20.9844V10.2819C20.9844 10.8805 21.4697 11.3658 22.0684 11.3658H24.7662V15.1385H22.0684C21.4697 15.1385 20.9844 15.6238 20.9844 16.2224V18.9204H17.2117V16.2224C17.2117 15.6238 16.7264 15.1385 16.1278 15.1385H13.4298Z" fill="black"/>
</g>
<defs>
<clipPath id="clip0_66_138113">
<rect width="74" height="74" fill="white"/>
</clipPath>
</defs>
</svg>
