<svg width="74" height="74" viewBox="0 0 74 74" fill="none" xmlns="http://www.w3.org/2000/svg">
<g clip-path="url(#clip0_66_138151)">
<path d="M16.7622 28.0273V62.2445C16.7622 68.7372 26.0197 74.0002 37.4395 74.0002C48.8592 74.0002 58.1167 68.7372 58.1167 62.2445V28.0273H16.7622Z" fill="#FF9FB3"/>
<path d="M37.4395 39.7828C48.8592 39.7828 58.1167 34.5196 58.1167 28.0271C58.1167 21.5347 48.8592 16.2715 37.4395 16.2715C26.0197 16.2715 16.7622 21.5347 16.7622 28.0271C16.7622 34.5196 26.0197 39.7828 37.4395 39.7828Z" fill="#FF8293"/>
<path d="M25.2386 21.0908V28.0274C25.2386 31.8585 30.7012 34.9639 37.439 34.9639C44.1768 34.9639 49.6394 31.8585 49.6394 28.0274V21.0908H25.2386Z" fill="#A4A4F7"/>
<path d="M37.4395 28.0269C44.1778 28.0269 49.6404 24.9213 49.6404 21.0904C49.6404 17.2594 44.1778 14.1538 37.4395 14.1538C30.7011 14.1538 25.2386 17.2594 25.2386 21.0904C25.2386 24.9213 30.7011 28.0269 37.4395 28.0269Z" fill="#C5C5FF"/>
<path d="M40.883 9.00684V22.2992C40.883 22.2992 37.4395 25.2854 33.6669 22.2992V9.00684H40.883Z" fill="#EEECFF"/>
<path d="M46.3652 8.74742C44.9363 19.0853 22.4396 23.8474 22.4396 23.8474C17.8449 22.0548 15.8833 20.0372 15.8833 20.0372V16.4506C23.0377 0.618745 34.9702 -1.93617 41.6047 1.13228C44.8422 2.62823 46.8198 5.46383 46.3652 8.74742Z" fill="#A4A4F7"/>
<path d="M42.8343 5.7206C38.4645 16.9833 23.0696 19.8524 23.0696 19.8524C23.0696 19.8524 18.4653 18.6865 15.8833 16.4506C23.0377 0.618745 34.9702 -1.93617 41.6047 1.13228C42.139 1.75688 42.5267 2.49314 42.7395 3.28708C42.9523 4.08102 42.9847 4.91251 42.8343 5.7206Z" fill="#C5C5FF"/>
<path d="M49.4444 52.7351C49.1867 52.1204 48.6954 51.6331 48.0785 51.3806C47.4616 51.1281 46.7696 51.131 46.1549 51.3886C44.1992 52.2031 42.1324 52.7192 40.0234 52.9196V46.2405C40.026 45.9088 39.963 45.5798 39.8379 45.2725C39.7127 44.9653 39.528 44.6858 39.2944 44.4503C39.0607 44.2148 38.7828 44.0278 38.4765 43.9003C38.1703 43.7727 37.8418 43.707 37.51 43.707C37.1783 43.707 36.8498 43.7727 36.5436 43.9003C36.2373 44.0278 35.9593 44.2148 35.7257 44.4503C35.492 44.6858 35.3073 44.9653 35.1822 45.2725C35.0571 45.5798 34.994 45.9088 34.9967 46.2405V52.8758C31.4064 52.4753 28.9706 51.4344 28.9121 51.4085C28.303 51.1376 27.6112 51.1196 26.9889 51.3587C26.3666 51.5978 25.8648 52.0743 25.5938 52.6834C25.3228 53.2924 25.3049 53.9842 25.544 54.6065C25.783 55.2288 26.2595 55.7307 26.8686 56.0016C27.1034 56.1064 30.3211 57.5103 34.9967 57.9453V62.6379C34.994 62.9696 35.0571 63.2986 35.1822 63.6059C35.3073 63.9131 35.492 64.1926 35.7257 64.4281C35.9593 64.6636 36.2373 64.8505 36.5436 64.9781C36.8498 65.1057 37.1783 65.1713 37.51 65.1713C37.8418 65.1713 38.1703 65.1057 38.4765 64.9781C38.7828 64.8505 39.0607 64.6636 39.2944 64.4281C39.528 64.1926 39.7127 63.9131 39.8379 63.6059C39.963 63.2986 40.026 62.9696 40.0234 62.6379V57.9784C42.8012 57.7579 45.5264 57.0985 48.0977 56.0246C48.7125 55.767 49.1997 55.2757 49.4523 54.6588C49.7048 54.0419 49.702 53.3499 49.4444 52.7351Z" fill="#EEECFF"/>
</g>
<defs>
<clipPath id="clip0_66_138151">
<rect width="74" height="74" fill="white"/>
</clipPath>
</defs>
</svg>
