<svg width="74" height="74" viewBox="0 0 74 74" fill="none" xmlns="http://www.w3.org/2000/svg">
<g clip-path="url(#clip0_66_138178)">
<path d="M65.7873 3.66936L59.2661 1.29673C58.0655 0.859946 56.7382 1.47908 56.3014 2.67961C55.8647 3.88014 56.4838 5.20745 57.6843 5.64423L64.2056 8.01686C65.4061 8.45365 66.7334 7.83451 67.1702 6.63398C67.607 5.43346 66.9878 4.10615 65.7873 3.66936Z" fill="#F8F8FF"/>
<path d="M67.1504 6.63344L60.6314 4.26081C60.3461 4.15684 60.043 4.1101 59.7395 4.12327C59.4361 4.13644 59.1382 4.20926 58.8629 4.33757C58.5876 4.46587 58.3403 4.64716 58.135 4.87107C57.9298 5.09498 57.7707 5.35712 57.6668 5.64253L64.1869 8.01516C64.7631 8.22479 65.399 8.197 65.9547 7.93789C66.5105 7.67878 66.9405 7.20958 67.1504 6.63344Z" fill="#E7E7F4"/>
<path d="M64.1869 8.0152L57.6668 5.64258L39.0847 43.1756L54.2963 48.7117L64.1869 8.0152Z" fill="#E7E7F4"/>
<path d="M64.1869 8.01534L59.8406 6.43359L41.2573 43.9666L54.2963 48.7119L64.1869 8.01534Z" fill="#DCDCEF"/>
<path d="M23.125 28.9062C26.3179 28.9062 28.9062 26.3179 28.9062 23.125C28.9062 19.9321 26.3179 17.3438 23.125 17.3438C19.9321 17.3438 17.3438 19.9321 17.3438 23.125C17.3438 26.3179 19.9321 28.9062 23.125 28.9062Z" fill="#E7E7F4"/>
<path d="M23.9922 18.2109C23.9922 17.732 23.6039 17.3438 23.125 17.3438C22.6461 17.3438 22.2578 17.732 22.2578 18.2109V28.0391C22.2578 28.518 22.6461 28.9062 23.125 28.9062C23.6039 28.9062 23.9922 28.518 23.9922 28.0391V18.2109Z" fill="#DCDCEF"/>
<path d="M20.394 7.08077L25.2989 11.9856C26.6533 13.34 28.8492 13.34 30.2037 11.9856C31.5581 10.6312 31.5581 8.4352 30.2037 7.08077L25.2989 2.17596C23.9444 0.821531 21.7485 0.821532 20.394 2.17596C19.0396 3.53038 19.0396 5.72634 20.394 7.08077Z" fill="#56D8BA"/>
<path d="M20.3888 2.17418C21.0393 1.52366 21.9216 1.1582 22.8415 1.1582C23.7615 1.1582 24.6438 1.52366 25.2943 2.17418L27.7471 4.62695L22.8415 9.53251L20.3888 7.07973C19.7382 6.42921 19.3728 5.54692 19.3728 4.62695C19.3728 3.70698 19.7382 2.82469 20.3888 2.17418Z" fill="#F5738C"/>
<path d="M13.716 18.4995C16.4248 15.7907 17.5228 12.4967 16.1684 11.1423C14.8139 9.78787 11.52 10.8858 8.81115 13.5947C6.1023 16.3036 5.00432 19.5975 6.35875 20.9519C7.71317 22.3063 11.0071 21.2084 13.716 18.4995Z" fill="#8090E6"/>
<path d="M10.0385 13.5958C9.69979 13.2571 9.15072 13.2571 8.81206 13.5958C8.4734 13.9344 8.4734 14.4835 8.81206 14.8222L12.4912 18.5013C12.8299 18.84 13.379 18.84 13.7176 18.5013C14.0563 18.1627 14.0563 17.6136 13.7176 17.275L10.0385 13.5958Z" fill="#7181D7"/>
<path d="M58.5062 68.2188H15.4937C14.0886 68.2188 12.7316 67.7071 11.6763 66.7793C10.621 65.8515 9.93976 64.5711 9.75991 63.1775L5.78125 32.375H68.2188L64.2447 63.1775C64.0648 64.5719 63.3829 65.8529 62.3266 66.7808C61.2704 67.7087 59.9122 68.2199 58.5062 68.2188Z" fill="#E7E7F4"/>
<path d="M58.5062 68.2188H18.9625C17.5574 68.2188 16.2003 67.7071 15.145 66.7793C14.0898 65.8515 13.4085 64.5711 13.2287 63.1775L9.25 32.375H68.2188L64.2447 63.1775C64.0648 64.5719 63.3829 65.8529 62.3266 66.7808C61.2704 67.7087 59.9122 68.2199 58.5062 68.2188Z" fill="#DCDCEF"/>
<path d="M68.2188 25.4375H5.78125C4.50409 25.4375 3.46875 26.4728 3.46875 27.75V30.0625C3.46875 31.3397 4.50409 32.375 5.78125 32.375H68.2188C69.4959 32.375 70.5312 31.3397 70.5312 30.0625V27.75C70.5312 26.4728 69.4959 25.4375 68.2188 25.4375Z" fill="#F8F8FF"/>
<path d="M6.9375 27.75H68.2188C68.8321 27.75 69.4203 27.9936 69.8539 28.4273C70.2876 28.861 70.5312 29.4492 70.5312 30.0625C70.5312 30.6758 70.2876 31.264 69.8539 31.6977C69.4203 32.1314 68.8321 32.375 68.2188 32.375H8.09375C7.48044 32.375 6.89224 32.1314 6.45857 31.6977C6.02489 31.264 5.78125 30.6758 5.78125 30.0625V28.9062C5.78125 28.5996 5.90307 28.3055 6.11991 28.0887C6.33675 27.8718 6.63084 27.75 6.9375 27.75Z" fill="#E7E7F4"/>
<path d="M15.0312 68.2188H58.9688V70.5312C58.9688 71.1446 58.7251 71.7328 58.2914 72.1664C57.8578 72.6001 57.2696 72.8438 56.6562 72.8438H17.3438C16.7304 72.8438 16.1422 72.6001 15.7086 72.1664C15.2749 71.7328 15.0312 71.1446 15.0312 70.5312V68.2188Z" fill="#8F9FF5"/>
<path d="M18.5 68.2188H58.9688V70.5312C58.9688 71.1446 58.7251 71.7328 58.2914 72.1664C57.8578 72.6001 57.2696 72.8438 56.6562 72.8438H20.8125C20.1992 72.8438 19.611 72.6001 19.1773 72.1664C18.7436 71.7328 18.5 71.1446 18.5 70.5312V68.2188Z" fill="#8090E6"/>
<path d="M37 59.5469C42.7472 59.5469 47.4062 54.8878 47.4062 49.1406C47.4062 43.3934 42.7472 38.7344 37 38.7344C31.2528 38.7344 26.5938 43.3934 26.5938 49.1406C26.5938 54.8878 31.2528 59.5469 37 59.5469Z" fill="#F55D74"/>
<path d="M39.3125 41.0469C37.3938 41.0444 35.5119 41.5732 33.8752 42.5745C32.2385 43.5758 30.9109 45.0106 30.0395 46.72C29.1681 48.4295 28.7869 50.3467 28.9381 52.2594C29.0893 54.1722 29.767 56.0057 30.8962 57.557C32.8982 59.0149 35.3551 59.71 37.8243 59.517C40.2934 59.324 42.6125 58.2557 44.3638 56.5044C46.115 54.7531 47.1834 52.434 47.3763 49.9649C47.5693 47.4958 46.8743 45.0389 45.4163 43.0368C43.6442 41.743 41.5066 41.0462 39.3125 41.0469Z" fill="#F5738C"/>
<path d="M42.7812 47.4062H38.7344V43.3594H35.2656V47.4062H31.2188V50.875H35.2656V54.9219H38.7344V50.875H42.7812V47.4062Z" fill="#F8F8FF"/>
<path d="M37 60.4141C34.7703 60.4141 32.5907 59.7529 30.7368 58.5142C28.8829 57.2754 27.438 55.5147 26.5847 53.4548C25.7314 51.3948 25.5082 49.1281 25.9432 46.9413C26.3782 44.7545 27.4519 42.7457 29.0285 41.1691C30.6051 39.5925 32.6138 38.5188 34.8007 38.0838C36.9875 37.6488 39.2542 37.8721 41.3142 38.7253C43.3741 39.5786 45.1348 41.0235 46.3735 42.8774C47.6123 44.7314 48.2734 46.911 48.2734 49.1406C48.2701 52.1295 47.0813 54.995 44.9678 57.1084C42.8544 59.2219 39.9889 60.4107 37 60.4141ZM37 39.6016C35.1134 39.6016 33.2691 40.161 31.7004 41.2092C30.1317 42.2574 28.9091 43.7472 28.1871 45.4902C27.4651 47.2332 27.2762 49.1512 27.6442 51.0016C28.0123 52.852 28.9208 54.5517 30.2549 55.8858C31.5889 57.2198 33.2886 58.1283 35.139 58.4964C36.9894 58.8645 38.9074 58.6756 40.6504 57.9536C42.3935 57.2316 43.8833 56.0089 44.9314 54.4402C45.9796 52.8716 46.5391 51.0273 46.5391 49.1406C46.5363 46.6116 45.5304 44.1869 43.7421 42.3985C41.9538 40.6102 39.5291 39.6043 37 39.6016Z" fill="#F8F8FF"/>
</g>
<defs>
<clipPath id="clip0_66_138178">
<rect width="74" height="74" fill="white"/>
</clipPath>
</defs>
</svg>
