<svg width="142" height="36" viewBox="0 0 142 36" fill="none" xmlns="http://www.w3.org/2000/svg">
<path d="M30.7699 1.8999H4.76992C3.05992 1.8999 1.66992 3.2899 1.66992 4.9999V30.9999C1.66992 32.7099 3.05992 34.0999 4.76992 34.0999H30.7699C32.4799 34.0999 33.8699 32.7099 33.8699 30.9999V4.9999C33.8699 3.2899 32.4799 1.8999 30.7699 1.8999ZM19.8999 4.9899C24.0799 4.9899 27.7699 8.1499 27.9899 12.3299C28.0899 14.2299 27.4999 15.9999 26.4499 17.3999C25.2399 16.1199 23.6599 15.2499 21.9499 14.8999C22.6799 14.3199 23.1099 13.3799 22.9599 12.3499C22.7699 10.9599 21.4699 9.9999 20.0699 9.9999H12.5499C11.1599 9.9999 9.90992 9.4399 8.99992 8.5299C8.08992 7.6299 7.52992 6.3699 7.52992 4.9899H19.8999ZM27.9699 23.9699C27.6099 28.0199 23.9999 31.0099 19.9299 31.0099H13.3399C13.3399 28.2399 15.5899 25.9999 18.3499 25.9999H20.2499C21.9199 25.9999 23.2499 24.4899 22.9499 22.7499C22.7099 21.4199 21.4399 20.5099 20.0899 20.5099H12.5499V31.0099C11.1599 31.0099 9.90992 30.4499 8.99992 29.5399C8.08992 28.6399 7.52992 27.3799 7.52992 25.9999V7.8699C8.52992 9.5999 10.4099 10.7699 12.5499 10.7699V15.4899H20.2499C22.4999 15.4899 24.5299 16.4599 25.9499 17.9999C27.3699 19.5399 28.1799 21.6699 27.9699 23.9699ZM15.1199 23.9699V22.5299H19.6999C20.0999 22.5299 20.4199 22.8599 20.4199 23.2499C20.4199 23.6499 20.0999 23.9699 19.6999 23.9699H15.1199Z" fill="#FF014F"/>
<path d="M50.0601 28.3498H41.6001V9.02979H49.1201C50.4301 9.02979 51.5601 9.18978 52.5101 9.49978C53.4601 9.80978 54.1701 10.2398 54.6501 10.7698C55.5201 11.7698 55.9501 12.8898 55.9501 14.1398C55.9501 15.6498 55.4601 16.7798 54.4801 17.5098C54.1501 17.7698 53.9201 17.9298 53.7901 17.9898C53.6601 18.0498 53.4301 18.1598 53.1001 18.3098C54.3001 18.5698 55.2501 19.1098 55.9601 19.9298C56.6701 20.7498 57.0201 21.7698 57.0201 22.9898C57.0201 24.3398 56.5601 25.5198 55.6401 26.5598C54.5801 27.7498 52.7201 28.3498 50.0601 28.3498ZM45.9201 16.8498H47.9701C49.1701 16.8498 50.0601 16.7198 50.6401 16.4598C51.2201 16.1998 51.5101 15.6398 51.5101 14.7898C51.5101 13.9298 51.2401 13.3698 50.7101 13.0898C50.1801 12.8098 49.2701 12.6798 48.0001 12.6798H45.9301V16.8498H45.9201ZM45.9201 24.6998H48.8801C50.1101 24.6998 51.0401 24.5498 51.6601 24.2398C52.2801 23.9398 52.5901 23.3398 52.5901 22.4398C52.5901 21.5498 52.2601 20.9598 51.6101 20.6698C50.9601 20.3798 49.9101 20.2398 48.4701 20.2398H45.9301V24.6998H45.9201Z" fill="#D6DBF1"/>
<path d="M60.23 13.48V28.36H64.38V13.48H60.23Z" fill="#D6DBF1"/>
<path d="M64.7401 9.84992C64.7401 10.5399 64.5001 11.1099 64.0301 11.5799C63.5601 12.0499 62.9801 12.2899 62.3001 12.2899C61.6201 12.2899 61.0401 12.0599 60.5701 11.5799C60.1001 11.1099 59.8601 10.5399 59.8601 9.84992C59.8601 9.16992 60.1001 8.59992 60.5701 8.11992C61.0401 7.64992 61.6201 7.41992 62.3001 7.41992C62.9801 7.41992 63.5601 7.64992 64.0301 8.11992C64.5101 8.59992 64.7401 9.17992 64.7401 9.84992Z" fill="#FF014F"/>
<path d="M83.1802 20.92C83.1802 23.08 82.4302 24.89 80.9402 26.37C79.4502 27.85 77.5702 28.58 75.3102 28.58C73.0502 28.58 71.1802 27.84 69.6802 26.37C68.1902 24.9 67.4402 23.08 67.4402 20.92C67.4402 18.76 68.1902 16.94 69.6802 15.46C71.1702 13.98 73.0502 13.23 75.3102 13.23C77.5702 13.23 79.4402 13.97 80.9402 15.46C82.4402 16.94 83.1802 18.76 83.1802 20.92ZM71.6302 20.92C71.6302 22.14 71.9802 23.13 72.6702 23.89C73.3602 24.66 74.2502 25.04 75.3202 25.04C76.4002 25.04 77.2802 24.66 77.9702 23.89C78.6602 23.13 79.0102 22.13 79.0102 20.92C79.0102 19.7 78.6602 18.71 77.9702 17.93C77.2802 17.16 76.3902 16.77 75.3202 16.77C74.2402 16.77 73.3602 17.16 72.6702 17.93C71.9702 18.7 71.6302 19.7 71.6302 20.92Z" fill="#D6DBF1"/>
<path d="M98.6702 9.02979H102.98V28.3598H98.6702V20.7598H90.9802V28.3598H86.6702V9.02979H90.9802V17.0998H98.6702V9.02979Z" fill="#FF014F"/>
<path d="M116.91 21.5V13.48H121.08V28.35H116.91V26.39C115.88 27.85 114.55 28.57 112.91 28.57C111.27 28.57 109.91 28.06 108.8 27.04C107.69 26.02 107.14 24.5 107.14 22.49V13.48H111.31V21.58C111.31 23.87 112.15 25.01 113.83 25.01C114.66 25.01 115.38 24.71 115.99 24.11C116.61 23.51 116.91 22.64 116.91 21.5Z" fill="#FF014F"/>
<path d="M133.59 13.2298C135.4 13.2298 136.97 13.9398 138.32 15.3398C139.67 16.7498 140.34 18.5598 140.34 20.7698C140.34 22.9798 139.65 24.8298 138.27 26.3298C136.89 27.8198 135.32 28.5698 133.56 28.5698C131.8 28.5698 130.34 27.8398 129.18 26.3898V28.3498H125.03V7.83984H129.18V15.1398C130.3 13.8698 131.78 13.2298 133.59 13.2298ZM129.11 20.9298C129.11 22.1398 129.45 23.1198 130.12 23.8898C130.79 24.6598 131.61 25.0398 132.57 25.0398C133.53 25.0398 134.37 24.6598 135.09 23.8898C135.81 23.1298 136.17 22.1398 136.17 20.9498C136.17 19.7498 135.82 18.7498 135.12 17.9398C134.42 17.1298 133.58 16.7198 132.6 16.7198C131.62 16.7198 130.8 17.1198 130.13 17.9198C129.44 18.7198 129.11 19.7198 129.11 20.9298Z" fill="#FF014F"/>
</svg>
