<svg width="141" height="34" viewBox="0 0 141 34" fill="none" xmlns="http://www.w3.org/2000/svg">
<path d="M29.7699 0.899902H3.76992C2.05992 0.899902 0.669922 2.2899 0.669922 3.9999V29.9999C0.669922 31.7099 2.05992 33.0999 3.76992 33.0999H29.7699C31.4799 33.0999 32.8699 31.7099 32.8699 29.9999V3.9999C32.8699 2.2899 31.4799 0.899902 29.7699 0.899902ZM18.8999 3.9899C23.0799 3.9899 26.7699 7.1499 26.9899 11.3299C27.0899 13.2299 26.4999 14.9999 25.4499 16.3999C24.2399 15.1199 22.6599 14.2499 20.9499 13.8999C21.6799 13.3199 22.1099 12.3799 21.9599 11.3499C21.7699 9.9599 20.4699 8.9999 19.0699 8.9999H11.5499C10.1599 8.9999 8.90992 8.4399 7.99992 7.5299C7.08992 6.6299 6.52992 5.3699 6.52992 3.9899H18.8999ZM26.9699 22.9699C26.6099 27.0199 22.9999 30.0099 18.9299 30.0099H12.3399C12.3399 27.2399 14.5899 24.9999 17.3499 24.9999H19.2499C20.9199 24.9999 22.2499 23.4899 21.9499 21.7499C21.7099 20.4199 20.4399 19.5099 19.0899 19.5099H11.5499V30.0099C10.1599 30.0099 8.90992 29.4499 7.99992 28.5399C7.08992 27.6399 6.52992 26.3799 6.52992 24.9999V6.8699C7.52992 8.5999 9.40992 9.7699 11.5499 9.7699V14.4899H19.2499C21.4999 14.4899 23.5299 15.4599 24.9499 16.9999C26.3699 18.5399 27.1799 20.6699 26.9699 22.9699ZM14.1199 22.9699V21.5299H18.6999C19.0999 21.5299 19.4199 21.8599 19.4199 22.2499C19.4199 22.6499 19.0999 22.9699 18.6999 22.9699H14.1199Z" fill="#93F2FF"/>
<path d="M49.0601 27.3498H40.6001V8.02979H48.1201C49.4301 8.02979 50.5601 8.18978 51.5101 8.49978C52.4601 8.80978 53.1701 9.23978 53.6501 9.76978C54.5201 10.7698 54.9501 11.8898 54.9501 13.1398C54.9501 14.6498 54.4601 15.7798 53.4801 16.5098C53.1501 16.7698 52.9201 16.9298 52.7901 16.9898C52.6601 17.0498 52.4301 17.1598 52.1001 17.3098C53.3001 17.5698 54.2501 18.1098 54.9601 18.9298C55.6701 19.7498 56.0201 20.7698 56.0201 21.9898C56.0201 23.3398 55.5601 24.5198 54.6401 25.5598C53.5801 26.7498 51.7201 27.3498 49.0601 27.3498ZM44.9201 15.8498H46.9701C48.1701 15.8498 49.0601 15.7198 49.6401 15.4598C50.2201 15.1998 50.5101 14.6398 50.5101 13.7898C50.5101 12.9298 50.2401 12.3698 49.7101 12.0898C49.1801 11.8098 48.2701 11.6798 47.0001 11.6798H44.9301V15.8498H44.9201ZM44.9201 23.6998H47.8801C49.1101 23.6998 50.0401 23.5498 50.6601 23.2398C51.2801 22.9398 51.5901 22.3398 51.5901 21.4398C51.5901 20.5498 51.2601 19.9598 50.6101 19.6698C49.9601 19.3798 48.9101 19.2398 47.4701 19.2398H44.9301V23.6998H44.9201Z" fill="#D6DBF1"/>
<path d="M59.23 12.48V27.36H63.38V12.48H59.23Z" fill="#D6DBF1"/>
<path d="M63.7401 8.84992C63.7401 9.53992 63.5001 10.1099 63.0301 10.5799C62.5601 11.0499 61.9801 11.2899 61.3001 11.2899C60.6201 11.2899 60.0401 11.0599 59.5701 10.5799C59.1001 10.1099 58.8601 9.53992 58.8601 8.84992C58.8601 8.16992 59.1001 7.59992 59.5701 7.11992C60.0401 6.64992 60.6201 6.41992 61.3001 6.41992C61.9801 6.41992 62.5601 6.64992 63.0301 7.11992C63.5101 7.59992 63.7401 8.17992 63.7401 8.84992Z" fill="#94F1FF"/>
<path d="M82.1802 19.92C82.1802 22.08 81.4302 23.89 79.9402 25.37C78.4502 26.85 76.5702 27.58 74.3102 27.58C72.0502 27.58 70.1802 26.84 68.6802 25.37C67.1902 23.9 66.4402 22.08 66.4402 19.92C66.4402 17.76 67.1902 15.94 68.6802 14.46C70.1702 12.98 72.0502 12.23 74.3102 12.23C76.5702 12.23 78.4402 12.97 79.9402 14.46C81.4402 15.94 82.1802 17.76 82.1802 19.92ZM70.6302 19.92C70.6302 21.14 70.9802 22.13 71.6702 22.89C72.3602 23.66 73.2502 24.04 74.3202 24.04C75.4002 24.04 76.2802 23.66 76.9702 22.89C77.6602 22.13 78.0102 21.13 78.0102 19.92C78.0102 18.7 77.6602 17.71 76.9702 16.93C76.2802 16.16 75.3902 15.77 74.3202 15.77C73.2402 15.77 72.3602 16.16 71.6702 16.93C70.9702 17.7 70.6302 18.7 70.6302 19.92Z" fill="#D6DBF1"/>
<path d="M97.6702 8.02979H101.98V27.3598H97.6702V19.7598H89.9802V27.3598H85.6702V8.02979H89.9802V16.0998H97.6702V8.02979Z" fill="#94F1FF"/>
<path d="M115.91 20.5V12.48H120.08V27.35H115.91V25.39C114.88 26.85 113.55 27.57 111.91 27.57C110.27 27.57 108.91 27.06 107.8 26.04C106.69 25.02 106.14 23.5 106.14 21.49V12.48H110.31V20.58C110.31 22.87 111.15 24.01 112.83 24.01C113.66 24.01 114.38 23.71 114.99 23.11C115.61 22.51 115.91 21.64 115.91 20.5Z" fill="#94F1FF"/>
<path d="M132.59 12.2298C134.4 12.2298 135.97 12.9398 137.32 14.3398C138.67 15.7498 139.34 17.5598 139.34 19.7698C139.34 21.9798 138.65 23.8298 137.27 25.3298C135.89 26.8198 134.32 27.5698 132.56 27.5698C130.8 27.5698 129.34 26.8398 128.18 25.3898V27.3498H124.03V6.83984H128.18V14.1398C129.3 12.8698 130.78 12.2298 132.59 12.2298ZM128.11 19.9298C128.11 21.1398 128.45 22.1198 129.12 22.8898C129.79 23.6598 130.61 24.0398 131.57 24.0398C132.53 24.0398 133.37 23.6598 134.09 22.8898C134.81 22.1298 135.17 21.1398 135.17 19.9498C135.17 18.7498 134.82 17.7498 134.12 16.9398C133.42 16.1298 132.58 15.7198 131.6 15.7198C130.62 15.7198 129.8 16.1198 129.13 16.9198C128.44 17.7198 128.11 18.7198 128.11 19.9298Z" fill="#94F1FF"/>
</svg>
