<svg width="1820" height="1216" viewBox="0 0 1820 1216" fill="none" xmlns="http://www.w3.org/2000/svg">
<g clip-path="url(#clip0_66_141916)">
<rect width="1820" height="1216" fill="white" fill-opacity="0.05"/>
<g filter="url(#filter0_f_66_141916)">
<path d="M807 1014.1C547.244 896.35 256.512 1101.33 0 1136.63L0 1165L1836 1136.63C1759.19 1102.19 1694.04 1052.83 1576.57 1039.28C1415.89 1020.73 1376.46 1054.9 1214.39 1068.45C1099.08 1078.09 940.573 1074.65 807 1014.1Z" fill="url(#paint0_linear_66_141916)" fill-opacity="0.3"/>
<path d="M807 1014.1C547.244 896.35 256.512 1101.33 0 1136.63L0 1165L1836 1136.63C1759.19 1102.19 1694.04 1052.83 1576.57 1039.28C1415.89 1020.73 1376.46 1054.9 1214.39 1068.45C1099.08 1078.09 940.573 1074.65 807 1014.1Z" stroke="black" stroke-opacity="0.5"/>
</g>
</g>
<defs>
<filter id="filter0_f_66_141916" x="-200" y="778" width="2236" height="587" filterUnits="userSpaceOnUse" color-interpolation-filters="sRGB">
<feFlood flood-opacity="0" result="BackgroundImageFix"/>
<feBlend mode="normal" in="SourceGraphic" in2="BackgroundImageFix" result="shape"/>
<feGaussianBlur stdDeviation="100" result="effect1_foregroundBlur_66_141916"/>
</filter>
<linearGradient id="paint0_linear_66_141916" x1="758.793" y1="1058.45" x2="760.043" y2="1137.92" gradientUnits="userSpaceOnUse">
<stop stop-color="#215ADA"/>
<stop offset="1" stop-color="#93F2FF"/>
</linearGradient>
<clipPath id="clip0_66_141916">
<rect width="1820" height="1216" fill="white"/>
</clipPath>
</defs>
</svg>
