<svg width="158" height="130" viewBox="0 0 158 130" fill="none" xmlns="http://www.w3.org/2000/svg">
<path fill-rule="evenodd" clip-rule="evenodd" d="M150.894 69.4964L152.342 72.5308C144.418 76.4516 129.039 79.0742 115.824 82.8265C119.008 81.4495 122.244 80.1811 125.437 78.9573C131.048 76.8193 136.711 74.8136 142.355 72.7444C145.145 71.724 148.056 70.6591 150.894 69.4964ZM69.1622 105.134C57.9412 113.063 46.238 123.389 38.2216 127.088L36.7735 124.054C39.4505 122.58 42.1068 120.983 44.6536 119.451C49.8089 116.357 54.9263 113.21 60.1252 110.179C63.0726 108.469 66.0911 106.747 69.1622 105.134Z" fill="#005670"/>
<path fill-rule="evenodd" clip-rule="evenodd" d="M119.596 11.9182C122.444 10.883 125.174 9.84369 127.718 8.76088C136.675 27.5325 145.628 46.2939 154.585 65.0655C144.423 70.0937 121.012 76.7129 105.964 84.7308C116.921 76.0552 132.82 67.9689 141.521 63.6633L143.759 62.5569L142.743 60.4279L119.596 11.9182ZM76.8334 98.6588C61.1462 105.337 41.2896 119.406 30.9967 124.158C22.0394 105.387 13.0871 86.6251 4.12984 67.8535C6.57025 66.5539 9.09382 65.0811 11.6878 63.5132L34.8355 112.024L35.8511 114.152L38.1171 113.105C46.9411 109.031 63.2063 101.738 76.8334 98.6588Z" fill="#48A9C5"/>
<path fill-rule="evenodd" clip-rule="evenodd" d="M53.5745 38.7262C40.0126 40.0914 25.0894 46.6821 10.2593 54.6209C19.2168 73.3934 28.1695 92.1559 37.127 110.928C51.6511 104.226 79.1042 92.1762 93.1331 95.3316C99.4978 82.4249 126.115 68.6206 140.46 61.5189C131.503 42.7463 122.55 23.9839 113.593 5.21132C98.4366 11.6356 84.2414 18.9191 74.6543 28.32C81.1394 37.5639 90.6948 48.3045 95.7748 52.8585C90.3222 63.4895 88.1709 76.6937 90.9121 87.994L89.8956 88.4676L82.0277 71.2797C83.6274 70.2851 84.3017 68.3164 83.5472 66.6561C82.718 64.8374 80.495 64.0974 78.5832 64.975C76.6714 65.8527 75.7941 68.0395 76.6185 69.848C77.383 71.5036 79.313 72.2751 81.1048 71.7086L88.9686 88.886L87.9628 89.3545C81.2001 79.9042 69.812 72.945 58.2194 70.1731C58.0842 63.4737 56.2567 49.6068 53.5745 38.7262Z" fill="#74D2E7"/>
</svg>
