<svg width="121" height="121" viewBox="0 0 121 121" fill="none" xmlns="http://www.w3.org/2000/svg">
<path d="M91.0938 3.51562C93.2812 1.32813 95.9375 0.234375 99.0625 0.234375C102.031 0.234375 104.688 1.32813 107.031 3.51562L117.578 14.0625C119.766 16.4062 120.859 19.0625 120.859 22.0312C120.859 25.1562 119.766 27.8125 117.578 30L42.3438 105.469C39.375 108.281 35.9375 110.312 32.0312 111.562L3.4375 120C2.8125 120.156 2.1875 120 1.5625 119.531C1.09375 118.906 0.9375 118.281 1.09375 117.656L9.53125 89.0625C10.7812 85.1562 12.8125 81.6406 15.625 78.5156L91.0938 3.51562ZM104.219 6.09375C102.656 4.6875 100.859 3.98438 98.8281 3.98438C96.9531 3.98438 95.1562 4.6875 93.4375 6.09375L77.9688 21.7969L99.2969 43.125L115 27.4219C116.406 25.8594 117.109 24.0625 117.109 22.0312C117.109 20.1562 116.406 18.4375 115 16.875L104.219 6.09375ZM13.0469 90.2344L5.78125 115.312L30.8594 108.047C34.2969 106.953 37.2656 105.156 39.7656 102.656L96.7188 45.7031L75.3906 24.375L18.4375 81.3281C15.9375 83.8281 14.1406 86.7969 13.0469 90.2344ZM37.6562 7.73438C35.7812 5.85938 33.5938 4.92188 31.0938 4.92188C28.5938 4.92188 26.4062 5.85938 24.5312 7.73438L8.82812 23.4375C6.95312 25.3125 6.01562 27.5 6.01562 30C6.01562 32.5 6.95312 34.6875 8.82812 36.5625L26.875 54.6094L24.0625 57.1875L6.25 39.375C3.59375 36.5625 2.26562 33.4375 2.26562 30C2.26562 26.5625 3.59375 23.4375 6.25 20.625L21.7188 5.15625C24.5312 2.5 27.6562 1.17188 31.0938 1.17188C34.5312 1.17188 37.6562 2.5 40.4688 5.15625L58.2812 22.9688L55.7031 25.7812L46.7969 16.875L34.375 29.5312C33.4375 30.1563 32.5 30.1563 31.5625 29.5312C30.9375 28.5938 30.9375 27.6562 31.5625 26.7188L44.2188 14.2969L37.6562 7.73438ZM63.9062 97.0312L66.4844 94.4531L84.5312 112.266C86.4062 114.141 88.5938 115.078 91.0938 115.078C93.5938 115.078 95.7812 114.141 97.6562 112.266L113.359 96.5625C115.234 94.6875 116.172 92.5 116.172 90C116.172 87.5 115.234 85.3125 113.359 83.4375L106.797 76.875L94.375 89.5312C93.4375 90.1562 92.5 90.1562 91.5625 89.5312C90.9375 88.5938 90.9375 87.6562 91.5625 86.7188L104.219 74.2969L95.5469 65.3906L98.125 62.8125L115.938 80.625C118.594 83.4375 119.922 86.5625 119.922 90C119.922 93.4375 118.594 96.5625 115.938 99.375L100.469 114.844C97.6562 117.5 94.5312 118.828 91.0938 118.828C87.6562 118.828 84.5312 117.5 81.7188 114.844L63.9062 97.0312Z" fill="#E2E6FF" fill-opacity="0.65098"/>
</svg>
