<svg width="84" height="120" viewBox="0 0 84 120" fill="none" xmlns="http://www.w3.org/2000/svg">
<path d="M0.191406 22.5C0.347656 16.0938 2.53516 10.7812 6.75391 6.5625C10.9727 2.34375 16.2852 0.15625 22.6914 0H61.1289C67.5352 0.15625 72.8477 2.34375 77.0664 6.5625C81.2852 10.7812 83.4727 16.0938 83.6289 22.5C83.3164 30.625 79.957 36.875 73.5508 41.25C79.957 45.625 83.3164 51.875 83.6289 60C83.4727 66.4062 81.2852 71.7188 77.0664 75.9375C72.8477 80.1562 67.5352 82.3438 61.1289 82.5H60.6602C54.7227 82.3438 49.7227 80.3906 45.6602 76.6406V97.2656C45.5039 103.672 43.2383 109.062 38.8633 113.438C34.4883 117.656 29.0977 119.844 22.6914 120C16.4414 119.844 11.1289 117.656 6.75391 113.438C2.53516 109.219 0.347656 103.906 0.191406 97.5C0.503906 89.375 3.86328 83.125 10.2695 78.75C3.86328 74.375 0.503906 68.125 0.191406 60C0.503906 51.875 3.86328 45.625 10.2695 41.25C3.86328 36.875 0.503906 30.625 0.191406 22.5ZM38.1602 45H22.6914C18.3164 45 14.7227 46.4062 11.9102 49.2188C9.09766 52.1875 7.61328 55.7812 7.45703 60C7.61328 64.2188 9.09766 67.7344 11.9102 70.5469C14.7227 73.5156 18.2383 75 22.457 75C22.6133 75 22.6914 75 22.6914 75H38.1602V45ZM45.6602 60C45.6602 64.2188 47.1445 67.8125 50.1133 70.7812C52.9258 73.5938 56.4414 75 60.6602 75H61.1289C65.5039 75 69.0977 73.5938 71.9102 70.7812C74.7227 67.8125 76.207 64.2188 76.3633 60C76.207 55.7812 74.7227 52.1875 71.9102 49.2188C69.0977 46.4062 65.5039 45 61.1289 45H60.6602C56.4414 45 52.9258 46.4062 50.1133 49.2188C47.1445 52.1875 45.6602 55.7812 45.6602 60ZM22.6914 82.5C22.5352 82.5 22.457 82.5 22.457 82.5C18.2383 82.6562 14.7227 84.1406 11.9102 86.9531C9.09766 89.7656 7.61328 93.2812 7.45703 97.5C7.61328 101.719 9.09766 105.312 11.9102 108.281C14.8789 111.094 18.4727 112.578 22.6914 112.734C27.0664 112.578 30.7383 111.016 33.707 108.047C36.6758 105.234 38.1602 101.641 38.1602 97.2656V82.5H22.6914ZM22.6914 7.26562C18.3164 7.42188 14.7227 8.90625 11.9102 11.7188C9.09766 14.5312 7.61328 18.125 7.45703 22.5C7.61328 26.7188 9.09766 30.2344 11.9102 33.0469C14.7227 36.0156 18.3164 37.5 22.6914 37.5H38.1602V7.26562H22.6914ZM45.6602 37.5H61.1289C65.5039 37.5 69.0977 36.0156 71.9102 33.0469C74.7227 30.2344 76.207 26.7188 76.3633 22.5C76.207 18.125 74.7227 14.5312 71.9102 11.7188C69.0977 8.90625 65.5039 7.42188 61.1289 7.26562H45.6602V37.5Z" fill="#E2E6FF" fill-opacity="0.65098"/>
</svg>
