<svg width="121" height="110" viewBox="0 0 121 110" fill="none" xmlns="http://www.w3.org/2000/svg">
<path d="M98.8789 36.7188C111.535 40.9375 120.91 47.9688 120.91 55C120.91 62.5 111.066 69.7656 97.4727 74.2188C96.7695 74.4531 96.0664 74.6875 95.3633 74.9219C95.5977 75.8594 95.832 77.0312 96.0664 77.9688C98.6445 91.5625 96.5352 102.578 90.207 106.328C84.1133 109.844 74.2695 106.328 64.1914 97.6562C63.0195 96.7188 62.082 95.7812 60.9102 94.8438C60.207 95.5469 59.2695 96.25 58.5664 96.9531C48.2539 106.094 37.4727 109.844 31.1445 106.094C25.0508 102.578 23.1758 92.2656 25.5195 79.375C25.9883 77.9688 26.2227 76.5625 26.457 75.1562C25.5195 74.9219 24.3477 74.4531 23.4102 74.2188C10.2852 69.7656 0.910156 62.2656 0.910156 55C0.910156 47.9688 9.81641 41.1719 22.2383 36.7188C23.6445 36.25 25.0508 35.7812 26.6914 35.3125C26.2227 34.1406 25.9883 32.7344 25.7539 31.5625C23.1758 18.2031 25.0508 7.65625 31.1445 4.14062C37.4727 0.390625 48.2539 4.375 59.0352 13.75C59.5039 14.4531 60.207 14.9219 60.9102 15.625C61.8477 14.6875 62.7852 13.75 63.7227 13.0469C74.0352 4.14062 84.1133 0.390625 90.207 3.90625C96.5352 7.65625 98.4102 18.9062 95.5977 32.7344C95.3633 33.6719 95.1289 34.6094 95.1289 35.5469C96.3008 35.7812 97.4727 36.25 98.8789 36.7188ZM67.0039 16.7969C66.0664 17.5 65.3633 18.4375 64.4258 19.1406C67.9414 23.125 71.2227 27.3438 74.2695 31.7969C79.6602 32.2656 84.8164 32.9688 90.207 34.1406C90.4414 33.4375 90.4414 32.7344 90.6758 31.7969C93.2539 19.8438 91.6133 10.4688 87.6289 8.35938C83.8789 6.25 75.9102 9.0625 67.0039 16.7969ZM40.0508 67.1875C38.8789 65.0781 37.707 63.2031 36.5352 61.0938C35.1289 64.6094 33.957 68.125 32.7852 71.4062C36.3008 72.3438 40.0508 72.8125 43.8008 73.2812C42.3945 71.1719 41.2227 69.2969 40.0508 67.1875ZM32.7852 39.0625C33.957 42.3438 35.1289 45.625 36.5352 49.1406C37.707 47.0312 38.8789 45.1562 40.0508 43.0469C41.2227 41.1719 42.3945 39.0625 43.5664 37.1875C39.8164 37.6562 36.3008 38.125 32.7852 39.0625ZM39.3477 55.2344C40.9883 58.2812 42.6289 61.5625 44.2695 64.6094C46.1445 67.6562 48.0195 70.7031 50.1289 73.75C53.6445 73.9844 57.1602 74.2188 60.9102 74.2188C64.4258 74.2188 68.1758 73.9844 71.6914 73.75C73.5664 70.7031 75.4414 67.6562 77.3164 64.6094C79.1914 61.5625 80.832 58.2812 82.2383 55C80.832 51.7188 78.957 48.6719 77.3164 45.625C75.4414 42.5781 73.5664 39.5312 71.457 36.4844C68.1758 36.25 64.4258 36.0156 60.9102 36.0156C57.1602 36.0156 53.6445 36.25 50.1289 36.4844C48.0195 39.5312 46.1445 42.5781 44.2695 45.625C42.6289 48.6719 40.7539 51.9531 39.3477 55.2344ZM81.5352 67.1875C80.3633 69.0625 79.1914 71.1719 78.0195 73.0469C81.7695 72.8125 85.2852 72.1094 89.0352 71.1719C87.8633 67.6562 86.457 64.375 85.0508 60.8594C83.8789 62.9688 82.9414 65.0781 81.5352 67.1875ZM85.0508 49.1406C86.457 45.8594 87.6289 42.5781 88.8008 39.0625C85.5195 38.3594 81.7695 37.6562 78.0195 37.1875C79.1914 39.0625 80.3633 41.1719 81.5352 43.0469C82.707 45.1562 83.8789 47.0312 85.0508 49.1406ZM60.9102 22.8906C58.5664 25.4688 56.2227 28.2812 53.8789 31.3281C58.5664 31.0938 63.2539 31.0938 67.707 31.3281C65.5977 28.2812 63.2539 25.4688 60.9102 22.8906ZM33.7227 8.35938C29.9727 10.7031 28.5664 19.1406 30.6758 30.3906C30.9102 31.7969 31.1445 32.9688 31.6133 34.1406C36.7695 32.9688 41.9258 32.2656 47.3164 31.7969C50.3633 27.3438 53.6445 23.125 57.3945 19.1406C56.6914 18.6719 56.2227 18.2031 55.5195 17.5C46.3789 9.53125 37.707 6.25 33.7227 8.35938ZM27.8633 70.2344C29.5039 65.0781 31.3789 59.9219 33.7227 55.2344C31.6133 50.3125 29.5039 45.3906 28.0977 40.2344C26.6914 40.7031 25.2852 40.9375 23.8789 41.4062C13.332 45.1562 5.83203 50.7812 5.83203 55C6.30078 57.8125 7.94141 60.3906 10.2852 62.0312C14.2695 65.3125 20.1289 67.6562 25.0508 69.2969C25.9883 69.7656 26.9258 70 27.8633 70.2344ZM55.2852 93.2031C55.9883 92.5 56.6914 91.7969 57.3945 91.0938C53.8789 87.1094 50.3633 82.8906 47.3164 78.6719C41.9258 78.2031 36.7695 77.5 31.3789 76.3281C31.1445 77.5 30.9102 78.9062 30.6758 80.3125C28.5664 91.3281 29.9727 99.5312 33.7227 101.875C36.5352 102.812 39.3477 102.812 41.9258 101.406C46.8477 99.5312 51.3008 96.7188 55.2852 93.2031ZM60.9102 87.5781C63.4883 84.7656 65.832 81.9531 67.9414 78.9062C65.5977 79.1406 63.2539 79.1406 60.9102 79.1406C58.5664 79.1406 56.2227 79.1406 53.8789 78.9062C56.2227 82.1875 58.5664 85 60.9102 87.5781ZM91.6133 94.6094C92.3164 89.4531 92.082 84.0625 91.1445 78.9062C90.9102 77.9688 90.6758 77.0312 90.4414 76.0938C85.0508 77.2656 79.8945 78.2031 74.5039 78.6719C71.457 83.125 68.1758 87.1094 64.4258 91.0938C65.5977 92.0312 66.5352 92.9688 67.4727 93.9062C76.1445 101.172 84.1133 103.984 87.8633 101.875C89.9727 100 91.3789 97.4219 91.6133 94.6094ZM95.832 69.2969C107.551 65.5469 115.754 59.4531 115.754 55C115.754 50.7812 108.02 45.1562 97.2383 41.4062C96.0664 40.9375 94.8945 40.7031 93.7227 40.2344C92.082 45.3906 90.207 50.3125 87.8633 55C90.207 59.9219 92.3164 64.8438 93.957 70C94.6602 69.7656 95.1289 69.5312 95.832 69.2969ZM60.9102 65.7812C54.8164 65.7812 50.1289 61.0938 50.1289 55C50.1289 49.1406 54.8164 44.4531 60.9102 44.4531C66.7695 44.4531 71.457 49.1406 71.457 55C71.457 61.0938 66.7695 65.7812 60.9102 65.7812Z" fill="#E2E6FF" fill-opacity="0.65098"/>
</svg>
