<svg width="118" height="118" viewBox="0 0 118 118" fill="none" xmlns="http://www.w3.org/2000/svg">
<path d="M59 0.875C90.875 0.875 117.125 27.125 117.125 59C117.125 91.1094 90.875 117.125 59 117.125C26.8906 117.125 0.875 91.1094 0.875 59C0.875 27.125 26.8906 0.875 59 0.875ZM6.73438 59C6.73438 79.8594 18.6875 97.6719 36.0312 106.109L11.1875 37.9062C8.14062 44.2344 6.73438 51.5 6.73438 59ZM59 111.266C65.0938 111.266 70.7188 110.328 76.3438 108.453C76.1094 108.219 75.875 107.984 75.875 107.75L59.7031 63.6875L44.2344 109.156C48.9219 110.562 53.8438 111.266 59 111.266ZM66.0312 34.625L85.0156 90.875L90.1719 73.2969C92.5156 66.0312 94.1562 60.875 94.1562 56.4219C94.1562 50.0938 91.8125 45.4062 89.9375 42.125C87.125 37.6719 84.7812 34.1562 84.7812 29.7031C84.7812 25.0156 88.2969 20.5625 93.4531 20.5625C93.6875 20.5625 93.9219 20.5625 94.1562 20.5625C84.7812 12.125 72.5938 6.73438 59 6.73438C40.7188 6.73438 24.5469 16.1094 15.1719 30.4062C16.5781 30.4062 17.5156 30.4062 18.6875 30.4062C24.0781 30.4062 32.5156 29.7031 32.5156 29.7031C35.3281 29.7031 35.5625 33.6875 32.75 34.1562C32.75 34.1562 29.9375 34.3906 26.8906 34.625L45.875 91.1094L57.3594 56.8906L49.1562 34.625C46.3438 34.3906 43.7656 34.1562 43.7656 34.1562C40.9531 33.9219 41.1875 29.7031 44 29.7031C44 29.7031 52.6719 30.4062 57.8281 30.4062C63.2188 30.4062 71.6562 29.7031 71.6562 29.7031C74.4688 29.7031 74.9375 33.6875 72.125 34.1562C72.125 34.1562 69.3125 34.3906 66.0312 34.625ZM85.25 104.234C100.719 95.3281 111.266 78.4531 111.266 59C111.266 50.0938 108.922 41.4219 104.703 33.9219C104.938 35.7969 105.172 37.4375 105.172 39.3125C105.172 44.7031 104 50.5625 101.188 58.0625L85.25 104.234Z" fill="#E2E6FF" fill-opacity="0.65098"/>
</svg>
