<svg width="209" height="55" viewBox="0 0 209 55" fill="none" xmlns="http://www.w3.org/2000/svg">
<path d="M0.338594 32.0812L22.3489 54.0916C11.109 52.1916 2.23853 43.3212 0.338594 32.0812Z" fill="#D7D9FF"/>
<path d="M0 26.1058L28.3244 54.4302C30.0089 54.3402 31.6522 54.0952 33.2404 53.7093L0.720846 21.1898C0.334953 22.778 0.0900059 24.4213 0 26.1058Z" fill="#D7D9FF"/>
<path d="M2.13079 16.9626L37.4677 52.2995C38.7547 51.7471 39.99 51.0973 41.1642 50.3592L4.07113 13.2661C3.33304 14.4403 2.68316 15.6756 2.13079 16.9626Z" fill="#D7D9FF"/>
<path d="M6.46501 10.0234C11.399 4.29041 18.7083 0.660156 26.8656 0.660156C41.7245 0.660156 53.77 12.7056 53.77 27.5646C53.77 35.7218 50.1398 43.0312 44.4067 47.9651L6.46501 10.0234Z" fill="#D7D9FF"/>
<path d="M81.8008 43.6756H101.514V38.3073H88.3118V12.8801H81.8008V43.6756ZM105.706 43.6756H112.111V20.5789H105.706V43.6756ZM108.923 17.8422C110.788 17.8422 112.397 16.4288 112.397 14.5943C112.397 12.7748 110.788 11.3613 108.923 11.3613C107.074 11.3613 105.465 12.7748 105.465 14.5943C105.465 16.4288 107.074 17.8422 108.923 17.8422ZM123.649 30.3228C123.663 27.3455 125.438 25.6013 128.024 25.6013C130.596 25.6013 132.144 27.2854 132.129 30.1123V43.6756H138.535V28.9695C138.535 23.5863 135.377 20.2782 130.565 20.2782C127.137 20.2782 124.656 21.9623 123.618 24.6539H123.348V20.5789H117.243V43.6756H123.649V30.3228ZM154.17 44.1268C159.899 44.1268 163.733 41.3448 164.635 37.0594L158.726 36.6684C158.079 38.4278 156.41 39.345 154.29 39.345C151.087 39.345 149.057 37.2248 149.057 33.7813V33.7663H164.786V32.007C164.786 24.1577 160.034 20.2782 153.929 20.2782C147.132 20.2782 142.727 25.105 142.727 32.2325C142.727 39.5555 147.072 44.1268 154.17 44.1268ZM149.057 29.7966C149.177 27.1651 151.192 25.0599 154.034 25.0599C156.801 25.0599 158.726 27.0448 158.756 29.7966H149.057ZM175.642 44.1117C179.056 44.1117 181.266 42.6231 182.394 40.4728H182.574V43.6756H188.649V28.0974C188.649 22.5939 183.943 20.2782 178.95 20.2782C173.266 20.2782 169.673 22.9247 168.785 27.135L174.71 27.6162C175.146 26.0825 176.514 24.9547 178.815 24.9547C181.025 24.9547 182.228 26.0373 182.244 27.9771C182.259 29.4958 180.665 29.7214 176.65 30.1123C172.078 30.5334 167.973 32.0671 167.973 37.2248C167.973 41.796 171.236 44.1117 175.642 44.1117ZM177.477 39.6908C175.507 39.6908 174.094 38.7736 174.094 37.0142C174.094 35.2099 175.582 34.3225 177.838 34.0069C179.236 33.8114 181.522 33.4806 182.288 32.9693V35.4204C182.288 37.8413 180.289 39.6908 177.477 39.6908ZM193.619 43.6756H200.025V30.6085C200.039 27.7816 202.085 25.8418 204.671 25.8418C205.543 25.8418 206.25 26.0825 206.851 26.3832L208.776 21.0902C207.934 20.5789 206.851 20.2481 205.618 20.2481C203.017 20.2481 200.912 21.7518 200.07 24.6088H199.829V20.5789H193.619V43.6756Z" fill="#D7D9FF"/>
</svg>
