<svg width="183" height="37" viewBox="0 0 183 37" fill="none" xmlns="http://www.w3.org/2000/svg">
<path fill-rule="evenodd" clip-rule="evenodd" d="M178.142 28.0615C178.252 29.3214 179.26 30.9249 181.007 30.9249H182.027C182.424 30.9249 182.749 30.6004 182.749 30.2042V7.73918H182.744C182.724 7.36071 182.411 7.05759 182.027 7.05759H178.863C178.479 7.05759 178.167 7.36071 178.147 7.73918H178.142V9.56457C176.203 7.17416 173.145 6.18199 170.08 6.18199C163.11 6.18199 157.461 11.8359 157.461 18.8108C157.461 25.7862 163.11 31.4403 170.08 31.4403C173.145 31.4403 176.487 30.2504 178.142 28.0587V28.0615ZM170.091 27.0204C165.659 27.0204 162.066 23.3451 162.066 18.8108C162.066 14.2774 165.659 10.6021 170.091 10.6021C174.525 10.6021 178.117 14.2774 178.117 18.8108C178.117 23.3451 174.525 27.0204 170.091 27.0204Z" fill="#D7D9FF"/>
<path fill-rule="evenodd" clip-rule="evenodd" d="M153.458 17.2095C153.458 10.6567 149.328 6.23611 142.74 6.23611C139.596 6.23611 137.018 8.05578 136.108 9.61891C135.911 8.39666 135.263 7.11191 133.252 7.11191H132.227C131.831 7.11191 131.507 7.43669 131.507 7.83299V28.1178C131.507 28.1184 131.507 28.1199 131.507 28.1209V30.2999H131.511C131.532 30.6777 131.845 30.9811 132.228 30.9811H135.393C135.441 30.9811 135.489 30.9754 135.535 30.9665C135.556 30.9624 135.575 30.9541 135.596 30.9484C135.619 30.9411 135.644 30.9355 135.666 30.9263C135.694 30.9146 135.72 30.899 135.746 30.8843C135.759 30.8764 135.772 30.871 135.785 30.8628C135.816 30.8424 135.845 30.8178 135.873 30.7928C135.878 30.7882 135.883 30.7851 135.888 30.7808C135.919 30.7503 135.948 30.7167 135.973 30.6818C136.053 30.573 136.101 30.4413 136.109 30.2999H136.113V17.0292C136.113 13.5099 138.964 10.6567 142.481 10.6567C145.998 10.6567 148.849 13.5099 148.849 17.0292L148.852 28.1217L148.852 28.1178C148.852 28.1276 148.854 28.1377 148.854 28.1482V30.2999H148.858C148.879 30.6777 149.192 30.9811 149.574 30.9811H152.74C152.788 30.9811 152.836 30.9754 152.881 30.9665C152.9 30.963 152.917 30.9555 152.936 30.9504C152.962 30.9428 152.988 30.9364 153.013 30.9263C153.039 30.9156 153.063 30.9006 153.087 30.8868C153.102 30.8784 153.118 30.8723 153.132 30.8628C153.161 30.8435 153.188 30.8203 153.214 30.7974C153.221 30.7912 153.229 30.7865 153.235 30.7803C153.265 30.7513 153.292 30.72 153.316 30.6873C153.318 30.6848 153.32 30.6828 153.322 30.6804C153.4 30.5725 153.447 30.4423 153.456 30.3017C153.456 30.3007 153.456 30.2999 153.456 30.2999H153.46L153.458 17.2095Z" fill="#D7D9FF"/>
<path fill-rule="evenodd" clip-rule="evenodd" d="M120.495 28.0615C120.606 29.3213 121.614 30.9249 123.359 30.9249H124.381C124.777 30.9249 125.101 30.6004 125.101 30.2041V7.73918H125.097C125.076 7.36071 124.763 7.05759 124.381 7.05759H121.216C120.833 7.05759 120.52 7.36071 120.499 7.73918H120.495V9.56457C118.556 7.17416 115.498 6.18199 112.432 6.18199C105.463 6.18199 99.8136 11.8359 99.8136 18.8109C99.8136 25.7862 105.463 31.4404 112.432 31.4404C115.498 31.4404 118.84 30.2505 120.495 28.0587L120.495 28.0615ZM112.444 27.0203C108.012 27.0203 104.419 23.3452 104.419 18.8109C104.419 14.2774 108.012 10.6021 112.444 10.6021C116.877 10.6021 120.47 14.2774 120.47 18.8109C120.47 23.3452 116.877 27.0203 112.444 27.0203Z" fill="#D7D9FF"/>
<path fill-rule="evenodd" clip-rule="evenodd" d="M81.096 24.8441C83.209 26.309 85.5154 27.0206 87.7318 27.0206C89.8433 27.0206 92.0262 25.9251 92.0262 24.0183C92.0262 21.4726 87.2696 21.0765 84.2811 20.06C81.2919 19.0435 78.7175 16.9422 78.7175 13.5393C78.7175 8.33221 83.3535 6.18164 87.6806 6.18164C90.4221 6.18164 93.2508 7.0864 95.0847 8.38245C95.7162 8.86138 95.3316 9.41124 95.3316 9.41124L93.581 11.9134C93.3843 12.1953 93.0402 12.4388 92.5465 12.1337C92.0525 11.8289 90.3204 10.6018 87.6806 10.6018C85.0404 10.6018 83.4502 11.822 83.4502 13.3343C83.4502 15.1478 85.517 15.7182 87.9379 16.3363C92.1568 17.4744 96.7589 18.8423 96.7589 24.0183C96.7589 28.6061 92.4709 31.4413 87.7318 31.4413C84.1405 31.4413 81.0828 30.4168 78.5184 28.5335C77.9842 27.9984 78.3573 27.5015 78.3573 27.5015L80.0993 25.012C80.4538 24.5466 80.9006 24.7089 81.096 24.8441Z" fill="#D7D9FF"/>
<path fill-rule="evenodd" clip-rule="evenodd" d="M68.9278 28.0615C69.0385 29.3213 70.0462 30.9249 71.7919 30.9249H72.8135C73.2094 30.9249 73.5339 30.6004 73.5339 30.2041V7.73918H73.5295C73.5087 7.36071 73.1961 7.05759 72.8135 7.05759H69.6483C69.2655 7.05759 68.9528 7.36071 68.9316 7.73918H68.9278V9.56457C66.9885 7.17416 63.931 6.18199 60.865 6.18199C53.8958 6.18199 48.2461 11.8359 48.2461 18.8109C48.2461 25.7862 53.8958 31.4404 60.865 31.4404C63.931 31.4404 67.2724 30.2505 68.9273 28.0587L68.9278 28.0615ZM60.8773 27.0203C56.4449 27.0203 52.8517 23.3452 52.8517 18.8109C52.8517 14.2774 56.4449 10.6021 60.8773 10.6021C65.3096 10.6021 68.9025 14.2774 68.9025 18.8109C68.9025 23.3452 65.3096 27.0203 60.8773 27.0203Z" fill="#D7D9FF"/>
<path fill-rule="evenodd" clip-rule="evenodd" d="M30.5549 19.6716C25.865 19.6716 22.0629 23.4736 22.0629 28.164C22.0629 32.854 25.865 36.656 30.5549 36.656C35.245 36.656 39.047 32.854 39.047 28.164C39.047 23.4736 35.245 19.6716 30.5549 19.6716ZM8.49202 19.6724C3.80205 19.6724 0 23.4736 0 28.164C0 32.854 3.80205 36.656 8.49202 36.656C13.1822 36.656 16.9844 32.854 16.9844 28.164C16.9844 23.4736 13.1822 19.6724 8.49202 19.6724ZM28.0154 9.05629C28.0154 13.7467 24.2136 17.5491 19.5235 17.5491C14.8334 17.5491 11.0315 13.7467 11.0315 9.05629C11.0315 4.36688 14.8334 0.564453 19.5235 0.564453C24.2136 0.564453 28.0154 4.36688 28.0154 9.05629Z" fill="#D7D9FF"/>
</svg>
