<svg width="184" height="61" viewBox="0 0 184 61" fill="none" xmlns="http://www.w3.org/2000/svg">
<path d="M0 0.515625H39.7204V20.3758H19.8602L0 0.515625ZM0 20.3758H19.8602L39.7204 40.236H0V20.3758ZM0 40.236H19.8602V60.0962L0 40.236Z" fill="#D7D9FF"/>
<path d="M62.1319 16.1834H78.1877V21.2854H68.2089V28.3755H78.1877V33.3649H68.2089V42.4431H62.1319V16.1834ZM81.4887 24.3612H87.2286V28.1502C87.5285 26.8481 88.1418 25.8486 89.0668 25.1489C90.0154 24.4229 91.0686 24.0613 92.218 24.0613C92.8186 24.0613 93.3193 24.1122 93.7182 24.2112V29.5386C93.1457 29.4695 92.5696 29.4323 91.9926 29.4259C90.4171 29.4259 89.2304 29.9375 88.4289 30.9633C87.6303 31.9638 87.2286 33.4639 87.2286 35.4657V42.4431H81.4915V24.3612H81.4887ZM102.779 42.9311C101.029 42.9311 99.5026 42.5176 98.2023 41.6926C96.9266 40.8675 95.9125 39.6963 95.2765 38.3161C94.6014 36.8668 94.2615 35.2267 94.2615 33.4021C94.2615 31.6012 94.6141 29.9747 95.3137 28.5255C95.9698 27.1252 97.0111 25.9413 98.315 25.1117C99.6389 24.2866 101.153 23.8732 102.855 23.8732C104.129 23.8732 105.269 24.1494 106.268 24.6992C107.268 25.2507 108.018 26.0013 108.519 26.9499V24.3612H114.221V42.4431H108.519V39.8917C108.018 40.7921 107.243 41.529 106.193 42.1051C105.143 42.6621 103.969 42.9456 102.779 42.9311ZM104.43 38.1662C105.805 38.1662 106.868 37.7164 107.619 36.8159C108.369 35.9154 108.744 34.7769 108.744 33.4021C108.744 32.0519 108.369 30.9261 107.619 30.0256C106.868 29.1252 105.805 28.6754 104.43 28.6754C103.128 28.6754 102.079 29.1124 101.279 29.9884C100.504 30.8643 100.116 32.001 100.116 33.4021C100.116 34.8033 100.504 35.9527 101.279 36.8532C102.079 37.7291 103.13 38.1662 104.43 38.1662ZM118.235 24.3612H123.975V26.9871C124.377 26.0603 125.025 25.3098 125.925 24.7364C126.852 24.1631 127.927 23.8732 129.152 23.8732C132.003 23.8732 133.892 24.9854 134.816 27.2125C135.325 26.203 136.121 25.3679 137.105 24.8118C138.157 24.1785 139.366 23.8541 140.593 23.8732C144.87 23.8732 147.008 26.3229 147.008 31.2259V42.4431H141.231V32.2763C141.231 31.0524 141.006 30.1519 140.556 29.5759C140.105 29.0016 139.43 28.7126 138.53 28.7126C137.555 28.7126 136.804 29.0507 136.279 29.7258C135.754 30.3764 135.491 31.5131 135.491 33.1395V42.4431H129.714V32.2391C129.714 31.0142 129.49 30.1256 129.039 29.5759C128.615 29.0016 127.951 28.7126 127.053 28.7126C126.051 28.7126 125.288 29.0507 124.763 29.7258C124.238 30.3764 123.975 31.5131 123.975 33.1395V42.4431H118.237V24.3612H118.235ZM168.57 32.4644C168.57 33.2386 168.519 34.0773 168.418 34.9777H155.065C155.116 36.1535 155.515 37.0522 156.265 37.6791C157.016 38.3034 158.031 38.6168 159.304 38.6168C161.08 38.6168 162.206 38.078 162.68 37.0031H168.308C168.031 38.7795 167.056 40.216 165.381 41.3173C163.731 42.3922 161.705 42.9311 159.304 42.9311C156.204 42.9311 153.765 42.0924 151.988 40.4169C150.238 38.7404 149.362 36.4034 149.362 33.4021C149.362 31.4513 149.762 29.763 150.563 28.3374C151.336 26.9135 152.528 25.7614 153.977 25.0363C155.453 24.2621 157.166 23.8732 159.119 23.8732C160.968 23.8732 162.605 24.2358 164.031 24.9618C165.481 25.6878 166.595 26.7 167.369 28.0003C168.17 29.3023 168.57 30.7898 168.57 32.4644ZM162.903 31.414C162.879 30.2137 162.541 29.2996 161.89 28.6754C161.241 28.0511 160.302 27.7377 159.077 27.7377C157.852 27.7377 156.877 28.0748 156.151 28.7508C155.451 29.4014 155.089 30.2882 155.062 31.414H162.903ZM171.101 24.3612H176.841V28.1502C177.141 26.8481 177.754 25.8486 178.679 25.1489C179.577 24.442 180.687 24.0586 181.83 24.0613C182.43 24.0613 182.931 24.1122 183.33 24.2112V29.5386C182.758 29.4695 182.182 29.4323 181.605 29.4259C180.029 29.4259 178.842 29.9375 178.041 30.9633C177.24 31.9638 176.841 33.4639 176.841 35.4657V42.4431H171.101V24.3612Z" fill="#D7D9FF"/>
</svg>
