<svg width="190" height="52" viewBox="0 0 190 52" fill="none" xmlns="http://www.w3.org/2000/svg">
<path d="M66.1842 43.2208V21.7831H66.5662L82.1707 43.2208H87.0812V11.7393H81.6251V33.123H81.2432L65.6386 11.7393H60.7281V43.2208H66.1842ZM102.522 43.7068C109.724 43.7068 114.144 39.0629 114.144 31.287C114.144 23.5651 109.724 18.8672 102.522 18.8672C95.3746 18.8672 90.9005 23.5651 90.9005 31.287C90.9551 39.0629 95.32 43.7068 102.522 43.7068ZM102.522 39.1709C98.7028 39.1709 96.5203 36.3089 96.5203 31.287C96.5203 26.3191 98.7028 23.4031 102.522 23.4031C106.341 23.4031 108.524 26.3191 108.524 31.287C108.524 36.3089 106.341 39.1709 102.522 39.1709ZM119.109 13.5213V19.5152H115.289V23.8351H119.109V36.8489C119.109 41.4928 121.291 43.3288 126.856 43.3288C127.893 43.3288 128.93 43.2208 129.748 43.0588V38.8469C129.093 38.9009 128.657 38.9549 127.893 38.9549C125.602 38.9549 124.565 37.9289 124.565 35.5529V23.8351H129.748V19.5152H124.565V13.5213H119.109ZM133.022 43.2208H138.478V19.3532H133.022V43.2208ZM135.75 15.4112C137.55 15.4112 139.024 13.9532 139.024 12.1713C139.024 10.3353 137.55 8.87733 135.75 8.87733C133.949 8.87733 132.476 10.3353 132.476 12.1713C132.476 13.9532 133.949 15.4112 135.75 15.4112ZM153.428 43.7068C160.63 43.7068 165.049 39.0629 165.049 31.287C165.049 23.5651 160.63 18.8672 153.428 18.8672C146.28 18.8672 141.806 23.5651 141.806 31.287C141.806 39.0629 146.171 43.7068 153.428 43.7068ZM153.428 39.1709C149.609 39.1709 147.426 36.3089 147.426 31.287C147.426 26.3191 149.609 23.4031 153.428 23.4031C157.193 23.4031 159.43 26.3191 159.43 31.287C159.375 36.3089 157.193 39.1709 153.428 39.1709ZM168.269 43.2208H173.725V29.343C173.725 25.8331 175.798 23.6191 179.017 23.6191C182.345 23.6191 183.873 25.4551 183.873 29.073V43.2208H189.329V27.777C189.329 22.0531 186.383 18.8672 181.036 18.8672C177.435 18.8672 175.034 20.4872 173.888 23.1871H173.506V19.3532H168.214C168.269 19.3532 168.269 43.2208 168.269 43.2208Z" fill="#D7D9FF"/>
<path fill-rule="evenodd" clip-rule="evenodd" d="M8.4131 9.72433C10.0011 11.0054 10.5755 10.9043 13.5488 10.702L41.5587 9.01635C42.1669 9.01635 41.6601 8.40952 41.4573 8.34209L36.7947 5.00449C35.9162 4.33023 34.6998 3.52111 32.4361 3.72339L5.33844 5.71246C4.3586 5.8136 4.15587 6.3193 4.56132 6.69015L8.4131 9.72433ZM10.1025 16.231V45.6288C10.1025 47.2133 10.8796 47.7865 12.6703 47.6853L43.4508 45.8985C45.2415 45.7974 45.4443 44.7186 45.4443 43.4375V14.2419C45.4443 12.9608 44.9375 12.2528 43.8563 12.354L11.6905 14.2419C10.5079 14.343 10.1025 14.9499 10.1025 16.231ZM40.4775 17.8155C40.6802 18.692 40.4775 19.6023 39.599 19.7034L38.1124 20.0068V41.7181C36.8284 42.3924 35.6459 42.7969 34.6323 42.7969C33.0442 42.7969 32.6388 42.2912 31.4562 40.8078L21.7592 25.6032V40.3021L24.8339 40.9764C24.8339 40.9764 24.8339 42.7632 22.3674 42.7632L15.5423 43.1678C15.3396 42.7632 15.5423 41.7855 16.218 41.5832L18.0088 41.0775V21.6588L15.5423 21.4565C15.3396 20.58 15.8464 19.2989 17.2317 19.1977L24.5636 18.692L34.666 34.0652V20.4788L32.0982 20.1754C31.8955 19.0966 32.7064 18.2875 33.6862 18.1863L40.4775 17.8155ZM3.07467 3.01541L31.2873 0.958912C34.7336 0.655493 35.6459 0.857773 37.8083 2.44229L46.7958 8.74665C48.2824 9.82547 48.7892 10.1289 48.7892 11.3088V45.9322C48.7892 48.0899 48.0121 49.371 45.2415 49.5732L12.5014 51.5623C10.4066 51.6635 9.42673 51.3601 8.34553 49.9778L1.68938 41.381C0.506813 39.7964 0 38.6165 0 37.2342V6.45415C0 4.66736 0.810901 3.21769 3.07467 3.01541Z" fill="#D7D9FF"/>
</svg>
