<svg width="184" height="46" viewBox="0 0 184 46" fill="none" xmlns="http://www.w3.org/2000/svg">
<path d="M57.6726 36.3167L59.9051 31.0981C62.3495 32.9085 65.5379 33.8667 68.7269 33.8667C71.0654 33.8667 72.5532 32.9619 72.5532 31.5775C72.4999 27.7432 58.4699 30.7253 58.3632 21.0853C58.3098 16.186 62.6682 12.4051 68.8337 12.4051C72.4999 12.4051 76.1676 13.3107 78.7713 15.3879L76.6852 20.7179C74.2895 19.1773 71.3307 18.1032 68.5143 18.1032C66.6011 18.1032 65.3252 19.0081 65.3252 20.1805C65.3786 23.9615 79.516 21.8842 79.6753 31.0981C79.6753 36.1041 75.4229 39.619 69.3642 39.619C64.9007 39.619 60.8084 38.5541 57.6719 36.3167H57.6726ZM146.568 29.2083C146.004 30.2097 145.184 31.0432 144.192 31.6232C143.201 32.2032 142.072 32.509 140.923 32.5091C137.342 32.5091 134.44 29.6002 134.44 26.012C134.44 22.4239 137.342 19.515 140.923 19.515C142.072 19.5151 143.201 19.8208 144.192 20.4009C145.184 20.9809 146.004 21.8143 146.568 22.8157L152.774 19.3702C150.449 15.2149 146.015 12.4051 140.923 12.4051C133.424 12.4051 127.345 18.4966 127.345 26.012C127.345 33.5267 133.424 39.619 140.923 39.619C146.015 39.619 150.449 36.8092 152.774 32.6539L146.568 29.2083ZM83.7028 39.0862H91.4621V1.07812H83.7036L83.7028 39.0862ZM156.693 1.07812V39.0862H164.452V27.699L173.646 39.0862H183.564L171.872 25.5585L182.714 12.9356H173.221L164.452 23.4301V1.07812H156.693ZM115.367 12.9371V16.0267C114.092 13.8961 110.956 12.4051 107.661 12.4051C100.859 12.4051 95.4911 18.4234 95.4911 25.9853C95.4911 33.5473 100.859 39.619 107.661 39.619C110.956 39.619 114.092 38.1279 115.367 35.9973V39.0862H123.127V12.9371H115.367ZM115.367 29.2609C114.251 31.1247 111.913 32.5083 109.309 32.5083C105.728 32.5083 102.825 29.6002 102.825 26.012C102.825 22.4239 105.728 19.515 109.309 19.515C111.913 19.515 114.251 20.9527 115.367 22.8691V29.2609Z" fill="#D7D9FF"/>
<path d="M16.6939 0.238281C14.1794 0.238281 12.1412 2.28123 12.1412 4.80062C12.1406 5.39915 12.2579 5.99194 12.4864 6.54514C12.7148 7.09835 13.05 7.60113 13.4728 8.02478C13.8955 8.44843 14.3976 8.78466 14.9503 9.01426C15.5029 9.24387 16.0954 9.36235 16.6939 9.36295H21.2473V4.80062C21.2483 3.59175 20.7692 2.43199 19.9153 1.57641C19.0614 0.720824 17.9026 0.239494 16.6939 0.238281ZM16.6939 12.4045H4.55267C2.03815 12.4045 0 14.4475 0 16.9676C0 19.487 2.03815 21.5299 4.55267 21.5299H16.6947C19.2084 21.5299 21.2473 19.487 21.2473 16.9676C21.2473 14.4475 19.2084 12.4045 16.6939 12.4045Z" fill="#D7D9FF"/>
<path d="M45.5325 16.9676C45.5325 14.4475 43.4936 12.4045 40.979 12.4045C38.4645 12.4045 36.4264 14.4475 36.4264 16.9676V21.5299H40.979C42.1878 21.5287 43.3465 21.0474 44.2004 20.1918C45.0544 19.3362 45.5335 18.1765 45.5325 16.9676ZM33.3913 16.9676V4.80062C33.3923 3.59175 32.9131 2.43199 32.0592 1.57641C31.2053 0.720824 30.0466 0.239494 28.8378 0.238281C26.3233 0.238281 24.2852 2.28123 24.2852 4.80062V16.9668C24.2852 19.4878 26.3233 21.5307 28.8378 21.5307C30.0466 21.5295 31.2053 21.0482 32.0592 20.1926C32.9131 19.337 33.3923 18.1772 33.3913 16.9684" fill="#D7D9FF"/>
<path d="M28.8378 45.862C30.0466 45.8608 31.2053 45.3794 32.0592 44.5238C32.9131 43.6683 33.3923 42.5085 33.3913 41.2996C33.3923 40.0908 32.9131 38.931 32.0592 38.0754C31.2053 37.2198 30.0466 36.7385 28.8378 36.7373H24.2852V41.2996C24.2852 43.819 26.3233 45.862 28.8378 45.862ZM28.8378 33.6957H40.9798C43.4936 33.6957 45.5325 31.6528 45.5325 29.1326C45.5335 27.9238 45.0544 26.764 44.2004 25.9084C43.3465 25.0529 42.1878 24.5715 40.979 24.5703H28.8378C26.3233 24.5703 24.2852 26.6133 24.2852 29.1326C24.2846 29.7312 24.4018 30.324 24.6303 30.8772C24.8588 31.4304 25.194 31.9332 25.6167 32.3568C26.0395 32.7805 26.5415 33.1167 27.0942 33.3463C27.6469 33.5759 28.2394 33.6944 28.8378 33.695" fill="#D7D9FF"/>
<path d="M2.29717e-06 29.1326C-0.000598572 29.7312 0.116683 30.324 0.345151 30.8772C0.573619 31.4304 0.908799 31.9332 1.33155 32.3568C1.75431 32.7805 2.25636 33.1167 2.80904 33.3463C3.36172 33.5759 3.95421 33.6944 4.55267 33.695C5.7614 33.6938 6.92015 33.2124 7.77406 32.3569C8.62798 31.5013 9.10712 30.3415 9.10611 29.1326V24.5703H4.55267C2.03815 24.5703 2.29717e-06 26.6133 2.29717e-06 29.1326ZM12.1412 29.1326V41.2989C12.1412 43.819 14.1794 45.862 16.6939 45.862C17.9026 45.8608 19.0614 45.3794 19.9153 44.5238C20.7692 43.6683 21.2483 42.5085 21.2473 41.2996V29.1326C21.2479 28.534 21.1306 27.9412 20.9021 27.3879C20.6736 26.8347 20.3383 26.3319 19.9155 25.9082C19.4927 25.4846 18.9905 25.1483 18.4378 24.9188C17.885 24.6892 17.2924 24.5708 16.6939 24.5703C14.1794 24.5703 12.1412 26.6133 12.1412 29.1326Z" fill="#D7D9FF"/>
</svg>
