<svg width="184" height="29" viewBox="0 0 184 29" fill="none" xmlns="http://www.w3.org/2000/svg">
<path d="M13.7439 1.1687C21.3183 1.1687 27.4878 7.33817 27.4878 14.9737C27.4878 22.6091 21.3183 28.7786 13.7439 28.7786C6.16947 28.7786 0 22.6702 0 14.9737C0 7.27709 6.16947 1.1687 13.7439 1.1687ZM121.496 0.863281V25.0525C121.496 26.885 122.229 27.3737 123.634 27.7402L123.695 28.0456H115.937V25.0525C115.021 27.2515 113.127 28.5954 110.684 28.5954C106.53 28.5954 103.782 24.8082 103.782 19.1884C103.782 16.0121 104.698 13.3244 106.408 11.3086C108.057 9.35394 110.318 8.31551 112.822 8.31551C114.044 8.31551 115.082 8.55985 115.937 9.10961V5.81108C115.937 5.07807 115.754 4.5894 115.387 4.22289C114.899 3.79531 114.105 3.61206 112.883 3.73422H112.822V3.4288L121.496 0.863281ZM150.938 8.3766V25.0525C150.938 26.885 151.671 27.3737 153.076 27.7402V28.0456H145.319V24.9914C144.402 27.1904 142.387 28.5954 140.126 28.5954C137.439 28.5954 135.728 27.3737 135.056 24.9914L134.934 24.3806C134.812 23.7697 134.751 23.1589 134.751 22.5481V13.6298C134.751 11.6751 134.323 11.0643 132.613 10.9421H132.552V10.6367L140.31 8.3766V22.4259C140.31 24.5027 141.226 25.6633 142.936 25.6633C143.975 25.6633 144.83 25.1136 145.319 24.1973V13.6298C145.319 11.614 144.952 11.0032 143.547 10.881H143.486V10.5756L150.938 8.3766ZM94.9244 8.31551C97.0012 8.31551 99.017 9.04852 100.361 10.3313C101.888 11.7973 102.682 13.9352 102.743 16.7451V16.8062H91.0761C90.8317 20.8377 93.3362 24.1362 96.6347 24.2584C99.017 24.4417 101.094 22.9756 102.254 20.5934L102.56 20.7155C101.888 25.1747 99.2613 28.5343 94.68 28.5343C89.4879 28.5343 86.5559 24.1973 86.4337 18.7609V17.3559C86.678 14.9737 87.411 12.8357 88.6938 11.2475C89.4879 10.2702 90.4042 9.53719 91.5037 9.04852C92.4199 8.55985 93.7638 8.31551 94.8633 8.31551H94.9244ZM175.738 8.3766C179.037 8.3766 181.053 10.4535 181.053 13.9963V25.3579C181.053 26.7018 181.663 27.3737 183.191 27.7402H183.252V28.0456H175.433V14.1796C175.433 11.9805 174.639 10.881 172.99 10.881C171.646 10.881 170.974 11.8584 170.607 12.7136C170.668 13.1411 170.729 13.5687 170.729 13.9963V25.5412C170.729 26.9461 171.157 27.4348 172.379 27.7402H172.44V28.0456H165.171V14.1796C165.171 11.9805 164.316 10.881 162.727 10.881C161.445 10.881 160.773 11.7973 160.467 12.5303V25.6023C160.467 27.0072 160.895 27.4959 162.117 27.8013H162.178V28.1067H154.909V13.5687C154.909 11.614 154.42 11.0032 152.771 10.881H152.71V10.5756L160.467 8.43768V11.6751C161.261 9.59828 163.094 8.3766 165.415 8.3766C168.042 8.3766 169.874 9.65936 170.485 11.9805C171.279 9.78153 173.295 8.3766 175.738 8.3766ZM64.3213 2.08496L71.5903 19.1274L78.8593 2.08496H86.678L86.617 2.39038L86.5282 2.41013C85.1812 2.71715 84.479 3.22086 84.479 4.89482V25.6633C84.6012 27.0072 85.3342 27.4348 86.617 27.7402H86.678V28.0456H76.7214V27.7402H76.7824C78.0652 27.4348 78.7982 27.0072 78.9204 25.6633V5.44457L69.3302 27.9845H68.7805L59.4346 6.05541V25.1747C59.4346 26.885 60.1676 27.3737 61.5726 27.6791H61.6336V27.9845H55.8918V27.6791H55.9528C57.3578 27.3737 58.0908 26.885 58.0908 25.1747V4.89482C58.0908 3.18447 57.3578 2.6958 55.9528 2.39038H55.8918V2.08496H64.3213ZM130.964 8.3766V25.0525L130.965 25.1653C130.995 26.9053 131.726 27.3813 133.102 27.7402L133.163 28.0456H125.405V13.6298C125.405 11.6751 124.978 11.0643 123.267 10.9421H123.206V10.6367L130.964 8.3766ZM35.7341 1.96279C39.4602 1.96279 42.5755 7.82684 42.5755 14.9737C42.5755 22.1816 39.5213 27.9845 35.7341 27.9845C31.9469 27.9845 28.8927 22.1816 28.8927 14.9737C28.8927 7.76576 31.9469 1.96279 35.7341 1.96279ZM46.2405 3.30664C47.6454 3.30664 48.6839 8.55985 48.6839 14.9737C48.6839 21.3875 47.5844 26.6407 46.2405 26.6407C44.9101 26.6407 43.8192 21.492 43.7975 15.1657L43.7971 14.9737C43.7971 8.55985 44.8967 3.30664 46.2405 3.30664ZM113.738 9.41502C111.295 9.41502 109.768 12.6525 109.768 17.6613C109.768 20.0436 110.195 22.1205 110.928 23.5254C111.6 24.8692 112.578 25.6023 113.677 25.6023C114.777 25.6023 115.571 25.1136 115.937 24.1973V10.7589C115.51 9.9037 114.716 9.41502 113.738 9.41502ZM94.8633 9.47611C92.6643 9.47611 91.3815 12.1027 91.1982 15.7677V15.8288H97.8564C97.9786 12.9579 97.4899 11.0643 96.5736 10.148C96.085 9.72044 95.5352 9.47611 94.8633 9.47611ZM127.971 1.04653C129.742 1.04653 131.086 2.39038 131.086 4.16181C131.086 5.93324 129.742 7.27709 127.971 7.27709C126.199 7.27709 124.855 5.93324 124.855 4.16181C124.855 2.39038 126.199 1.04653 127.971 1.04653Z" fill="#D7D9FF"/>
</svg>
