<svg width="184" height="51" viewBox="0 0 184 51" fill="none" xmlns="http://www.w3.org/2000/svg">
<path d="M50.5038 34.1685C45.3657 34.1685 41.9642 30.2762 41.0153 28.7686C42.2328 19.2308 45.7955 16.2152 50.5038 16.2152C55.1587 16.2152 58.7751 19.862 58.7751 25.1917C58.7751 30.5216 55.1587 34.1685 50.5038 34.1685ZM50.5038 10.3594C42.1254 10.3594 37.4349 15.7068 36.0921 21.212C34.5704 18.4068 33.4425 14.6548 32.5653 11.1659H20.9821V25.2795C20.9821 30.399 18.601 34.186 13.9463 34.186C9.29156 34.186 6.62405 30.399 6.62405 25.2795L6.67775 11.1659H0V25.2795C0 29.3997 1.36062 33.1341 3.84911 35.7989C6.40922 38.5516 9.90026 39.9892 13.9463 39.9892C22.0026 39.9892 27.6241 33.9406 27.6241 25.2795V15.7944C28.4654 18.9152 30.4707 24.9113 34.3018 30.1711L30.7213 50.1406H37.5065L39.8695 35.9918C40.6394 36.6229 41.4629 37.184 42.3401 37.6925C44.6138 39.0951 47.2097 39.8841 49.8952 39.9716C49.8952 39.9716 50.3069 39.9892 50.5218 39.9892C58.8287 39.9892 65.4347 33.6952 65.4347 25.1917C65.4347 16.6886 58.8108 10.3594 50.5038 10.3594Z" fill="#D7D9FF"/>
<path d="M146.443 14.1832V11.1676H139.891V39.0967H146.533V28.1566C146.533 21.4241 147.159 16.5852 156.379 17.2163V10.8345C152.082 10.5189 148.735 11.3955 146.443 14.1832Z" fill="#D7D9FF"/>
<path d="M100.332 11.1719L95.5159 30.703L90.3778 11.1719H81.9278L76.7716 30.703L71.9737 11.1719H65.2422L72.6183 39.1187H80.603L86.1528 19.2719L91.6489 39.1187H99.6336L107.439 11.1719H100.332Z" fill="#D7D9FF"/>
<path d="M122.065 34.186C117.339 34.186 113.794 30.5394 113.794 25.1917C113.794 19.8444 117.357 16.2152 122.065 16.2152C126.72 16.2152 130.337 19.862 130.337 25.1917C130.337 30.5216 126.72 34.186 122.065 34.186ZM122.065 10.3594C113.705 10.3594 107.152 16.7061 107.152 25.1917C107.152 33.6775 113.705 39.9716 122.065 39.9716C130.372 39.9716 136.978 33.6775 136.978 25.1917C136.978 16.7061 130.39 10.3594 122.065 10.3594Z" fill="#D7D9FF"/>
<path d="M165.906 25.3699H167.446L176.719 39.1152H184.221L173.55 23.8795C178.725 21.8984 182.198 16.7263 182.198 11.1685H175.573C175.573 17.1997 170.722 19.4789 165.906 19.4789V0.140625H159.246V39.1152H165.888L165.906 25.3699Z" fill="#D7D9FF"/>
</svg>
