<svg width="188" height="244" viewBox="0 0 188 244" fill="none" xmlns="http://www.w3.org/2000/svg">
<path d="M89.1282 97.2259L-27.9746 92.5208V93.1986L84.3209 210.15L89.1282 97.2259Z" fill="#93F2FF"/>
<path d="M51.6536 130.68L-65.4492 126.015V126.693L46.8874 243.644L51.6536 130.68Z" fill="#1C2539"/>
<path d="M45.8883 0.259649L42.5938 3.20435L45.628 6.40149L48.9226 3.45679L45.8883 0.259649Z" fill="#1C2539"/>
<path d="M55.8449 11.0018L52.5508 13.9465L55.5851 17.1432L58.8792 14.1985L55.8449 11.0018Z" fill="#1C2539"/>
<path d="M65.8994 21.6348L62.6055 24.5793L65.6398 27.7761L68.9337 24.8315L65.8994 21.6348Z" fill="#1C2539"/>
<path d="M76.0109 32.2694L72.7168 35.2141L75.7511 38.4108L79.0452 35.4661L76.0109 32.2694Z" fill="#1C2539"/>
<path d="M86.1203 42.9022L82.8262 45.8469L85.8605 49.0436L89.1546 46.0989L86.1203 42.9022Z" fill="#1C2539"/>
<path d="M96.3037 53.4156L93.0098 56.3606L96.0445 59.5573L99.3385 56.6123L96.3037 53.4156Z" fill="#1C2539"/>
<path d="M106.284 64.1718L102.99 67.1165L106.025 70.3132L109.319 67.3685L106.284 64.1718Z" fill="#1C2539"/>
<path d="M34.902 10.0429L31.6074 12.9875L34.6417 16.1847L37.9363 13.24L34.902 10.0429Z" fill="#1C2539"/>
<path d="M45.0112 20.6778L41.7168 23.6223L44.7511 26.8195L48.0455 23.8749L45.0112 20.6778Z" fill="#1C2539"/>
<path d="M55.1266 31.3124L51.832 34.2571L54.8663 37.4542L58.1609 34.5095L55.1266 31.3124Z" fill="#1C2539"/>
<path d="M65.0578 42.0917L61.7637 45.0364L64.798 48.2331L68.0921 45.2884L65.0578 42.0917Z" fill="#1C2539"/>
<path d="M75.2944 52.5821L72 55.5266L75.0343 58.7238L78.3287 55.7792L75.2944 52.5821Z" fill="#1C2539"/>
<path d="M85.2551 63.3319L81.9609 66.2766L84.9952 69.4733L88.2894 66.5286L85.2551 63.3319Z" fill="#1C2539"/>
<path d="M93.4684 71.705L90.1738 74.6497L93.2081 77.8468L96.5027 74.9021L93.4684 71.705Z" fill="#1C2539"/>
<path d="M23.9741 19.8301L20.6797 22.7747L23.714 25.9718L27.0084 23.0273L23.9741 19.8301Z" fill="#1C2539"/>
<path d="M34.0563 30.4921L30.7617 33.4368L33.796 36.6339L37.0906 33.6892L34.0563 30.4921Z" fill="#1C2539"/>
<path d="M44.1676 41.1268L40.873 44.0715L43.9073 47.2687L47.2019 44.324L44.1676 41.1268Z" fill="#1C2539"/>
<path d="M54.085 51.8262L50.791 54.7708L53.8253 57.9675L57.1193 55.0229L54.085 51.8262Z" fill="#1C2539"/>
<path d="M64.3356 62.3944L61.041 65.3391L64.0753 68.5363L67.3699 65.5916L64.3356 62.3944Z" fill="#1C2539"/>
<path d="M74.2961 73.1444L71.002 76.0891L74.0363 79.2858L77.3304 76.3411L74.2961 73.1444Z" fill="#1C2539"/>
<path d="M13.0153 29.6444L9.7207 32.5891L12.755 35.7863L16.0496 32.8416L13.0153 29.6444Z" fill="#1C2539"/>
<path d="M23.1266 40.2792L19.832 43.2239L22.8663 46.421L26.1609 43.4763L23.1266 40.2792Z" fill="#1C2539"/>
<path d="M33.1831 50.9122L29.8887 53.8567L32.923 57.0538L36.2174 54.1093L33.1831 50.9122Z" fill="#1C2539"/>
<path d="M43.1457 61.662L39.8516 64.6067L42.8859 67.8034L46.18 64.8587L43.1457 61.662Z" fill="#1C2539"/>
<path d="M53.4079 72.1815L50.1133 75.1262L53.1476 78.3234L56.4422 75.3787L53.4079 72.1815Z" fill="#1C2539"/>
<path d="M2.05631 39.4569L-1.23828 42.4016L1.79602 45.5988L5.09061 42.6541L2.05631 39.4569Z" fill="#1C2539"/>
<path d="M12.1401 50.0625L8.8457 53.0071L11.88 56.2042L15.1744 53.2597L12.1401 50.0625Z" fill="#1C2539"/>
<path d="M22.2536 60.6971L18.959 63.6418L21.9933 66.839L25.2879 63.8943L22.2536 60.6971Z" fill="#1C2539"/>
<path d="M32.1867 71.4725L28.8926 74.4172L31.9269 77.6139L35.221 74.6692L32.1867 71.4725Z" fill="#1C2539"/>
<path d="M1.18326 59.8768L-2.11133 62.8215L0.92297 66.0187L4.21756 63.074L1.18326 59.8768Z" fill="#1C2539"/>
<path d="M11.2946 70.5116L8 73.4563L11.0343 76.6534L14.3289 73.7087L11.2946 70.5116Z" fill="#1C2539"/>
<path d="M184.161 146.226L180.867 149.171L183.901 152.368L187.196 149.423L184.161 146.226Z" fill="#1C2539"/>
<path d="M174.218 135.445L170.924 138.39L173.959 141.587L177.253 138.641L174.218 135.445Z" fill="#1C2539"/>
<path d="M163.968 124.932L160.674 127.876L163.708 131.073L167.002 128.128L163.968 124.932Z" fill="#1C2539"/>
<path d="M153.855 114.295L150.561 117.24L153.595 120.436L156.889 117.492L153.855 114.295Z" fill="#1C2539"/>
<path d="M143.802 103.664L140.508 106.609L143.542 109.805L146.836 106.861L143.802 103.664Z" fill="#1C2539"/>
<path d="M133.857 92.9239L130.562 95.8684L133.597 99.0656L136.891 96.121L133.857 92.9239Z" fill="#1C2539"/>
<path d="M123.607 82.4296L120.312 85.3743L123.347 88.571L126.641 85.6263L123.607 82.4296Z" fill="#1C2539"/>
<path d="M173.341 155.906L170.047 158.851L173.081 162.048L176.376 159.103L173.341 155.906Z" fill="#1C2539"/>
<path d="M163.13 145.391L159.836 148.335L162.87 151.532L166.164 148.587L163.13 145.391Z" fill="#1C2539"/>
<path d="M153.175 134.639L149.881 137.583L152.915 140.78L156.21 137.836L153.175 134.639Z" fill="#1C2539"/>
<path d="M143.066 124.004L139.771 126.948L142.806 130.146L146.1 127.201L143.066 124.004Z" fill="#1C2539"/>
<path d="M132.984 113.342L129.689 116.286L132.724 119.484L136.018 116.539L132.984 113.342Z" fill="#1C2539"/>
<path d="M122.896 102.736L119.602 105.681L122.636 108.878L125.93 105.933L122.896 102.736Z" fill="#1C2539"/>
<path d="M114.837 94.2461L111.543 97.1907L114.577 100.388L117.872 97.4433L114.837 94.2461Z" fill="#1C2539"/>
<path d="M162.415 165.693L159.121 168.638L162.155 171.835L165.45 168.891L162.415 165.693Z" fill="#1C2539"/>
<path d="M152.124 155.148L148.83 158.093L151.864 161.29L155.158 158.345L152.124 155.148Z" fill="#1C2539"/>
<path d="M142.216 144.453L138.922 147.398L141.956 150.595L145.251 147.65L142.216 144.453Z" fill="#1C2539"/>
<path d="M132.134 133.791L128.84 136.736L131.874 139.933L135.169 136.988L132.134 133.791Z" fill="#1C2539"/>
<path d="M122.023 123.156L118.729 126.101L121.763 129.298L125.057 126.353L122.023 123.156Z" fill="#1C2539"/>
<path d="M111.908 112.521L108.613 115.466L111.648 118.663L114.942 115.719L111.908 112.521Z" fill="#1C2539"/>
<path d="M151.457 175.506L148.162 178.45L151.196 181.648L154.491 178.703L151.457 175.506Z" fill="#1C2539"/>
<path d="M141.185 164.986L137.891 167.931L140.925 171.128L144.219 168.183L141.185 164.986Z" fill="#1C2539"/>
<path d="M131.263 154.211L127.969 157.156L131.003 160.353L134.297 157.408L131.263 154.211Z" fill="#1C2539"/>
<path d="M121.175 143.605L117.881 146.55L120.915 149.747L124.21 146.803L121.175 143.605Z" fill="#1C2539"/>
<path d="M111.064 132.971L107.77 135.915L110.804 139.112L114.098 136.168L111.064 132.971Z" fill="#1C2539"/>
<path d="M140.47 185.291L137.176 188.236L140.21 191.433L143.505 188.488L140.47 185.291Z" fill="#1C2539"/>
<path d="M130.255 174.773L126.961 177.718L129.995 180.915L133.289 177.97L130.255 174.773Z" fill="#1C2539"/>
<path d="M120.302 164.023L117.008 166.968L120.042 170.165L123.337 167.221L120.302 164.023Z" fill="#1C2539"/>
<path d="M110.191 153.389L106.896 156.333L109.931 159.53L113.225 156.586L110.191 153.389Z" fill="#1C2539"/>
<path d="M129.54 195.078L126.246 198.023L129.28 201.22L132.575 198.275L129.54 195.078Z" fill="#1C2539"/>
<path d="M119.269 184.555L115.975 187.499L119.009 190.696L122.303 187.751L119.269 184.555Z" fill="#1C2539"/>
<path d="M109.343 173.838L106.049 176.782L109.083 179.98L112.378 177.035L109.343 173.838Z" fill="#1C2539"/>
<path d="M118.582 204.891L115.287 207.835L118.321 211.032L121.616 208.088L118.582 204.891Z" fill="#1C2539"/>
<path d="M108.871 213.547L105.576 216.492L108.61 219.689L111.905 216.744L108.871 213.547Z" fill="#1C2539"/>
<path d="M108.31 194.369L105.016 197.314L108.05 200.51L111.344 197.566L108.31 194.369Z" fill="#1C2539"/>
</svg>
