<svg width="637" height="684" viewBox="0 0 637 684" fill="none" xmlns="http://www.w3.org/2000/svg">
<path d="M10 591.5C9.3649 591.5 8.74483 591.438 8.14542 591.319L8.04838 591.81C6.73643 591.55 5.51676 591.034 4.44384 590.316L4.722 589.9C3.6858 589.206 2.79355 588.314 2.09983 587.278L1.68435 587.556C0.96605 586.483 0.449887 585.264 0.190343 583.952L0.680834 583.855C0.562252 583.255 0.5 582.635 0.5 582V579.533H0V574.6H0.5V569.667H0V564.733H0.5V559.8H0V554.867H0.5V549.933H0V545H0.5V540.067H0V535.133H0.5V530.2H0V525.267H0.5V520.333H0V515.4H0.5V510.467H0V505.533H0.5V500.6H0V495.667H0.5V490.733H0V485.8H0.5V480.867H0V475.933H0.5V471H0V466.067H0.5V461.133H0V456.2H0.5V451.267H0V446.333H0.5V441.4H0V436.467H0.5V431.533H0V426.6H0.5V421.667H0V416.733H0.5V411.8H0V406.867H0.5V401.933H0V397H0.5V392.067H0V387.133H0.5V382.2H0V377.267H0.5V372.333H0V367.4H0.5V362.467H0V357.533H0.5V352.6H0V347.667H0.5V342.733H0V337.8H0.5V332.867H0V327.933H0.5V323H0V318.067H0.5V313.133H0V308.2H0.5V303.267H0V298.333H0.5V293.4H0V288.467H0.5V286C0.5 285.165 0.503588 284.33 0.510749 283.496L0.0107675 283.492C0.0251144 281.822 0.0537791 280.155 0.0966449 278.492L0.596479 278.504C0.639271 276.844 0.696239 275.187 0.767268 273.534L0.267728 273.512C0.339299 271.846 0.425121 270.184 0.525075 268.526L1.02417 268.556C1.12443 266.892 1.23893 265.233 1.36755 263.577L0.869051 263.539C0.997897 261.88 1.14089 260.225 1.29791 258.575L1.79566 258.622C1.95336 256.965 2.12522 255.311 2.31114 253.662L1.81429 253.606C2.00118 251.948 2.20224 250.295 2.41735 248.646L2.91315 248.71C3.12789 247.064 3.35665 245.422 3.59931 243.785L3.10471 243.712C3.34933 242.061 3.60805 240.415 3.88074 238.774L4.37397 238.856C4.64678 237.214 4.93359 235.577 5.23429 233.945L4.74256 233.854C5.04379 232.219 5.35892 230.589 5.68784 228.964L6.1779 229.063C6.50839 227.43 6.85281 225.802 7.21104 224.179L6.7228 224.071C7.08199 222.444 7.45504 220.822 7.84182 219.206L8.3281 219.322C8.71427 217.708 9.11415 216.099 9.52762 214.496L9.04346 214.371C9.46027 212.755 9.89086 211.144 10.3351 209.539L10.817 209.672C11.2604 208.07 11.7175 206.473 12.188 204.883L11.7086 204.741C12.1805 203.145 12.666 201.556 13.1649 199.972L13.6418 200.122C14.142 198.534 14.6558 196.952 15.1829 195.376L14.7087 195.218C15.2368 193.639 15.7782 192.066 16.3329 190.5L16.8042 190.667C17.359 189.1 17.9271 187.54 18.5084 185.986L18.04 185.811C18.624 184.25 19.2212 182.695 19.8316 181.147L20.2967 181.33C20.906 179.785 21.5284 178.246 22.1637 176.714L21.7018 176.523C22.3398 174.984 22.9909 173.452 23.6549 171.928L24.1133 172.127C24.7772 170.602 25.454 169.085 26.1436 167.574L25.6888 167.366C26.3796 165.853 27.0832 164.347 27.7995 162.847L28.2506 163.063C28.9677 161.562 29.6975 160.069 30.4399 158.583L29.9926 158.359C30.7367 156.87 31.4935 155.387 32.2627 153.913L32.7061 154.144C33.474 152.672 34.2545 151.207 35.0473 149.75L34.6081 149.511C35.4044 148.047 36.2132 146.591 37.0342 145.143L37.4691 145.39C38.2887 143.944 39.1205 142.507 39.9645 141.077L39.5339 140.823C40.3799 139.39 41.2379 137.965 42.108 136.548L42.5341 136.81C43.4041 135.393 44.2862 133.984 45.1801 132.584L44.7587 132.315C45.6542 130.912 46.5616 129.518 47.4807 128.132L47.8974 128.408C48.8158 127.023 49.7459 125.647 50.6877 124.279L50.2758 123.996C51.2201 122.625 52.1759 121.262 53.1433 119.908L53.5502 120.199C54.5159 118.847 55.4931 117.505 56.4816 116.171L56.0799 115.873C57.0712 114.536 58.0738 113.207 59.0877 111.888L59.4842 112.192C60.4966 110.875 61.5203 109.567 62.5551 108.267L62.164 107.956C63.2006 106.654 64.2483 105.362 65.307 104.079L65.6926 104.398C66.7504 103.116 67.8191 101.844 68.8986 100.581L68.5185 100.256C69.6 98.9908 70.6922 97.7354 71.7952 96.4897L72.1695 96.8211C73.2707 95.5774 74.3825 94.3433 75.5049 93.1191L75.1364 92.7812C76.2611 91.5545 77.3963 90.3376 78.542 89.1307L78.9046 89.4749C80.0483 88.2701 81.2024 87.0753 82.3667 85.8906L82.0101 85.5401C83.1765 84.3533 84.3532 83.1767 85.5399 82.0103L85.8904 82.3669C87.0751 81.2025 88.27 80.0484 89.4748 78.9048L89.1306 78.5421C90.3375 77.3964 91.5544 76.2612 92.7811 75.1365L93.119 75.5051C94.3432 74.3827 95.5772 73.2708 96.8209 72.1697L96.4895 71.7953C97.7353 70.6924 98.9907 69.6001 100.256 68.5187L100.581 68.8987C101.843 67.8192 103.116 66.7505 104.397 65.6927L104.079 65.3071C105.362 64.2484 106.654 63.2007 107.956 62.1641L108.267 62.5552C109.566 61.5204 110.875 60.4967 112.192 59.4843L111.888 59.0878C113.207 58.0739 114.536 57.0713 115.873 56.08L116.171 56.4817C117.505 55.4931 118.847 54.5159 120.199 53.5502L119.908 53.1434C121.262 52.176 122.624 51.2201 123.996 50.2759L124.279 50.6877C125.647 49.746 127.023 48.8158 128.408 47.8975L128.132 47.4808C129.518 46.5616 130.912 45.6542 132.315 44.7587L132.584 45.1802C133.984 44.2862 135.393 43.4042 136.81 42.5342L136.548 42.1081C137.965 41.238 139.39 40.3799 140.823 39.534L141.077 39.9645C142.507 39.1206 143.944 38.2887 145.39 37.4692L145.143 37.0342C146.591 36.2132 148.047 35.4044 149.511 34.6081L149.75 35.0473C151.207 34.2545 152.672 33.4741 154.144 32.7061L153.913 32.2628C155.387 31.4935 156.87 30.7367 158.359 29.9926L158.583 30.4399C160.069 29.6975 161.562 28.9677 163.063 28.2507L162.847 27.7995C164.347 27.0832 165.853 26.3796 167.366 25.6887L167.574 26.1436C169.085 25.454 170.602 24.7772 172.127 24.1133L171.928 23.6548C173.452 22.9909 174.984 22.3398 176.523 21.7018L176.714 22.1637C178.246 21.5283 179.785 20.906 181.33 20.2967L181.147 19.8316C182.695 19.2212 184.25 18.624 185.811 18.04L185.986 18.5083C187.54 17.9271 189.1 17.359 190.667 16.8042L190.5 16.3329C192.066 15.7782 193.639 15.2367 195.218 14.7087L195.376 15.1829C196.952 14.6557 198.534 14.142 200.122 13.6417L199.972 13.1648C201.556 12.666 203.145 12.1805 204.741 11.7085L204.883 12.188C206.474 11.7175 208.07 11.2604 209.672 10.8169L209.539 10.3351C211.144 9.89082 212.755 9.46023 214.371 9.04342L214.496 9.52758C216.099 9.11411 217.708 8.71423 219.322 8.32806L219.206 7.84178C220.823 7.455 222.444 7.08195 224.072 6.72276L224.179 7.211C225.802 6.85277 227.43 6.50835 229.063 6.17786L228.964 5.6878C230.589 5.35889 232.219 5.04375 233.855 4.74253L233.945 5.23425C235.577 4.93356 237.215 4.64674 238.856 4.37394L238.774 3.8807C240.416 3.60801 242.062 3.34929 243.712 3.10468L243.785 3.59928C245.423 3.35662 247.064 3.12786 248.711 2.91312L248.646 2.41732C250.295 2.20221 251.949 2.00115 253.606 1.81426L253.662 2.31111C255.312 2.1252 256.965 1.95333 258.623 1.79564L258.575 1.29788C260.226 1.14087 261.88 0.997876 263.539 0.869032L263.577 1.36753C265.233 1.23891 266.893 1.12441 268.556 1.02415L268.526 0.525056C270.185 0.425105 271.847 0.339285 273.513 0.267716L273.534 0.767255C275.187 0.696228 276.844 0.639261 278.505 0.596471L278.492 0.096637C280.155 0.053773 281.822 0.0251101 283.492 0.0107649L283.497 0.510746C284.33 0.503587 285.165 0.5 286 0.5C286.835 0.5 287.67 0.503588 288.504 0.510749L288.508 0.0107675C290.178 0.0251144 291.845 0.0537791 293.508 0.0966449L293.496 0.596479C295.156 0.639271 296.813 0.696239 298.466 0.767268L298.488 0.267728C300.154 0.339299 301.816 0.425121 303.474 0.525075L303.444 1.02417C305.108 1.12443 306.767 1.23893 308.423 1.36755L308.461 0.869051C310.12 0.997897 311.775 1.14089 313.425 1.29791L313.378 1.79566C315.035 1.95336 316.689 2.12522 318.338 2.31114L318.394 1.81429C320.052 2.00118 321.705 2.20224 323.354 2.41735L323.29 2.91315C324.936 3.12789 326.578 3.35665 328.215 3.59931L328.288 3.10471C329.939 3.34933 331.585 3.60805 333.226 3.88074L333.144 4.37397C334.786 4.64678 336.423 4.93359 338.055 5.23429L338.146 4.74256C339.781 5.04379 341.411 5.35892 343.036 5.68784L342.937 6.1779C344.57 6.50839 346.198 6.85281 347.821 7.21104L347.929 6.7228C349.556 7.08199 351.178 7.45504 352.794 7.84182L352.678 8.3281C354.292 8.71427 355.901 9.11415 357.504 9.52762L357.629 9.04346C359.245 9.46027 360.856 9.89086 362.461 10.3351L362.328 10.817C363.93 11.2604 365.527 11.7175 367.117 12.188L367.259 11.7086C368.855 12.1805 370.444 12.666 372.028 13.1649L371.878 13.6418C373.466 14.142 375.048 14.6558 376.624 15.1829L376.782 14.7087C378.361 15.2368 379.934 15.7782 381.5 16.3329L381.333 16.8042C382.9 17.359 384.46 17.9271 386.014 18.5084L386.189 18.04C387.75 18.624 389.305 19.2212 390.853 19.8316L390.67 20.2967C392.215 20.906 393.754 21.5284 395.286 22.1637L395.477 21.7018C397.016 22.3398 398.548 22.9909 400.072 23.6549L399.873 24.1133C401.398 24.7772 402.915 25.454 404.426 26.1436L404.634 25.6888C406.147 26.3796 407.653 27.0832 409.153 27.7995L408.937 28.2506C410.438 28.9677 411.931 29.6975 413.417 30.4399L413.641 29.9926C415.13 30.7367 416.613 31.4935 418.087 32.2627L417.856 32.7061C419.328 33.474 420.793 34.2545 422.25 35.0472L422.489 34.6081C423.953 35.4044 425.409 36.2132 426.857 37.0342L426.61 37.4691C428.056 38.2887 429.493 39.1205 430.923 39.9645L431.177 39.5339C432.61 40.3799 434.035 41.2379 435.452 42.108L435.19 42.5341C436.607 43.4041 438.016 44.2862 439.416 45.1801L439.685 44.7587C441.088 45.6542 442.482 46.5616 443.868 47.4807L443.592 47.8974C444.977 48.8158 446.353 49.7459 447.721 50.6877L448.004 50.2758C449.375 51.2201 450.738 52.1759 452.092 53.1433L451.801 53.5502C453.153 54.5159 454.495 55.4931 455.829 56.4816L456.127 56.0799C457.464 57.0712 458.793 58.0738 460.112 59.0877L459.808 59.4842C461.125 60.4966 462.433 61.5203 463.733 62.5551L464.044 62.164C465.346 63.2006 466.638 64.2483 467.921 65.307L467.602 65.6926C468.884 66.7504 470.156 67.8191 471.419 68.8986L471.744 68.5185C473.009 69.6 474.265 70.6922 475.51 71.7952L475.179 72.1695C476.423 73.2707 477.657 74.3825 478.881 75.5049L479.219 75.1364C480.445 76.261 481.662 77.3963 482.869 78.542L482.525 78.9046C483.73 80.0483 484.925 81.2024 486.109 82.3667L486.46 82.0101C487.647 83.1765 488.823 84.3532 489.99 85.5399L489.633 85.8904C490.797 87.0751 491.952 88.27 493.095 89.4748L493.458 89.1306C494.604 90.3375 495.739 91.5543 496.863 92.7811L496.495 93.119C497.617 94.3432 498.729 95.5772 499.83 96.8209L500.205 96.4895C501.308 97.7352 502.4 98.9907 503.481 100.256L503.101 100.581C504.181 101.843 505.25 103.116 506.307 104.397L506.693 104.079C507.752 105.362 508.799 106.654 509.836 107.956L509.445 108.267C510.48 109.566 511.503 110.875 512.516 112.192L512.912 111.888C513.926 113.207 514.929 114.536 515.92 115.873L515.518 116.171C516.507 117.505 517.484 118.847 518.45 120.199L518.857 119.908C519.824 121.262 520.78 122.624 521.724 123.996L521.312 124.279C522.254 125.647 523.184 127.023 524.103 128.408L524.519 128.132C525.438 129.518 526.346 130.912 527.241 132.315L526.82 132.584C527.714 133.984 528.596 135.393 529.466 136.81L529.892 136.548C530.762 137.965 531.62 139.39 532.466 140.823L532.035 141.077C532.879 142.507 533.711 143.944 534.531 145.39L534.966 145.143C535.787 146.591 536.596 148.047 537.392 149.511L536.953 149.75C537.745 151.207 538.526 152.672 539.294 154.144L539.737 153.913C540.506 155.387 541.263 156.87 542.007 158.359L541.56 158.583C542.302 160.069 543.032 161.562 543.749 163.063L544.201 162.847C544.917 164.347 545.62 165.853 546.311 167.366L545.856 167.574C546.546 169.085 547.223 170.602 547.887 172.127L548.345 171.928C549.009 173.452 549.66 174.984 550.298 176.523L549.836 176.714C550.472 178.246 551.094 179.785 551.703 181.33L552.168 181.147C552.779 182.695 553.376 184.25 553.96 185.811L553.492 185.986C554.073 187.54 554.641 189.1 555.196 190.667L555.667 190.5C556.222 192.066 556.763 193.639 557.291 195.218L556.817 195.376C557.344 196.952 557.858 198.534 558.358 200.122L558.835 199.972C559.334 201.556 559.82 203.145 560.291 204.741L559.812 204.883C560.283 206.474 560.74 208.07 561.183 209.672L561.665 209.539C562.109 211.144 562.54 212.755 562.957 214.371L562.472 214.496C562.886 216.099 563.286 217.708 563.672 219.322L564.158 219.206C564.545 220.823 564.918 222.444 565.277 224.072L564.789 224.179C565.147 225.802 565.492 227.43 565.822 229.063L566.312 228.964C566.641 230.589 566.956 232.219 567.257 233.855L566.766 233.945C567.066 235.577 567.353 237.215 567.626 238.856L568.119 238.774C568.392 240.416 568.651 242.062 568.895 243.712L568.401 243.785C568.643 245.423 568.872 247.064 569.087 248.711L569.583 248.646C569.798 250.295 569.999 251.949 570.186 253.606L569.689 253.662C569.875 255.312 570.047 256.965 570.204 258.623L570.702 258.575C570.859 260.226 571.002 261.88 571.131 263.539L570.632 263.577C570.761 265.233 570.876 266.893 570.976 268.556L571.475 268.526C571.575 270.185 571.661 271.847 571.732 273.513L571.233 273.534C571.304 275.187 571.361 276.844 571.404 278.505L571.903 278.492C571.946 280.155 571.975 281.822 571.989 283.492L571.489 283.497C571.496 284.33 571.5 285.165 571.5 286V288.467H572V293.4H571.5V298.333H572V303.267H571.5V308.2H572V313.133H571.5V318.067H572V323H571.5V327.933H572V332.867H571.5V337.8H572V342.733H571.5V347.667H572V352.6H571.5V357.533H572V362.467H571.5V367.4H572V372.333H571.5V377.267H572V382.2H571.5V387.133H572V392.067H571.5V397H572V401.933H571.5V406.867H572V411.8H571.5V416.733H572V421.667H571.5V426.6H572V431.533H571.5V436.467H572V441.4H571.5V446.333H572V451.267H571.5V456.2H572V461.133H571.5V466.067H572V471H571.5V475.933H572V480.867H571.5V485.8H572V490.733H571.5V495.667H572V500.6H571.5V505.533H572V510.467H571.5V515.4H572V520.333H571.5V525.267H572V530.2H571.5V535.133H572V540.067H571.5V545H572V549.933H571.5V554.867H572V559.8H571.5V564.733H572V569.667H571.5V574.6H572V579.533H571.5V582C571.5 582.635 571.438 583.255 571.319 583.855L571.81 583.952C571.55 585.264 571.034 586.483 570.316 587.556L569.9 587.278C569.206 588.314 568.314 589.206 567.278 589.9L567.556 590.316C566.483 591.034 565.264 591.55 563.952 591.81L563.855 591.319C563.255 591.438 562.635 591.5 562 591.5H559.491V592H554.473V591.5H549.455V592H544.436V591.5H539.418V592H534.4V591.5H529.382V592H524.364V591.5H519.345V592H514.327V591.5H509.309V592H504.291V591.5H499.273V592H494.255V591.5H489.236V592H484.218V591.5H479.2V592H474.182V591.5H469.164V592H464.145V591.5H459.127V592H454.109V591.5H449.091V592H444.073V591.5H439.055V592H434.036V591.5H429.018V592H424V591.5H418.982V592H413.964V591.5H408.945V592H403.927V591.5H398.909V592H393.891V591.5H388.873V592H383.854V591.5H378.836V592H373.818V591.5H368.8V592H363.782V591.5H358.764V592H353.745V591.5H348.727V592H343.709V591.5H338.691V592H333.673V591.5H328.654V592H323.636V591.5H318.618V592H313.6V591.5H308.582V592H303.564V591.5H298.545V592H293.527V591.5H288.509V592H283.491V591.5H278.473V592H273.454V591.5H268.436V592H263.418V591.5H258.4V592H253.382V591.5H248.363V592H243.345V591.5H238.327V592H233.309V591.5H228.291V592H223.272V591.5H218.254V592H213.236V591.5H208.218V592H203.2V591.5H198.182V592H193.163V591.5H188.145V592H183.127V591.5H178.109V592H173.091V591.5H168.072V592H163.054V591.5H158.036V592H153.018V591.5H148V592H142.981V591.5H137.963V592H132.945V591.5H127.927V592H122.909V591.5H117.891V592H112.872V591.5H107.854V592H102.836V591.5H97.8178V592H92.7996V591.5H87.7814V592H82.7632V591.5H77.745V592H72.7269V591.5H67.7086V592H62.6905V591.5H57.6723V592H52.6541V591.5H47.6359V592H42.6177V591.5H37.5995V592H32.5814V591.5H27.5632V592H22.545V591.5H17.5268V592H12.5086V591.5H10Z" stroke="url(#paint0_linear_15_2213)" stroke-dasharray="5 5"/>
<path d="M53 416C53 254.733 183.733 124 345 124V124C506.267 124 637 254.733 637 416V674C637 679.523 632.523 684 627 684H63C57.4771 684 53 679.523 53 674V416Z" fill="#0F0F27"/>
<defs>
<linearGradient id="paint0_linear_15_2213" x1="572" y1="14.5276" x2="-93.4563" y2="306.978" gradientUnits="userSpaceOnUse">
<stop stop-color="#293263"/>
<stop offset="0.985164" stop-color="#120C3B"/>
</linearGradient>
</defs>
</svg>
