<svg width="637" height="684" viewBox="0 0 637 684" fill="none" xmlns="http://www.w3.org/2000/svg">
<path d="M568.118 238.774C568.391 240.416 568.649 242.061 568.894 243.712L568.4 243.785C568.643 245.422 568.872 247.065 569.087 248.711L569.581 248.646C569.796 250.295 569.998 251.948 570.185 253.606L569.688 253.662C569.874 255.311 570.046 256.965 570.204 258.623L570.702 258.575V258.574C570.859 260.225 571.001 261.88 571.13 263.539L570.633 263.577C570.761 265.233 570.875 266.893 570.976 268.557L571.473 268.526C571.573 270.185 571.659 271.847 571.73 273.513L571.232 273.534C571.303 275.187 571.361 276.844 571.403 278.505L571.902 278.492C571.945 280.155 571.973 281.822 571.987 283.492L571.489 283.497C571.496 284.331 571.5 285.165 571.5 286V288.467H572V293.4H571.5V298.333H572V303.267H571.5V308.2H572V313.134H571.5V318.066H572V323H571.5V327.934H572V332.866H571.5V337.8H572V342.733H571.5V347.667H572V352.6H571.5V357.533H572V362.467H571.5V367.4H572V372.333H571.5V377.267H572V382.2H571.5V387.134H572V392.066H571.5V397H572V401.934H571.5V406.866H572V411.8H571.5V416.733H572V421.667H571.5V426.6H572V431.533H571.5V436.467H572V441.4H571.5V446.333H572V451.267H571.5V456.2H572V461.134H571.5V466.066H572V471H571.5V475.934H572V480.866H571.5V485.8H572V490.733H571.5V495.667H572V500.6H571.5V505.533H572V510.467H571.5V515.4H572V520.333H571.5V525.267H572V530.2H571.5V535.134H572V540.066H571.5V545H572V549.934H571.5V554.866H572V559.8H571.5V564.733H572V569.667H571.5V574.6H572V579.533H571.5V582C571.5 582.635 571.438 583.255 571.319 583.854L571.808 583.95C571.548 585.263 571.032 586.482 570.313 587.556L569.9 587.278C569.207 588.314 568.314 589.207 567.278 589.9L567.556 590.313C566.482 591.032 565.263 591.548 563.95 591.808L563.854 591.319C563.255 591.438 562.635 591.5 562 591.5H559.491V592H554.473V591.5H549.454V592H544.437V591.5H539.418V592H534.4V591.5H529.382V592H524.363V591.5H519.346V592H514.327V591.5H509.31V592H504.291V591.5H499.272V592H494.255V591.5H489.236V592H484.218V591.5H479.2V592H474.182V591.5H469.164V592H464.146V591.5H459.127V592H454.109V591.5H449.091V592H444.072V591.5H439.055V592H434.036V591.5H429.019V592H424V591.5H418.981V592H413.964V591.5H408.945V592H403.928V591.5H398.909V592H393.891V591.5H388.873V592H383.854V591.5H378.836V592H373.818V591.5H368.8V592H363.782V591.5H358.764V592H353.745V591.5H348.728V592H343.709V591.5H338.69V592H333.673V591.5H328.654V592H323.637V591.5H318.618V592H313.6V591.5H308.582V592H303.563V591.5H298.545V592H293.527V591.5H288.509V592H283.491V591.5H278.473V592H273.454V591.5H268.437V592H263.418V591.5H258.399V592H253.382V591.5H248.363V592H243.346V591.5H238.327V592H233.309V591.5H228.291V592H223.272V591.5H218.254V592H213.236V591.5H208.218V592H203.2V591.5H198.182V592H193.163V591.5H188.146V592H183.127V591.5H178.108V592H173.091V591.5H168.072V592H163.055V591.5H158.036V592H153.018V591.5H148V592H142.981V591.5H137.963V592H132.945V591.5H127.927V592H122.909V591.5H117.891V592H112.872V591.5H107.854V592H102.836V591.5H97.8174V592H92.7998V591.5H87.7812V592H82.7637V591.5H77.7451V592H72.7266V591.5H67.709V592H62.6904V591.5H57.6719V592H52.6543V591.5H47.6357V592H42.6182V591.5H37.5996V592H32.5811V591.5H27.5635V592H22.5449V591.5H17.5264V592H12.5088V591.5H10C9.36494 591.5 8.74489 591.438 8.14551 591.319L8.04883 591.808C6.73632 591.548 5.51661 591.032 4.44336 590.313L4.72168 589.9C3.68557 589.207 2.79329 588.314 2.09961 587.278L1.68555 587.556C0.966959 586.482 0.450891 585.263 0.191406 583.95L0.680664 583.854C0.562097 583.255 0.5 582.635 0.5 582V579.533H0V574.6H0.5V569.667H0V564.733H0.5V559.8H0V554.866H0.5V549.934H0V545H0.5V540.066H0V535.134H0.5V530.2H0V525.267H0.5V520.333H0V515.4H0.5V510.467H0V505.533H0.5V500.6H0V495.667H0.5V490.733H0V485.8H0.5V480.866H0V475.934H0.5V471H0V466.066H0.5V461.134H0V456.2H0.5V451.267H0V446.333H0.5V441.4H0V436.467H0.5V431.533H0V426.6H0.5V421.667H0V416.733H0.5V411.8H0V406.866H0.5V401.934H0V397H0.5V392.066H0V387.134H0.5V382.2H0V377.267H0.5V372.333H0V367.4H0.5V362.467H0V357.533H0.5V352.6H0V347.667H0.5V342.733H0V337.8H0.5V332.866H0V327.934H0.5V323H0V318.066H0.5V313.134H0V308.2H0.5V303.267H0V298.333H0.5V293.4H0V288.467H0.5V286C0.5 285.165 0.503581 284.33 0.510742 283.496L0.0117188 283.492C0.0260665 281.822 0.0538071 280.155 0.0966797 278.491L0.59668 278.505C0.639469 276.845 0.696557 275.187 0.767578 273.534L0.268555 273.513C0.340135 271.847 0.426394 270.184 0.526367 268.525L1.02441 268.556C1.12467 266.892 1.23857 265.233 1.36719 263.577L0.870117 263.538C0.998971 261.88 1.13985 260.225 1.29688 258.574L1.29785 258.575L1.7959 258.622C1.95359 256.965 2.12562 255.311 2.31152 253.662L1.81445 253.606C2.00136 251.948 2.20283 250.295 2.41797 248.646L2.91309 248.71C3.1278 247.064 3.35697 245.422 3.59961 243.785L3.10547 243.712C3.34377 242.104 3.59443 240.5 3.85938 238.901L3.88086 238.774L4.37402 238.856C4.64681 237.215 4.9337 235.577 5.23438 233.945L4.74316 233.854C5.04439 232.219 5.35956 230.589 5.68848 228.964L6.17773 229.062C6.50816 227.43 6.85278 225.802 7.21094 224.18L6.72363 224.071C7.0828 222.444 7.45603 220.823 7.84277 219.206L8.32812 219.322C8.71429 217.708 9.1139 216.099 9.52734 214.496L9.04297 214.371C9.45978 212.755 9.89073 211.144 10.335 209.539L10.8174 209.672C11.2608 208.07 11.718 206.473 12.1885 204.883L11.709 204.741C12.181 203.145 12.667 201.556 13.166 199.972L13.6416 200.122C14.1418 198.534 14.6555 196.952 15.1826 195.376L14.709 195.218C15.237 193.639 15.7783 192.066 16.333 190.5L16.8047 190.667C17.3595 189.1 17.9276 187.54 18.5088 185.986L18.04 185.811C18.624 184.249 19.2207 182.695 19.8311 181.146L20.2969 181.33C20.9061 179.785 21.5288 178.246 22.1641 176.714L21.7021 176.522C22.1803 175.369 22.6654 174.22 23.1582 173.074L23.6553 171.928L24.1133 172.127C24.7771 170.602 25.454 169.085 26.1436 167.574L25.6895 167.366C26.3802 165.853 27.0836 164.347 27.7998 162.848L28.251 163.063C28.968 161.563 29.6971 160.069 30.4395 158.583L29.9932 158.359C30.7372 156.87 31.4935 155.388 32.2627 153.913L32.7061 154.144C33.4739 152.671 34.2542 151.207 35.0469 149.75L34.6084 149.511C35.4047 148.047 36.2122 146.591 37.0332 145.143L37.4688 145.39C38.2883 143.944 39.1209 142.507 39.9648 141.077L39.5332 140.822C40.3792 139.389 41.2383 137.965 42.1084 136.548L42.5342 136.81C43.4041 135.393 44.2858 133.984 45.1797 132.584L44.7588 132.314C45.6543 130.912 46.5623 129.518 47.4814 128.132L47.8975 128.408C48.8158 127.023 49.7458 125.647 50.6875 124.279L50.2764 123.996C51.2207 122.625 52.177 121.262 53.1445 119.908L53.5498 120.199C54.5155 118.848 55.4929 117.505 56.4814 116.171L56.0811 115.873C57.0722 114.536 58.0741 113.207 59.0879 111.888L59.4844 112.192C60.4967 110.875 61.52 109.567 62.5547 108.268L62.1641 107.956C63.2007 106.655 64.248 105.362 65.3066 104.079L65.6924 104.397C66.75 103.116 67.819 101.844 68.8984 100.581L68.5186 100.256C69.6 98.9908 70.6919 97.735 71.7949 96.4893L72.1699 96.8213C73.271 95.5776 74.3825 94.3433 75.5049 93.1191L75.1367 92.7812C76.2613 91.5546 77.3964 90.3377 78.542 89.1309L78.9043 89.4746C80.048 88.2698 81.2028 87.0753 82.3672 85.8906L82.0107 85.54C83.1769 84.3535 84.3535 83.1769 85.54 82.0107L85.8906 82.3672C87.0754 81.2028 88.2698 80.048 89.4746 78.9043L89.1309 78.542C90.3377 77.3964 91.5546 76.2613 92.7812 75.1367L93.1191 75.5049C94.3433 74.3826 95.5776 73.271 96.8213 72.1699L96.4893 71.7949C97.735 70.6919 98.9908 69.6 100.256 68.5186L100.581 68.8984C101.844 67.819 103.116 66.75 104.397 65.6924L104.079 65.3066C105.362 64.248 106.655 63.2007 107.956 62.1641L108.268 62.5557C109.567 61.5209 110.875 60.4968 112.192 59.4844L111.888 59.0879C113.207 58.0741 114.536 57.0722 115.873 56.0811L116.171 56.4814C117.505 55.493 118.847 54.5154 120.198 53.5498L119.908 53.1445C121.262 52.177 122.625 51.2207 123.996 50.2764L124.279 50.6875C125.647 49.7458 127.023 48.8158 128.408 47.8975L128.132 47.4814C129.518 46.5623 130.912 45.6543 132.314 44.7588L132.584 45.1797C133.984 44.2858 135.393 43.4041 136.81 42.5342L136.548 42.1084C137.965 41.2383 139.389 40.3792 140.822 39.5332L141.077 39.9648C142.507 39.1209 143.944 38.2883 145.39 37.4688L145.144 37.0342L145.143 37.0332C146.591 36.2122 148.047 35.4047 149.511 34.6084L149.75 35.0469C151.207 34.2542 152.671 33.4739 154.144 32.7061L153.913 32.2627C155.388 31.4935 156.87 30.7372 158.359 29.9932L158.583 30.4395C160.069 29.6971 161.563 28.968 163.063 28.251L162.848 27.7998C164.347 27.0836 165.853 26.3802 167.366 25.6895L167.574 26.1436C169.085 25.454 170.602 24.7771 172.127 24.1133L171.928 23.6553C173.452 22.9914 174.984 22.3401 176.522 21.7021L176.714 22.1641C178.246 21.5288 179.785 20.9061 181.33 20.2969L181.146 19.8311C182.695 19.2206 184.25 18.6241 185.812 18.04L185.986 18.5088C187.54 17.9276 189.1 17.3595 190.667 16.8047L190.5 16.333C192.066 15.7783 193.639 15.237 195.218 14.709L195.376 15.1826C196.952 14.6555 198.534 14.1418 200.122 13.6416L199.972 13.166C201.556 12.667 203.145 12.181 204.741 11.709L204.883 12.1885C206.474 11.7179 208.071 11.2608 209.673 10.8174L209.539 10.335C211.144 9.89073 212.755 9.45978 214.371 9.04297L214.496 9.52734C216.099 9.11389 217.708 8.7143 219.322 8.32812L219.206 7.84277C220.823 7.45603 222.444 7.0828 224.071 6.72363L224.18 7.21094C225.802 6.85273 227.431 6.5082 229.063 6.17773L228.964 5.68848C230.589 5.35956 232.219 5.04439 233.854 4.74316L233.945 5.23438C235.578 4.93368 237.215 4.64682 238.856 4.37402L238.774 3.88086C240.416 3.60818 242.061 3.35008 243.712 3.10547L243.785 3.59961C245.422 3.35695 247.065 3.12782 248.711 2.91309L248.646 2.41797C250.295 2.20283 251.948 2.00136 253.606 1.81445L253.662 2.31152C255.311 2.12561 256.965 1.95359 258.623 1.7959L258.575 1.29785L258.574 1.29688C260.225 1.13981 261.88 0.998015 263.539 0.869141L263.577 1.36719C265.233 1.23857 266.893 1.12467 268.557 1.02441L268.526 0.526367C270.185 0.426419 271.847 0.340121 273.513 0.268555L273.534 0.767578C275.187 0.696552 276.844 0.63947 278.505 0.59668L278.492 0.0966797C280.155 0.0538211 281.822 0.0260637 283.492 0.0117188L283.497 0.510742C284.331 0.503585 285.165 0.5 286 0.5C286.835 0.5 287.67 0.503581 288.504 0.510742L288.507 0.0117188C290.177 0.0260609 291.844 0.0538128 293.508 0.0966797L293.495 0.59668C295.155 0.639469 296.813 0.696557 298.466 0.767578L298.486 0.268555C300.153 0.34013 301.815 0.4264 303.474 0.526367L303.444 1.02441C305.108 1.12467 306.767 1.23857 308.423 1.36719L308.461 0.870117C310.12 0.998965 311.774 1.13985 313.425 1.29688V1.29785L313.378 1.7959C315.035 1.95359 316.689 2.12562 318.338 2.31152L318.393 1.81445C320.051 2.00136 321.704 2.20284 323.354 2.41797L323.29 2.91309C324.936 3.1278 326.578 3.35697 328.215 3.59961L328.287 3.10547C329.938 3.35007 331.583 3.60818 333.225 3.88086H333.226L333.144 4.37402C334.785 4.64681 336.423 4.9337 338.055 5.23438L338.145 4.74316C339.78 5.04439 341.41 5.35957 343.035 5.68848L342.938 6.17773C344.57 6.50816 346.198 6.85278 347.82 7.21094L347.928 6.72363C349.555 7.08279 351.176 7.45603 352.793 7.84277L352.678 8.32812C354.292 8.71429 355.901 9.1139 357.504 9.52734L357.628 9.04297C359.244 9.45977 360.855 9.89074 362.46 10.335L362.328 10.8174C363.93 11.2608 365.527 11.718 367.117 12.1885L367.258 11.709C368.854 12.181 370.443 12.667 372.027 13.166L371.878 13.6416C373.466 14.1418 375.048 14.6555 376.624 15.1826L376.781 14.709C378.36 15.237 379.933 15.7783 381.499 16.333L381.333 16.8047C382.9 17.3595 384.46 17.9276 386.014 18.5088L386.188 18.04C387.75 18.624 389.304 19.2207 390.853 19.8311L390.67 20.2969C392.215 20.9061 393.754 21.5288 395.286 22.1641L395.477 21.7021C397.015 22.3401 398.547 22.9914 400.071 23.6553L399.873 24.1133C401.398 24.7771 402.915 25.454 404.426 26.1436L404.633 25.6895C406.146 26.3802 407.652 27.0836 409.151 27.7998L408.937 28.251C410.437 28.968 411.931 29.6971 413.417 30.4395L413.64 29.9932C415.129 30.7372 416.611 31.4935 418.086 32.2627L417.856 32.7061C419.329 33.4739 420.793 34.2542 422.25 35.0469L422.488 34.6084C423.952 35.4047 425.408 36.2122 426.856 37.0332L426.61 37.4688C428.056 38.2883 429.493 39.1209 430.923 39.9648L431.177 39.5332C432.61 40.3792 434.034 41.2383 435.451 42.1084L435.19 42.5342C436.607 43.4041 438.016 44.2858 439.416 45.1797L439.685 44.7588C441.087 45.6543 442.481 46.5623 443.867 47.4814L443.592 47.8975C444.977 48.8158 446.353 49.7458 447.721 50.6875L448.003 50.2764C449.374 51.2207 450.737 52.177 452.091 53.1445L451.801 53.5498C453.152 54.5155 454.495 55.4929 455.829 56.4814L456.126 56.0811C457.463 57.0722 458.792 58.0741 460.111 59.0879L459.808 59.4844C461.125 60.4967 462.433 61.52 463.732 62.5547L464.043 62.1641C465.344 63.2007 466.637 64.248 467.92 65.3066L467.603 65.6924C468.884 66.75 470.156 67.819 471.419 68.8984L471.743 68.5186C473.008 69.6 474.264 70.6919 475.51 71.7949L475.179 72.1699C476.422 73.271 477.657 74.3825 478.881 75.5049L479.218 75.1367C480.444 76.2613 481.661 77.3964 482.868 78.542L482.525 78.9043C483.73 80.048 484.925 81.2028 486.109 82.3672L486.459 82.0107C487.646 83.1769 488.822 84.3535 489.988 85.54L489.633 85.8906C490.797 87.0754 491.952 88.2698 493.096 89.4746L493.457 89.1309C494.603 90.3377 495.738 91.5546 496.862 92.7812L496.495 93.1191C497.617 94.3433 498.729 95.5776 499.83 96.8213L500.204 96.4893C501.307 97.735 502.399 98.9908 503.48 100.256L503.102 100.581C504.181 101.844 505.25 103.116 506.308 104.397L506.692 104.079C507.751 105.362 508.798 106.655 509.835 107.956L509.444 108.268C510.479 109.567 511.503 110.875 512.516 112.192L512.911 111.888C513.925 113.207 514.927 114.536 515.918 115.873L515.519 116.171C516.507 117.505 517.485 118.847 518.45 120.198L518.854 119.908C519.822 121.262 520.778 122.625 521.723 123.996L521.312 124.279C522.254 125.647 523.184 127.023 524.103 128.408L524.518 128.132C525.437 129.518 526.345 130.912 527.24 132.314L526.82 132.584C527.714 133.984 528.596 135.393 529.466 136.81L529.891 136.548C530.761 137.965 531.62 139.389 532.466 140.822L532.035 141.077C532.879 142.507 533.712 143.944 534.531 145.39L534.966 145.144V145.143C535.787 146.591 536.594 148.047 537.391 149.511H537.392L536.953 149.75C537.746 151.207 538.526 152.671 539.294 154.144L539.736 153.913C540.506 155.388 541.262 156.87 542.006 158.359L541.561 158.583C542.303 160.069 543.032 161.563 543.749 163.063L544.199 162.848C544.915 164.347 545.619 165.853 546.31 167.366L545.856 167.574C546.546 169.085 547.223 170.602 547.887 172.127L548.344 171.928C549.008 173.452 549.659 174.984 550.297 176.522L549.836 176.714C550.471 178.246 551.094 179.785 551.703 181.33L552.168 181.146C552.778 182.695 553.375 184.25 553.959 185.812L553.491 185.986C554.072 187.54 554.641 189.1 555.195 190.667L555.666 190.5C556.221 192.066 556.762 193.639 557.29 195.218L556.817 195.376C557.344 196.952 557.858 198.534 558.358 200.122L558.833 199.972C559.332 201.556 559.818 203.145 560.29 204.741L559.812 204.883C560.282 206.474 560.739 208.071 561.183 209.673L561.664 209.539C562.108 211.144 562.539 212.755 562.956 214.371L562.473 214.496C562.886 216.099 563.286 217.708 563.672 219.322L564.156 219.206C564.543 220.823 564.916 222.444 565.275 224.071L564.789 224.18C565.147 225.802 565.492 227.431 565.822 229.063L566.311 228.964C566.639 230.589 566.955 232.219 567.256 233.854L566.766 233.945C567.066 235.578 567.353 237.215 567.626 238.856L568.118 238.774Z" stroke="url(#paint0_linear_1919_75)" stroke-dasharray="5 5"/>
<path d="M53 416C53 254.733 183.733 124 345 124V124C506.267 124 637 254.733 637 416V674C637 679.523 632.523 684 627 684H63C57.4771 684 53 679.523 53 674V416Z" fill="#FF014F"/>
<path d="M53 383H637V674C637 679.523 632.523 684 627 684H63C57.4771 684 53 679.523 53 674V383Z" fill="url(#paint1_linear_1919_75)"/>
<defs>
<linearGradient id="paint0_linear_1919_75" x1="572" y1="14.5276" x2="-93.4563" y2="306.978" gradientUnits="userSpaceOnUse">
<stop stop-color="#FF014F" stop-opacity="0.42"/>
<stop offset="0.985164" stop-color="#FF014F" stop-opacity="0.23"/>
</linearGradient>
<linearGradient id="paint1_linear_1919_75" x1="345" y1="373.314" x2="345" y2="684" gradientUnits="userSpaceOnUse">
<stop stop-color="#1A1737" stop-opacity="0"/>
<stop offset="0.918494" stop-color="#090925"/>
</linearGradient>
</defs>
</svg>
