<svg width="1920" height="950" viewBox="0 0 1920 950" fill="none" xmlns="http://www.w3.org/2000/svg">
<g clip-path="url(#clip0_749_808)">
<rect width="1920" height="950" fill="#070824"/>
<g filter="url(#filter0_f_749_808)">
<path fill-rule="evenodd" clip-rule="evenodd" d="M1272.18 -180.687C1370.98 -198.496 1464.34 -202.018 1543.38 -140.145C1624.23 -76.8519 1668.33 49.9702 1651.42 151.212C1636.96 237.747 1571.42 295.212 1511.29 359.13C1447.93 426.488 1485.54 607.872 1393.29 614.768C1298.02 621.89 1120.72 463.295 1058.2 391.102C1000.44 324.414 965.292 239.069 973.073 151.212C980.291 69.7126 1009.32 -26.315 1071.67 -79.3338C1128.35 -127.529 1198.94 -167.485 1272.18 -180.687Z" fill="url(#paint0_linear_749_808)"/>
</g>
<g filter="url(#filter1_f_749_808)">
<path fill-rule="evenodd" clip-rule="evenodd" d="M1653.86 -210.336C1729.52 -223.975 1801.01 -226.672 1861.53 -179.29C1923.44 -130.82 1957.21 -33.6994 1944.26 43.8318C1933.18 110.1 1883 154.107 1836.96 203.055C1788.44 254.637 1817.24 393.541 1746.6 398.822C1673.65 404.276 1537.88 282.824 1490.01 227.539C1445.78 176.469 1418.86 111.112 1424.82 43.8318C1430.35 -18.5807 1452.58 -92.1185 1500.32 -132.72C1543.73 -169.628 1597.78 -200.227 1653.86 -210.336Z" fill="url(#paint1_linear_749_808)"/>
</g>
<g filter="url(#filter2_f_749_808)">
<path fill-rule="evenodd" clip-rule="evenodd" d="M539.013 -379.327C662.12 -399.277 778.445 -403.222 876.924 -333.913C977.665 -263.011 1032.61 -120.945 1011.53 -7.53406C993.521 89.4017 911.865 153.774 836.945 225.375C757.994 300.829 804.857 504.015 689.918 511.74C571.215 519.718 350.303 342.06 272.401 261.19C200.439 186.486 156.642 90.8825 166.337 -7.53406C175.331 -98.83 211.501 -206.4 289.19 -265.791C359.811 -319.78 447.762 -364.539 539.013 -379.327Z" fill="url(#paint2_linear_749_808)"/>
</g>
<g opacity="0.1">
<path d="M1048.51 839.597V987.705C1035 987.897 1021.97 985.214 1012.39 979.657L886.986 907.233C877.599 901.868 873 894.586 873 887.018V738.91C873 746.479 877.599 753.759 886.986 759.125L1012.39 831.549C1021.97 837.106 1035 839.693 1048.51 839.597Z" fill="#121212"/>
<path d="M1169.89 768.895V917.006C1169.89 926.202 1163.18 935.783 1150.06 943.351L1093.05 976.306C1080.31 983.682 1064.03 987.514 1048.51 987.706V839.597C1064.03 839.405 1080.31 835.575 1093.05 828.197L1150.06 795.24C1163.18 787.674 1169.89 777.998 1169.89 768.895Z" fill="#121212"/>
<path d="M1323 779.382C1323 788.485 1316.29 798.161 1303.17 805.727L1246.17 838.685C1222.31 852.479 1186.1 853.917 1165.5 842.036L1040.1 769.612C1030.71 764.247 1026.11 756.966 1026.11 749.397C1026.11 740.296 1032.82 730.62 1045.85 723.052L1102.95 690.097C1126.8 676.302 1162.92 674.864 1183.61 686.743L1309.01 759.169C1318.4 764.535 1323 771.816 1323 779.382Z" fill="#5D7280"/>
<path d="M1290.62 805.825L1246.26 831.403C1222.41 845.198 1186.2 846.732 1165.6 834.757L1151.52 826.613L1052.65 769.612C1031.96 757.637 1034.54 736.753 1058.4 722.956L1102.85 697.378C1116.74 689.33 1134.85 685.499 1151.52 686.074C1163.49 686.36 1174.89 688.947 1183.51 694.024L1296.46 759.169C1317.16 771.145 1314.57 792.028 1290.62 805.825Z" fill="#564142"/>
<path d="M1147.05 715.556L1158.52 708.887C1153.01 712.092 1149.57 718.896 1149.52 728.554L1138.04 735.224C1138.09 725.566 1141.53 718.762 1147.05 715.556Z" fill="#121212"/>
<path d="M1140.65 704.546L1152.13 697.877C1159.34 693.684 1169.33 694.284 1180.37 700.657L1168.89 707.326C1157.85 700.953 1147.87 700.353 1140.65 704.546Z" fill="#121212"/>
<path d="M1168.89 707.327C1190.88 720.022 1208.6 750.655 1208.58 775.951L1199.48 770.699C1199.48 751.198 1185.86 727.476 1168.86 717.661C1151.97 707.908 1138.15 715.783 1138.04 735.224L1129.05 730.032C1129.17 704.798 1146.95 694.663 1168.89 707.327Z" fill="#121212"/>
<path d="M1168.89 707.327L1180.37 700.658C1202.35 713.353 1220.08 743.986 1220.06 769.282L1208.58 775.952C1208.6 750.655 1190.88 720.022 1168.89 707.327Z" fill="#121212"/>
<path d="M1323 779.383V809.37C1323 818.567 1316.29 828.147 1303.17 835.715L1246.17 868.671C1233.43 876.047 1217.14 879.881 1201.62 880.073C1188.11 880.265 1175.08 877.58 1165.5 872.025L1040.1 799.598C1030.71 794.235 1026.11 786.952 1026.11 779.383V749.398C1026.11 756.967 1030.71 764.248 1040.1 769.613L1165.5 842.037C1175.08 847.594 1188.11 850.181 1201.62 850.085C1217.14 849.893 1233.43 846.062 1246.17 838.685L1303.17 805.727C1316.29 798.162 1323 788.486 1323 779.383Z" fill="#3B4951"/>
<path d="M1323 779.383V809.37C1323 818.567 1316.29 828.147 1303.17 835.715L1246.17 868.671C1233.43 876.047 1217.14 879.881 1201.62 880.073V850.086C1217.14 849.894 1233.43 846.063 1246.17 838.686L1303.17 805.728C1316.29 798.162 1323 788.486 1323 779.383Z" fill="#2C353B"/>
<path d="M1048.51 829.211V977.319C1035 977.51 1021.97 974.828 1012.39 969.271L886.986 896.847C877.599 891.481 873 884.2 873 876.632V728.523C873 736.092 877.599 743.373 886.986 748.738L1012.39 821.162C1021.97 826.72 1035 829.307 1048.51 829.211Z" fill="#121212"/>
<path d="M1169.89 758.508V906.619C1169.89 915.815 1163.18 925.396 1150.06 932.964L1093.06 965.919C1080.31 973.296 1064.03 977.127 1048.51 977.319V829.211C1064.03 829.019 1080.31 825.188 1093.06 817.812L1150.06 784.854C1163.18 777.287 1169.89 767.612 1169.89 758.508Z" fill="#121212"/>
<path d="M1169.89 758.508V906.619C1169.89 915.815 1163.18 925.396 1150.06 932.964L1093.06 965.919C1080.31 973.296 1064.03 977.127 1048.51 977.319V829.211C1064.03 829.019 1080.31 825.188 1093.06 817.812L1150.06 784.854C1163.18 777.287 1169.89 767.612 1169.89 758.508Z" fill="#121212"/>
<path d="M1169.89 732.163C1169.89 741.266 1163.18 750.942 1150.06 758.508L1093.05 791.466C1069.2 805.261 1032.99 806.699 1012.39 794.818L886.986 722.394C877.599 717.028 873 709.747 873 702.179C873 693.078 879.706 683.402 892.735 675.834L949.834 642.878C973.688 629.084 1009.8 627.645 1030.5 639.525L1155.9 711.951C1165.29 717.316 1169.89 724.597 1169.89 732.163Z" fill="#5D7280"/>
<path d="M1137.5 758.607L1115.76 771.155L1102.54 778.82L1102.44 778.916L1093.15 784.185C1086.63 787.921 1079.35 790.795 1071.59 792.711C1071.5 792.711 1071.5 792.711 1071.4 792.711C1069.2 793.286 1067.09 793.765 1064.89 793.957C1064.79 794.054 1064.7 794.054 1064.6 794.054C1057.7 795.298 1050.71 795.777 1043.91 795.49C1041.22 795.394 1038.54 795.202 1035.96 794.819C1033.75 794.627 1031.65 794.246 1029.54 793.766C1023.21 792.521 1017.37 790.412 1012.48 787.54L1000.61 780.64L998.401 779.395L925.69 737.435L899.536 722.394C878.842 710.418 881.428 689.535 905.283 675.738L909.498 673.342L922.335 665.966L949.735 650.16C953.087 648.244 956.729 646.519 960.464 644.987C964.296 643.548 968.224 642.4 972.247 641.443C980.87 639.429 989.779 638.569 998.4 638.857C1010.37 639.142 1021.78 641.729 1030.4 646.807L1081.17 676.122L1098.42 686.086L1104.07 689.343L1143.35 711.951C1164.04 723.926 1161.45 744.81 1137.5 758.607Z" fill="#121212"/>
<path d="M1169.89 732.163V762.15C1169.89 771.346 1163.18 780.927 1150.06 788.495L1093.05 821.45C1080.31 828.826 1064.03 832.66 1048.51 832.852C1035 833.044 1021.97 830.359 1012.39 824.804L886.986 752.378C877.599 747.015 873 739.731 873 732.163V702.178C873 709.746 877.599 717.027 886.986 722.393L1012.39 794.817C1021.97 800.374 1035 802.96 1048.51 802.865C1064.03 802.673 1080.31 798.842 1093.05 791.465L1150.05 758.507C1163.18 750.942 1169.89 741.266 1169.89 732.163Z" fill="#3B4951"/>
<path d="M1169.89 732.162V762.149C1169.89 771.345 1163.18 780.926 1150.06 788.494L1093.05 821.449C1080.31 828.825 1064.03 832.659 1048.51 832.851V802.864C1064.03 802.672 1080.31 798.841 1093.05 791.464L1150.06 758.506C1163.18 750.941 1169.89 741.265 1169.89 732.162Z" fill="#2C353B"/>
<path d="M995.661 885.797L925.846 845.489V828.432L995.661 868.74V885.797Z" fill="#D7DAFF"/>
<path d="M953.368 893.158V812.543L968.14 821.072V901.686L953.368 893.158Z" fill="#D7DAFF"/>
<path d="M998.402 638.855V779.394L899.537 722.393C878.843 710.417 881.429 689.534 905.284 675.737L949.736 650.159C963.627 642.11 981.733 638.279 998.402 638.855Z" fill="#121212"/>
<path d="M1146.61 727.185L1115.76 771.156L1102.54 778.821L1143.45 720.381L1146.61 727.185Z" fill="#888ABF"/>
<path d="M1067.86 759.752L1057.19 785.503L1032.85 788.7V788.703L1057.18 785.505L1067.86 759.752Z" fill="#D7DAFF"/>
<path d="M1093.05 715.973L1087.59 728.907C1088.74 730.439 1088.74 732.546 1087.11 734.848C1086.35 735.996 1085.2 737.051 1083.86 738.008L1061.73 791.466L1044.1 793.765C1044.1 794.341 1044.1 794.916 1043.91 795.489C1050.71 795.776 1057.7 795.297 1064.6 794.053C1064.7 794.053 1064.79 794.053 1064.89 793.956C1067 793.093 1069.3 792.614 1071.4 792.71C1071.5 792.71 1071.5 792.71 1071.6 792.71C1079.36 790.794 1086.64 787.92 1093.15 784.184L1102.44 778.915L1102.54 778.819L1143.45 720.38L1093.05 715.973ZM1090.47 779.778C1087.59 783.705 1081.37 786.675 1076.58 786.196C1071.69 785.813 1069.97 782.173 1072.84 778.151C1075.62 774.221 1081.85 771.251 1086.73 771.73C1091.62 772.114 1093.25 775.755 1090.47 779.778ZM1105.22 758.798C1102.35 762.725 1096.12 765.693 1091.23 765.216C1086.35 764.833 1084.72 761.193 1087.5 757.168C1090.37 753.145 1096.6 750.27 1101.48 750.749C1106.27 751.134 1108 754.773 1105.22 758.798ZM1105.99 744.236C1101.1 743.756 1099.47 740.211 1102.25 736.188C1105.13 732.163 1111.35 729.291 1116.14 729.768C1121.03 730.152 1122.75 733.793 1119.88 737.721C1117.1 741.743 1110.87 744.62 1105.99 744.236Z" fill="#D7DAFF"/>
<path d="M1080.48 729.324L1075.57 741.163L1080.48 729.324Z" fill="#AEB2F4"/>
<path d="M1087.15 734.856C1088.78 732.541 1088.76 730.447 1087.63 728.939L1083.88 737.981C1085.17 737.055 1086.33 736.028 1087.15 734.856Z" fill="#AEB2F4"/>
<path d="M1106 744.231C1110.87 744.661 1117.1 741.768 1119.91 737.766C1122.72 733.764 1121.05 730.169 1116.18 729.734C1111.31 729.303 1105.08 732.197 1102.27 736.199C1099.46 740.203 1101.13 743.798 1106 744.231Z" fill="#AEB2F4"/>
<path d="M1091.27 765.219C1096.14 765.652 1102.37 762.757 1105.18 758.754C1107.99 754.752 1106.32 751.157 1101.44 750.725C1096.57 750.292 1090.34 753.185 1087.54 757.19C1084.72 761.192 1086.4 764.787 1091.27 765.219Z" fill="#AEB2F4"/>
<path d="M1076.53 786.205C1081.4 786.64 1087.63 783.744 1090.44 779.743C1093.25 775.741 1091.58 772.144 1086.71 771.713C1081.84 771.279 1075.61 774.174 1072.8 778.175C1069.99 782.177 1071.66 785.774 1076.53 786.205Z" fill="#AEB2F4"/>
<path d="M1044.1 793.766C1044.1 794.342 1044.1 794.917 1043.91 795.49C1041.23 795.394 1038.54 795.202 1035.96 794.819L1044.1 793.766Z" fill="#AEB2F4"/>
<path d="M1071.4 792.709C1069.2 793.284 1067.09 793.763 1064.89 793.955C1067 793.092 1069.3 792.613 1071.4 792.709Z" fill="#AEB2F4"/>
<path d="M1080.48 729.324L1075.57 741.163L1072.23 749.223L1067.86 759.753L1057.18 785.506L1061.73 791.431L1083.88 737.982L1087.63 728.94L1093.02 715.946L1108.31 679.061L1103.76 673.139V673.141L1080.48 729.324Z" fill="#888ABF"/>
<path d="M1061.73 791.465L1044.1 793.764L1035.96 794.817C1033.75 794.625 1031.65 794.244 1029.54 793.764C1030.5 792.422 1031.36 791.177 1032.12 789.834C1032.41 789.453 1032.6 789.069 1032.89 788.686L1057.23 785.523L1061.73 791.465Z" fill="#AEB2F4"/>
<path d="M1081.18 676.121L1032.22 682.539L1028.58 691.354L1035.48 699.975C1037.87 696.238 1042.38 692.982 1046.5 692.407C1051.38 691.831 1053.78 694.993 1051.96 699.496C1050.33 703.329 1046.21 706.681 1042.09 708.119L1054.73 723.926C1054.73 724.597 1054.64 729.866 1053.11 738.296C1055.12 736.86 1057.32 735.806 1059.52 735.517C1064.31 734.942 1066.71 738.008 1064.89 742.607C1062.97 747.109 1057.51 751.23 1052.72 751.899C1051.57 752.09 1050.61 751.995 1049.75 751.707C1048.89 754.39 1048.03 757.168 1046.88 760.043C1047.84 759.659 1048.79 759.372 1049.66 759.276C1054.54 758.607 1056.94 761.767 1055.02 766.269C1053.2 770.773 1047.74 774.988 1042.86 775.563C1041.9 775.755 1041.04 775.657 1040.27 775.465C1038.07 779.682 1035.67 784.184 1032.89 788.687L1057.23 785.524L1067.86 759.754L1072.27 749.217L1075.53 741.169L1080.51 729.29L1098.42 686.084L1103.79 673.15L1081.18 676.121ZM1074.66 718.848C1072.84 723.446 1067.38 727.565 1062.49 728.236C1057.7 728.811 1055.31 725.745 1057.13 721.147C1059.04 716.644 1064.51 712.525 1069.3 711.854C1074.18 711.183 1076.58 714.345 1074.66 718.848ZM1084.53 695.186C1082.61 699.688 1077.15 703.905 1072.36 704.478C1067.48 705.149 1065.08 701.987 1067 697.485C1068.82 692.982 1074.28 688.768 1079.16 688.193C1083.95 687.521 1086.35 690.683 1084.53 695.186Z" fill="#D7DAFF"/>
<path d="M1051.91 699.473C1053.78 694.957 1051.37 691.811 1046.52 692.447C1042.35 692.994 1037.87 696.204 1035.47 699.957L1042.05 708.125C1046.21 706.72 1050.33 703.286 1051.91 699.473Z" fill="#AEB2F4"/>
<path d="M1072.35 704.524C1077.2 703.888 1082.65 699.708 1084.52 695.192C1086.39 690.674 1083.98 687.527 1079.13 688.164C1074.28 688.803 1068.83 692.982 1066.96 697.499C1065.09 702.016 1067.5 705.162 1072.35 704.524Z" fill="#AEB2F4"/>
<path d="M1062.53 728.214C1067.38 727.578 1072.82 723.398 1074.7 718.882C1076.57 714.363 1074.16 711.218 1069.31 711.853C1064.46 712.492 1059.01 716.669 1057.14 721.188C1055.27 725.707 1057.68 728.85 1062.53 728.214Z" fill="#AEB2F4"/>
<path d="M1064.88 742.571C1066.75 738.053 1064.34 734.909 1059.49 735.545C1057.34 735.828 1055.1 736.883 1053.07 738.282C1052.34 742.145 1051.26 746.665 1049.73 751.721C1050.57 751.964 1051.56 752.055 1052.71 751.905C1057.56 751.267 1063.01 747.09 1064.88 742.571Z" fill="#AEB2F4"/>
<path d="M1055.06 766.263C1056.93 761.745 1054.52 758.598 1049.67 759.237C1048.77 759.357 1047.84 759.707 1046.92 760.049C1045.14 764.867 1042.93 770.027 1040.24 775.434C1041.02 775.612 1041.87 775.731 1042.89 775.597C1047.74 774.959 1053.19 770.779 1055.06 766.263Z" fill="#AEB2F4"/>
<path d="M982.669 662.06L974.427 644.684C976.583 649.413 975.692 655.572 971.186 662.097C962.069 675.3 941.716 684.955 925.722 683.659C917.74 683.014 912.358 679.76 910.098 675.024L910.077 675.034L932.67 722.673C934.301 719.677 936.028 716.638 937.981 713.53C951.862 691.418 970.316 673.068 982.669 662.06Z" fill="#FFE9E2"/>
<path d="M925.723 683.659C941.717 684.955 962.07 675.3 971.187 662.097C975.693 655.572 976.584 649.413 974.428 644.684C972.221 639.845 966.824 636.505 958.737 635.85C958.494 635.831 958.23 635.866 957.984 635.852L959.853 639.791C961.385 643.021 960.795 647.336 957.669 651.868C951.353 660.962 937.36 667.6 926.386 666.706C920.9 666.257 917.117 664.014 915.586 660.786L913.724 656.861C913.589 657.051 913.405 657.221 913.273 657.411C908.708 664.023 907.832 670.27 910.099 675.023C912.358 679.76 917.74 683.014 925.723 683.659Z" fill="#886D62"/>
<path d="M926.386 666.706C937.359 667.599 951.352 660.962 957.669 651.868C960.795 647.336 961.385 643.021 959.853 639.791L957.984 635.852L947.834 614.451C949.318 617.707 948.704 621.948 945.602 626.44C939.324 635.532 925.307 642.181 914.296 641.29C908.798 640.843 905.092 638.605 903.536 635.342L903.522 635.349L913.725 656.862L915.587 660.787C917.116 664.014 920.9 666.257 926.386 666.706Z" fill="#AEB2F4"/>
<path d="M914.296 641.29C925.307 642.181 939.324 635.532 945.602 626.44C948.704 621.948 949.318 617.707 947.834 614.451C946.315 611.118 942.598 608.817 937.029 608.365C926.016 607.476 911.999 614.123 905.722 623.215C902.578 627.769 901.975 632.07 903.536 635.342C905.092 638.605 908.798 640.843 914.296 641.29Z" fill="#D7DAFF"/>
<path d="M1054.73 723.926C1054.73 724.597 1054.64 729.866 1053.1 738.296C1052.34 742.127 1051.28 746.632 1049.75 751.708C1048.89 754.391 1048.03 757.169 1046.88 760.044C1045.15 764.834 1042.95 770.007 1040.27 775.467C1038.06 779.684 1035.67 784.186 1032.89 788.689C1032.6 789.072 1032.41 789.456 1032.12 789.837C1031.36 791.179 1030.5 792.424 1029.54 793.767C1023.22 792.522 1017.37 790.413 1012.49 787.541L1000.61 780.641C1022.74 748.355 1053.1 725.17 1054.73 723.926Z" fill="#3376BF"/>
<path d="M1042.09 708.119L1035.48 699.975L1028.58 691.354L996.007 650.924C995.338 651.5 990.068 655.429 982.692 662.038C970.333 673.054 951.844 691.447 937.952 713.484C936.036 716.644 934.311 719.71 932.684 722.68C929.905 727.854 927.607 732.737 925.691 737.434L998.402 779.394L1000.61 780.639C1022.74 748.355 1053.11 725.17 1054.73 723.926L1042.09 708.119ZM992.368 770.39L953.28 722.105L956.538 713.578L995.625 761.958L992.368 770.39ZM997.828 756.113L958.741 707.831L961.998 699.399L1001.08 747.683L997.828 756.113Z" fill="#69C3FA"/>
<path d="M997.866 756.141L1001.11 747.683L961.988 699.361L958.74 707.819L997.866 756.141Z" fill="#3376BF"/>
<path d="M995.64 761.939L956.516 713.615L953.269 722.073L992.393 770.397L995.64 761.939Z" fill="#3376BF"/>
</g>
</g>
<defs>
<filter id="filter0_f_749_808" x="772" y="-392" width="1083" height="1207" filterUnits="userSpaceOnUse" color-interpolation-filters="sRGB">
<feFlood flood-opacity="0" result="BackgroundImageFix"/>
<feBlend mode="normal" in="SourceGraphic" in2="BackgroundImageFix" result="shape"/>
<feGaussianBlur stdDeviation="100" result="effect1_foregroundBlur_749_808"/>
</filter>
<filter id="filter1_f_749_808" x="1224" y="-419" width="923" height="1018" filterUnits="userSpaceOnUse" color-interpolation-filters="sRGB">
<feFlood flood-opacity="0" result="BackgroundImageFix"/>
<feBlend mode="normal" in="SourceGraphic" in2="BackgroundImageFix" result="shape"/>
<feGaussianBlur stdDeviation="100" result="effect1_foregroundBlur_749_808"/>
</filter>
<filter id="filter2_f_749_808" x="-35" y="-592" width="1251" height="1304" filterUnits="userSpaceOnUse" color-interpolation-filters="sRGB">
<feFlood flood-opacity="0" result="BackgroundImageFix"/>
<feBlend mode="normal" in="SourceGraphic" in2="BackgroundImageFix" result="shape"/>
<feGaussianBlur stdDeviation="100" result="effect1_foregroundBlur_749_808"/>
</filter>
<linearGradient id="paint0_linear_749_808" x1="1254.29" y1="-219.22" x2="1254.29" y2="499.931" gradientUnits="userSpaceOnUse">
<stop stop-color="#391597"/>
<stop offset="1" stop-color="#391597" stop-opacity="0"/>
</linearGradient>
<linearGradient id="paint1_linear_749_808" x1="1640.16" y1="-239.845" x2="1640.16" y2="310.88" gradientUnits="userSpaceOnUse">
<stop stop-color="#93F2FF"/>
<stop offset="1" stop-color="#391597" stop-opacity="0"/>
</linearGradient>
<linearGradient id="paint2_linear_749_808" x1="516.724" y1="-422.492" x2="516.724" y2="383.1" gradientUnits="userSpaceOnUse">
<stop stop-color="#391597"/>
<stop offset="1" stop-color="#391597" stop-opacity="0"/>
</linearGradient>
<clipPath id="clip0_749_808">
<rect width="1920" height="950" fill="white"/>
</clipPath>
</defs>
</svg>
