<svg width="40" height="40" viewBox="0 0 40 40" fill="none" xmlns="http://www.w3.org/2000/svg">
<path fill-rule="evenodd" clip-rule="evenodd" d="M37.6444 37.3869C37.4867 37.693 37.1107 37.8133 36.8046 37.6555C36.4986 37.4978 36.3783 37.1218 36.536 36.8157L37.2379 35.4579C37.1601 35.494 37.0818 35.5292 37.0029 35.5637C36.2622 35.8874 35.4732 36.1385 34.643 36.3061C33.1312 36.6113 31.6299 36.6077 30.2047 36.3387C28.7213 36.0587 27.3198 35.4928 26.0736 34.6897C25.7837 34.5037 25.6995 34.1179 25.8856 33.8279C26.0716 33.538 26.4575 33.4539 26.7474 33.64C27.8619 34.3581 29.1126 34.8637 30.4342 35.1131C31.7097 35.3539 33.0508 35.3576 34.3989 35.0854C35.1347 34.9369 35.839 34.7122 36.5049 34.4211C36.6076 34.3762 36.7095 34.3296 36.8104 34.2815L35.4091 34.1544C35.0666 34.1234 34.8141 33.8206 34.8451 33.4782C34.8762 33.1357 35.179 32.8832 35.5214 32.9142L38.7932 33.2108C38.9812 33.2153 39.1651 33.3044 39.284 33.4685C39.4333 33.6746 39.4384 33.9412 39.3185 34.1481L37.6444 37.3869Z" fill="#837683"/>
<path fill-rule="evenodd" clip-rule="evenodd" d="M7.56823 10.5409C7.26355 10.3791 7.14769 10.0009 7.30941 9.69611C7.4712 9.39143 7.84941 9.27557 8.15409 9.43728L11.3822 11.1518C11.5903 11.2532 11.7337 11.4668 11.7337 11.7139C11.7337 11.9198 11.6342 12.1024 11.4806 12.2163L8.95558 14.3253C8.69128 14.5463 8.29776 14.5114 8.07667 14.2471C7.85558 13.9829 7.8905 13.5894 8.1548 13.3682L9.25112 12.4525C8.10972 12.5932 7.00925 12.8619 5.96472 13.2438C4.30277 13.8513 2.77761 14.7462 1.44941 15.8685C1.18651 16.091 0.792999 16.0581 0.570499 15.7953C0.347999 15.5324 0.380812 15.1388 0.643702 14.9163C2.08175 13.7013 3.7355 12.7316 5.53995 12.0719C6.60831 11.6813 7.72816 11.3998 8.88573 11.2406L7.56823 10.5409Z" fill="#837683"/>
<path fill-rule="evenodd" clip-rule="evenodd" d="M36.1186 5.67659C36.403 5.87073 36.4763 6.25878 36.2822 6.54331C36.088 6.82784 35.7 6.90104 35.4154 6.7069L34.1175 5.82393C34.19 6.05229 34.2554 6.28346 34.3139 6.51721C34.5438 7.43761 34.6658 8.39807 34.6658 9.38417C34.6658 10.2006 34.5808 11.0038 34.419 11.785C34.2535 12.5845 34.0078 13.3532 33.6908 14.0822C33.5533 14.3978 33.186 14.542 32.8705 14.4045C32.555 14.267 32.4108 13.8996 32.5483 13.5842C32.8318 12.9318 33.0512 12.2464 33.1983 11.536C33.3409 10.8474 33.4158 10.1278 33.4158 9.38417C33.4158 8.49706 33.3073 7.63815 33.1029 6.81995C33.0494 6.60581 32.9896 6.39456 32.9235 6.1862L32.6411 7.50612C32.5697 7.84323 32.2385 8.05854 31.9014 7.98706C31.5643 7.91565 31.349 7.5844 31.4204 7.24729L32.1163 3.99386C32.1328 3.91651 32.1642 3.84104 32.2115 3.77167C32.4057 3.48721 32.7937 3.41393 33.0783 3.60807L36.1186 5.67659Z" fill="#837683"/>
<path fill-rule="evenodd" clip-rule="evenodd" d="M33.6641 19.2542C34.1549 19.3798 34.6183 19.5741 35.0433 19.8262L36.7697 18.5762L38.1511 19.9576L36.9011 21.684C37.1531 22.109 37.3474 22.5723 37.473 23.0632L39.577 23.4V25.3537L37.4731 25.6905C37.3476 26.1813 37.1532 26.6447 36.9011 27.0697L38.1511 28.7961L36.7697 30.1775L35.0433 28.9275C34.6183 29.1795 34.1549 29.3738 33.6641 29.4994L33.3273 31.6034H31.3736L31.0368 29.4995C30.5459 29.374 30.0826 29.1797 29.6576 28.9276L27.9312 30.1776L26.5498 28.7962L27.7998 27.0698C27.5477 26.6448 27.3535 26.1814 27.2279 25.6905L25.1238 25.3538V23.4001L27.2279 23.0633C27.3535 22.5724 27.5477 22.1091 27.7997 21.6841L26.5497 19.9577L27.9311 18.5763L29.6574 19.8262C30.0825 19.5741 30.5459 19.3798 31.0367 19.2543L31.3735 17.1504H33.3272L33.6641 19.2542Z" fill="#8AC9FE"/>
<path fill-rule="evenodd" clip-rule="evenodd" d="M36.8407 25.6904C36.7152 26.1813 36.5208 26.6446 36.2687 27.0696L37.5187 28.796L36.4029 29.9119L36.7697 30.1775L38.1511 28.7961L36.9011 27.0697C37.1531 26.6447 37.3475 26.1813 37.473 25.6905L39.577 25.3537V23.4L37.473 23.0632C37.3474 22.5724 37.1531 22.1091 36.9011 21.684L38.1511 19.9576L36.7697 18.5762L36.4029 18.8418L37.5187 19.9577L36.2687 21.6841C36.5208 22.1091 36.715 22.5724 36.8406 23.0633L38.9446 23.4001V25.3537L36.8407 25.6904Z" fill="#60B7FF"/>
<path d="M32.6614 27.249C34.2461 27.0753 35.3898 25.6498 35.2161 24.0652C35.0423 22.4805 33.6168 21.3368 32.0321 21.5106C30.4474 21.6843 29.3036 23.1098 29.4774 24.6944C29.6512 26.2791 31.0767 27.4228 32.6614 27.249Z" fill="#ECEFF1"/>
<path fill-rule="evenodd" clip-rule="evenodd" d="M30.0963 24.3769C30.0963 25.8642 31.2212 27.0889 32.6667 27.2463C32.5629 27.2577 32.4573 27.2634 32.3504 27.2634C30.7562 27.2634 29.4639 25.9711 29.4639 24.3769C29.4639 23.9229 29.5686 23.4934 29.7554 23.1112C30.2243 22.1514 31.2102 21.4902 32.3504 21.4902C32.4573 21.4902 32.5628 21.496 32.6667 21.5073C31.5272 21.6315 30.5869 22.4188 30.2399 23.4752C30.1467 23.7589 30.0963 24.062 30.0963 24.3769Z" fill="#D1D1D6"/>
<path fill-rule="evenodd" clip-rule="evenodd" d="M24.1857 4.26154C24.6765 4.38709 25.1399 4.58139 25.5649 4.8335L27.2913 3.5835L28.6727 4.9649L27.4227 6.69131C27.6747 7.11631 27.869 7.57967 27.9946 8.07053L30.0986 8.40732V10.361L27.9947 10.6978C27.8692 11.1887 27.6748 11.652 27.4227 12.077L28.6727 13.8034L27.2913 15.1848L25.5649 13.9348C25.1399 14.1869 24.6765 14.3811 24.1857 14.5067L23.8489 16.6108H21.8952L21.5584 14.5069C21.0675 14.3813 20.6042 14.187 20.1792 13.9349L18.4528 15.1849L17.0714 13.8035L18.3214 12.0771C18.0694 11.6521 17.8751 11.1887 17.7495 10.6979L15.6454 10.3611V8.4074L17.7495 8.07061C17.8751 7.57975 18.0693 7.11647 18.3213 6.69139L17.0713 4.96498L18.4527 3.58357L20.179 4.8335C20.604 4.58146 21.0674 4.38709 21.5583 4.26162L21.8951 2.15771H23.8488L24.1857 4.26154Z" fill="#6CF5C2"/>
<path fill-rule="evenodd" clip-rule="evenodd" d="M27.3623 10.6977C27.2368 11.1886 27.0425 11.6519 26.7903 12.0769L28.0403 13.8033L26.9245 14.9192L27.2913 15.1848L28.6727 13.8034L27.4227 12.077C27.6747 11.652 27.8691 11.1887 27.9946 10.6978L30.0986 10.361V8.40732L27.9946 8.07053C27.8689 7.57975 27.6747 7.11639 27.4227 6.69131L28.6727 4.9649L27.2913 3.5835L26.9245 3.84912L28.0403 4.96498L26.7903 6.69139C27.0424 7.11639 27.2366 7.57975 27.3622 8.07061L29.4662 8.4074V10.3611L27.3623 10.6977Z" fill="#00E499"/>
<path d="M23.2337 12.2594C24.8168 12.065 25.9425 10.624 25.748 9.04092C25.5535 7.45788 24.1125 6.33224 22.5294 6.52674C20.9463 6.72123 19.8206 8.16222 20.0151 9.74526C20.2096 11.3283 21.6506 12.4539 23.2337 12.2594Z" fill="#ECEFF1"/>
<path fill-rule="evenodd" clip-rule="evenodd" d="M20.6178 9.3842C20.6178 10.8715 21.7427 12.0962 23.1882 12.2537C23.0844 12.265 22.9788 12.2708 22.8719 12.2708C21.2777 12.2708 19.9853 10.9784 19.9853 9.3842C19.9853 8.93021 20.0901 8.50076 20.2768 8.11857C20.7458 7.15873 21.7316 6.49756 22.8719 6.49756C22.9787 6.49756 23.0842 6.50334 23.1881 6.51467C22.0487 6.63881 21.1083 7.42615 20.7613 8.48256C20.6682 8.76623 20.6178 9.06936 20.6178 9.3842Z" fill="#D1D1D6"/>
<path fill-rule="evenodd" clip-rule="evenodd" d="M13.2754 19.4853C14.0051 19.6718 14.6939 19.9607 15.3257 20.3354L17.892 18.4774L19.9455 20.5309L18.0874 23.0972C18.4621 23.729 18.7507 24.4178 18.9375 25.1474L22.065 25.648V28.552L18.9376 29.0527C18.7511 29.7824 18.4621 30.4711 18.0875 31.1029L19.9455 33.6692L17.892 35.7227L15.3257 33.8645C14.6939 34.2392 14.0051 34.5279 13.2755 34.7146L12.7749 37.8422H9.87082L9.37019 34.7148C8.64051 34.5282 7.95176 34.2393 7.31996 33.8646L4.75363 35.7227L2.70011 33.6692L4.55824 31.1028C4.18355 30.471 3.89488 29.7823 3.70816 29.0527L0.580505 28.552V25.648L3.70816 25.1474C3.89472 24.4178 4.18347 23.729 4.55816 23.0972L2.70004 20.531L4.75355 18.4774L7.31972 20.3354C7.95152 19.9607 8.64035 19.6719 9.37004 19.4853L9.87066 16.3579H12.7747L13.2754 19.4853Z" fill="#FFE177"/>
<path fill-rule="evenodd" clip-rule="evenodd" d="M17.9974 29.0528C17.8109 29.7825 17.522 30.4712 17.1473 31.1029L19.0053 33.6693L17.3467 35.3279L17.892 35.7227L19.9455 33.6693L18.0874 31.1029C18.4621 30.4712 18.751 29.7825 18.9376 29.0528L22.0651 28.5521V25.6481L18.9375 25.1475C18.7508 24.4179 18.4621 23.7291 18.0874 23.0973L19.9456 20.531L17.892 18.4775L17.3467 18.8723L19.0054 20.531L17.1473 23.0973C17.522 23.7291 17.8107 24.4179 17.9974 25.1475L21.1249 25.6481V28.5521L17.9974 29.0528Z" fill="#FFD064"/>
<path d="M15.6204 27.3221C15.7507 24.9546 13.9372 22.9298 11.5697 22.7994C9.20229 22.6691 7.17744 24.4826 7.0471 26.8501C6.91676 29.2175 8.73029 31.2424 11.0977 31.3727C13.4652 31.5031 15.4901 29.6895 15.6204 27.3221Z" fill="#ECEFF1"/>
<path fill-rule="evenodd" clip-rule="evenodd" d="M7.97194 27.0999C7.97194 29.3109 9.64413 31.1313 11.7928 31.3654C11.6384 31.3822 11.4816 31.3909 11.3228 31.3909C8.95303 31.3909 7.03186 29.4698 7.03186 27.1C7.03186 26.4252 7.18764 25.7867 7.46522 25.2187C8.16241 23.7919 9.62788 22.8091 11.3228 22.8091C11.4816 22.8091 11.6384 22.8178 11.7928 22.8345C10.099 23.0191 8.70124 24.1894 8.18538 25.7598C8.04686 26.1813 7.97194 26.6319 7.97194 27.0999Z" fill="#D1D1D6"/>
</svg>
