<svg width="40" height="40" viewBox="0 0 40 40" fill="none" xmlns="http://www.w3.org/2000/svg">
<g clip-path="url(#clip0_66_138242)">
<path d="M9.06036 15.1499V33.6457C9.06036 37.1552 14.0644 40.0001 20.2373 40.0001C26.4101 40.0001 31.4142 37.1552 31.4142 33.6457V15.1499H9.06036Z" fill="#FF9FB3"/>
<path d="M20.2373 21.5042C26.4101 21.5042 31.4142 18.6592 31.4142 15.1498C31.4142 11.6404 26.4101 8.79541 20.2373 8.79541C14.0644 8.79541 9.06036 11.6404 9.06036 15.1498C9.06036 18.6592 14.0644 21.5042 20.2373 21.5042Z" fill="#FF8293"/>
<path d="M13.6422 11.4004V15.1499C13.6422 17.2207 16.5949 18.8994 20.237 18.8994C23.879 18.8994 26.8318 17.2207 26.8318 15.1499V11.4004H13.6422Z" fill="#A4A4F7"/>
<path d="M20.2372 15.1498C23.8796 15.1498 26.8323 13.4711 26.8323 11.4004C26.8323 9.32958 23.8796 7.65088 20.2372 7.65088C16.5949 7.65088 13.6422 9.32958 13.6422 11.4004C13.6422 13.4711 16.5949 15.1498 20.2372 15.1498Z" fill="#C5C5FF"/>
<path d="M22.0986 4.86865V12.0537C22.0986 12.0537 20.2372 13.6679 18.198 12.0537V4.86865H22.0986Z" fill="#EEECFF"/>
<path d="M25.062 4.72834C24.2896 10.3164 12.1292 12.8905 12.1292 12.8905C9.64561 11.9215 8.58527 10.8309 8.58527 10.8309V8.89222C12.4525 0.334457 18.9025 -1.04658 22.4887 0.612043C24.2387 1.42066 25.3077 2.95342 25.062 4.72834Z" fill="#A4A4F7"/>
<path d="M23.1534 3.09221C20.7913 9.18015 12.4697 10.731 12.4697 10.731C12.4697 10.731 9.98096 10.1008 8.58527 8.89221C12.4525 0.334457 18.9025 -1.04658 22.4887 0.612043C22.7775 0.949663 22.9871 1.34764 23.1021 1.7768C23.2171 2.20596 23.2347 2.65541 23.1534 3.09221Z" fill="#C5C5FF"/>
<path d="M26.7264 28.5055C26.5871 28.1732 26.3215 27.9099 25.988 27.7734C25.6546 27.6369 25.2806 27.6384 24.9483 27.7777C23.8912 28.218 22.7739 28.4969 21.634 28.6053V24.9949C21.6354 24.8156 21.6013 24.6378 21.5337 24.4717C21.466 24.3056 21.3662 24.1546 21.2399 24.0273C21.1136 23.8999 20.9633 23.7989 20.7978 23.7299C20.6323 23.661 20.4547 23.6255 20.2754 23.6255C20.096 23.6255 19.9185 23.661 19.753 23.7299C19.5874 23.7989 19.4372 23.8999 19.3109 24.0273C19.1846 24.1546 19.0847 24.3056 19.0171 24.4717C18.9495 24.6378 18.9154 24.8156 18.9168 24.9949V28.5816C16.9761 28.3651 15.6595 27.8024 15.6278 27.7885C15.2986 27.642 14.9247 27.6323 14.5883 27.7615C14.2519 27.8908 13.9806 28.1483 13.8342 28.4776C13.6877 28.8068 13.678 29.1807 13.8072 29.5171C13.9365 29.8535 14.194 30.1247 14.5233 30.2712C14.6502 30.3279 16.3895 31.0867 18.9168 31.3218V33.8584C18.9154 34.0377 18.9495 34.2155 19.0171 34.3816C19.0847 34.5477 19.1846 34.6988 19.3109 34.8261C19.4372 34.9534 19.5874 35.0544 19.753 35.1234C19.9185 35.1923 20.096 35.2278 20.2754 35.2278C20.4547 35.2278 20.6323 35.1923 20.7978 35.1234C20.9633 35.0544 21.1136 34.9534 21.2399 34.8261C21.3662 34.6988 21.466 34.5477 21.5337 34.3816C21.6013 34.2155 21.6354 34.0377 21.634 33.8584V31.3398C23.1354 31.2206 24.6086 30.8641 25.9984 30.2836C26.3308 30.1444 26.5941 29.8788 26.7306 29.5453C26.8672 29.2119 26.8656 28.8379 26.7264 28.5055Z" fill="#EEECFF"/>
</g>
<defs>
<clipPath id="clip0_66_138242">
<rect width="40" height="40" fill="white" transform="translate(-0.000305176)"/>
</clipPath>
</defs>
</svg>
