<svg width="40" height="40" viewBox="0 0 40 40" fill="none" xmlns="http://www.w3.org/2000/svg">
<g clip-path="url(#clip0_66_138256)">
<path d="M35.5611 1.98344L32.0361 0.700938C31.3871 0.464836 30.6697 0.799503 30.4336 1.44844C30.1975 2.09737 30.5321 2.81484 31.1811 3.05094L34.7061 4.33344C35.355 4.56954 36.0725 4.23487 36.3086 3.58594C36.5447 2.937 36.21 2.21954 35.5611 1.98344Z" fill="#F8F8FF"/>
<path d="M36.2979 3.58556L32.7741 2.30306C32.6199 2.24686 32.456 2.2216 32.292 2.22871C32.128 2.23583 31.967 2.27519 31.8182 2.34455C31.6694 2.41391 31.5357 2.5119 31.4247 2.63293C31.3138 2.75396 31.2278 2.89566 31.1716 3.04994L34.696 4.33244C35.0075 4.44575 35.3512 4.43073 35.6516 4.29067C35.952 4.15061 36.1844 3.89699 36.2979 3.58556Z" fill="#E7E7F4"/>
<path d="M34.696 4.3323L31.1716 3.0498L21.1273 23.3379L29.3498 26.3304L34.696 4.3323Z" fill="#E7E7F4"/>
<path d="M34.696 4.33254L32.3466 3.47754L22.3016 23.7657L29.3497 26.3307L34.696 4.33254Z" fill="#DCDCEF"/>
<path d="M12.5004 15.625C14.2263 15.625 15.6254 14.2259 15.6254 12.5C15.6254 10.7741 14.2263 9.375 12.5004 9.375C10.7745 9.375 9.37537 10.7741 9.37537 12.5C9.37537 14.2259 10.7745 15.625 12.5004 15.625Z" fill="#E7E7F4"/>
<path d="M12.9691 9.84375C12.9691 9.58487 12.7592 9.375 12.5004 9.375C12.2415 9.375 12.0316 9.58487 12.0316 9.84375V15.1562C12.0316 15.4151 12.2415 15.625 12.5004 15.625C12.7592 15.625 12.9691 15.4151 12.9691 15.1562V9.84375Z" fill="#DCDCEF"/>
<path d="M11.0242 3.82732L13.6754 6.47857C14.4075 7.2107 15.5945 7.2107 16.3267 6.47857C17.0588 5.74645 17.0588 4.55945 16.3267 3.82732L13.6754 1.17607C12.9433 0.443952 11.7563 0.443952 11.0242 1.17607C10.292 1.9082 10.292 3.0952 11.0242 3.82732Z" fill="#56D8BA"/>
<path d="M11.0213 1.17515C11.373 0.823521 11.8499 0.625976 12.3471 0.625976C12.8444 0.625976 13.3213 0.823521 13.673 1.17515L14.9988 2.50098L12.3471 5.15263L11.0213 3.8268C10.6697 3.47517 10.4721 2.99826 10.4721 2.50098C10.4721 2.0037 10.6697 1.52678 11.0213 1.17515Z" fill="#F5738C"/>
<path d="M7.41441 9.99951C8.87865 8.53527 9.47216 6.75476 8.74003 6.02264C8.00791 5.29051 6.2274 5.88402 4.76316 7.34826C3.29891 8.81251 2.70541 10.593 3.43753 11.3251C4.16966 12.0573 5.95016 11.4638 7.41441 9.99951Z" fill="#8090E6"/>
<path d="M5.42656 7.34921C5.2435 7.16615 4.9467 7.16615 4.76365 7.34921C4.58059 7.53227 4.58059 7.82906 4.76365 8.01212L6.75238 10.0009C6.93544 10.1839 7.23224 10.1839 7.4153 10.0009C7.59835 9.8178 7.59835 9.521 7.4153 9.33795L5.42656 7.34921Z" fill="#7181D7"/>
<path d="M31.6254 36.875H8.37537C7.61583 36.875 6.88229 36.5984 6.31187 36.0969C5.74145 35.5954 5.37321 34.9033 5.27599 34.15L3.12537 17.5H36.8754L34.7272 34.15C34.63 34.9037 34.2614 35.5962 33.6904 36.0977C33.1195 36.5993 32.3853 36.8756 31.6254 36.875Z" fill="#E7E7F4"/>
<path d="M31.6254 36.875H10.2504C9.49083 36.875 8.75729 36.5984 8.18687 36.0969C7.61645 35.5954 7.24821 34.9033 7.15099 34.15L5.00037 17.5H36.8754L34.7272 34.15C34.63 34.9037 34.2614 35.5962 33.6904 36.0977C33.1195 36.5993 32.3853 36.8756 31.6254 36.875Z" fill="#DCDCEF"/>
<path d="M36.8754 13.75H3.12537C2.43501 13.75 1.87537 14.3096 1.87537 15V16.25C1.87537 16.9404 2.43501 17.5 3.12537 17.5H36.8754C37.5657 17.5 38.1254 16.9404 38.1254 16.25V15C38.1254 14.3096 37.5657 13.75 36.8754 13.75Z" fill="#F8F8FF"/>
<path d="M3.75037 15H36.8754C37.2069 15 37.5248 15.1317 37.7593 15.3661C37.9937 15.6005 38.1254 15.9185 38.1254 16.25C38.1254 16.5815 37.9937 16.8995 37.7593 17.1339C37.5248 17.3683 37.2069 17.5 36.8754 17.5H4.37537C4.04385 17.5 3.7259 17.3683 3.49148 17.1339C3.25706 16.8995 3.12537 16.5815 3.12537 16.25V15.625C3.12537 15.4592 3.19121 15.3003 3.30842 15.1831C3.42563 15.0658 3.58461 15 3.75037 15Z" fill="#E7E7F4"/>
<path d="M8.12537 36.875H31.8754V38.125C31.8754 38.4565 31.7437 38.7745 31.5093 39.0089C31.2748 39.2433 30.9569 39.375 30.6254 39.375H9.37537C9.04385 39.375 8.7259 39.2433 8.49148 39.0089C8.25706 38.7745 8.12537 38.4565 8.12537 38.125V36.875Z" fill="#8F9FF5"/>
<path d="M10.0004 36.875H31.8754V38.125C31.8754 38.4565 31.7437 38.7745 31.5093 39.0089C31.2748 39.2433 30.9569 39.375 30.6254 39.375H11.2504C10.9188 39.375 10.6009 39.2433 10.3665 39.0089C10.1321 38.7745 10.0004 38.4565 10.0004 38.125V36.875Z" fill="#8090E6"/>
<path d="M20.0004 32.1875C23.107 32.1875 25.6254 29.6691 25.6254 26.5625C25.6254 23.4559 23.107 20.9375 20.0004 20.9375C16.8938 20.9375 14.3754 23.4559 14.3754 26.5625C14.3754 29.6691 16.8938 32.1875 20.0004 32.1875Z" fill="#F55D74"/>
<path d="M21.2504 22.1875C20.2132 22.1862 19.196 22.472 18.3113 23.0132C17.4266 23.5545 16.709 24.3301 16.238 25.2541C15.7669 26.1781 15.5609 27.2144 15.6426 28.2483C15.7243 29.2823 16.0907 30.2734 16.701 31.1119C17.7832 31.8999 19.1113 32.2757 20.4459 32.1713C21.7806 32.067 23.0342 31.4895 23.9808 30.5429C24.9274 29.5963 25.5049 28.3427 25.6092 27.0081C25.7135 25.6734 25.3378 24.3453 24.5498 23.2631C23.5918 22.5638 22.4364 22.1871 21.2504 22.1875Z" fill="#F5738C"/>
<path d="M23.1254 25.625H20.9379V23.4375H19.0629V25.625H16.8754V27.5H19.0629V29.6875H20.9379V27.5H23.1254V25.625Z" fill="#F8F8FF"/>
<path d="M20.0004 32.6563C18.7951 32.6563 17.617 32.2989 16.6149 31.6293C15.6128 30.9597 14.8317 30.008 14.3705 28.8945C13.9093 27.781 13.7886 26.5557 14.0237 25.3737C14.2588 24.1916 14.8392 23.1058 15.6914 22.2536C16.5437 21.4013 17.6295 20.821 18.8115 20.5858C19.9936 20.3507 21.2189 20.4714 22.3323 20.9326C23.4458 21.3938 24.3975 22.1749 25.0671 23.177C25.7367 24.1791 26.0941 25.3573 26.0941 26.5625C26.0923 28.1781 25.4497 29.727 24.3073 30.8694C23.1649 32.0118 21.616 32.6544 20.0004 32.6563ZM20.0004 21.4063C18.9806 21.4063 17.9837 21.7087 17.1357 22.2752C16.2878 22.8418 15.6269 23.6471 15.2366 24.5893C14.8464 25.5315 14.7442 26.5682 14.9432 27.5684C15.1422 28.5687 15.6332 29.4874 16.3543 30.2085C17.0755 30.9296 17.9942 31.4207 18.9944 31.6197C19.9946 31.8186 21.0314 31.7165 21.9736 31.3263C22.9158 30.936 23.7211 30.2751 24.2876 29.4272C24.8542 28.5792 25.1566 27.5823 25.1566 26.5625C25.1551 25.1954 24.6114 23.8848 23.6447 22.9181C22.6781 21.9515 21.3674 21.4077 20.0004 21.4063Z" fill="#F8F8FF"/>
</g>
<defs>
<clipPath id="clip0_66_138256">
<rect width="40" height="40" fill="white" transform="translate(0.000366211)"/>
</clipPath>
</defs>
</svg>
