<svg width="40" height="40" viewBox="0 0 40 40" fill="none" xmlns="http://www.w3.org/2000/svg">
<g clip-path="url(#clip0_66_138281)">
<path d="M38.5406 23.6776L32.2267 20L38.5405 16.3224C39.5561 15.7309 39.8998 14.4282 39.3083 13.4126L35.2558 6.45506C34.6643 5.43953 33.3616 5.09577 32.346 5.68729L26.1539 9.29404V2.128C26.1539 0.952706 25.2011 0 24.0259 0H15.9741C14.7989 0 13.8461 0.952706 13.8461 2.128V9.29404L7.65395 5.68729C6.63842 5.09577 5.3356 5.43953 4.74415 6.45506L0.691601 13.4126C0.100071 14.4282 0.443836 15.731 1.45937 16.3224L7.77325 20L1.45944 23.6776C0.443914 24.2691 0.10015 25.5718 0.691679 26.5874L4.74415 33.5449C5.33568 34.5605 6.63842 34.9042 7.65395 34.3127L13.8462 30.706V37.872C13.8462 39.0472 14.7989 40 15.9742 40H24.026C25.2012 40 26.154 39.0473 26.154 37.872V30.706L32.3461 34.3127C33.3616 34.9042 34.6645 34.5605 35.2559 33.5449L39.3084 26.5874C39.8999 25.5718 39.5562 24.2691 38.5406 23.6776Z" fill="url(#paint0_linear_66_138281)"/>
<path d="M15.9741 38.4316C15.6657 38.4316 15.4148 38.1807 15.4148 37.8722V30.7062C15.4148 30.1447 15.1147 29.626 14.6279 29.3463C14.3858 29.2071 14.1159 29.1376 13.8461 29.1376C13.5733 29.1376 13.3006 29.2086 13.0566 29.3507L6.8644 32.9575C6.77742 33.0081 6.6833 33.0339 6.58487 33.0339C6.38244 33.0339 6.20095 32.9299 6.09954 32.7557L2.04707 25.7981C1.94565 25.6239 1.96746 25.4576 1.98957 25.3739C2.01169 25.2902 2.07467 25.1347 2.24887 25.0332L8.56275 21.3557C9.0451 21.0747 9.34189 20.5585 9.34189 20.0002C9.34189 19.4419 9.04518 18.9257 8.56275 18.6448L2.24887 14.9672C2.07467 14.8658 2.01169 14.7103 1.98957 14.6266C1.96754 14.5429 1.94565 14.3765 2.04707 14.2023L6.09961 7.24477C6.20103 7.07057 6.38252 6.96665 6.58495 6.96665C6.68346 6.96665 6.7775 6.9923 6.86448 7.04304L13.0567 10.6498C13.3006 10.7919 13.5734 10.863 13.8462 10.863C14.116 10.863 14.3858 10.7935 14.6279 10.6543C15.1148 10.3745 15.4148 9.85583 15.4148 9.29434V2.12822C15.4148 1.81975 15.6657 1.56885 15.9742 1.56885H24.0259C24.3344 1.56885 24.5853 1.81975 24.5853 2.12822V9.29426C24.5853 9.85575 24.8853 10.3744 25.3722 10.6542C25.6142 10.7933 25.8841 10.8629 26.1539 10.8629C26.4268 10.8629 26.6995 10.7918 26.9434 10.6497L33.1356 7.04297C33.2226 6.9923 33.3167 6.96657 33.4151 6.96657C33.6176 6.96657 33.799 7.07057 33.9005 7.24469L37.953 14.2023C38.0544 14.3764 38.0326 14.5428 38.0105 14.6265C37.9885 14.7101 37.9254 14.8656 37.7512 14.9671L31.4373 18.6447C30.955 18.9257 30.6582 19.4419 30.6582 20.0001C30.6582 20.5584 30.9549 21.0747 31.4373 21.3556L37.7512 25.0332C37.9254 25.1346 37.9884 25.2901 38.0105 25.3738C38.0326 25.4575 38.0545 25.6238 37.953 25.798L33.9005 32.7555C33.7991 32.9297 33.6177 33.0337 33.4151 33.0337C33.3166 33.0337 33.2226 33.0081 33.1356 32.9573L26.9434 29.3506C26.6995 29.2085 26.4267 29.1374 26.1539 29.1374C25.8841 29.1374 25.6143 29.2069 25.3722 29.3461C24.8853 29.6259 24.5853 30.1445 24.5853 30.706V37.8721C24.5853 38.1805 24.3344 38.4314 24.0259 38.4314H15.9741V38.4316Z" fill="url(#paint1_linear_66_138281)"/>
<path d="M19.0686 15.7842C19.7779 15.7842 20.3529 14.9985 20.3529 14.0293C20.3529 13.0601 19.7779 12.2744 19.0686 12.2744C18.3593 12.2744 17.7843 13.0601 17.7843 14.0293C17.7843 14.9985 18.3593 15.7842 19.0686 15.7842Z" fill="url(#paint2_linear_66_138281)"/>
<path d="M1.45937 23.6777C0.443836 24.2692 0.100071 25.572 0.691601 26.5875L4.74407 33.5451C5.3356 34.5606 6.63835 34.9044 7.65388 34.3128L13.8461 30.7061V37.8721C13.8461 39.0474 14.7988 40.0001 15.9741 40.0001H24.0259C25.2011 40.0001 26.1539 39.0474 26.1539 37.8721V30.7061L32.346 34.3128C33.3616 34.9044 34.6644 34.5606 35.2558 33.5451L39.3083 26.5875C39.8998 25.572 39.5561 24.2692 38.5405 23.6777L32.3187 20.0537H7.68117L1.45937 23.6777Z" fill="url(#paint3_linear_66_138281)"/>
<path d="M35.2558 33.5449L39.3083 26.5873C39.8998 25.5718 39.5561 24.2689 38.5406 23.6775L32.2267 19.9999L32.9206 19.5958L20.985 7.66016H19.8431V30.5882L17.9143 31.3764L25.71 39.1721C25.988 38.8125 26.1539 38.3617 26.1539 37.872V30.706L32.346 34.3127C33.3616 34.9042 34.6644 34.5604 35.2558 33.5449Z" fill="url(#paint4_linear_66_138281)"/>
<path d="M19.959 32.765C19.6341 32.765 19.3707 32.5016 19.3707 32.1768V9.39243C19.3707 9.06757 19.6341 8.8042 19.959 8.8042C20.2838 8.8042 20.5472 9.06757 20.5472 9.39243V32.1768C20.5472 32.5016 20.2838 32.765 19.959 32.765Z" fill="url(#paint5_linear_66_138281)"/>
<path d="M19.959 8.8042C19.6341 8.8042 19.3707 9.06757 19.3707 9.39243V12.0264H20.5472V9.39243C20.5472 9.06757 20.2838 8.8042 19.959 8.8042Z" fill="url(#paint6_linear_66_138281)"/>
<path d="M19.959 11.6538C19.6341 11.6538 19.3707 11.9172 19.3707 12.242V14.876H20.5472V12.242C20.5472 11.9172 20.2838 11.6538 19.959 11.6538Z" fill="url(#paint7_linear_66_138281)"/>
<path d="M19.959 22.2939C19.6341 22.2939 19.3707 22.5573 19.3707 22.8822V25.5161H20.5472V22.8822C20.5472 22.5573 20.2838 22.2939 19.959 22.2939Z" fill="url(#paint8_linear_66_138281)"/>
<path d="M19.959 29.9414C19.6341 29.9414 19.3707 30.2048 19.3707 30.5296V32.1767C19.3707 32.5016 19.6341 32.7649 19.959 32.7649C20.2838 32.7649 20.5472 32.5016 20.5472 32.1767V30.5296C20.5472 30.2048 20.2838 29.9414 19.959 29.9414Z" fill="url(#paint9_linear_66_138281)"/>
<path d="M19.959 10.1373C20.7603 10.1373 21.41 9.48769 21.41 8.68633C21.41 7.88498 20.7603 7.23535 19.959 7.23535C19.1576 7.23535 18.508 7.88498 18.508 8.68633C18.508 9.48769 19.1576 10.1373 19.959 10.1373Z" fill="url(#paint10_linear_66_138281)"/>
<path d="M21.954 11.7315C21.9093 11.6857 21.8551 11.6432 21.7974 11.6046C21.5637 11.4483 21.2853 11.3726 21.0041 11.3726H19.374C18.3631 11.3726 17.4287 11.9585 17.0324 12.8885C16.6245 13.8458 16.8287 14.9002 17.563 15.6345L19.3708 17.4424V15.2243L18.672 14.5255C18.2649 14.1184 18.4155 13.6486 18.4712 13.5137C18.5269 13.3796 18.7528 12.9412 19.3285 12.9412C19.6257 12.9412 19.8947 13.0995 20.0576 13.3482C20.3087 13.7319 20.8808 14 21.5473 14C22.4461 14 23.1747 13.5128 23.1747 12.9118C23.1747 12.4948 22.8237 12.133 22.3086 11.9504C22.1759 11.9034 22.0522 11.8321 21.954 11.7315Z" fill="url(#paint11_linear_66_138281)"/>
<path d="M22.2249 28.7269C22.1747 29.5834 21.6892 30.3277 20.9253 30.7183L20.5472 30.9112L19.3708 31.5128L18.97 31.7175C18.8555 31.7763 18.7331 31.8038 18.6131 31.8038C18.3284 31.8038 18.0531 31.6477 17.9143 31.3763C17.7174 30.9905 17.8696 30.5183 18.2555 30.3214L19.3708 29.7512L20.2108 29.3214C20.3762 29.2375 20.4806 29.123 20.5472 29.0093C20.6335 28.8618 20.6547 28.7152 20.6594 28.6352C20.6649 28.5403 20.6578 28.3505 20.5472 28.1638V26.1826L21.1668 26.5975C21.8798 27.0744 22.2751 27.8705 22.2249 28.7269Z" fill="url(#paint12_linear_66_138281)"/>
<path d="M22.2249 28.7269C22.1747 29.5834 21.6892 30.3277 20.9253 30.7183L20.5472 30.9112L19.3708 31.5128L18.97 31.7175C18.8555 31.7763 18.7331 31.8038 18.6131 31.8038C18.3284 31.8038 18.0531 31.6477 17.9143 31.3763C17.7174 30.9905 17.8696 30.5183 18.2555 30.3214L19.3708 29.7512L20.2108 29.3214C20.3762 29.2375 20.4806 29.123 20.5472 29.0093C20.6335 28.8618 20.6547 28.7152 20.6594 28.6352C20.6649 28.5403 20.6578 28.3505 20.5472 28.1638V26.1826L21.1668 26.5975C21.8798 27.0744 22.2751 27.8705 22.2249 28.7269Z" fill="url(#paint13_linear_66_138281)"/>
<path d="M22.7739 19.9507C22.7276 20.7452 22.3433 21.484 21.719 21.9773L20.5472 22.9036L19.8413 23.4613C19.617 23.6385 19.457 23.8691 19.3707 24.1279C19.3166 24.2895 19.2915 24.4621 19.2986 24.6401C19.3041 24.7774 19.3284 24.9099 19.3707 25.0354V27.2832L19.0601 27.0754C18.2539 26.5366 17.77 25.6715 17.7315 24.7021C17.6931 23.7326 18.1072 22.8323 18.868 22.2307L19.3707 21.833L20.5472 20.9036L20.7456 20.7468C21.0233 20.5272 21.1872 20.2119 21.2084 19.8589C21.2288 19.506 21.1025 19.1742 20.8523 18.924L20.5472 18.6189V16.4009L21.9613 17.815C22.5245 18.3773 22.8201 19.1562 22.7739 19.9507Z" fill="url(#paint14_linear_66_138281)"/>
<path d="M20.5472 16.4009V18.6189L20.8523 18.924C21.1025 19.1742 21.2288 19.506 21.2084 19.8589C21.1885 20.1911 21.0407 20.4889 20.7921 20.706H22.6226C22.7067 20.4646 22.7587 20.2107 22.7739 19.9507C22.8202 19.1562 22.5245 18.3773 21.9613 17.815L20.5472 16.4009Z" fill="url(#paint15_linear_66_138281)"/>
</g>
<defs>
<linearGradient id="paint0_linear_66_138281" x1="1.99999" y1="2" x2="36.9857" y2="36.9857" gradientUnits="userSpaceOnUse">
<stop stop-color="#AEFFD1"/>
<stop offset="0.1201" stop-color="#A3F9CB"/>
<stop offset="0.3288" stop-color="#87EAB9"/>
<stop offset="0.6012" stop-color="#59D19D"/>
<stop offset="0.9235" stop-color="#19AF77"/>
<stop offset="1" stop-color="#09A76D"/>
</linearGradient>
<linearGradient id="paint1_linear_66_138281" x1="63.0588" y1="63.059" x2="-4.51701" y2="-4.51681" gradientUnits="userSpaceOnUse">
<stop stop-color="#AEFFD1"/>
<stop offset="0.1201" stop-color="#A3F9CB"/>
<stop offset="0.3288" stop-color="#87EAB9"/>
<stop offset="0.6012" stop-color="#59D19D"/>
<stop offset="0.9235" stop-color="#19AF77"/>
<stop offset="1" stop-color="#09A76D"/>
</linearGradient>
<linearGradient id="paint2_linear_66_138281" x1="20.2333" y1="14.6117" x2="18.1549" y2="13.5725" gradientUnits="userSpaceOnUse">
<stop stop-color="#02905D" stop-opacity="0"/>
<stop offset="0.3117" stop-color="#028958" stop-opacity="0.312"/>
<stop offset="0.7787" stop-color="#02744A" stop-opacity="0.779"/>
<stop offset="1" stop-color="#026841"/>
</linearGradient>
<linearGradient id="paint3_linear_66_138281" x1="20" y1="33.4903" x2="20" y2="39.608" gradientUnits="userSpaceOnUse">
<stop stop-color="#02905D" stop-opacity="0"/>
<stop offset="0.3117" stop-color="#028958" stop-opacity="0.312"/>
<stop offset="0.7787" stop-color="#02744A" stop-opacity="0.779"/>
<stop offset="1" stop-color="#026841"/>
</linearGradient>
<linearGradient id="paint4_linear_66_138281" x1="28.3922" y1="23.4162" x2="17.0185" y2="23.4162" gradientUnits="userSpaceOnUse">
<stop stop-color="#02905D" stop-opacity="0"/>
<stop offset="0.3117" stop-color="#028958" stop-opacity="0.312"/>
<stop offset="0.7787" stop-color="#02744A" stop-opacity="0.779"/>
<stop offset="1" stop-color="#026841"/>
</linearGradient>
<linearGradient id="paint5_linear_66_138281" x1="19.2922" y1="20.7846" x2="20.667" y2="20.7846" gradientUnits="userSpaceOnUse">
<stop stop-color="#EAF9FA"/>
<stop offset="1" stop-color="#B3DAFE"/>
</linearGradient>
<linearGradient id="paint6_linear_66_138281" x1="19.959" y1="11.033" x2="19.959" y2="10.1171" gradientUnits="userSpaceOnUse">
<stop stop-color="#7BACDF" stop-opacity="0"/>
<stop offset="1" stop-color="#7BACDF"/>
</linearGradient>
<linearGradient id="paint7_linear_66_138281" x1="19.959" y1="14.0787" x2="19.959" y2="12.5754" gradientUnits="userSpaceOnUse">
<stop stop-color="#7BACDF" stop-opacity="0"/>
<stop offset="1" stop-color="#7BACDF"/>
</linearGradient>
<linearGradient id="paint8_linear_66_138281" x1="20.1575" y1="24.4106" x2="19.5823" y2="23.5413" gradientUnits="userSpaceOnUse">
<stop stop-color="#7BACDF" stop-opacity="0"/>
<stop offset="1" stop-color="#7BACDF"/>
</linearGradient>
<linearGradient id="paint9_linear_66_138281" x1="20.2078" y1="32.3174" x2="19.8941" y2="31.1017" gradientUnits="userSpaceOnUse">
<stop stop-color="#7BACDF" stop-opacity="0"/>
<stop offset="1" stop-color="#7BACDF"/>
</linearGradient>
<linearGradient id="paint10_linear_66_138281" x1="19.2139" y1="7.94123" x2="20.587" y2="9.31433" gradientUnits="userSpaceOnUse">
<stop stop-color="#EAF9FA"/>
<stop offset="1" stop-color="#B3DAFE"/>
</linearGradient>
<linearGradient id="paint11_linear_66_138281" x1="18.6074" y1="11.5327" x2="20.0151" y2="13.6705" gradientUnits="userSpaceOnUse">
<stop stop-color="#EAF9FA"/>
<stop offset="1" stop-color="#B3DAFE"/>
</linearGradient>
<linearGradient id="paint12_linear_66_138281" x1="18.2267" y1="27.6669" x2="21.7038" y2="31.1439" gradientUnits="userSpaceOnUse">
<stop stop-color="#EAF9FA"/>
<stop offset="1" stop-color="#B3DAFE"/>
</linearGradient>
<linearGradient id="paint13_linear_66_138281" x1="20.1526" y1="29.6978" x2="18.4271" y2="27.3971" gradientUnits="userSpaceOnUse">
<stop stop-color="#7BACDF" stop-opacity="0"/>
<stop offset="1" stop-color="#7BACDF"/>
</linearGradient>
<linearGradient id="paint14_linear_66_138281" x1="17.4228" y1="19.3991" x2="21.3914" y2="23.3676" gradientUnits="userSpaceOnUse">
<stop stop-color="#EAF9FA"/>
<stop offset="1" stop-color="#B3DAFE"/>
</linearGradient>
<linearGradient id="paint15_linear_66_138281" x1="21.4562" y1="19.1323" x2="19.5738" y2="17.7468" gradientUnits="userSpaceOnUse">
<stop stop-color="#7BACDF" stop-opacity="0"/>
<stop offset="1" stop-color="#7BACDF"/>
</linearGradient>
<clipPath id="clip0_66_138281">
<rect width="40" height="40" fill="white"/>
</clipPath>
</defs>
</svg>
