<svg width="40" height="40" viewBox="0 0 40 40" fill="none" xmlns="http://www.w3.org/2000/svg">
<path d="M19.7441 6.33712C15.3837 6.39445 11.8953 9.97567 11.9525 14.3361L12.2715 38.6157C12.2823 39.4353 15.8258 40.0533 20.1863 39.996C24.5468 39.9387 28.0729 39.2278 28.062 38.4083L27.7431 14.1288C27.6859 9.76833 24.1047 6.27988 19.7441 6.33712Z" fill="#3288D4"/>
<path d="M16.2441 3.06104L23.1596 2.97113L23.2375 8.9673L16.322 9.0572L16.2441 3.06104Z" fill="#3288D4"/>
<path d="M11.9865 17.0107L27.7785 16.8054L27.9492 29.9407L12.1573 30.146L11.9865 17.0107Z" fill="white"/>
<path d="M23.5501 5.33741L15.9135 5.43768C15.4896 5.44324 15.1415 5.10413 15.1359 4.68027L15.0863 0.902369C15.0808 0.478507 15.4199 0.130315 15.8437 0.124759L23.4803 0.0244814C23.9042 0.0189251 24.2524 0.358033 24.2579 0.781984L24.3075 4.55997C24.313 4.98366 23.974 5.33185 23.5501 5.33741Z" fill="#FF6963"/>
<path d="M16.149 0.193886C16.1715 1.9105 16.1941 3.62703 16.2166 5.34365C16.2186 5.49023 16.4476 5.50531 16.4457 5.35714C16.4232 3.64053 16.4005 1.924 16.378 0.20738C16.3762 0.0608004 16.147 0.0457191 16.149 0.193886Z" fill="#010735"/>
<path d="M17.5204 0.176308C17.5429 1.89284 17.5656 3.60946 17.5881 5.32607C17.5899 5.47265 17.819 5.48773 17.8171 5.33957C17.7946 3.62295 17.7719 1.90642 17.7494 0.189802C17.7475 0.0432223 17.5185 0.028141 17.5204 0.176308Z" fill="#010735"/>
<path d="M18.8918 0.158175C18.9143 1.87479 18.9369 3.59132 18.9595 5.30794C18.9614 5.45452 19.1905 5.4696 19.1885 5.32143C19.1659 3.60482 19.1434 1.88829 19.1209 0.171669C19.1189 0.0251781 18.8899 0.0100968 18.8918 0.158175Z" fill="#010735"/>
<path d="M20.2631 0.140134C20.2857 1.85675 20.3082 3.57328 20.3307 5.2899C20.3327 5.43648 20.5617 5.45165 20.5599 5.30348C20.5373 3.58686 20.5148 1.87033 20.4922 0.153716C20.4904 0.00713676 20.2611 -0.00803269 20.2631 0.140134Z" fill="#010735"/>
<path d="M21.6345 0.122099C21.6571 1.83872 21.6797 3.55525 21.7021 5.27186C21.7041 5.41844 21.9331 5.43361 21.9313 5.28545C21.9087 3.56883 21.8861 1.8523 21.8636 0.135681C21.8617 -0.0109865 21.6326 -0.0260677 21.6345 0.122099Z" fill="#010735"/>
<path d="M23.0059 0.104042C23.0284 1.82066 23.051 3.53728 23.0736 5.25381C23.0755 5.40039 23.3046 5.41556 23.3026 5.2673C23.2801 3.55068 23.2576 1.83415 23.235 0.117536C23.233 -0.0290434 23.004 -0.0441246 23.0059 0.104042Z" fill="#010735"/>
<path d="M22.6281 24.7425L17.3447 24.8119C16.6235 24.8213 16.0311 24.2443 16.0216 23.5231L16.0215 23.523C16.0121 22.8017 16.5892 22.2094 17.3103 22.1999L22.5938 22.1305C23.3151 22.121 23.9075 22.698 23.9169 23.4193V23.4194C23.9264 24.1405 23.3494 24.7329 22.6281 24.7425Z" fill="#FF6963"/>
<path d="M18.698 26.13L18.6286 20.8466C18.6191 20.1254 19.1961 19.533 19.9174 19.5236H19.9175C20.6386 19.5141 21.2311 20.0911 21.2405 20.8123L21.31 26.0957C21.3195 26.817 20.7423 27.4094 20.0211 27.4188C19.2998 27.4282 18.7074 26.8512 18.698 26.13Z" fill="#FF6963"/>
<path d="M12.0413 18.3982C17.2751 18.3295 22.509 18.2607 27.7429 18.1919C27.8894 18.19 27.9045 17.9609 27.7564 17.9629C22.5225 18.0316 17.2887 18.1004 12.0548 18.1691C11.9082 18.171 11.8932 18.4002 12.0413 18.3982Z" fill="#010735"/>
<path d="M12.1802 28.9793C17.414 28.9106 22.6479 28.8418 27.8818 28.7731C28.0283 28.7711 28.0435 28.542 27.8953 28.544C22.6614 28.6127 17.4275 28.6815 12.1937 28.7502C12.0472 28.7521 12.0322 28.9812 12.1802 28.9793Z" fill="#010735"/>
<path d="M13.5768 37.9397C16.1289 38.6448 18.8061 39.2002 21.4362 38.584C21.5796 38.5504 21.5347 38.3254 21.3903 38.3591C18.7991 38.9662 16.165 38.4171 13.6507 37.7225C13.5091 37.6834 13.4341 37.9003 13.5768 37.9397Z" fill="#010735"/>
<path d="M23.2192 8.84751C24.9982 10.05 26.1956 12.0023 26.4669 14.1318C26.4856 14.2783 26.7104 14.2321 26.6918 14.086C26.4133 11.9005 25.173 9.89103 23.3482 8.65763C23.2257 8.57491 23.0968 8.76479 23.2192 8.84751Z" fill="#010735"/>
</svg>
