<svg width="40" height="40" viewBox="0 0 40 40" fill="none" xmlns="http://www.w3.org/2000/svg">
<g clip-path="url(#clip0_66_138327)">
<path d="M4.83685 14.0732C4.50896 14.0732 4.24224 13.8065 4.24224 13.4785H3.05286C3.05286 14.4622 3.8531 15.2625 4.83677 15.2625H14.3511V14.0732H4.83685Z" fill="#FF6337"/>
<path d="M5.43146 8.12695V14.668C5.43146 14.9966 5.69763 15.2627 6.02614 15.2627C6.35466 15.2627 6.62075 14.9965 6.62075 14.668V8.12695H5.43146Z" fill="#4F4F4F"/>
<path d="M3.64756 14.0734C3.31912 14.0734 3.05295 13.8072 3.05295 13.4787C3.05295 12.4951 3.85318 11.6948 4.83685 11.6948H6.02615C6.35459 11.6948 6.62076 11.9611 6.62076 12.2894C6.62076 12.6179 6.35451 12.884 6.02615 12.884H4.83685C4.50896 12.884 4.24224 13.1508 4.24224 13.4787C4.24217 13.8072 3.97592 14.0734 3.64756 14.0734Z" fill="#FF6337"/>
<path d="M25.0549 6.9375C24.7265 6.9375 24.4603 7.20375 24.4603 7.53211C24.4603 11.1389 21.526 14.0732 17.9192 14.0732H14.3513V15.2625H17.9192C22.1818 15.2625 25.6496 11.7947 25.6496 7.53211C25.6495 7.20375 25.3833 6.9375 25.0549 6.9375Z" fill="#FF4128"/>
<path d="M11.3779 22.5967V38.1838L9.40607 38.8411C9.0945 38.9449 8.92615 39.2817 9.0299 39.5932C9.13372 39.9048 9.47068 40.0732 9.78208 39.9694L12.1605 39.1765C12.4033 39.0956 12.5671 38.8683 12.5671 38.6124V22.5967H11.3779Z" fill="#2DADE3"/>
<path d="M17.3244 22.5967V38.1838L19.2963 38.8411C19.6079 38.9449 19.7762 39.2817 19.6725 39.5932C19.5686 39.9048 19.2317 40.0732 18.9203 39.9694L16.5418 39.1765C16.299 39.0956 16.1353 38.8683 16.1353 38.6124V22.5967H17.3244Z" fill="#1990C2"/>
<path d="M4.83685 5.15381V7.5324C4.83685 8.1892 5.36935 8.7217 6.02615 8.7217C6.68295 8.7217 7.21545 8.1892 7.21545 7.5324V5.15381H4.83685Z" fill="#808080"/>
<path d="M32.3492 20.2183L34.5693 26.7197H36.9479V24.3412L32.3492 20.2183Z" fill="#353535"/>
<path d="M22.6763 24.3412V26.7198H34.5693V19.584L22.6763 24.3412Z" fill="#4F4F4F"/>
<path d="M29.8121 12.4478L34.5693 24.3407H36.9479C36.9479 24.3407 36.9479 23.5246 36.9479 19.5835C36.9479 15.6425 33.7531 12.4478 29.8121 12.4478Z" fill="#FF8646"/>
<path d="M29.8121 12.4478C25.8711 12.4478 22.6763 15.6425 22.6763 19.5835C22.6763 23.5246 22.6763 24.3407 22.6763 24.3407H27.4335L29.8121 21.9621L32.1907 24.3407H34.5693V19.5835C34.5693 15.6425 32.4393 12.4478 29.8121 12.4478Z" fill="#FFA754"/>
<path d="M29.8121 19.584L28.6228 21.9626L29.8121 24.3412H32.1907V19.584H29.8121Z" fill="#40211D"/>
<path d="M29.8121 19.584H27.4335V24.3412H29.8121V19.584Z" fill="#60312C"/>
<path d="M33.38 29.6929L26.2442 30.8822C25.5874 30.8822 25.0549 31.4147 25.0549 32.0715C25.0549 32.7283 25.5874 33.2608 26.2442 33.2608L33.38 34.4501V29.6929Z" fill="#A45E43"/>
<path d="M33.38 33.2604C34.0368 33.2604 34.5693 32.728 34.5693 32.0711C34.5693 31.4143 34.0368 30.8818 33.38 30.8818C32.7231 30.8818 32.1907 31.4143 32.1907 32.0711C32.1907 32.728 32.7231 33.2604 33.38 33.2604Z" fill="#FFE2A8"/>
<path d="M33.38 28.5034H31.0014V30.882H33.38C34.0368 30.882 34.5693 30.3495 34.5693 29.6927C34.5693 29.0359 34.0368 28.5034 33.38 28.5034Z" fill="#60312C"/>
<path d="M32.1907 29.6927C32.1907 29.0359 31.6582 28.5034 31.0014 28.5034H26.2442V30.882H31.0014C31.6582 30.882 32.1907 30.3496 32.1907 29.6927Z" fill="#85453D"/>
<path d="M26.2442 30.882C26.901 30.882 27.4335 30.3495 27.4335 29.6927C27.4335 29.0359 26.901 28.5034 26.2442 28.5034C25.5874 28.5034 25.0549 29.0359 25.0549 29.6927C25.0549 30.3495 25.5874 30.882 26.2442 30.882Z" fill="#FFF0D3"/>
<path d="M16.3333 13.082H16.1351L13.9547 21.4071L17.919 18.4339V14.6677C17.9191 13.792 17.2092 13.082 16.3333 13.082Z" fill="#FF4128"/>
<path d="M13.7565 13.082L13.1619 14.2713L12.5673 13.082H12.3691C11.4933 13.082 10.7834 13.792 10.7834 14.6677V18.4338L16.3335 20.6142L14.946 13.082H13.7565Z" fill="#FF6337"/>
<path d="M15.5405 16.6504C15.5405 17.9641 16.6054 19.6236 17.9191 19.6236V29.0984H15.5405L13.1619 22.8744L15.5405 16.6504Z" fill="#FFCB63"/>
<path d="M14.3512 3.56781C15.3365 3.56781 16.1351 2.76913 16.1351 1.78391C16.1351 0.798682 15.3365 0 14.3512 0C13.366 0 12.5673 0.798682 12.5673 1.78391C12.5673 2.76913 13.366 3.56781 14.3512 3.56781Z" fill="#FFF0D3"/>
<path d="M14.3512 3.56787V11.5758L17.9191 7.92857V7.13576C17.9191 5.16521 16.3217 3.56787 14.3512 3.56787Z" fill="#FF8D7E"/>
<path d="M14.3512 3.56787C12.3808 3.56787 10.7833 5.16529 10.7833 7.13576V7.92865L15.5405 11.5758V7.13576C15.5405 5.16521 15.008 3.56787 14.3512 3.56787Z" fill="#FFB4A9"/>
<path d="M15.8346 7.92863C15.7511 7.80395 15.652 7.69059 15.5405 7.59082L14.3512 13.0823C16.3217 13.0823 17.9191 11.4849 17.9191 9.51441V7.92871L15.8346 7.92863Z" fill="#FFE2A8"/>
<path d="M15.5405 9.51434V7.59074C15.2249 7.30801 14.8083 7.13574 14.3512 7.13574C13.7327 7.13574 13.1879 7.45059 12.8679 7.92863H10.7833V9.51434C10.7833 11.4848 12.3808 13.0822 14.3512 13.0822C15.008 13.0822 15.5405 11.4848 15.5405 9.51434Z" fill="#FFF0D3"/>
<path d="M13.7565 16.6499V13.082H12.5672V16.6499C12.5672 17.6336 11.767 18.4339 10.7833 18.4339V29.0979H15.5405V16.6499H13.7565Z" fill="#FFE2A8"/>
<path d="M17.9191 19.6231C16.2797 19.6231 14.9459 18.2894 14.9459 16.6499V13.082H16.1352V16.6499C16.1352 17.6336 16.9354 18.4339 17.9191 18.4339V19.6231Z" fill="#FFCB63"/>
<path d="M33.38 33.2607H31.0014V36.4322L33.38 35.6393C34.0368 35.6393 34.5693 35.1068 34.5693 34.45C34.5693 33.7932 34.0368 33.2607 33.38 33.2607Z" fill="#60312C"/>
<path d="M32.1907 34.45C32.1907 33.7932 31.6582 33.2607 31.0014 33.2607H26.2442V36.4322L31.0014 35.6393C31.6582 35.6393 32.1907 35.1069 32.1907 34.45Z" fill="#85453D"/>
<path d="M26.2442 35.6393C26.901 35.6393 27.4335 35.1069 27.4335 34.45C27.4335 33.7932 26.901 33.2607 26.2442 33.2607C25.5874 33.2607 25.0549 33.7932 25.0549 34.45C25.0549 35.1069 25.5874 35.6393 26.2442 35.6393Z" fill="#FFF0D3"/>
<path d="M36.3532 35.6392H23.2709V36.8285H36.3532V35.6392Z" fill="#4F4F4F"/>
<path d="M23.2709 40.0001C22.9425 40.0001 22.6762 39.7338 22.6762 39.4055V26.7196C22.6762 26.3912 22.9425 26.125 23.2709 26.125C23.5993 26.125 23.8655 26.3913 23.8655 26.7196V39.4055C23.8656 39.7338 23.5993 40.0001 23.2709 40.0001Z" fill="#4F4F4F"/>
<path d="M36.3532 40.0001C36.0247 40.0001 35.7586 39.7338 35.7586 39.4055V26.7196C35.7586 26.3912 36.0248 26.125 36.3532 26.125C36.6815 26.125 36.9479 26.3913 36.9479 26.7196V39.4055C36.9479 39.7338 36.6816 40.0001 36.3532 40.0001Z" fill="#4F4F4F"/>
</g>
<defs>
<clipPath id="clip0_66_138327">
<rect width="40" height="40" fill="white" transform="translate(0.000366211)"/>
</clipPath>
</defs>
</svg>
