<svg width="40" height="40" viewBox="0 0 40 40" fill="none" xmlns="http://www.w3.org/2000/svg">
<g clip-path="url(#clip0_66_138366)">
<path d="M12.6591 28.0669H4.07796V11.8069H12.6591V28.0669Z" fill="#68DBF9"/>
<path d="M4.07805 11.8071H12.6592V15.7352H4.07805V11.8071Z" fill="#21C1F8"/>
<path d="M27.3408 11.8071H35.922V28.0671H27.3408V11.8071Z" fill="#68DBF9"/>
<path d="M27.3409 11.8071H35.922V15.7352H27.3409V11.8071Z" fill="#21C1F8"/>
<path d="M27.3409 11.8071H35.922V15.7352H27.3409V11.8071Z" fill="#21C1F8"/>
<path d="M33.5634 11.8071H35.9219V28.0671H33.5634V11.8071Z" fill="#21C1F8"/>
<path d="M35.7221 13.8839H4.27789C3.84836 13.8839 3.50008 13.5357 3.50008 13.1061V11.8354C3.50008 11.4058 3.84828 11.0576 4.27789 11.0576H35.722C36.1516 11.0576 36.4998 11.4058 36.4998 11.8354V13.1061C36.4998 13.5357 36.1516 13.8839 35.7221 13.8839Z" fill="#8D9DA7"/>
<path d="M27.3408 23.7402H38.9395V40.0002H27.3408V23.7402Z" fill="#64B9FC"/>
<path d="M27.3409 23.7402H38.9396V27.2275H27.3409V23.7402Z" fill="#31A7FB"/>
<path d="M36.4218 23.7402H38.9395V40.0002H36.4218V23.7402Z" fill="#31A7FB"/>
<path d="M12.6591 40H1.06038V23.74H12.6591V40Z" fill="#64B9FC"/>
<path d="M1.06047 23.7402H12.6592V27.2275H1.06047V23.7402Z" fill="#31A7FB"/>
<path d="M39.2222 25.1535H0.777813C0.348281 25.1535 0 24.8053 0 24.3757V23.105C0 22.6754 0.348203 22.3271 0.777813 22.3271H39.2222C39.6518 22.3271 40 22.6754 40 23.105V24.3757C40 24.8052 39.6518 25.1535 39.2222 25.1535Z" fill="#8D9DA7"/>
<path d="M31.1658 17.4306C30.8323 17.4306 30.5622 17.1604 30.5622 16.8271V16.2818C30.5622 15.9485 30.8324 15.6782 31.1658 15.6782C31.4991 15.6782 31.7694 15.9485 31.7694 16.2818V16.8271C31.7694 17.1604 31.4991 17.4306 31.1658 17.4306Z" fill="#C9F0FD"/>
<path d="M33.0956 17.4306C32.7621 17.4306 32.492 17.1604 32.492 16.8271V16.2818C32.492 15.9485 32.7622 15.6782 33.0956 15.6782C33.4289 15.6782 33.6992 15.9485 33.6992 16.2818V16.8271C33.6992 17.1604 33.4289 17.4306 33.0956 17.4306Z" fill="#C9F0FD"/>
<path d="M31.1658 19.8662C30.8323 19.8662 30.5622 19.596 30.5622 19.2626V18.7174C30.5622 18.384 30.8324 18.1138 31.1658 18.1138C31.4991 18.1138 31.7694 18.384 31.7694 18.7174V19.2626C31.7694 19.596 31.4991 19.8662 31.1658 19.8662Z" fill="#C9F0FD"/>
<path d="M33.0956 19.8662C32.7621 19.8662 32.492 19.596 32.492 19.2626V18.7174C32.492 18.384 32.7622 18.1138 33.0956 18.1138C33.4289 18.1138 33.6992 18.384 33.6992 18.7174V19.2626C33.6992 19.596 33.4289 19.8662 33.0956 19.8662Z" fill="#C9F0FD"/>
<path d="M6.90453 17.4306C6.57117 17.4306 6.30093 17.1604 6.30093 16.8271V16.2818C6.30093 15.9485 6.57117 15.6782 6.90453 15.6782C7.23789 15.6782 7.50812 15.9485 7.50812 16.2818V16.8271C7.50812 17.1604 7.23789 17.4306 6.90453 17.4306Z" fill="#C9F0FD"/>
<path d="M8.83422 17.4306C8.50086 17.4306 8.23062 17.1604 8.23062 16.8271V16.2818C8.23062 15.9485 8.50086 15.6782 8.83422 15.6782C9.16757 15.6782 9.43781 15.9485 9.43781 16.2818V16.8271C9.43781 17.1604 9.16757 17.4306 8.83422 17.4306Z" fill="#C9F0FD"/>
<path d="M6.90453 19.8662C6.57117 19.8662 6.30093 19.596 6.30093 19.2626V18.7174C6.30093 18.384 6.57117 18.1138 6.90453 18.1138C7.23789 18.1138 7.50812 18.384 7.50812 18.7174V19.2626C7.50812 19.596 7.23789 19.8662 6.90453 19.8662Z" fill="#C9F0FD"/>
<path d="M8.83422 19.8662C8.50086 19.8662 8.23062 19.596 8.23062 19.2626V18.7174C8.23062 18.384 8.50086 18.1138 8.83422 18.1138C9.16757 18.1138 9.43781 18.384 9.43781 18.7174V19.2626C9.43781 19.596 9.16757 19.8662 8.83422 19.8662Z" fill="#C9F0FD"/>
<path d="M3.95906 27.4688H8.4318C8.65406 27.4688 8.83422 27.6489 8.83422 27.8712V29.3089C8.83422 29.5312 8.65406 29.7113 8.4318 29.7113H3.95906C3.7368 29.7113 3.55664 29.5312 3.55664 29.3089V27.8712C3.55664 27.6489 3.7368 27.4688 3.95906 27.4688Z" fill="#C9F0FD"/>
<path d="M8.8346 27.8712V29.3094C8.8346 29.5315 8.65429 29.7118 8.43218 29.7118H6.73077C6.95374 29.7118 7.1332 29.5315 7.1332 29.3094V27.8712C7.1332 27.6491 6.95374 27.4688 6.73077 27.4688H8.43218C8.65429 27.4688 8.8346 27.649 8.8346 27.8712Z" fill="#9CE6FB"/>
<path d="M3.95906 31.7471H8.4318C8.65406 31.7471 8.83422 31.9272 8.83422 32.1495V33.5873C8.83422 33.8096 8.65406 33.9897 8.4318 33.9897H3.95906C3.7368 33.9897 3.55664 33.8096 3.55664 33.5873V32.1495C3.55664 31.9272 3.7368 31.7471 3.95906 31.7471Z" fill="#C9F0FD"/>
<path d="M8.8346 32.15V33.5874C8.8346 33.8095 8.65429 33.9898 8.43218 33.9898H6.73077C6.95374 33.9898 7.1332 33.8095 7.1332 33.5874V32.15C7.1332 31.927 6.95374 31.7476 6.73077 31.7476H8.43218C8.65429 31.7476 8.8346 31.927 8.8346 32.15Z" fill="#9CE6FB"/>
<path d="M31.5682 27.4688H36.0409C36.2632 27.4688 36.4434 27.6489 36.4434 27.8712V29.3089C36.4434 29.5312 36.2632 29.7113 36.0409 29.7113H31.5682C31.3459 29.7113 31.1658 29.5312 31.1658 29.3089V27.8712C31.1658 27.6489 31.3459 27.4688 31.5682 27.4688Z" fill="#C9F0FD"/>
<path d="M36.4434 27.8712V29.3094C36.4434 29.5315 36.2631 29.7118 36.041 29.7118H34.3404C34.5625 29.7118 34.7428 29.5315 34.7428 29.3094V27.8712C34.7428 27.6491 34.5625 27.4688 34.3404 27.4688H36.041C36.2632 27.4688 36.4434 27.649 36.4434 27.8712Z" fill="#9CE6FB"/>
<path d="M31.5682 31.7471H36.0409C36.2632 31.7471 36.4434 31.9272 36.4434 32.1495V33.5873C36.4434 33.8096 36.2632 33.9897 36.0409 33.9897H31.5682C31.3459 33.9897 31.1658 33.8096 31.1658 33.5873V32.1495C31.1658 31.9272 31.3459 31.7471 31.5682 31.7471Z" fill="#C9F0FD"/>
<path d="M36.4434 32.15V33.5874C36.4434 33.8095 36.2631 33.9898 36.041 33.9898H34.3404C34.5625 33.9898 34.7428 33.8095 34.7428 33.5874V32.15C34.7428 31.927 34.5625 31.7476 34.3404 31.7476H36.041C36.2632 31.7476 36.4434 31.927 36.4434 32.15Z" fill="#9CE6FB"/>
<path d="M28.9159 7.46695V39.9998H11.0841V7.46695C11.0841 7.02188 11.4446 6.66211 11.8889 6.66211H28.111C28.5553 6.66211 28.9159 7.02188 28.9159 7.46695Z" fill="#D9E7EB"/>
<path d="M26.6624 8.64523C26.6624 12.3249 23.6796 15.3076 20 15.3076C16.3204 15.3076 13.3377 12.3249 13.3377 8.64523C13.3377 7.95469 13.4423 7.28828 13.6379 6.66211H26.3623C26.5577 7.28828 26.6624 7.95469 26.6624 8.64523Z" fill="#C5D3DD"/>
<path d="M24.7879 29.2335V39.9996H15.2121V29.2335C15.2121 29.0114 15.3916 28.8311 15.6145 28.8311H24.3855C24.6084 28.8311 24.7879 29.0113 24.7879 29.2335Z" fill="#9CE6FB"/>
<path d="M24.7879 29.2335V39.9996H22.5134V29.2335C22.5134 29.0114 22.3331 28.8311 22.111 28.8311H24.3855C24.6084 28.8311 24.7879 29.0113 24.7879 29.2335Z" fill="#68DBF9"/>
<path d="M28.9159 7.46695V39.9998H26.4418V7.46695C26.4418 7.02188 26.0813 6.66211 25.637 6.66211H28.111C28.5553 6.66211 28.9159 7.02188 28.9159 7.46695Z" fill="#C5D3DD"/>
<path d="M20 13.3242C23.6794 13.3242 26.6621 10.3415 26.6621 6.66211C26.6621 2.98273 23.6794 0 20 0C16.3206 0 13.3379 2.98273 13.3379 6.66211C13.3379 10.3415 16.3206 13.3242 20 13.3242Z" fill="#F5F7F8"/>
<path d="M23.0999 5.06172H21.6009V3.56273C21.6009 3.26484 21.3594 3.02344 21.0616 3.02344H18.9384C18.6405 3.02344 18.3991 3.26492 18.3991 3.56273V5.0618H16.9001C16.6022 5.0618 16.3608 5.30328 16.3608 5.60109V7.72422C16.3608 8.02211 16.6023 8.26352 16.9001 8.26352H18.3991V9.76258C18.3991 10.0605 18.6406 10.3019 18.9384 10.3019H21.0616C21.3595 10.3019 21.6009 10.0604 21.6009 9.76258V8.26352H23.0999C23.3978 8.26352 23.6392 8.02203 23.6392 7.72422V5.60109C23.6392 5.3032 23.3977 5.06172 23.0999 5.06172Z" fill="#FB4A59"/>
<path d="M23.6388 5.60092V7.72428C23.6388 8.02217 23.3973 8.26357 23.0995 8.26357H21.601V9.76209C21.601 10.0603 21.359 10.3014 21.0617 10.3014H19.3243C19.6217 10.3014 19.8636 10.0602 19.8636 9.76209V8.80287C19.8636 8.50498 20.1051 8.26357 20.4029 8.26357H21.3621C21.66 8.26357 21.9014 8.02209 21.9014 7.72428V5.60092C21.9014 5.30303 21.6599 5.06162 21.3621 5.06162H20.4029C20.105 5.06162 19.8636 4.82014 19.8636 4.52232V3.56225C19.8636 3.26482 19.6216 3.02295 19.3243 3.02295H21.0617C21.3596 3.02295 21.601 3.26443 21.601 3.56225V5.06154H23.0995C23.3974 5.06154 23.6388 5.30303 23.6388 5.60092Z" fill="#F82F40"/>
<path d="M19.3964 28.8315H20.6037V40.0001H19.3964V28.8315Z" fill="#64B9FC"/>
<path d="M24.3859 25.4836H15.6142C15.3919 25.4836 15.2117 25.3034 15.2117 25.0812V23.336C15.2117 23.1138 15.3919 22.9336 15.6142 22.9336H24.3859C24.6081 22.9336 24.7883 23.1138 24.7883 23.336V25.0812C24.7883 25.3034 24.6081 25.4836 24.3859 25.4836Z" fill="#9CE6FB"/>
<path d="M24.7879 23.336V25.0809C24.7879 25.3038 24.6084 25.4833 24.3855 25.4833H22.111C22.3331 25.4833 22.5134 25.3038 22.5134 25.0809V23.336C22.5134 23.1139 22.3331 22.9336 22.111 22.9336H24.3855C24.6084 22.9336 24.7879 23.1139 24.7879 23.336Z" fill="#68DBF9"/>
<path d="M24.3859 20.5378H15.6142C15.3919 20.5378 15.2117 20.3576 15.2117 20.1354V16.4586C15.2117 16.2363 15.3919 16.0562 15.6142 16.0562H24.3859C24.6081 16.0562 24.7883 16.2363 24.7883 16.4586V20.1354C24.7883 20.3576 24.6081 20.5378 24.3859 20.5378Z" fill="#9CE6FB"/>
<path d="M24.7879 16.4586V20.1351C24.7879 20.3572 24.6084 20.5375 24.3855 20.5375H22.111C22.3331 20.5375 22.5134 20.3572 22.5134 20.1351V16.4586C22.5134 16.2365 22.3331 16.0562 22.111 16.0562H24.3855C24.6084 16.0562 24.7879 16.2365 24.7879 16.4586Z" fill="#68DBF9"/>
</g>
<defs>
<clipPath id="clip0_66_138366">
<rect width="40" height="40" fill="white"/>
</clipPath>
</defs>
</svg>
