<svg width="230" height="216" viewBox="0 0 230 216" fill="none" xmlns="http://www.w3.org/2000/svg">
<path d="M230 144C230 183.765 197.765 216 158 216C118.235 216 86 183.765 86 144C86 104.235 118.235 72 158 72C197.765 72 230 104.235 230 144ZM110.487 144C110.487 170.241 131.759 191.513 158 191.513C184.241 191.513 205.513 170.241 205.513 144C205.513 117.759 184.241 96.4868 158 96.4868C131.759 96.4868 110.487 117.759 110.487 144Z" fill="#93F2FF" fill-opacity="0.02"/>
<path d="M101 50.5C101 78.3904 78.3904 101 50.5 101C22.6096 101 0 78.3904 0 50.5C0 22.6096 22.6096 0 50.5 0C78.3904 0 101 22.6096 101 50.5ZM17.1747 50.5C17.1747 68.905 32.095 83.8253 50.5 83.8253C68.905 83.8253 83.8253 68.905 83.8253 50.5C83.8253 32.095 68.905 17.1747 50.5 17.1747C32.095 17.1747 17.1747 32.095 17.1747 50.5Z" fill="#93F2FF" fill-opacity="0.06"/>
</svg>
