<svg width="92" height="77" viewBox="0 0 92 77" fill="none" xmlns="http://www.w3.org/2000/svg">
<path d="M91.2128 48.8535C91.2128 64.2797 78.7074 76.7851 63.2812 76.7851C47.855 76.7851 35.3496 64.2797 35.3496 48.8535C35.3496 33.4273 47.855 20.9219 63.2812 20.9219C78.7074 20.9219 91.2128 33.4273 91.2128 48.8535ZM44.849 48.8535C44.849 59.0333 53.1014 67.2857 63.2812 67.2857C73.461 67.2857 81.7134 59.0333 81.7134 48.8535C81.7134 38.6736 73.461 30.4212 63.2812 30.4212C53.1014 30.4212 44.849 38.6736 44.849 48.8535Z" fill="#93F2FF" fill-opacity="0.25"/>
<path d="M30.9669 15.4444C30.9669 23.9137 24.1012 30.7794 15.6319 30.7794C7.16259 30.7794 0.296875 23.9137 0.296875 15.4444C0.296875 6.97509 7.16259 0.109375 15.6319 0.109375C24.1012 0.109375 30.9669 6.97509 30.9669 15.4444ZM5.51221 15.4444C5.51221 21.0333 10.0429 25.564 15.6319 25.564C21.2208 25.564 25.7515 21.0333 25.7515 15.4444C25.7515 9.85544 21.2208 5.32471 15.6319 5.32471C10.0429 5.32471 5.51221 9.85544 5.51221 15.4444Z" fill="#93F2FF" fill-opacity="0.25"/>
</svg>
