<svg width="86" height="99" viewBox="0 0 86 99" fill="none" xmlns="http://www.w3.org/2000/svg">
<path d="M28.2084 98.1963C12.871 98.1005 0.515191 85.5894 0.611001 70.252C0.706811 54.9146 13.2179 42.5588 28.5553 42.6546C43.8927 42.7505 56.2485 55.2616 56.1527 70.599C56.0569 85.9364 43.5458 98.2921 28.2084 98.1963ZM28.4963 52.0993C18.3751 52.0361 10.1189 60.1898 10.0557 70.311C9.99247 80.4323 18.1461 88.6884 28.2674 88.7516C38.3886 88.8149 46.6448 80.6612 46.708 70.54C46.7712 60.4187 38.6176 52.1626 28.4963 52.0993Z" fill="#93F2FF" fill-opacity="0.25"/>
<path d="M69.124 31.9073C60.4375 31.853 53.4396 24.7672 53.4939 16.0807C53.5482 7.39414 60.634 0.396313 69.3205 0.450576C78.007 0.504839 85.0048 7.59065 84.9506 16.2772C84.8963 24.9637 77.8105 31.9615 69.124 31.9073ZM69.2871 5.79969C63.5548 5.76388 58.8788 10.3818 58.843 16.1141C58.8072 21.8464 63.4251 26.5223 69.1574 26.5581C74.8897 26.594 79.5657 21.976 79.6015 16.2438C79.6373 10.5115 75.0194 5.8355 69.2871 5.79969Z" fill="#93F2FF" fill-opacity="0.25"/>
</svg>
