<svg width="57" height="57" viewBox="0 0 57 57" fill="none" xmlns="http://www.w3.org/2000/svg">
<path d="M28.5 23.75C22.2585 23.8616 22.2585 33.1384 28.5 33.25C34.7415 33.1384 34.7415 23.8593 28.5 23.75ZM28.5 30.875C25.3958 30.8584 25.3958 26.1416 28.5 26.125C31.6041 26.1416 31.6041 30.8584 28.5 30.875Z" fill="#93F2FF"/>
<path d="M57 28.4998C57 24.5383 53.333 20.9378 46.9561 18.5082C50.008 3.46255 40.3726 -2.6697 28.5 7.2768C16.6274 -2.67682 6.99439 3.4673 10.0439 18.5082C-3.24661 23.2962 -3.24424 33.7058 10.0439 38.4914C6.85664 54.2519 17.4349 59.2537 28.5 49.7394C39.5699 59.2608 50.141 54.2424 46.9561 38.4914C53.3354 36.0618 57 32.4637 57 28.4998ZM42.1278 5.47655C46.7519 7.69005 45.0823 19.7646 42.5244 25.5168C40.9973 22.4531 38.9928 19.0663 36.9859 16.3731C34.998 13.6371 32.7869 11.1219 30.3311 8.82055C35.093 5.06805 39.4488 3.81643 42.1278 5.47655ZM39.9428 31.3213C38.6436 33.8721 37.05 36.4632 35.3709 38.7907C30.8061 39.3013 26.1939 39.3013 21.6291 38.7907C19.323 35.6058 17.3043 32.0861 15.7273 28.4998C17.3043 24.9112 19.3254 21.3962 21.6291 18.2089C26.1915 17.6936 30.8085 17.6936 35.3709 18.2089C37.6746 21.3962 39.6958 24.9112 41.2728 28.4998C40.8619 29.4284 40.3893 30.3855 39.9404 31.3213H39.9428ZM14.8746 5.47418C21.1185 2.41993 29.0843 10.4308 33.421 15.6273C26.3578 15.1452 19.0523 15.6297 12.2859 17.7031C11.2504 11.6516 12.1909 7.12718 14.8746 5.47418ZM2.37501 28.4998C1.93089 23.6382 12.6825 19.3893 18.4158 18.6673C14.7986 24.1441 12.1244 29.9414 10.5213 36.1568C5.39364 34.1333 2.37501 31.3213 2.37501 28.4998ZM14.8746 51.5231C10.2481 49.3048 11.9201 37.2351 14.478 31.4828C17.575 37.6934 21.6244 43.4647 26.6713 48.1791C21.9094 51.9316 17.5513 53.1903 14.8746 51.5231ZM42.1278 51.5231C37.5274 54.8813 27.341 46.5926 23.5814 41.3723C30.6446 41.8544 37.9525 41.3723 44.7165 39.2942C45.752 45.3481 44.8115 49.8701 42.1278 51.5231ZM45.2271 36.6199C43.1015 37.3633 40.8476 37.9095 38.5866 38.3323C42.2061 32.8532 44.878 27.0582 46.4811 20.8452C57.9666 25.2769 56.8456 32.7107 45.2295 36.6223L45.2271 36.6199Z" fill="#93F2FF"/>
</svg>
