<svg width="50" height="50" viewBox="0 0 50 50" fill="none" xmlns="http://www.w3.org/2000/svg">
<g clip-path="url(#clip0_15_4801)">
<path d="M31.0552 20.6875C29.4132 20.6875 27.8184 21.006 26.3152 21.6338C25.8176 21.8417 25.5827 22.4137 25.7905 22.9113C25.9984 23.4091 26.5704 23.6437 27.0681 23.436C28.3315 22.9082 29.673 22.6406 31.0552 22.6406C36.7631 22.6406 41.4067 27.2844 41.4067 32.9922C41.4067 38.7 36.7631 43.3438 31.0552 43.3438C25.3473 43.3438 20.7036 38.7 20.7036 32.9922C20.7036 31.6121 20.9704 30.2725 21.4967 29.0107C21.7043 28.5129 21.469 27.9411 20.9713 27.7335C20.4738 27.5262 19.9017 27.7611 19.694 28.2589C19.068 29.7602 18.7505 31.3526 18.7505 32.9922C18.7505 39.7771 24.2703 45.2969 31.0552 45.2969C37.84 45.2969 43.3599 39.7771 43.3599 32.9922C43.3599 26.2073 37.84 20.6875 31.0552 20.6875Z" fill="#93F2FF"/>
<path d="M31.0552 41C35.4707 41 39.063 37.4077 39.063 32.9922C39.063 28.5767 35.4707 24.9844 31.0552 24.9844C26.6396 24.9844 23.0474 28.5767 23.0474 32.9922C23.0474 37.4077 26.6397 41 31.0552 41ZM31.0552 26.9375C34.3938 26.9375 37.1099 29.6537 37.1099 32.9922C37.1099 36.3307 34.3938 39.0469 31.0552 39.0469C27.7166 39.0469 25.0005 36.3308 25.0005 32.9922C25.0005 29.6536 27.7166 26.9375 31.0552 26.9375Z" fill="#93F2FF"/>
<path d="M45.0473 16H42.0766L38.6669 10.2298C38.4912 9.93242 38.1715 9.75 37.8262 9.75H24.2845C23.9391 9.75 23.6194 9.93242 23.4438 10.2298L20.0341 16H14.4531V14.8281C14.4531 12.8896 12.8761 11.3125 10.9375 11.3125C8.99893 11.3125 7.42188 12.8896 7.42188 14.8281V16H4.95273C2.22178 16 0 18.2218 0 20.9528V45.0315C0 47.7626 2.22178 49.9844 4.95273 49.9844H45.0472C47.7781 49.9844 49.9999 47.7626 49.9999 45.0315V20.9528C50 18.2218 47.7781 16 45.0473 16ZM24.8417 11.7031H37.2688L39.8079 16H22.3026L24.8417 11.7031ZM9.375 14.8281C9.375 13.9666 10.076 13.2656 10.9375 13.2656C11.799 13.2656 12.5 13.9666 12.5 14.8281V16H9.375V14.8281ZM48.0469 45.0315C48.0469 46.6856 46.7013 48.0312 45.0473 48.0312H4.95273C3.29873 48.0312 1.95312 46.6855 1.95312 45.0315V20.9528C1.95312 19.2987 3.29873 17.9531 4.95273 17.9531H45.0472C46.7012 17.9531 48.0468 19.2987 48.0468 20.9528V45.0315H48.0469Z" fill="#93F2FF"/>
<path d="M31.0552 31.0879C32.1053 31.0879 32.9595 31.9422 32.9595 32.9922C32.9595 33.5315 33.3967 33.9688 33.936 33.9688C34.4754 33.9688 34.9126 33.5315 34.9126 32.9922C34.9126 30.8652 33.1821 29.1348 31.0552 29.1348C30.5158 29.1348 30.0786 29.5721 30.0786 30.1113C30.0786 30.6506 30.5158 31.0879 31.0552 31.0879Z" fill="#93F2FF"/>
<path d="M31.0552 7.18096C31.5945 7.18096 32.0317 6.74365 32.0317 6.20439V0.992188C32.0317 0.45293 31.5945 0.015625 31.0552 0.015625C30.5158 0.015625 30.0786 0.452832 30.0786 0.992188V6.20439C30.0786 6.74375 30.5158 7.18096 31.0552 7.18096Z" fill="#93F2FF"/>
<path d="M35.7021 7.18076C35.952 7.18076 36.202 7.08535 36.3927 6.89473L39.9758 3.31162C40.3571 2.93027 40.3571 2.31191 39.9757 1.93047C39.5943 1.54922 38.976 1.54922 38.5946 1.93047L35.0116 5.51367C34.6302 5.89502 34.6302 6.51338 35.0116 6.89482C35.2023 7.08545 35.4522 7.18076 35.7021 7.18076Z" fill="#93F2FF"/>
<path d="M25.7177 6.89518C25.9084 7.0858 26.1583 7.18121 26.4082 7.18121C26.6581 7.18121 26.9081 7.0858 27.0988 6.89518C27.4801 6.51383 27.4802 5.89547 27.0989 5.51403L23.5157 1.93092C23.1344 1.54977 22.516 1.54967 22.1347 1.93092C21.7533 2.31227 21.7532 2.93063 22.1346 3.31207L25.7177 6.89518Z" fill="#93F2FF"/>
<path d="M13.4766 24.0078H8.39844C7.85908 24.0078 7.42188 24.4451 7.42188 24.9844C7.42188 25.5237 7.85908 25.9609 8.39844 25.9609H13.4766C14.0159 25.9609 14.4531 25.5237 14.4531 24.9844C14.4531 24.445 14.0159 24.0078 13.4766 24.0078Z" fill="#93F2FF"/>
<path d="M23.043 25.9609C23.2998 25.9609 23.5518 25.8564 23.7334 25.6748C23.915 25.4932 24.0195 25.2421 24.0195 24.9844C24.0195 24.7275 23.915 24.4756 23.7334 24.2939C23.5518 24.1124 23.2998 24.0078 23.043 24.0078C22.7861 24.0078 22.5342 24.1123 22.3525 24.2939C22.1699 24.4756 22.0664 24.7276 22.0664 24.9844C22.0664 25.2412 22.1699 25.4932 22.3525 25.6748C22.5342 25.8564 22.7852 25.9609 23.043 25.9609Z" fill="#93F2FF"/>
</g>
<defs>
<clipPath id="clip0_15_4801">
<rect width="50" height="50" fill="white"/>
</clipPath>
</defs>
</svg>
