<svg width="60" height="54" viewBox="0 0 60 54" fill="none" xmlns="http://www.w3.org/2000/svg">
<path d="M51.268 35.126L40.728 39.5788C40.7468 39.4472 40.7656 39.3157 40.7656 39.1748C40.7656 37.1269 39.1028 35.4642 37.055 35.4642H29.4647C29.1547 35.4642 28.8541 35.3985 28.5722 35.2669L22.1374 32.3548C21.1322 31.9039 20.0144 31.6597 18.9153 31.6597H13.6735V33.5385H18.9153C19.7513 33.5385 20.5968 33.7169 21.3671 34.0645L27.8019 36.9766C28.328 37.2115 28.8916 37.3336 29.4741 37.3336H37.0644C38.0789 37.3336 38.8962 38.1603 38.8962 39.1654C38.8962 40.1706 38.0695 40.9972 37.0644 40.9972H27.2289V42.876H37.055C37.7032 42.876 38.3044 42.6975 38.8304 42.4063V42.4157L51.9913 36.8451C53.081 36.3848 54.2741 36.3942 55.3544 36.8639C56.181 37.2303 56.8574 37.8221 57.3083 38.5924L34.0771 50.9172C32.3016 51.8566 30.188 52.0445 28.2716 51.4339L16.905 47.7797L13.6641 47.7327V49.6115H16.4729L27.6986 53.2188C28.6286 53.5194 29.5868 53.6603 30.5544 53.6603C32.0762 53.6603 33.598 53.2939 34.9507 52.5706L59.7038 39.4566L59.4313 38.6863C58.8583 37.0894 57.6747 35.8306 56.1153 35.1448C54.5559 34.4778 52.8368 34.4591 51.268 35.126Z" fill="#93F2FF"/>
<path d="M11.6349 51.0863V31.1429C11.6349 30.1096 10.7894 29.2642 9.75608 29.2642H0.296387V31.1429H9.75608V51.0957H0.296387V52.9745H9.75608C10.7894 52.9651 11.6349 52.1196 11.6349 51.0863Z" fill="#93F2FF"/>
<path d="M7.28545 48.1649C7.28545 48.8882 6.69363 49.48 5.9703 49.48C5.23757 49.48 4.64575 48.8882 4.64575 48.1649C4.64575 47.4322 5.23757 46.8403 5.9703 46.8403C6.69363 46.8403 7.28545 47.4322 7.28545 48.1649Z" fill="#93F2FF"/>
<path d="M22.5226 22.7072L23.5371 23.4587L30.5262 19.5884L36.8483 23.3929L37.3932 23.7123L38.4077 22.9796L36.8859 15.1451L42.4753 10.2978L42.9262 9.86567L42.5317 8.70082L34.622 7.72385L31.7474 0.922639L31.4844 0.359003L30.8832 0.349609H30.2444L26.872 7.59234L19.5071 8.21234L18.8777 8.28749L18.502 9.46173L24.3356 14.9008L22.5226 22.7072ZM21.7241 9.91264L27.5671 9.40537L28.1213 9.33961L30.8174 3.55294L33.1001 8.93567L33.335 9.45234L39.6853 10.232L35.2889 14.046L34.8474 14.4217L36.0686 20.7157L31.0335 17.6814L30.5544 17.4278L24.9838 20.5184L26.2895 14.882L26.4492 14.2996L21.7241 9.91264Z" fill="#93F2FF"/>
<path d="M10.1694 19.2407L8.80726 25.0931L8.61938 25.7694L9.68089 26.5491L15.5333 23.3082L20.7 26.4082L21.2824 26.7746L22.3251 26.0137L21.0476 19.4473L22.4097 18.2731L21.1791 16.8546L19.366 18.4234L19.0936 18.7428V19.1185L19.9767 23.7873L16.1627 21.4858L15.9654 21.2979L15.167 21.2791L14.9791 21.467L11.0806 23.6276L12.1327 19.0622V18.5079L8.47847 15.1073L12.95 14.7128L13.3821 14.7034L13.7767 14.3088L15.7776 10.0064L17.5812 14.2619L17.8724 14.8161H18.3985L20.6624 15.0979L20.8973 13.2285L19.0842 13.0125L16.6982 7.37611L16.3788 6.7749L15.0824 6.87824L14.9039 7.43248L12.3676 12.8904L6.39301 13.407L5.65089 13.4446L5.25635 14.8161L5.77301 15.1543L10.1694 19.2407Z" fill="#93F2FF"/>
<path d="M41.0473 13.0125L41.2164 14.8819L43.0295 14.7128L43.4522 14.694L43.8467 14.2995L45.8477 9.99705L47.5667 14.0458L47.5855 14.8067H48.4686L52.9495 15.361L49.4643 18.3858L49.1543 18.7146V19.1186L50.0467 23.778L46.2234 21.4858L46.0261 21.2886L45.1995 21.298L45.0304 21.4764L41.1507 23.6277L42.2122 19.0622L42.2028 18.508L39.798 16.2628L38.511 17.6343L40.2301 19.2407L38.8773 25.0931L38.6895 25.7225L39.7134 26.568L45.6034 23.3083L50.7795 26.4177L51.3619 26.7746L52.3858 26.0043L51.1083 19.4473L55.6267 15.5301C55.9367 15.2858 56.0683 14.8725 55.9649 14.4967L55.7489 13.8298L49.1543 13.0219L46.7495 7.36674L46.4676 6.85008L45.3498 6.8125L45.0586 7.2728L42.4283 12.8904L41.0473 13.0125Z" fill="#93F2FF"/>
</svg>
