<svg width="55" height="55" viewBox="0 0 55 55" fill="none" xmlns="http://www.w3.org/2000/svg">
<path d="M21.4517 37.8791C21.0255 37.8791 20.6542 37.5611 20.6009 37.1263C20.4273 35.7495 19.3222 34.0961 17.9695 33.1938C13.1742 29.9952 10.3125 24.6533 10.3125 18.9041C10.3125 14.7911 11.7872 10.8122 14.4684 7.6961C14.7795 7.3386 15.3192 7.29563 15.6802 7.605C16.0394 7.91438 16.0806 8.4575 15.7712 8.81672C13.3581 11.6217 12.0312 15.2036 12.0312 18.9041C12.0312 24.0775 14.6077 28.8848 18.9234 31.7638C20.4102 32.7555 22.0344 34.732 22.3077 36.9131C22.3661 37.3841 22.0327 37.8138 21.5617 37.8722C21.5239 37.8773 21.4895 37.8791 21.4517 37.8791Z" fill="#93F2FF"/>
<path d="M33.5156 47.2657H32.6562V48.211C32.6562 50.0586 31.1523 51.5625 29.3047 51.5625H25.6953C23.8477 51.5625 22.3438 50.0586 22.3438 48.211V47.2657H21.4844C21.1647 47.2657 20.8811 47.1539 20.625 47.001V48.211C20.625 51.0074 22.8989 53.2813 25.6953 53.2813H29.3047C32.1011 53.2813 34.375 51.0074 34.375 48.211V47.001C34.1189 47.1539 33.8353 47.2657 33.5156 47.2657Z" fill="#93F2FF"/>
<path d="M33.5156 48.125H21.4844C20.063 48.125 18.9062 46.9683 18.9062 45.5469C18.9062 44.1255 20.063 42.9688 21.4844 42.9688H33.5156C34.937 42.9688 36.0938 44.1255 36.0938 45.5469C36.0938 46.9683 34.937 48.125 33.5156 48.125ZM21.4844 44.6875C21.0117 44.6875 20.625 45.0742 20.625 45.5469C20.625 46.0195 21.0117 46.4062 21.4844 46.4062H33.5156C33.9883 46.4062 34.375 46.0195 34.375 45.5469C34.375 45.0742 33.9883 44.6875 33.5156 44.6875H21.4844Z" fill="#93F2FF"/>
<path d="M27.5 1.7168C24.1312 1.7168 20.869 2.69133 18.0657 4.53555C17.6687 4.7968 17.5587 5.32961 17.8182 5.72664C18.0795 6.12367 18.6157 6.23195 19.0076 5.97242C21.5307 4.31383 24.4681 3.43555 27.4982 3.43555C36.0284 3.43555 42.967 10.3759 42.967 18.9043C42.967 24.0777 40.3906 28.8851 36.0748 31.764C34.375 32.8984 32.6545 35.2376 32.6545 37.5115V41.2498H33.5139C33.8336 41.2498 34.1171 41.2532 34.3732 41.2773V37.5115C34.3732 35.8581 35.7414 34.0534 37.0287 33.194C41.824 29.9954 44.6857 24.6518 44.6857 18.9043C44.6875 9.42711 36.9771 1.7168 27.5 1.7168Z" fill="#93F2FF"/>
<path d="M3.78634 10.331L7.82712 11.7988C8.27227 11.9621 8.76212 11.7318 8.92368 11.2849C9.0904 10.8415 8.85665 10.3465 8.40978 10.1832L4.37415 8.71539C3.92728 8.55383 3.43399 8.78242 3.27415 9.2293C3.11087 9.67445 3.33946 10.1677 3.78634 10.331Z" fill="#93F2FF"/>
<path d="M47.1729 24.2942C46.7294 24.1309 46.2379 24.3612 46.0746 24.8081C45.9079 25.2515 46.1399 25.7465 46.5885 25.9098L50.6258 27.3776C51.0727 27.5409 51.566 27.3106 51.7258 26.8637C51.8908 26.4186 51.6605 25.9253 51.2136 25.762L47.1729 24.2942Z" fill="#93F2FF"/>
<path d="M50.6257 8.71539L46.5867 10.1832C46.1398 10.3465 45.9095 10.838 46.0728 11.2849C46.236 11.7318 46.7276 11.9621 47.1745 11.7988L51.2136 10.331C51.6604 10.1677 51.889 9.67445 51.7257 9.2293C51.5642 8.78242 51.0726 8.55383 50.6257 8.71539Z" fill="#93F2FF"/>
<path d="M8.41321 25.9079C8.86009 25.7446 9.0904 25.253 8.92712 24.8062C8.76384 24.3593 8.27228 24.129 7.8254 24.2923L3.78634 25.7601C3.33946 25.9233 3.11087 26.4166 3.27415 26.8618C3.43571 27.3087 3.92728 27.539 4.37415 27.3757L8.41321 25.9079Z" fill="#93F2FF"/>
<path d="M52.4219 17.187H48.125C47.6506 17.187 47.2656 17.572 47.2656 18.0464C47.2656 18.5208 47.6506 18.9058 48.125 18.9058H52.4219C52.8962 18.9058 53.2812 18.5208 53.2812 18.0464C53.2812 17.572 52.8962 17.187 52.4219 17.187Z" fill="#93F2FF"/>
<path d="M6.875 18.9058C7.34937 18.9058 7.73438 18.5208 7.73438 18.0464C7.73438 17.572 7.34937 17.187 6.875 17.187H2.57812C2.10375 17.187 1.71875 17.572 1.71875 18.0464C1.71875 18.5208 2.10375 18.9058 2.57812 18.9058H6.875Z" fill="#93F2FF"/>
<path d="M24.9219 39.5308C24.4475 39.5308 24.0625 39.9158 24.0625 40.3901C24.0625 40.8645 24.4475 41.2495 24.9219 41.2495H33.5156C33.9883 41.2495 34.375 41.6362 34.375 42.1089C34.375 42.5815 33.9883 42.9683 33.5156 42.9683H21.4844C21.0117 42.9683 20.625 42.5815 20.625 42.1089C20.625 41.6362 21.0117 41.2495 21.4844 41.2495C21.9588 41.2495 22.3438 40.8645 22.3438 40.3901C22.3438 39.9158 21.9588 39.5308 21.4844 39.5308C20.063 39.5308 18.9062 40.6875 18.9062 42.1089C18.9062 43.5303 20.063 44.687 21.4844 44.687H33.5156C34.937 44.687 36.0938 43.5303 36.0938 42.1089C36.0938 40.6875 34.937 39.5308 33.5156 39.5308H24.9219Z" fill="#93F2FF"/>
<path d="M36.6145 17.5244C36.3945 17.5244 36.1745 17.4402 36.0061 17.2734C33.7339 15.0013 30.7123 13.75 27.5 13.75C24.2859 13.75 21.2643 15.003 18.9939 17.2734C18.6587 17.6086 18.1139 17.6086 17.7787 17.2734C17.4436 16.9383 17.4436 16.3934 17.7787 16.0583C20.374 13.4613 23.8253 12.0312 27.5 12.0312C31.1729 12.0312 34.6259 13.463 37.2212 16.0583C37.5564 16.3934 37.5564 16.9383 37.2212 17.2734C37.0545 17.4402 36.8345 17.5244 36.6145 17.5244Z" fill="#93F2FF"/>
<path d="M33.5758 20.5648C33.3558 20.5648 33.1358 20.4806 32.9674 20.3139C31.5082 18.8513 29.566 18.0469 27.5 18.0469C25.4341 18.0469 23.4919 18.8512 22.031 20.3122C21.6958 20.6473 21.151 20.6473 20.8158 20.3122C20.4807 19.977 20.4807 19.4322 20.8158 19.097C22.5999 17.3113 24.9752 16.3281 27.5 16.3281C30.0249 16.3281 32.4002 17.3113 34.1843 19.097C34.5194 19.4322 34.5194 19.977 34.1843 20.3122C34.0158 20.4806 33.7958 20.5648 33.5758 20.5648Z" fill="#93F2FF"/>
<path d="M28.3594 27.5H26.6406C26.1663 27.5 25.7812 27.115 25.7812 26.6406C25.7812 26.1663 26.1663 25.7812 26.6406 25.7812H28.3594C28.8338 25.7812 29.2188 26.1663 29.2188 26.6406C29.2188 27.115 28.8338 27.5 28.3594 27.5Z" fill="#93F2FF"/>
<path d="M30.5386 23.6017C30.3186 23.6017 30.0986 23.5175 29.9302 23.3508C28.5913 22.0119 26.4085 22.0119 25.0696 23.3508C24.7344 23.686 24.1896 23.686 23.8544 23.3508C23.5192 23.0156 23.5192 22.4708 23.8544 22.1356C25.8653 20.1247 29.1344 20.1247 31.1453 22.1356C31.4805 22.4708 31.4805 23.0156 31.1453 23.3508C30.9769 23.5192 30.7586 23.6017 30.5386 23.6017Z" fill="#93F2FF"/>
</svg>
