<svg width="52" height="52" viewBox="0 0 52 52" fill="none" xmlns="http://www.w3.org/2000/svg">
<g clip-path="url(#clip0_15_4837)">
<path d="M37.8148 52.0001C37.4508 52.0001 37.0781 51.9546 36.7098 51.8571L3.20662 42.885C0.909952 42.2523 -0.459382 39.8733 0.142952 37.5766L4.37012 21.8206C4.52612 21.2421 5.11979 20.9063 5.69612 21.0536C6.27462 21.2075 6.61695 21.8033 6.46312 22.3796L2.23812 38.1313C1.93695 39.2796 2.62595 40.4756 3.77645 40.7941L37.2666 49.762C38.4171 50.0653 39.6045 49.3806 39.9035 48.2366L41.5956 41.9663C41.7516 41.3878 42.3453 41.0433 42.9238 41.2015C43.5023 41.3575 43.8425 41.9533 43.6886 42.5296L41.9986 48.7913C41.4895 50.7196 39.7345 52.0001 37.8148 52.0001Z" fill="#93F2FF"/>
<path d="M47.6668 39.0002H13.0001C10.6102 39.0002 8.66675 37.0567 8.66675 34.6668V8.66683C8.66675 6.277 10.6102 4.3335 13.0001 4.3335H47.6668C50.0566 4.3335 52.0001 6.277 52.0001 8.66683V34.6668C52.0001 37.0567 50.0566 39.0002 47.6668 39.0002ZM13.0001 6.50016C11.8062 6.50016 10.8334 7.473 10.8334 8.66683V34.6668C10.8334 35.8607 11.8062 36.8335 13.0001 36.8335H47.6668C48.8606 36.8335 49.8334 35.8607 49.8334 34.6668V8.66683C49.8334 7.473 48.8606 6.50016 47.6668 6.50016H13.0001Z" fill="#93F2FF"/>
<path d="M19.5001 19.5002C17.1102 19.5002 15.1667 17.5567 15.1667 15.1668C15.1667 12.777 17.1102 10.8335 19.5001 10.8335C21.8899 10.8335 23.8334 12.777 23.8334 15.1668C23.8334 17.5567 21.8899 19.5002 19.5001 19.5002ZM19.5001 13.0002C18.3062 13.0002 17.3334 13.973 17.3334 15.1668C17.3334 16.3607 18.3062 17.3335 19.5001 17.3335C20.6939 17.3335 21.6667 16.3607 21.6667 15.1668C21.6667 13.973 20.6939 13.0002 19.5001 13.0002Z" fill="#93F2FF"/>
<path d="M9.90175 36.6817C9.62441 36.6817 9.34708 36.5756 9.13475 36.3654C8.71225 35.9429 8.71225 35.2561 9.13475 34.8336L19.3679 24.6004C20.5942 23.3741 22.7371 23.3741 23.9634 24.6004L27.0097 27.6467L35.4424 17.5284C36.0556 16.7939 36.9569 16.3671 37.9167 16.3584H37.9406C38.8896 16.3584 39.7887 16.7701 40.4084 17.4916L51.7401 30.7126C52.1301 31.1654 52.0781 31.8501 51.6231 32.2401C51.1702 32.6301 50.4877 32.5802 50.0956 32.1231L38.7639 18.9021C38.5537 18.6594 38.2634 18.5251 37.9406 18.5251C37.7152 18.5056 37.3187 18.6616 37.1086 18.9151L27.9154 29.9456C27.7204 30.1796 27.4366 30.3204 27.1311 30.3334C26.8234 30.3551 26.5309 30.2337 26.3164 30.0171L22.4316 26.1322C22.0221 25.7249 21.3092 25.7249 20.8997 26.1322L10.6666 36.3654C10.4564 36.5756 10.1791 36.6817 9.90175 36.6817Z" fill="#93F2FF"/>
</g>
<defs>
<clipPath id="clip0_15_4837">
<rect width="52" height="52" fill="white"/>
</clipPath>
</defs>
</svg>
