<svg width="184" height="71" viewBox="0 0 184 71" fill="none" xmlns="http://www.w3.org/2000/svg">
<path fill-rule="evenodd" clip-rule="evenodd" d="M178.142 47.0614C178.252 48.3212 179.26 49.9248 181.007 49.9248H182.027C182.424 49.9248 182.749 49.6003 182.749 49.204V26.7391H182.744C182.724 26.3606 182.411 26.0575 182.027 26.0575H178.863C178.479 26.0575 178.167 26.3606 178.147 26.7391H178.142V28.5645C176.202 26.174 173.145 25.1819 170.08 25.1819C163.11 25.1819 157.461 30.8358 157.461 37.8107C157.461 44.7861 163.11 50.4401 170.08 50.4401C173.145 50.4401 176.487 49.2503 178.142 47.0586V47.0614ZM170.091 46.0203C165.659 46.0203 162.066 42.345 162.066 37.8107C162.066 33.2773 165.659 29.6019 170.091 29.6019C174.525 29.6019 178.117 33.2773 178.117 37.8107C178.117 42.345 174.525 46.0203 170.091 46.0203Z" fill="#D7D9FF"/>
<path fill-rule="evenodd" clip-rule="evenodd" d="M153.458 36.2093C153.458 29.6566 149.328 25.236 142.74 25.236C139.596 25.236 137.018 27.0557 136.108 28.6188C135.911 27.3965 135.263 26.1118 133.252 26.1118H132.227C131.831 26.1118 131.507 26.4366 131.507 26.8329V47.1176C131.507 47.1183 131.507 47.1198 131.507 47.1208V49.2998H131.511C131.532 49.6776 131.845 49.981 132.228 49.981H135.393C135.441 49.981 135.489 49.9753 135.535 49.9664C135.556 49.9623 135.575 49.954 135.596 49.9483C135.619 49.941 135.644 49.9354 135.666 49.9262C135.694 49.9145 135.72 49.8989 135.746 49.8842C135.759 49.8763 135.772 49.8709 135.785 49.8627C135.816 49.8422 135.845 49.8177 135.873 49.7927C135.878 49.7881 135.883 49.7849 135.888 49.7807C135.919 49.7502 135.948 49.7166 135.973 49.6817C136.053 49.5729 136.101 49.4412 136.109 49.2998H136.113V36.0291C136.113 32.5098 138.964 29.6566 142.481 29.6566C145.998 29.6566 148.849 32.5098 148.849 36.0291L148.852 47.1216L148.852 47.1176C148.852 47.1275 148.854 47.1376 148.854 47.1481V49.2998H148.858C148.879 49.6776 149.192 49.981 149.574 49.981H152.74C152.788 49.981 152.836 49.9753 152.881 49.9664C152.9 49.9629 152.917 49.9553 152.936 49.9502C152.962 49.9427 152.988 49.9362 153.013 49.9262C153.039 49.9155 153.063 49.9005 153.087 49.8867C153.102 49.8783 153.118 49.8722 153.132 49.8627C153.161 49.8434 153.188 49.8202 153.214 49.7973C153.221 49.791 153.229 49.7864 153.235 49.7802C153.265 49.7512 153.292 49.7199 153.316 49.6871C153.318 49.6847 153.32 49.6827 153.322 49.6802C153.4 49.5724 153.447 49.4422 153.456 49.3016C153.456 49.3006 153.456 49.2998 153.456 49.2998H153.46L153.458 36.2093Z" fill="#D7D9FF"/>
<path fill-rule="evenodd" clip-rule="evenodd" d="M120.495 47.0614C120.606 48.3212 121.614 49.9248 123.359 49.9248H124.381C124.777 49.9248 125.101 49.6002 125.101 49.204V26.7391H125.097C125.076 26.3606 124.763 26.0575 124.381 26.0575H121.216C120.833 26.0575 120.52 26.3606 120.499 26.7391H120.495V28.5645C118.556 26.174 115.498 25.1819 112.432 25.1819C105.463 25.1819 99.8136 30.8358 99.8136 37.8108C99.8136 44.7861 105.463 50.4402 112.432 50.4402C115.498 50.4402 118.84 49.2504 120.495 47.0586L120.495 47.0614ZM112.444 46.0202C108.012 46.0202 104.419 42.3451 104.419 37.8108C104.419 33.2773 108.012 29.6019 112.444 29.6019C116.877 29.6019 120.47 33.2773 120.47 37.8108C120.47 42.3451 116.877 46.0202 112.444 46.0202Z" fill="#D7D9FF"/>
<path fill-rule="evenodd" clip-rule="evenodd" d="M81.096 43.844C83.209 45.3089 85.5154 46.0205 87.7318 46.0205C89.8433 46.0205 92.0262 44.925 92.0262 43.0181C92.0262 40.4725 87.2696 40.0764 84.2811 39.0599C81.2919 38.0434 78.7175 35.942 78.7175 32.5391C78.7175 27.3321 83.3535 25.1815 87.6806 25.1815C90.4221 25.1815 93.2508 26.0863 95.0847 27.3823C95.7162 27.8613 95.3316 28.4111 95.3316 28.4111L93.581 30.9133C93.3843 31.1951 93.0402 31.4386 92.5465 31.1336C92.0525 30.8288 90.3204 29.6017 87.6806 29.6017C85.0404 29.6017 83.4502 30.8219 83.4502 32.3342C83.4502 34.1477 85.517 34.7181 87.9379 35.3362C92.1568 36.4742 96.7589 37.8422 96.7589 43.0181C96.7589 47.6059 92.4709 50.4412 87.7318 50.4412C84.1405 50.4412 81.0828 49.4166 78.5184 47.5333C77.9842 46.9983 78.3573 46.5014 78.3573 46.5014L80.0993 44.0119C80.4538 43.5465 80.9006 43.7088 81.096 43.844Z" fill="#D7D9FF"/>
<path fill-rule="evenodd" clip-rule="evenodd" d="M68.9278 47.0614C69.0385 48.3212 70.0462 49.9248 71.7919 49.9248H72.8135C73.2094 49.9248 73.5339 49.6002 73.5339 49.204V26.7391H73.5295C73.5087 26.3606 73.1961 26.0575 72.8135 26.0575H69.6483C69.2655 26.0575 68.9528 26.3606 68.9316 26.7391H68.9278V28.5645C66.9885 26.174 63.931 25.1819 60.865 25.1819C53.8958 25.1819 48.2461 30.8358 48.2461 37.8108C48.2461 44.7861 53.8958 50.4402 60.865 50.4402C63.931 50.4402 67.2724 49.2504 68.9273 47.0586L68.9278 47.0614ZM60.8773 46.0202C56.4449 46.0202 52.8517 42.3451 52.8517 37.8108C52.8517 33.2773 56.4449 29.6019 60.8773 29.6019C65.3096 29.6019 68.9025 33.2773 68.9025 37.8108C68.9025 42.3451 65.3096 46.0202 60.8773 46.0202Z" fill="#D7D9FF"/>
<path fill-rule="evenodd" clip-rule="evenodd" d="M30.5549 38.6715C25.865 38.6715 22.0629 42.4734 22.0629 47.1638C22.0629 51.8539 25.865 55.6559 30.5549 55.6559C35.245 55.6559 39.047 51.8539 39.047 47.1638C39.047 42.4734 35.245 38.6715 30.5549 38.6715ZM8.49202 38.6723C3.80205 38.6723 0 42.4734 0 47.1638C0 51.8539 3.80205 55.6559 8.49202 55.6559C13.1822 55.6559 16.9844 51.8539 16.9844 47.1638C16.9844 42.4734 13.1822 38.6723 8.49202 38.6723ZM28.0154 28.0562C28.0154 32.7465 24.2136 36.5489 19.5235 36.5489C14.8334 36.5489 11.0315 32.7465 11.0315 28.0562C11.0315 23.3668 14.8334 19.5643 19.5235 19.5643C24.2136 19.5643 28.0154 23.3668 28.0154 28.0562Z" fill="#D7D9FF"/>
</svg>
