<svg width="184" height="61" viewBox="0 0 184 61" fill="none" xmlns="http://www.w3.org/2000/svg">
<path d="M0.297494 33.2419L19.6361 52.5805C9.76053 50.9112 1.96681 43.1175 0.297494 33.2419Z" fill="#D7D9FF"/>
<path d="M0 27.9917L24.8863 52.878C26.3663 52.799 27.8102 52.5837 29.2055 52.2447L0.633347 23.6725C0.294295 25.0679 0.0790808 26.5117 0 27.9917Z" fill="#D7D9FF"/>
<path d="M1.87215 19.9584L32.9197 51.006C34.0505 50.5207 35.1359 49.9497 36.1675 49.3012L3.57697 16.7106C2.92846 17.7423 2.35747 18.8276 1.87215 19.9584Z" fill="#D7D9FF"/>
<path d="M5.68027 13.8615C10.0153 8.82437 16.4375 5.63477 23.6046 5.63477C36.6599 5.63477 47.2432 16.2181 47.2432 29.2734C47.2432 36.4405 44.0537 42.8627 39.0165 47.1977L5.68027 13.8615Z" fill="#D7D9FF"/>
<path d="M71.8711 43.429H89.1916V38.7123H77.5917V16.3715H71.8711V43.429ZM92.8742 43.429H98.5026V23.1359H92.8742V43.429ZM95.7015 20.7313C97.34 20.7313 98.7535 19.4894 98.7535 17.8776C98.7535 16.279 97.34 15.0371 95.7015 15.0371C94.0766 15.0371 92.663 16.279 92.663 17.8776C92.663 19.4894 94.0766 20.7313 95.7015 20.7313ZM108.639 31.697C108.652 29.0811 110.211 27.5486 112.484 27.5486C114.743 27.5486 116.104 29.0283 116.091 31.5121V43.429H121.719V30.508C121.719 25.7782 118.944 22.8716 114.717 22.8716C111.704 22.8716 109.524 24.3513 108.613 26.7162H108.375V23.1359H103.011V43.429H108.639V31.697ZM135.456 43.8254C140.489 43.8254 143.858 41.3811 144.651 37.6159L139.459 37.2723C138.89 38.8182 137.424 39.624 135.561 39.624C132.747 39.624 130.964 37.7612 130.964 34.7357V34.7225H144.783V33.1767C144.783 26.2802 140.608 22.8716 135.244 22.8716C129.272 22.8716 125.402 27.1126 125.402 33.3749C125.402 39.809 129.22 43.8254 135.456 43.8254ZM130.964 31.2346C131.069 28.9226 132.84 27.0729 135.337 27.0729C137.768 27.0729 139.459 28.8169 139.485 31.2346H130.964ZM154.322 43.8122C157.321 43.8122 159.263 42.5043 160.254 40.6149H160.412V43.429H165.75V29.7417C165.75 24.9062 161.615 22.8716 157.228 22.8716C152.234 22.8716 149.077 25.1969 148.297 28.8962L153.503 29.3189C153.886 27.9713 155.088 26.9805 157.11 26.9805C159.052 26.9805 160.109 27.9317 160.122 29.636C160.135 30.9704 158.735 31.1686 155.207 31.5121C151.191 31.882 147.584 33.2296 147.584 37.7612C147.584 41.7775 150.451 43.8122 154.322 43.8122ZM155.934 39.9279C154.203 39.9279 152.961 39.122 152.961 37.5762C152.961 35.9909 154.269 35.2112 156.251 34.9339C157.479 34.7621 159.487 34.4715 160.161 34.0223V36.1758C160.161 38.3029 158.404 39.9279 155.934 39.9279ZM170.116 43.429H175.745V31.948C175.758 29.4643 177.555 27.7599 179.827 27.7599C180.593 27.7599 181.214 27.9713 181.743 28.2356L183.434 23.5851C182.694 23.1359 181.743 22.8452 180.659 22.8452C178.374 22.8452 176.524 24.1664 175.784 26.6766H175.573V23.1359H170.116V43.429Z" fill="#D7D9FF"/>
</svg>
