<svg width="184" height="67" viewBox="0 0 184 67" fill="none" xmlns="http://www.w3.org/2000/svg">
<path d="M0 3.5155H39.7204V23.3757H19.8602L0 3.5155ZM0 23.3757H19.8602L39.7204 43.2359H0V23.3757ZM0 43.2359H19.8602V63.0961L0 43.2359Z" fill="#D7D9FF"/>
<path d="M62.1319 19.1833H78.1877V24.2853H68.2089V31.3754H78.1877V36.3648H68.2089V45.443H62.1319V19.1833ZM81.4887 27.361H87.2286V31.1501C87.5285 29.848 88.1418 28.8485 89.0668 28.1488C90.0154 27.4228 91.0686 27.0612 92.218 27.0612C92.8186 27.0612 93.3193 27.1121 93.7182 27.2111V32.5385C93.1457 32.4694 92.5696 32.4322 91.9926 32.4258C90.4171 32.4258 89.2304 32.9374 88.4289 33.9632C87.6303 34.9636 87.2286 36.4638 87.2286 38.4655V45.443H81.4915V27.361H81.4887ZM102.779 45.931C101.029 45.931 99.5026 45.5175 98.2023 44.6925C96.9266 43.8674 95.9125 42.6962 95.2765 41.316C94.6014 39.8667 94.2615 38.2266 94.2615 36.402C94.2615 34.6011 94.6141 32.9746 95.3137 31.5253C95.9698 30.1251 97.0111 28.9412 98.315 28.1116C99.6389 27.2865 101.153 26.8731 102.855 26.8731C104.129 26.8731 105.269 27.1493 106.268 27.699C107.268 28.2506 108.018 29.0011 108.519 29.9498V27.361H114.221V45.443H108.519V42.8915C108.018 43.792 107.243 44.5289 106.193 45.105C105.143 45.662 103.969 45.9455 102.779 45.931ZM104.43 41.166C105.805 41.166 106.868 40.7163 107.619 39.8158C108.369 38.9153 108.744 37.7768 108.744 36.402C108.744 35.0518 108.369 33.926 107.619 33.0255C106.868 32.125 105.805 31.6753 104.43 31.6753C103.128 31.6753 102.079 32.1123 101.279 32.9883C100.504 33.8642 100.116 35.0009 100.116 36.402C100.116 37.8032 100.504 38.9526 101.279 39.853C102.079 40.729 103.13 41.166 104.43 41.166ZM118.235 27.361H123.975V29.987C124.377 29.0602 125.025 28.3097 125.925 27.7363C126.852 27.1629 127.927 26.8731 129.152 26.8731C132.003 26.8731 133.892 27.9853 134.816 30.2124C135.325 29.2029 136.121 28.3678 137.105 27.8117C138.157 27.1784 139.366 26.854 140.593 26.8731C144.87 26.8731 147.008 29.3228 147.008 34.2258V45.443H141.231V35.2762C141.231 34.0523 141.006 33.1518 140.556 32.5757C140.105 32.0015 139.43 31.7125 138.53 31.7125C137.555 31.7125 136.804 32.0505 136.279 32.7257C135.754 33.3762 135.491 34.513 135.491 36.1394V45.443H129.714V35.239C129.714 34.0141 129.49 33.1255 129.039 32.5757C128.615 32.0015 127.951 31.7125 127.053 31.7125C126.051 31.7125 125.288 32.0505 124.763 32.7257C124.238 33.3762 123.975 34.513 123.975 36.1394V45.443H118.237V27.361H118.235ZM168.57 35.4643C168.57 36.2385 168.519 37.0771 168.418 37.9776H155.065C155.116 39.1534 155.515 40.052 156.265 40.679C157.016 41.3032 158.031 41.6167 159.304 41.6167C161.08 41.6167 162.206 41.0779 162.68 40.003H168.308C168.031 41.7794 167.056 43.2159 165.381 44.3172C163.731 45.3921 161.705 45.931 159.304 45.931C156.204 45.931 153.765 45.0923 151.988 43.4167C150.238 41.7403 149.362 39.4033 149.362 36.402C149.362 34.4512 149.762 32.7629 150.563 31.3372C151.336 29.9134 152.528 28.7612 153.977 28.0362C155.453 27.262 157.166 26.8731 159.119 26.8731C160.968 26.8731 162.605 27.2356 164.031 27.9616C165.481 28.6876 166.595 29.6999 167.369 31.0001C168.17 32.3022 168.57 33.7897 168.57 35.4643ZM162.903 34.4139C162.879 33.2136 162.541 32.2995 161.89 31.6753C161.241 31.051 160.302 30.7375 159.077 30.7375C157.852 30.7375 156.877 31.0747 156.151 31.7507C155.451 32.4013 155.089 33.2881 155.062 34.4139H162.903ZM171.101 27.361H176.841V31.1501C177.141 29.848 177.754 28.8485 178.679 28.1488C179.577 27.4419 180.687 27.0585 181.83 27.0612C182.43 27.0612 182.931 27.1121 183.33 27.2111V32.5385C182.758 32.4694 182.182 32.4322 181.605 32.4258C180.029 32.4258 178.842 32.9374 178.041 33.9632C177.24 34.9636 176.841 36.4638 176.841 38.4655V45.443H171.101V27.361Z" fill="#D7D9FF"/>
</svg>
