<svg width="190" height="71" viewBox="0 0 190 71" fill="none" xmlns="http://www.w3.org/2000/svg">
<path d="M66.1842 51.3719V29.9343H66.5662L82.1707 51.3719H87.0812V19.8904H81.6251V41.2741H81.2432L65.6386 19.8904H60.7281V51.3719H66.1842ZM102.522 51.8579C109.724 51.8579 114.144 47.214 114.144 39.4381C114.144 31.7162 109.724 27.0183 102.522 27.0183C95.3746 27.0183 90.9005 31.7162 90.9005 39.4381C90.9551 47.214 95.32 51.8579 102.522 51.8579ZM102.522 47.322C98.7028 47.322 96.5203 44.46 96.5203 39.4381C96.5203 34.4702 98.7028 31.5542 102.522 31.5542C106.341 31.5542 108.524 34.4702 108.524 39.4381C108.524 44.46 106.341 47.322 102.522 47.322ZM119.109 21.6724V27.6663H115.289V31.9862H119.109V45C119.109 49.644 121.291 51.4799 126.856 51.4799C127.893 51.4799 128.93 51.3719 129.748 51.2099V46.998C129.093 47.052 128.657 47.106 127.893 47.106C125.602 47.106 124.565 46.08 124.565 43.704V31.9862H129.748V27.6663H124.565V21.6724H119.109ZM133.022 51.3719H138.478V27.5043H133.022V51.3719ZM135.75 23.5623C137.55 23.5623 139.024 22.1044 139.024 20.3224C139.024 18.4864 137.55 17.0285 135.75 17.0285C133.949 17.0285 132.476 18.4864 132.476 20.3224C132.476 22.1044 133.949 23.5623 135.75 23.5623ZM153.428 51.8579C160.63 51.8579 165.049 47.214 165.049 39.4381C165.049 31.7162 160.63 27.0183 153.428 27.0183C146.28 27.0183 141.806 31.7162 141.806 39.4381C141.806 47.214 146.171 51.8579 153.428 51.8579ZM153.428 47.322C149.609 47.322 147.426 44.46 147.426 39.4381C147.426 34.4702 149.609 31.5542 153.428 31.5542C157.193 31.5542 159.43 34.4702 159.43 39.4381C159.375 44.46 157.193 47.322 153.428 47.322ZM168.269 51.3719H173.725V37.4941C173.725 33.9842 175.798 31.7702 179.017 31.7702C182.345 31.7702 183.873 33.6062 183.873 37.2241V51.3719H189.329V35.9282C189.329 30.2043 186.383 27.0183 181.036 27.0183C177.435 27.0183 175.034 28.6383 173.888 31.3382H173.506V27.5043H168.214C168.269 27.5043 168.269 51.3719 168.269 51.3719Z" fill="#D7D9FF"/>
<path fill-rule="evenodd" clip-rule="evenodd" d="M8.4131 17.8755C10.0011 19.1566 10.5755 19.0554 13.5488 18.8531L41.5587 17.1675C42.1669 17.1675 41.6601 16.5606 41.4573 16.4932L36.7947 13.1556C35.9162 12.4814 34.6998 11.6722 32.4361 11.8745L5.33844 13.8636C4.3586 13.9647 4.15587 14.4704 4.56132 14.8413L8.4131 17.8755ZM10.1025 24.3821V53.7799C10.1025 55.3645 10.8796 55.9376 12.6703 55.8364L43.4508 54.0496C45.2415 53.9485 45.4443 52.8697 45.4443 51.5886V22.393C45.4443 21.1119 44.9375 20.4039 43.8563 20.5051L11.6905 22.393C10.5079 22.4942 10.1025 23.101 10.1025 24.3821ZM40.4775 25.9666C40.6802 26.8431 40.4775 27.7534 39.599 27.8545L38.1124 28.158V49.8692C36.8284 50.5435 35.6459 50.948 34.6323 50.948C33.0442 50.948 32.6388 50.4423 31.4562 48.959L21.7592 33.7543V48.4533L24.8339 49.1275C24.8339 49.1275 24.8339 50.9143 22.3674 50.9143L15.5423 51.3189C15.3396 50.9143 15.5423 49.9366 16.218 49.7344L18.0088 49.2287V29.8099L15.5423 29.6076C15.3396 28.7311 15.8464 27.45 17.2317 27.3488L24.5636 26.8431L34.666 42.2163V28.6299L32.0982 28.3265C31.8955 27.2477 32.7064 26.4386 33.6862 26.3374L40.4775 25.9666ZM3.07467 11.1665L31.2873 9.11003C34.7336 8.80662 35.6459 9.0089 37.8083 10.5934L46.7958 16.8978C48.2824 17.9766 48.7892 18.28 48.7892 19.46V54.0834C48.7892 56.241 48.0121 57.5221 45.2415 57.7244L12.5014 59.7135C10.4066 59.8146 9.42673 59.5112 8.34553 58.1289L1.68938 49.5321C0.506813 47.9476 0 46.7676 0 45.3854V14.6053C0 12.8185 0.810901 11.3688 3.07467 11.1665Z" fill="#D7D9FF"/>
</svg>
