<svg width="55" height="53" viewBox="0 0 55 53" fill="none" xmlns="http://www.w3.org/2000/svg">
<path d="M27.4079 0.675781C17.3396 0.675781 9.14844 8.86702 9.14844 18.9355C9.14844 25.6452 12.7589 31.7235 18.6119 34.9403V39.6103H18.608V43.3417H18.6028V49.0018H23.8792C23.9886 50.8509 25.5269 52.3218 27.4027 52.3218C29.2785 52.3218 30.8168 50.8509 30.9261 49.0018H36.1991V45.2703H36.2045V39.6103H36.2039V34.9403C42.057 31.7235 45.6674 25.6452 45.6674 18.9355C45.6674 8.86702 37.4763 0.675781 27.4079 0.675781ZM20.5366 41.5388H34.2759V43.3418H20.5366V41.5388ZM27.4027 50.3933C26.5031 50.3933 25.9169 49.7056 25.8176 49.0018H28.9889C28.8853 49.7858 28.2143 50.3933 27.4027 50.3933ZM34.2705 47.0732H20.5314V45.2703H34.2705V47.0732ZM34.8024 33.5001L34.2753 33.7683V39.5573H28.3687V25.3072L34.0888 19.5869C34.4653 19.2103 34.4653 18.5999 34.0886 18.2232C33.7122 17.8468 33.1016 17.8466 32.725 18.2233L27.4044 23.5441L22.0839 18.2233C21.7074 17.8468 21.0968 17.8466 20.7203 18.2232C20.3436 18.5999 20.3436 19.2104 20.7201 19.5869L26.4401 25.3072V39.5573H20.5405V33.7683L20.0134 33.5001C14.5012 30.6958 11.077 25.1148 11.077 18.9355C11.077 9.93045 18.403 2.60442 27.4079 2.60442C36.4128 2.60442 43.7388 9.93045 43.7388 18.9355C43.7388 25.1148 40.3146 30.6958 34.8024 33.5001Z" fill="#93F2FF"/>
<path d="M32.4955 6.52344C31.9629 6.52344 31.5312 6.95513 31.5312 7.48774C31.5312 8.02035 31.9629 8.45201 32.4955 8.45201C34.0123 8.45201 37.5674 10.2742 37.5674 13.8078C37.5674 14.3404 37.9991 14.7721 38.5317 14.7721C39.0643 14.7721 39.496 14.3404 39.496 13.8078C39.496 9.0252 34.9387 6.52344 32.4955 6.52344Z" fill="#93F2FF"/>
<path d="M6.30065 20.7807C6.30065 20.2481 5.86896 19.8164 5.33637 19.8164H0.964272C0.431689 19.8164 0 20.2481 0 20.7807C0 21.3133 0.431689 21.745 0.964272 21.745H5.33637C5.86896 21.745 6.30065 21.3133 6.30065 20.7807Z" fill="#93F2FF"/>
<path d="M6.63144 8.16703C6.81979 8.35534 7.06652 8.44951 7.31335 8.44951C7.56009 8.44951 7.80692 8.35534 7.99514 8.16715C8.37183 7.79046 8.37183 7.17999 7.99526 6.80349L4.90402 3.71206C4.52763 3.33565 3.91698 3.33552 3.54032 3.71194C3.16366 4.0886 3.16366 4.6991 3.5402 5.07563L6.63144 8.16703Z" fill="#93F2FF"/>
<path d="M6.63187 33.3955L3.54032 36.487C3.16366 36.8636 3.16366 37.4741 3.5402 37.8508C3.72854 38.0391 3.97525 38.1333 4.22211 38.1333C4.46881 38.1333 4.71567 38.0391 4.90386 37.8508L7.99544 34.7594C8.3721 34.3827 8.3721 33.7722 7.99557 33.3958C7.61906 33.0191 7.00841 33.0191 6.63187 33.3955Z" fill="#93F2FF"/>
<path d="M53.8441 19.8164H49.4721C48.9395 19.8164 48.5078 20.2481 48.5078 20.7807C48.5078 21.3133 48.9395 21.745 49.4721 21.745H53.8441C54.3767 21.745 54.8084 21.3133 54.8084 20.7807C54.8084 20.2481 54.3767 19.8164 53.8441 19.8164Z" fill="#93F2FF"/>
<path d="M47.4956 8.44958C47.7423 8.44958 47.9892 8.3554 48.1775 8.16721L51.2689 5.07581C51.6454 4.69916 51.6454 4.08866 51.2689 3.712C50.8922 3.33558 50.2817 3.33558 49.905 3.712L46.8137 6.8034C46.4371 7.18008 46.4371 7.79055 46.8137 8.16721C47.002 8.3554 47.2489 8.44958 47.4956 8.44958Z" fill="#93F2FF"/>
<path d="M48.1773 33.3955C47.8009 33.0191 47.1903 33.0191 46.8136 33.3958C46.4371 33.7722 46.4371 34.3827 46.8138 34.7594L49.9053 37.8508C50.0935 38.0391 50.3404 38.1333 50.5871 38.1333C50.8338 38.1333 51.0807 38.0391 51.269 37.8508C51.6455 37.4741 51.6455 36.8636 51.2689 36.487L48.1773 33.3955Z" fill="#93F2FF"/>
</svg>
