<svg width="55" height="55" viewBox="0 0 55 55" fill="none" xmlns="http://www.w3.org/2000/svg">
<path d="M52.3392 25.0636L46.2864 19.4108C46.1088 19.245 45.875 19.1527 45.6321 19.1527H37.4114C37.3657 19.146 37.3189 19.1426 37.2713 19.1426H28.2927V17.0204H42.3378C42.8672 17.0204 43.2963 16.5914 43.2963 16.0619V4.73561C43.2963 4.2062 42.8672 3.77708 42.3378 3.77708H28.2927V1.06787C28.2927 0.538345 27.8636 0.109375 27.3341 0.109375C26.8047 0.109375 26.3756 0.538375 26.3756 1.06787V3.77711H17.7317C17.6846 3.77711 17.6383 3.78059 17.5932 3.78729H9.37071C9.12786 3.78729 8.89399 3.87953 8.7164 4.04536L2.66362 9.69829C2.46956 9.87951 2.35938 10.1332 2.35938 10.3987C2.35938 10.6643 2.46956 10.918 2.66362 11.0992L8.71643 16.7524C8.89402 16.9183 9.12789 17.0104 9.37074 17.0104H17.5921C17.6377 17.0169 17.6842 17.0204 17.7317 17.0204H26.3756V19.1426H12.6652C12.1358 19.1426 11.7067 19.5717 11.7067 20.1011V31.4276C11.7067 31.957 12.1358 32.3862 12.6652 32.3862H26.3756V41.9084C22.8482 42.3057 20.0495 44.868 19.5074 48.1937H13.1149C12.5855 48.1937 12.1564 48.6228 12.1564 49.1522V53.9304C12.1564 54.4598 12.5855 54.8889 13.1149 54.8889H41.5533C42.0827 54.8889 42.5118 54.4598 42.5118 53.9304V49.1522C42.5118 48.6228 42.0827 48.1937 41.5533 48.1937H35.1609C34.6188 44.868 31.82 42.3057 28.2926 41.9084V32.3862H37.2713C37.3184 32.3862 37.3647 32.3827 37.4098 32.376H45.6321C45.875 32.376 46.1089 32.2837 46.2864 32.1179L52.3392 26.4647C52.5333 26.2835 52.6435 26.0298 52.6435 25.7643C52.6435 25.4986 52.5333 25.245 52.3392 25.0636ZM17.8713 15.1034C17.8257 15.0967 17.7792 15.0933 17.7317 15.0933H9.74875L4.72227 10.3987L9.74872 5.70431H17.7317C17.7787 5.70431 17.825 5.70083 17.8702 5.69414H26.3756H28.2926H41.3792V15.1034H28.2927H26.3756H17.8713ZM40.5949 52.9719H14.0735V50.1107H20.3723H34.296H40.5949L40.5949 52.9719ZM33.2108 48.1937H21.4573C22.0314 45.6461 24.4359 43.7696 27.3341 43.7696C30.232 43.7696 32.6366 45.6464 33.2108 48.1937ZM45.2541 30.4589H37.2713C37.2237 30.4589 37.1769 30.4624 37.1311 30.4691H28.2926H26.3756H13.6238V21.0596H26.3756H28.2926H37.1311C37.1769 21.0663 37.2237 21.0698 37.2713 21.0698H45.2541L50.2806 25.7642L45.2541 30.4589Z" fill="#93F2FF"/>
</svg>
