<svg width="54" height="55" viewBox="0 0 54 55" fill="none" xmlns="http://www.w3.org/2000/svg">
<path d="M52.3803 24.0001H51.2804C50.2966 14.8942 44.3553 7.25297 36.218 3.83854H45.5655V4.79325C45.5655 5.32418 45.9957 5.75453 46.5268 5.75453H50.3588C50.8899 5.75453 51.32 5.32418 51.32 4.79325V0.961278C51.32 0.430375 50.8899 0 50.3588 0H46.5268C45.9957 0 45.5655 0.430344 45.5655 0.961278V1.91599H29.548V0.961278C29.548 0.430375 29.1178 0 28.5867 0H24.7546C24.2236 0 23.7933 0.430344 23.7933 0.961278V1.91599H7.77581V0.961278C7.77581 0.430375 7.34546 0 6.81453 0H2.98265C2.45175 0 2.0214 0.430344 2.0214 0.961278V4.79325C2.0214 5.32418 2.45175 5.75453 2.98265 5.75453H6.8145C7.3454 5.75453 7.77578 5.32418 7.77578 4.79325V3.83854H17.1237C8.98611 7.25297 3.04501 14.8942 2.06125 24.0001H0.961278C0.430345 24.0001 0 24.4305 0 24.9614V28.7934C0 29.3243 0.430314 29.7546 0.961278 29.7546H4.79349C5.32443 29.7546 5.75477 29.3243 5.75477 28.7934V24.9614C5.75477 24.4305 5.32446 24.0001 4.79349 24.0001H3.99636C5.21513 13.6127 13.4331 5.33451 23.7933 4.02588V4.79325C23.7933 5.32418 24.2236 5.75453 24.7546 5.75453H28.5867C29.1178 5.75453 29.548 5.32418 29.548 4.79325V4.02582C39.9083 5.33424 48.1262 13.6125 49.3452 24.0002H48.5483C48.0173 24.0002 47.587 24.4305 47.587 24.9614V28.7934C47.587 29.3243 48.0173 29.7546 48.5483 29.7546H52.3803C52.9114 29.7546 53.3416 29.3243 53.3416 28.7934V24.9614C53.3416 24.4305 52.9114 24.0001 52.3803 24.0001ZM49.3975 3.83197H47.4881V2.87726V1.92256H49.3975V3.83197ZM3.94396 1.92256H5.85322V3.83197H3.94396V1.92256ZM3.83225 26.7845V27.832H1.92256V26.7863V26.1597C1.92414 26.0806 1.92619 26.0016 1.92845 25.9227H3.83225V26.7845ZM26.671 1.92256C26.9906 1.92256 27.3087 1.93068 27.6254 1.94275V3.83197H25.7158V1.94272C26.0329 1.93068 26.351 1.92256 26.671 1.92256ZM51.419 26.1703V26.7854V27.832H49.5096V26.7863V25.9227H51.4128C51.4156 26.0051 51.4174 26.0877 51.419 26.1703Z" fill="#93F2FF"/>
<path d="M27.5535 7.62752C27.4006 7.27723 27.0546 7.05078 26.6725 7.05078C26.2903 7.05078 25.9444 7.27723 25.7915 7.62752L13.2678 36.3206C13.1675 36.5505 13.1609 36.8102 13.2494 37.0448L13.2643 37.0842C13.3662 37.3543 13.5842 37.5642 13.8577 37.656C16.8533 38.6613 18.866 41.4599 18.866 44.6198C18.866 45.9362 18.5123 47.2287 17.8434 48.3577C17.8226 48.3927 17.8049 48.4289 17.7889 48.4659C17.6802 48.6216 17.6159 48.8107 17.6159 49.015V53.883C17.6159 54.4111 18.0421 54.8405 18.5702 54.8443L34.7609 54.9609H34.7682C35.2958 54.9609 35.7254 54.535 35.7292 54.0067C35.7329 53.4757 35.3057 53.0422 34.7749 53.0384L19.5385 52.9287V50.5132H34.4123C34.8138 50.5132 35.1732 50.2636 35.3132 49.8874L35.5755 49.1828C35.6769 48.9106 35.6498 48.6072 35.5014 48.3572C34.8328 47.2287 34.4793 45.9363 34.4793 44.6198C34.4793 41.4599 36.4917 38.6613 39.4874 37.656C39.7617 37.5638 39.9801 37.3528 40.0818 37.0815L40.0965 37.0421C40.1839 36.8082 40.177 36.5495 40.0772 36.3206L27.5535 7.62752ZM26.6725 34.3838C27.7362 34.3838 28.6017 35.2491 28.6017 36.3126C28.6017 37.3762 27.7362 38.2414 26.6725 38.2414C25.6089 38.2414 24.7436 37.3762 24.7436 36.3126C24.7436 35.2491 25.6089 34.3838 26.6725 34.3838ZM32.5567 44.6198C32.5567 45.9975 32.8639 47.3547 33.4502 48.5906H19.895C20.4816 47.3544 20.7886 45.9974 20.7886 44.6198C20.7886 40.975 18.6663 37.7111 15.4143 36.2088L25.7112 12.6175V32.5827C24.0511 33.0107 22.8211 34.5208 22.8211 36.3126C22.8211 38.4363 24.5488 40.164 26.6725 40.164C28.7964 40.164 30.5243 38.4363 30.5243 36.3126C30.5243 34.5207 29.294 33.0107 27.6337 32.5827V12.6175L37.9307 36.2088C34.6789 37.7114 32.5567 40.9749 32.5567 44.6198Z" fill="#93F2FF"/>
</svg>
