<svg width="1920" height="729" viewBox="0 0 1920 729" fill="none" xmlns="http://www.w3.org/2000/svg">
<path d="M610.691 82.1093L610.124 83.787L609.91 84.008L610.691 82.1093ZM598.601 118.752C601.531 108.38 604.612 98.3824 607.93 88.898C608.203 88.5786 608.471 88.265 608.746 87.9575C606.712 94.177 604.733 100.537 602.808 107.037C601.416 110.928 600.013 114.829 598.601 118.74V118.752ZM590.499 149.575C591.703 144.715 592.919 139.907 594.148 135.15C594.99 132.909 595.824 130.661 596.649 128.406C595.407 132.86 594.168 137.347 592.931 141.867C592.127 144.421 591.316 146.986 590.499 149.563V149.575ZM601.222 101.117C602.068 98.7406 602.933 96.4061 603.819 94.1133C604.06 93.7809 604.303 93.4536 604.549 93.1312C603.449 95.7841 602.34 98.4421 601.222 101.105V101.117ZM587.498 148.384C590.102 137.673 592.852 127.316 595.844 117.462C597.519 113.648 599.17 109.821 600.799 105.98C598.008 115.133 595.387 124.639 592.856 134.386C591.096 139.071 589.31 143.737 587.498 148.384ZM580.251 180.513C581.838 173.035 583.463 165.671 585.126 158.421C586.653 154.655 588.152 150.874 589.623 147.077C587.935 153.859 586.266 160.726 584.617 167.676C583.187 171.964 581.732 176.244 580.251 180.516V180.513ZM574.946 206.163C575.948 201.207 576.958 196.278 577.975 191.376C579.011 188.51 580.034 185.633 581.043 182.745L580.871 183.477C579.836 187.855 578.795 192.252 577.748 196.666C576.827 199.845 575.894 203.011 574.946 206.166V206.163ZM556.59 280.552C555.697 285.418 554.784 290.268 553.851 295.102C552.916 298.673 551.957 302.216 550.974 305.733C551.755 300.59 552.523 295.443 553.277 290.29C554.409 287.074 555.513 283.829 556.59 280.555V280.552ZM562.034 249.803C560.91 256.287 559.774 262.78 558.625 269.282C557.272 273.68 555.877 278.028 554.439 282.325L555.965 271.796L557.427 261.684C559.007 257.773 560.543 253.813 562.034 249.803ZM567.482 218.424C566.133 226.048 564.795 233.733 563.47 241.479C561.821 246.109 560.121 250.686 558.369 255.212C559.567 247.038 560.784 238.946 562.019 230.935C563.898 226.817 565.719 222.647 567.482 218.424ZM573.744 184.796C572.01 193.499 570.348 202.392 568.729 211.408C566.857 216.049 564.925 220.627 562.933 225.141C564.455 215.635 566.046 206.306 567.75 197.224C569.806 193.142 571.803 189.003 573.744 184.805V184.796ZM582.412 146.33C579.768 156.519 577.357 167.174 575.088 178.163C573.066 182.675 570.986 187.132 568.85 191.534C571.144 179.811 573.654 168.547 576.481 157.878C578.503 154.074 580.48 150.225 582.412 146.33ZM593.079 111.861C589.874 120.532 587.012 129.439 584.506 138.544C582.528 142.664 580.505 146.744 578.437 150.784C582.563 136.404 587.35 123.283 593.079 111.861ZM608.321 83.2019L608.42 83.0407C607.894 84.4797 607.368 85.9334 606.855 87.3992L606.181 88.2024C606.883 86.5167 607.597 84.8517 608.321 83.2078V83.2019ZM588.584 129.89C591.774 119.489 595.297 109.748 599.253 100.821C599.595 100.278 599.936 99.7376 600.284 99.2062C598.259 104.839 596.335 110.676 594.513 116.718C592.576 121.135 590.599 125.527 588.584 129.896V129.89ZM577.932 171.67C580.356 160.451 582.953 149.62 585.819 139.332C587.731 135.352 589.606 131.339 591.444 127.292C588.735 137.043 586.212 147.196 583.808 157.636C581.894 162.361 579.936 167.039 577.932 171.67ZM571.428 204.566C573.025 195.872 574.667 187.304 576.397 178.936C578.248 174.799 580.057 170.619 581.824 166.398C580.058 174.359 578.332 182.44 576.646 190.642C574.953 195.333 573.216 199.978 571.434 204.578L571.428 204.566ZM566.364 233.127C567.583 226.079 568.812 219.082 570.052 212.136C571.626 208.237 573.161 204.302 574.656 200.329C573.819 204.421 572.983 208.532 572.147 212.662L570.644 220.098C569.253 224.479 567.828 228.826 566.37 233.138L566.364 233.127ZM562.182 257.308C563.041 252.344 563.899 247.384 564.758 242.429L564.801 242.169C565.9 239.072 566.978 235.956 568.036 232.819C567.056 237.584 566.06 242.345 565.048 247.104C564.115 250.529 563.161 253.935 562.188 257.32L562.182 257.308ZM559.797 270.844L559.964 269.909L560.158 269.282L559.797 270.844ZM548.793 319.687L549.209 317.081L549.746 315.289C549.437 316.766 549.121 318.236 548.799 319.699L548.793 319.687ZM1148.74 0.0119629H1152.24C1165.36 7.57385 1179.15 8.49335 1194.71 0.0119629H1198.33C1179.94 11.3922 1163.97 9.992 1148.74 0.0119629ZM1112.46 0.0119629H1114.67C1118.64 4.64301 1122.83 8.88635 1127.23 12.7117C1149.98 32.2657 1174.19 33.2031 1206.35 0.0119629H1208.62C1175.15 35.4094 1150.08 34.672 1126.48 14.3895C1121.78 10.3324 1117.13 5.49609 1112.48 0.0119629H1112.46ZM1082.92 0.0119629H1084.88C1093.74 12.7923 1102.42 23.6858 1111.34 31.7313C1138.36 56.1068 1167.71 54.3902 1210.98 0.0119629H1213.01C1168.48 56.5755 1138.36 58.4531 1110.58 33.3792C1101.25 24.9485 1092.18 13.473 1082.94 0.0119629H1082.92ZM1055.69 0.0119629H1057.56C1070.49 20.7692 1082.7 38.6065 1095.45 50.6674C1125.79 79.3865 1159.42 75.3564 1213.9 0.0119629H1215.83C1160.11 77.5596 1125.75 81.7152 1094.65 52.2915C1081.52 39.8546 1069 21.4229 1055.7 0.0119629H1055.69ZM1029.54 0.0119629H1031.37C1048.3 28.4176 1063.43 53.5604 1079.54 69.5291C1112.67 102.389 1150.12 96.3972 1216.36 0.0119629H1218.25C1150.75 98.6063 1112.58 104.717 1078.72 71.1261C1062.25 54.7783 1046.84 29.0386 1029.55 0.0119629H1029.54ZM1003.82 0.0119629H1005.66C1009.28 6.10809 1012.81 12.1295 1016.25 18.0135C1032.89 46.4491 1047.74 71.8187 1063.61 88.3068C1099.16 125.23 1140.14 117.614 1218.95 0.0119629H1220.83C1140.72 119.871 1099.04 127.564 1062.76 89.8712C1046.75 73.2368 1031.85 47.7775 1015.15 19.2465C1011.49 12.9713 1007.72 6.53198 1003.84 0.0119629H1003.82ZM978.096 0.0119629H979.959C987.947 13.0192 995.368 25.9218 1002.46 38.2543C1018.28 65.7822 1032.47 90.4592 1047.69 107.004C1085.35 147.963 1129.65 139.052 1221.96 0.0119629H1223.85C1130.19 141.36 1085.21 150.304 1046.81 108.554C1031.47 91.8713 1017.24 67.1077 1001.36 39.4843C994.056 26.7637 986.391 13.446 978.111 0.0119629H978.096ZM951.906 0.0119629H953.838C966.768 19.7153 978.081 39.7499 988.655 58.48C1003.68 85.0975 1017.21 109.076 1031.76 125.618C1071.31 170.619 1118.74 160.782 1225.63 0.0119629H1227.52C1119.25 163.117 1071.14 172.963 1030.86 127.137C1016.19 110.449 1002.62 86.3992 987.545 59.6952C976.763 40.58 965.198 20.1004 951.925 0.0119629H951.906ZM924.75 0.0119629H926.783C945.58 25.9189 960.849 53.4767 974.818 78.688C989.057 104.386 1001.94 127.648 1015.82 144.151C1057.05 193.206 1107.48 182.752 1230.06 0.0119629H1231.99C1107.95 185.167 1056.86 195.553 1014.9 145.644C1000.91 129.006 987.986 105.669 973.699 79.888C959.533 54.2826 943.997 26.2532 924.769 0.0119629H924.75ZM0.0385737 146.333V144.187C67.7865 102.496 139.62 52.2825 212.977 0.0119629H216.072C141.644 53.0677 68.7504 104.084 0.0385737 146.333ZM0.0385737 181.441V179.283C47.4679 149.325 96.9323 114.479 147.53 76.5864C181.459 50.7899 216.225 25.1726 251.431 0.00610352H254.527C218.503 25.7309 182.919 51.9301 148.215 78.3207C97.3724 116.39 47.6826 151.37 0.0385737 181.441ZM0.0385737 216.37V214.202C24.7457 198.109 49.9689 180.548 75.7079 161.52C96.2834 146.332 117.117 130.318 138.209 113.476C187.204 73.2936 238.731 35.6183 291.055 0.0328979H294.275C241.094 36.1229 188.702 74.3683 138.926 115.181C117.85 131.989 96.9989 148.01 76.3733 163.245C50.4454 182.377 25.0005 200.08 0.0385737 216.355V216.37ZM0.0385737 251.047V248.865C14.4229 239.159 28.9947 228.859 43.7541 217.967C71.574 197.43 99.9556 174.884 128.899 150.33C193.605 93.3459 264.101 44.5684 335.24 0.0239258H338.692C266.625 45.0282 195.153 94.3105 129.646 152C100.787 176.479 72.379 199.043 44.4218 219.689C29.4435 230.739 14.6491 241.187 0.0385737 251.033V251.047ZM0.0385737 285.445V283.245C6.76492 278.516 13.5399 273.64 20.3635 268.616C52.6178 244.808 85.791 217.62 119.572 187.212C201.312 110.21 294.569 52.572 386.536 0.0297241H390.271C297.338 53.0109 202.939 111.049 120.366 188.839H120.351C86.5445 219.289 53.3349 246.489 21.0226 270.339C13.9829 275.529 6.98818 280.56 0.0385737 285.43V285.445ZM0.0385737 319.505V317.281L1.57984 316.149C36.7494 290.195 73.1082 259.508 110.255 224.069C204.034 129.887 316.049 69.6542 423.153 12.0698C430.636 8.04547 438.093 4.03119 445.523 0.0268555H449.426C440.875 4.64417 432.288 9.26959 423.666 13.9029C316.65 71.4456 204.725 131.627 111.086 225.666H111.073C73.8854 261.144 37.4708 291.875 2.23476 317.878L0.0385737 319.505ZM0.0385737 353.171V350.923C32.7286 325.661 66.477 295.732 100.934 260.932C191.677 164.075 302.452 107.153 408.699 52.5542C442.458 35.2063 475.758 18.0943 507.797 0.0119629H511.543C478.484 18.7809 444.076 36.4633 409.186 54.3903C303.04 108.933 192.369 165.801 101.788 262.484L101.775 262.502C67.0373 297.589 33.0034 327.735 0.0385737 353.156V353.171ZM0.0385737 386.362V384.078C29.7726 359.795 60.3933 331.136 91.6407 297.786C180.188 197.616 290.679 143.443 396.857 91.3758C440.758 69.8574 483.919 48.6851 524.512 24.7694C536.798 17.4977 548.768 9.23535 560.362 0.0239258H563.197C550.89 9.9621 538.154 18.8354 525.061 26.5936C484.488 50.5063 441.275 71.6963 397.332 93.2446C291.261 145.252 180.879 199.374 92.5208 299.336L92.508 299.354C60.96 332.996 30.0495 361.894 0.0385737 386.347V386.362ZM0.0385737 418.992V416.681C26.8059 393.464 54.2988 366.229 82.3262 334.65C169.15 230.801 279.92 179.038 386.495 129.242C432.508 107.747 477.73 86.6053 519.911 61.8059C548.063 45.2192 572.018 23.5934 593.5 0.0090332H595.784C573.86 24.2681 549.372 46.5806 520.463 63.5971C478.254 88.4203 432.989 109.571 386.938 131.087C280.48 180.829 169.828 232.535 83.2214 336.133L83.2063 336.151C54.8805 368.106 27.0871 395.572 0.0385737 418.977V418.992ZM0.0385737 450.98V448.618C23.8241 426.601 48.1935 401.017 73.0115 371.513C158.397 263.768 269.792 214.22 377.061 166.514C424.846 145.262 471.818 124.373 515.309 98.8392C556.334 74.7234 587.438 38.2365 614.677 0.0239258H616.672C589.104 38.8784 557.612 76.1117 515.858 100.654C472.355 126.188 425.329 147.106 377.481 168.386C270.361 216.029 159.105 265.509 73.9369 372.987L73.9197 373.005C48.7989 402.871 24.1203 428.742 0.0385737 450.965V450.98ZM0.0385737 482.21V479.8C20.8316 459.172 42.0775 435.468 63.682 408.397C147.833 296.58 260.093 249.116 368.244 203.383C417.618 182.507 466.134 161.991 510.712 135.881C562.905 105.246 597.409 51.9572 628.165 0.0119629H629.996C598.957 52.5273 564.183 106.64 511.283 137.682C466.651 163.825 418.091 184.361 368.673 205.252C260.683 250.928 148.597 298.309 64.6845 409.806L64.6652 409.824C42.7086 437.307 21.1407 461.327 0.0385737 482.195V482.21ZM0.0385737 512.562V510.084C17.8348 491.07 35.9702 469.537 54.3847 445.239C137.441 329.276 250.699 283.8 359.861 239.975C410.657 219.582 460.567 199.538 506.116 172.912C564.601 138.667 598.854 72.5771 630.501 11.4997C632.494 7.64856 634.48 3.8233 636.458 0.0239258H638.203C636.025 4.20343 633.839 8.41272 631.645 12.6519C599.874 73.9442 565.513 140.27 506.664 174.73C461.065 201.383 411.101 221.448 360.258 241.865C251.266 285.621 138.183 331.025 55.3807 446.66L55.3635 446.681C36.612 471.4 18.1525 493.273 0.0385737 512.547V512.562ZM0.0385737 541.893V539.34C14.8194 522.27 29.8256 503.199 45.0572 482.126C127.119 361.906 241.509 318.353 351.787 276.363C403.909 256.523 455.113 237.025 501.516 209.951C560.604 175.423 592.871 104.974 622.764 39.7081C628.99 26.1367 635.093 12.7863 641.324 0.0268555H643.042C636.63 13.0997 630.346 26.8115 623.958 40.7621C593.951 106.282 561.559 177.002 502.063 211.769C455.585 238.885 404.332 258.403 352.161 278.265C242.073 320.179 127.879 363.646 46.0876 483.481L46.0727 483.502C30.509 505.104 15.1643 524.563 0.0385737 541.878V541.893ZM895.935 0.0119629C922.614 31.5374 942.286 67.7169 959.868 100.066C973.373 124.919 985.657 147.533 998.968 164.066C1042.43 218.101 1096.36 207.47 1237.42 0.0119629H1235.48C1095.92 205.037 1042.64 215.743 999.91 162.6C986.708 146.181 974.463 123.654 960.997 98.8751C943.643 66.9318 924.261 31.2836 898.146 0.0119629H895.935ZM864.297 0.0119629C900.791 35.4034 924.918 80.6495 946 120.217C958.745 144.139 970.391 165.989 983.027 182.408C1027.82 240.623 1084.46 230.099 1243.88 0.00292969H1241.92C1084.05 227.606 1028.06 238.234 983.99 180.963C971.464 164.69 959.851 142.897 947.138 119.038C926.295 79.93 902.499 35.2898 866.778 0.00292969L864.297 0.0119629ZM827.648 0.0119629C878.057 36.8423 907.222 92.6775 932.12 140.357C944.126 163.344 955.147 184.456 967.096 200.661C1013.07 263.055 1072.28 253.048 1251.5 0H1249.51C1071.9 250.507 1013.34 260.675 968.085 199.251C956.218 183.131 945.232 162.108 933.264 139.189C908.656 92.0594 879.89 37.0035 830.69 0L827.648 0.0119629ZM780.294 0.0119629C853.132 33.239 888.703 102.762 918.222 160.475C929.501 182.528 939.904 202.867 951.183 218.856C997.365 284.316 1057.68 276.581 1249.93 14.288C1253.49 9.43585 1257.01 4.67706 1260.51 0.0119629H1258.48C1255.32 4.24518 1252.15 8.50537 1248.94 12.8819C1057.55 274.008 997.747 282.056 952.194 217.483C940.998 201.61 930.623 181.331 919.375 159.338C890.263 102.41 855.287 34.0779 784.744 0.0119629H780.294ZM1887.24 0.0119629C1902 5.44849 1916.97 9.67792 1932.08 12.6787V10.6756C1918.92 8.05725 1905.88 4.49805 1892.99 0.0119629H1887.24ZM1816.11 0.0119629C1852.33 21.2289 1890.29 39.2306 1932.08 48.0255V46.0252C1891.7 37.496 1854.89 20.3512 1819.77 0.0119629H1816.11ZM1761.34 0.0119629C1814.71 34.7704 1869.27 69.2722 1932.08 83.3034V81.3002C1870.59 67.5079 1817.01 34.0391 1764.67 0L1761.34 0.0119629ZM0.0385737 729C76.2467 616.574 186.285 590.859 292.822 565.979C353.754 551.751 413.539 537.788 465.26 508.048C512.146 481.087 531.988 415.203 545.008 342.193C548.806 327.156 552.131 311.564 555.194 295.75C559.288 280.101 562.944 263.974 566.392 247.758C570.93 231.186 575.06 214.25 579.057 197.398C583.136 183.334 587 169.141 590.83 155.11C591.982 150.881 593.127 146.669 594.264 142.473C595.973 137.054 597.665 131.652 599.339 126.269C603.892 111.673 608.388 97.2719 613.037 83.4168C627.457 69.3856 645.976 62.576 670.331 65.7047C787.627 80.7867 829.041 169.296 862.472 240.76C871.042 259.078 879.092 276.286 887.773 290.89C931.497 364.446 990.645 371.495 1209.18 120.295C1252.77 70.1768 1292.87 30.6954 1330.09 0.0119629H1327.3C1290.59 30.5074 1251.13 69.5289 1208.28 118.781C990.699 368.909 932.032 362.252 888.872 289.639C880.251 275.133 872.218 257.97 863.667 239.691C830.067 167.872 788.447 78.912 670.464 63.7464C646.828 60.7073 628.623 66.8451 614.289 79.7209C615.424 76.3932 616.569 73.0995 617.724 69.8395C633.309 51.0557 653.902 41.2906 682.258 44.9357C799.468 60.0058 842.121 149.077 876.426 220.722C885.657 239.978 894.269 257.983 903.575 272.984C947.967 344.552 1007.56 347.871 1219.36 93.7938C1249.79 57.2739 1278.45 26.2682 1305.6 0.0119629H1303.12C1276.42 25.9637 1248.28 56.4979 1218.43 92.3073C1007.56 345.271 948.458 342.34 904.642 271.7C895.385 256.774 886.79 238.826 877.593 219.63C843.122 147.641 800.258 58.1219 682.376 42.9772C655.096 39.4694 634.906 48.1121 619.422 65.1376C620.329 62.6896 621.241 60.2565 622.159 57.8384C638.888 33.4331 661.495 19.9661 694.174 24.1665C811.288 39.2246 855.177 128.836 890.355 200.655C900.23 220.839 909.444 239.632 919.398 255.006C964.428 324.565 1024.36 324.162 1229.53 67.293C1249.34 42.4866 1268.4 20.0596 1286.72 0.0119629H1284.45C1266.51 19.7631 1247.92 41.6188 1228.59 65.83C1024.32 321.573 964.883 322.332 920.448 253.693C910.558 238.414 901.383 219.681 891.523 199.553C856.18 127.391 812.078 37.3499 694.305 22.2231C663.212 18.2227 641.133 29.9044 624.537 51.6437L625.396 49.4435L625.864 48.2852C643.849 16.9718 668.459 -1.42706 706.104 3.40924C823.112 18.4524 868.238 108.592 904.283 180.59C914.858 201.706 924.654 221.268 935.269 236.98C980.893 304.497 1041.07 300.41 1239.72 40.7979C1250.73 26.4065 1261.49 12.8152 1272 0.0239258H1269.87C1259.71 12.44 1249.36 25.5069 1238.74 39.3679C1040.97 297.825 981.301 302.249 936.286 235.634C925.75 220.045 915.981 200.523 905.434 179.465C869.221 107.136 823.885 16.5778 706.219 1.45099C672.009 -2.94348 648.439 11.4728 630.819 37.2126C638.658 22.1664 647.629 9.44867 658.316 0.0239258H655.643C649.179 6.07227 643.347 13.3296 638.016 21.5811C641.917 13.9584 646.222 6.75256 650.897 0.0239258H648.868C646.909 2.89386 645.006 5.87921 643.16 8.97998C644.71 5.91901 646.291 2.93365 647.904 0.0239258H646.088C644.986 2.03802 643.901 4.08691 642.834 6.17072C643.825 4.09888 644.827 2.04999 645.839 0.0239258H644.111C635.078 18.3391 626.71 38.535 618.25 59.4325C617.339 61.3372 616.447 63.2786 615.573 65.2568C612.553 70.5325 609.766 76.0588 607.228 81.8049C603.909 87.3527 600.881 93.226 598.169 99.3794C588.447 114.903 581.099 134.639 575.159 157.059C555.254 194.43 530.853 227.216 496.911 246.996C449.718 274.48 397.304 293.377 343.948 312.615C232.491 352.8 116.895 394.473 35.7555 518.98C23.7081 536.572 11.8012 552.718 0.0343809 567.418V570.06C12.1289 554.972 24.3764 538.398 36.7773 520.339V520.321C117.633 396.234 233.027 354.633 344.291 314.516C397.705 295.261 450.175 276.346 497.448 248.812C530.144 229.744 554.029 198.792 573.551 163.296C570.927 173.849 568.588 184.943 566.428 196.434C547.9 233.315 524.782 265.136 492.3 284.039C444.373 311.898 390.817 330.153 336.282 348.746C223.58 387.165 106.696 427.007 26.4217 555.87C17.5486 569.496 8.74714 582.245 0.0171904 594.119V596.871C9.08059 584.566 18.2326 571.33 27.4735 557.166L27.4865 557.148C107.464 428.757 224.125 388.986 336.612 350.642C391.212 332.031 444.834 313.749 492.839 285.86C524.396 267.497 547.151 237.124 565.436 201.783C563.758 211.038 562.184 220.531 560.675 230.18C542.995 268.927 520.411 302.076 487.687 321.078C439.09 349.275 384.43 366.861 328.76 384.777C214.77 421.455 96.548 459.491 17.0984 592.734C11.3667 601.976 5.67018 610.81 0.00859522 619.235V622.109C6.01938 613.191 12.0752 603.823 18.1762 594.005L18.1868 593.99C97.336 461.255 215.308 423.3 329.075 386.693C384.804 368.76 439.526 351.153 488.232 322.89C520.04 304.417 542.329 272.775 559.823 235.643C558.535 244.002 557.296 252.46 556.06 260.98C539.101 302.876 516.811 338.563 483.091 358.114C433.843 386.63 378.117 403.525 321.362 420.732C206.045 455.688 86.4649 491.945 7.7967 629.585C5.19203 633.993 2.59609 638.307 0.00859522 642.526V645.55C2.95817 640.762 5.91851 635.856 8.88955 630.833C87.2444 493.73 206.578 457.551 321.665 422.664C378.484 405.438 434.27 388.523 483.63 359.938C516.339 340.981 538.349 307.098 555.173 267.112L554.548 271.446C553.672 277.503 552.791 283.573 551.906 289.657C535.691 335.649 513.694 374.793 478.488 395.157C428.622 423.98 371.868 440.161 314.05 456.655C198.128 489.697 77.9577 523.978 0 663.758V666.958C77.6013 526.073 198.115 491.718 314.334 458.581C372.218 442.08 429.039 425.882 479.023 396.99C512.941 377.367 534.691 340.608 550.796 297.115C549.831 303.587 548.842 310.05 547.829 316.504C532.486 367.411 510.873 410.842 473.883 432.208C423.436 461.324 365.668 476.773 306.822 492.512C194.191 522.584 77.5347 553.795 0.0385737 683.957V687.071C77.217 555.882 194.18 524.584 307.129 494.381C366.048 478.624 423.88 463.157 474.459 433.972C509.581 413.693 530.943 373.883 546.213 326.696C545.393 331.672 544.544 336.623 543.669 341.549C529.369 398.13 508.36 446.696 469.322 469.187C418.292 498.584 359.552 513.284 299.7 528.262C190.233 555.655 77.0431 584.001 0.0385737 704.756V707.72C76.7598 586.055 190.237 557.653 299.949 530.196C359.883 515.201 418.7 500.477 469.861 471.009C505.195 450.651 525.89 409.352 540.163 360.112C527.139 425.112 507.067 481.872 464.723 506.224C413.138 535.889 353.434 549.831 292.59 564.041C186.283 588.864 76.4957 614.521 0.0385737 726.125V729Z" fill="url(#paint0_linear_15_2212)" fill-opacity="0.15"/>
<defs>
<linearGradient id="paint0_linear_15_2212" x1="659.623" y1="-272.409" x2="659.623" y2="649.789" gradientUnits="userSpaceOnUse">
<stop stop-color="#636869" stop-opacity="0"/>
<stop offset="1" stop-color="#93F2FF"/>
</linearGradient>
</defs>
</svg>
