<svg width="505" height="529" viewBox="0 0 505 529" fill="none" xmlns="http://www.w3.org/2000/svg">
<path d="M107.565 491.647C87.2474 478.939 69.3198 463.92 54.9776 446.59C74.1005 440.814 92.0282 432.727 107.565 423.484C128.481 410.776 146.409 395.179 160.751 377.272C170.312 383.048 181.069 387.67 193.618 391.136C209.753 395.179 228.876 397.49 251.584 397.49C374.09 397.49 395.006 331.06 395.006 232.859L395.006 -8.02233L108.163 -8.02232L108.163 164.118C108.163 244.412 92.0282 303.332 20.9151 322.395C15.5368 324.128 8.96335 325.283 2.98746 326.438C0.597106 311.997 -0.000483094 296.978 -0.000483273 281.959L-0.000488281 -137.994L504.364 -137.994L504.364 281.959C504.364 413.086 423.69 528.039 252.182 528.039C193.021 528.039 145.214 514.176 107.565 491.647Z" fill="white" fill-opacity="0.01"/>
</svg>
